<svg width="232" height="165" xmlns="http://www.w3.org/2000/svg">
    <g fill="none" fill-rule="evenodd">
        <path d="M228.27 134.492c-4.883 10.965-14.005 19.527-25.32 23.766-7.366 2.737-15.33 3.448-23.18 4.041a782.94 782.94 0 0 1-90.232 1.564c-23.63-.953-40.24-9.577-61.311-18.972a66.034 66.034 0 0 1-8.462-4.265c-11.85-7.493-17.494-21.777-18.59-35.779a66.538 66.538 0 0 1-.165-3.165c-.106-4.228.133-8.601 1.68-12.574 5.76-14.836 27.217-19.757 31.342-35.117 2.132-7.954-1.16-16.71 1.487-24.505 2.463-7.243 9.447-11.936 16.297-15.438 28.626-14.65 63.13-17.582 93.864-8 19.93 6.207 39.914 19.89 43.49 40.28 2.045 11.658-1.472 24.45 3.955 34.99 5.866 11.402 20.427 16.652 29.703 25.062 3.79 3.43 6.694 7.388 7.758 12.5 1.09 5.237-.152 10.71-2.316 15.612z" fill="#D6D6D6" opacity=".1"/>
        <g transform="translate(64.988 37)" fill-rule="nonzero">
            <path d="M25.026 23.084c-1.736-5.192-7.1-8.078-10.628-6.897-3.529 1.18-6.076 6.712-4.34 11.904 1.608 4.806 6.48 7.58 9.83 7.085a.38.38 0 0 0-.046.136l-.103.855a.385.385 0 0 0 .512.408l1.727-.62a.385.385 0 0 0 .136-.64l-.622-.595a.381.381 0 0 0-.073-.052c2.989-1.61 5.218-6.768 3.607-11.584z" fill="#F2F2F2"/>
            <path d="M18.739 19.264a6.333 6.333 0 0 1 2.866 8.238c-.15.34.4.52.548.181a6.925 6.925 0 0 0-3.094-8.9c-.326-.172-.648.307-.32.48z" fill="#FFF"/>
            <path d="M95.344 15.516c-1.737-5.192-7.1-8.078-10.629-6.897-3.528 1.18-6.076 6.712-4.339 11.904 1.608 4.806 6.48 7.58 9.83 7.085a.38.38 0 0 0-.046.136l-.103.855a.385.385 0 0 0 .512.408l1.727-.619a.385.385 0 0 0 .136-.64l-.623-.595a.381.381 0 0 0-.072-.053c2.989-1.61 5.218-6.768 3.607-11.584z" fill="#F2F2F2"/>
            <path d="M89.057 11.696a6.333 6.333 0 0 1 2.866 8.238c-.15.34.4.52.548.181a6.925 6.925 0 0 0-3.094-8.9c-.326-.172-.649.307-.32.481z" fill="#FFF"/>
            <path d="M54.51 7.16C52.772 1.968 47.41-.918 43.88.263c-3.528 1.18-6.075 6.712-4.339 11.904 1.608 4.806 6.48 7.58 9.83 7.085a.38.38 0 0 0-.046.136l-.103.855a.385.385 0 0 0 .513.408l1.726-.62a.385.385 0 0 0 .136-.64l-.622-.595a.381.381 0 0 0-.073-.052c2.989-1.61 5.219-6.768 3.607-11.584z" fill="#F2F2F2"/>
            <path d="M48.222 3.34a6.333 6.333 0 0 1 2.866 8.238c-.15.34.4.52.548.181a6.925 6.925 0 0 0-3.094-8.9c-.326-.172-.648.307-.32.48z" fill="#FFF"/>
            <circle fill="#CCC" cx="45.798" cy="31.728" r="1"/>
            <circle fill="#CCC" cx="44.917" cy="47.923" r="1"/>
            <circle fill="#CCC" cx="31.232" cy="45.12" r="1"/>
            <circle fill="#CCC" cx="38.408" cy="37.347" r="1"/>
            <circle fill="#CCC" cx="63.578" cy="67.393" r="1"/>
            <circle fill="#CCC" cx="50.027" cy="58.481" r="1"/>
            <circle fill="#CCC" cx="59.335" cy="48.066" r="1"/>
            <circle fill="#CCC" cx="62.441" cy="58.178" r="1"/>
            <ellipse fill="#2F2E41" transform="rotate(-39.938 87.813 82.431)" cx="87.813" cy="82.431" rx="1.066" ry="3.395"/>
            <circle fill="#2F2E41" cx="80.591" cy="81.252" r="6.79"/>
            <path fill="#2F2E41" d="M81.402 86.581h2.063v3.696h-2.063zM77.276 86.581h2.063v3.696h-2.063z"/>
            <ellipse fill="#2F2E41" cx="81.746" cy="90.32" rx="1.719" ry="1"/>
            <ellipse fill="#2F2E41" cx="77.62" cy="90.234" rx="1.719" ry="1"/>
            <path d="M78.459 72.717c.606-2.442 3.282-3.879 5.977-3.21 2.696.67 4.389 3.192 3.783 5.633-.607 2.442-2.618 2.45-5.313 1.78-2.696-.668-5.054-1.761-4.447-4.203z" fill="#E6E6E6"/>
            <ellipse fill="#2F2E41" transform="rotate(-64.626 72.943 78.102)" cx="72.943" cy="78.102" rx="1.066" ry="3.395"/>
            <circle fill="#FFF" cx="79.576" cy="79.82" r="2.264"/>
            <circle fill="#3F3D56" cx="78.645" cy="79.008" r="1"/>
            <path d="M80.996 84.536a1.51 1.51 0 0 1-2.97.54v-.002c-.149-.82.485-1.11 1.305-1.26.82-.148 1.516-.098 1.665.722z" fill="#FFF"/>
            <ellipse fill="#2F2E41" transform="rotate(-69.082 23.77 76.125)" cx="23.77" cy="76.125" rx="3.395" ry="1.066"/>
            <circle fill="#2F2E41" cx="17.494" cy="81.252" r="6.79"/>
            <path fill="#2F2E41" d="M14.4 86.581h2.063v3.696H14.4zM18.526 86.581h2.063v3.696h-2.063z"/>
            <ellipse fill="#2F2E41" cx="16.119" cy="90.32" rx="1.719" ry="1"/>
            <ellipse fill="#2F2E41" cx="20.245" cy="90.234" rx="1.719" ry="1"/>
            <circle fill="#FFF" cx="17.666" cy="79.533" r="2.321"/>
            <circle fill="#3F3D56" cx="17.666" cy="79.533" r="1"/>
            <path d="M10.908 74.938c-.549-2.456 1.204-4.937 3.914-5.542 2.71-.605 5.352.895 5.9 3.35.548 2.456-1.248 3.361-3.958 3.966-2.71.606-5.308.681-5.856-1.774z" fill="#E6E6E6"/>
            <ellipse fill="#2F2E41" transform="rotate(-64.626 9.846 78.102)" cx="9.846" cy="78.102" rx="1.066" ry="3.395"/>
            <path d="M14.159 83.702c0 .665 1.711 1.977 3.61 1.977 1.899 0 3.679-1.871 3.679-2.536 0-.664-1.78.13-3.68.13-1.898 0-3.61-.236-3.61.429z" fill="#FFF"/>
            <circle fill="#2F2E41" cx="49.929" cy="74.788" r="6.79"/>
            <path fill="#2F2E41" d="M46.834 80.117h2.063v3.696h-2.063zM50.96 80.117h2.063v3.696H50.96z"/>
            <ellipse fill="#2F2E41" cx="48.553" cy="83.856" rx="1.719" ry="1"/>
            <ellipse fill="#2F2E41" cx="52.679" cy="83.77" rx="1.719" ry="1"/>
            <path d="M43.342 68.473c-.548-2.455 1.204-4.936 3.915-5.541 2.71-.605 5.351.895 5.9 3.35.548 2.455-1.248 3.361-3.959 3.966-2.71.605-5.308.68-5.856-1.775z" fill="#FF9242"/>
            <ellipse fill="#2F2E41" transform="rotate(-45.022 56.41 70.985)" cx="56.409" cy="70.985" rx="3.767" ry="1.183"/>
            <ellipse fill="#2F2E41" transform="rotate(-44.978 41.793 71.458)" cx="41.793" cy="71.458" rx="1.183" ry="3.767"/>
            <path d="M91.21 31.694c-.226-6.963-4.995-12.458-10.652-12.275-12.59.373-12.897 23.46-.742 25.119l-.257 2.046 3.754-.122-.39-2.025c4.89-1.08 8.49-6.431 8.286-12.743z" fill="#FFB58E"/>
            <path d="m74.298 35.554-1.418.046a23.097 23.097 0 0 1-.26-8.037l1.418-.046c-.524 2.799-.438 5.478.26 8.037z" fill="#FFF"/>
            <path fill="#3F3D56" d="m79.242 44.543 4.255-.138.03.946-4.254.138z"/>
            <path fill="#3F3D56" d="m71.139 80.61-.428-.201 10.533-35.723.429.201z"/>
            <path d="M99.928 37.581c2.572-6.473.394-13.416-4.866-15.506-11.692-4.683-21.19 16.362-10.707 22.735l-1.053 1.773 3.49 1.387.452-2.012c4.915.961 10.352-2.508 12.684-8.377z" fill="#FF9242"/>
            <path d="m82.881 34.37-1.319-.524a23.097 23.097 0 0 1 2.97-7.473l1.318.524c-1.597 2.357-2.587 4.848-2.969 7.473z" fill="#FFF"/>
            <path fill="#3F3D56" d="m83.477 45.465.35-.88 3.955 1.573-.349.879z"/>
            <path fill="#3F3D56" d="m71.056 79.669-.411-.234L85.35 45.873l.411.234z"/>
            <path d="M19.99 32.144c-2.783-6.386-9.245-9.73-14.434-7.468-11.56 5-3.31 26.566 8.597 23.613l.517 1.996 3.443-1.5-1.11-1.738c4.144-2.812 5.51-9.114 2.987-14.903z" fill="#FF9242"/>
            <path d="m5.704 41.982-1.3.567a23.097 23.097 0 0 1-3.214-7.371l1.301-.567c.548 2.794 1.619 5.25 3.213 7.371z" fill="#FFF"/>
            <path fill="#3F3D56" d="m13.621 48.507 3.903-1.701.378.867-3.903 1.7z"/>
            <path d="M26.552 80.7a.236.236 0 0 1-.286-.172l-10.28-32.576.458-.114 10.28 32.576a.236.236 0 0 1-.172.286z" fill="#3F3D56"/>
            <path d="M29.3 91H4.547a.158.158 0 1 1 0-.315H29.3a.158.158 0 0 1 0 .315zM92.208 91H67.455a.158.158 0 1 1 0-.315h24.753a.158.158 0 0 1 0 .315zM62.725 84.536H37.97a.158.158 0 0 1 0-.316h24.754a.158.158 0 1 1 0 .316z" fill="#CCC"/>
            <circle fill="#FFF" cx="49.643" cy="73.826" r="2.321"/>
            <circle fill="#3F3D56" cx="49.643" cy="73.826" r="1"/>
            <path d="M51.485 78.118a1.51 1.51 0 1 1-2.97.54v-.002c-.149-.82.486-1.11 1.306-1.26.82-.148 1.516-.098 1.664.722z" fill="#FFF"/>
        </g>
    </g>
</svg>
