<?xml version="1.0" encoding="UTF-8"?>
<svg width="65px" height="66px" viewBox="0 0 65 66" version="1.1" xmlns="http://www.w3.org/2000/svg" xmlns:xlink="http://www.w3.org/1999/xlink">
    <title>BBE1490F-96FD-4C59-9573-7F5FE6EB763C</title>
    <g id="Page-1" stroke="none" stroke-width="1" fill="none" fill-rule="evenodd">
        <g id="09_Shop_order-summary_confirmation" transform="translate(-176.000000, -175.000000)">
            <g id="Group" transform="translate(51.000000, 175.500000)">
                <g id="Grenncheck" transform="translate(125.000000, 0.000000)">
                    <circle id="Oval" fill="#2EBD93" cx="32.5" cy="32.5" r="32.5"></circle>
                    <path d="M46.8156823,22.0251263 C48.1825174,23.3919613 48.1825174,25.6080387 46.8156823,26.9748737 L30.198673,43.5918831 C29.0820859,44.7084701 27.304301,44.7608753 26.1256495,43.7490985 C26.0615913,43.7023988 25.9983623,43.6527091 25.9366498,43.6000826 C25.883116,43.5544307 25.8312046,43.5069097 25.7810121,43.4576078 L19.0877131,36.8830705 C17.6744858,35.4949186 17.6330567,33.2307543 18.994555,31.7918313 C20.2808298,30.4324094 22.3949304,30.326679 23.8083512,31.5168995 L24.0005899,31.6911298 L24.0005899,31.6911298 L28.151,35.739 L41.8659349,22.0251263 C43.2327699,20.6582912 45.4488473,20.6582912 46.8156823,22.0251263 Z" id="Tick" fill="#FFFFFF"></path>
                </g>
            </g>
        </g>
    </g>
</svg>