<svg xmlns="http://www.w3.org/2000/svg" width="20" height="21" viewBox="0 0 20 21">
    <g fill="none" fill-rule="evenodd">
        <g>
            <g>
                <g>
                    <g>
                        <g>
                            <g transform="translate(-258.000000, -214.000000) translate(12.000000, 84.000000) translate(171.000000, 32.000000) translate(1.000000, 94.000000) translate(74.000000, 0.000000) translate(0.000000, 4.000000)">
                                <circle cx="10" cy="10" r="9.167" fill="#E87722"/>
                                <g>
                                    <path d="M0 0H20V20H0z"/>
                                    <path fill="#FFF" fill-rule="nonzero" d="M16.137 9.99v.011c0 .212-.01.422-.032.628l-.011.105-.025.183c-.009.06-.018.118-.029.177l-.024.124c-.01.051-.02.102-.032.153l-.045.18-.015.059c-.285 1.048-.84 1.985-1.584 2.73-1.071 1.072-2.537 1.748-4.16 1.796v-1.62c1.176-.047 2.236-.542 3.014-1.32.446-.446.8-.985 1.028-1.586h-1.348c.267-.476.419-1.024.419-1.609v-.01h2.844zM10 3.864c1.694 0 3.229.688 4.34 1.798.712.713 1.25 1.601 1.545 2.594h-1.717c-.23-.546-.562-1.037-.974-1.449-.817-.817-1.946-1.323-3.194-1.323s-2.377.506-3.194 1.323c-.817.818-1.323 1.946-1.323 3.194s.506 2.377 1.323 3.195c.236.236.499.446.783.626v-3.82C7.589 8.67 8.669 7.59 10 7.59c1.332 0 2.411 1.08 2.411 2.411 0 1.333-1.08 2.412-2.411 2.412-.346 0-.675-.073-.973-.205l.001 3.854-.277-.051.277.05c-.15-.023-.3-.053-.447-.088l-.122-.03-.112-.03-.18-.053-.085-.028c-.063-.02-.125-.042-.186-.064l-.093-.035c-.06-.023-.12-.047-.178-.072l-.036-.015c-.726-.31-1.379-.756-1.929-1.305C4.55 13.23 3.863 11.696 3.863 10c0-1.694.687-3.229 1.797-4.339C6.771 4.552 8.306 3.864 10 3.864zm0 5.165c-.537 0-.972.436-.972.972 0 .537.435.972.972.972.537 0 .972-.435.972-.972 0-.536-.435-.972-.972-.972z"/>
                                </g>
                            </g>
                        </g>
                    </g>
                </g>
            </g>
        </g>
    </g>
</svg>
