<?xml version="1.0" encoding="UTF-8"?>
<svg width="91px" height="90px" viewBox="0 0 91 90" version="1.1" xmlns="http://www.w3.org/2000/svg" xmlns:xlink="http://www.w3.org/1999/xlink">
    <title>Group 2</title>
    <g id="Symbols" stroke="none" stroke-width="1" fill="none" fill-rule="evenodd">
        <g id="Circle/earn" transform="translate(-10.000000, -10.000000)">
            <g id="Group-2" transform="translate(10.833333, 10.000000)">
                <rect id="Rectangle" x="0" y="0" width="90" height="90"></rect>
                <g id="img1" transform="translate(1.500000, 20.500000)" fill-rule="nonzero">
                    <path d="M36.169766,42.930947 C35.7468074,46.2447598 34.1915578,49.2766091 32.5324001,52.1971571 C32.4775464,52.2965863 32.4210988,52.3945315 32.363274,52.4939607 L15.1189536,52.4939607 C14.7701944,52.4034356 14.4259274,52.3040064 14.0831088,52.1971571 C12.1354151,51.6041605 10.2966468,50.6995592 8.6382547,49.5185041 C2.29407662,44.9477278 -0.147161626,36.3107415 0.955492141,28.5715863 C1.64112639,23.7633671 3.75136029,18.8542347 7.86059796,16.2646228 C10.0302505,14.894874 12.8172041,14.4496685 15.3148217,14.9586868 C15.3801823,14.9705589 15.4454702,14.9853991 15.512208,14.9987552 C17.6610665,15.4825452 19.5754322,16.6846 20.6647506,18.6212438 C22.6236117,22.1012667 21.4571941,26.4123397 20.4941033,30.2856274 C19.5339123,34.1589151 19.0129834,38.7949881 21.8000097,41.6517233 C20.8798902,38.9433899 21.7881272,35.7126822 23.9859686,33.8814036 C25.6465762,32.4997826 27.9586855,31.9818603 30.0674755,32.4107415 C30.2692812,32.4537781 30.4681886,32.5027507 30.6640508,32.5621114 C31.1374818,32.7007567 31.5939279,32.8918983 32.0248837,33.1319744 C35.3119634,34.9677095 36.6431589,39.195676 36.169766,42.930947 Z" id="Path" fill="#ECECEC"></path>
                    <path d="M25.944898,52.1971586 C26.4227118,52.3084599 26.9020467,52.4064051 27.3843526,52.4939622 L24.7769548,52.4939622 C24.4355876,52.4019531 24.0957415,52.3040079 23.7589391,52.1971586 C23.0183803,51.9656517 22.2892213,51.7000124 21.571462,51.4002407 C18.6924799,50.1922499 16.0405259,48.3787796 14.0341332,45.9657659 C13.0528757,44.7966863 12.2515844,43.4877104 11.656736,42.0820901 C11.0117063,40.4933829 10.6017768,38.8191115 10.439884,37.1121129 C10.0762699,33.6098298 10.4472744,30.0110855 11.1403006,26.5711312 C11.8554968,23.0058012 13.009972,19.5428965 14.5773092,16.2616563 C14.7657795,15.8683974 14.9606776,15.4776059 15.1620034,15.0892818 C15.1900661,15.0245029 15.2464642,14.9763083 15.3148262,14.9586882 C15.3833314,14.9454094 15.4543073,14.9598172 15.5122125,14.9987567 C15.6565437,15.0815627 15.7106976,15.2629282 15.6353978,15.4113138 C14.0193913,18.5627499 12.7944091,21.8997936 11.9876691,25.3483001 C11.1981966,28.7125695 10.7500201,32.2326608 10.9028428,35.6919074 C11.0482766,38.9240992 11.8927439,42.1028663 13.8085625,44.7458939 C15.55822,47.1589076 17.974175,49.0614191 20.6469305,50.356967 C22.3386269,51.1663629 24.1157074,51.7836125 25.944898,52.1971586 L25.944898,52.1971586 Z" id="Path" fill="#FFFFFF"></path>
                    <path d="M31.6672724,52.4939622 L30.8985242,52.4939622 C30.8124408,52.396017 30.7293268,52.2965878 30.647734,52.1971586 C28.8967408,50.0696772 27.710536,47.5349808 27.1988415,44.8275239 C26.5774138,41.4487653 27.0608353,37.9597009 28.5774944,34.8771814 C29.0006342,34.0128118 29.4992191,33.187465 30.0674488,32.410743 C30.2692545,32.4537796 30.4681619,32.5027522 30.6640241,32.5621129 C29.1694026,34.542369 28.1640959,36.8479129 27.73012,39.2906517 C26.9460722,43.9263014 28.2950236,48.6682838 31.4016331,52.1971586 C31.4876453,52.2965848 31.5767013,52.39602 31.6672724,52.4939622 Z" id="Path" fill="#FFFFFF"></path>
                    <path d="M75.785074,52.0718767 C75.8967004,52.9464532 76.3071591,53.7466136 76.7450409,54.5173993 C76.7595175,54.5436397 76.7744156,54.5694883 76.7896772,54.5957302 L81.340768,54.5957302 C81.4328127,54.5718375 81.5236703,54.5455971 81.6141464,54.5173993 C82.1281785,54.3608962 82.6134633,54.1221552 83.0511436,53.8104531 C84.7254872,52.6041421 85.3697737,50.3246841 85.0787577,48.2821778 C84.8978069,47.0132027 84.3408771,45.717591 83.2563744,45.0341456 C82.6674626,44.6754698 81.9648399,44.5523745 81.2890692,44.6894854 C81.271819,44.6926196 81.2545881,44.6965344 81.2369802,44.7000605 C80.6680204,44.8100473 80.1731849,45.1579404 79.8771297,45.6561007 C79.3601497,46.5745432 79.6679885,47.7123133 79.9221667,48.7345481 C80.1755792,49.7567815 80.3130571,50.9803249 79.5775139,51.7342699 C79.7970117,51.0922748 79.6528375,50.3817933 79.2004536,49.8761395 C78.7480697,49.3704857 78.0579516,49.1484338 77.3955796,49.2954047 C77.3423197,49.3067648 77.289824,49.3196876 77.2381253,49.3353559 C77.1131783,49.3719475 76.9927138,49.4223934 76.8789765,49.4857537 C76.011464,49.9702323 75.660136,51.0860701 75.785074,52.0718767 Z" id="Path" fill="#F2F2F2"></path>
                    <path d="M82.3798306,54.0629679 C82.2537276,54.0923426 82.1272225,54.1181897 81.9999323,54.1412989 L82.6880716,54.1412989 C82.7781648,54.1170174 82.8678559,54.0911658 82.9567442,54.0629679 C83.1521924,54.0018679 83.3446309,53.9317609 83.5340599,53.8526469 C84.302398,53.5407035 84.9846011,53.0488298 85.5233003,52.4183893 C85.7822734,52.1098479 85.9937502,51.7643854 86.1507433,51.3934164 C86.3209758,50.9741264 86.429161,50.5322547 86.4718848,50.0817461 C86.5499797,49.1504035 86.4876664,48.2126126 86.2870325,47.2997906 C86.0982796,46.3588339 85.7935923,45.4449092 85.3799427,44.5789292 C85.3302014,44.4751409 85.2787643,44.3720046 85.2256315,44.2695203 C85.2182256,44.2524237 85.203341,44.2397041 85.1852989,44.235054 C85.1672206,44.2315507 85.1484907,44.2353532 85.1332098,44.2456291 C85.0951184,44.267483 85.0808258,44.3153482 85.1006979,44.35451 C85.5271926,45.186233 85.8504881,46.0669415 86.0634014,46.9770671 C86.2826826,47.8697433 86.3790081,48.7881878 86.3497071,49.706935 C86.3340427,50.5614252 86.0673467,51.392427 85.5828332,52.0964478 C85.1116524,52.730475 84.4918918,53.2390062 83.7780637,53.5773126 C83.3315931,53.7909256 82.8625882,53.9538275 82.3798306,54.0629679 L82.3798306,54.0629679 Z" id="Path" fill="#FFFFFF"></path>
                    <path d="M80.8695897,54.1412989 L81.0724758,54.1412989 C81.0951946,54.1154502 81.1171299,54.0892098 81.138663,54.0629679 C81.6007816,53.5014865 81.9138426,52.832534 82.0488886,52.1179869 C82.2128943,51.2262701 82.08531,50.3054418 81.6850355,49.4919082 C81.5733604,49.263785 81.4417743,49.0459605 81.2918078,48.8409688 C81.2385478,48.852329 81.1860522,48.8652518 81.1343534,48.8809201 C81.5288126,49.4035455 81.7941318,50.0120212 81.9086652,50.6567053 C82.1155911,51.8801385 81.75958,53.1316356 80.9396903,54.0629724 C80.9169982,54.0892083 80.8934943,54.1154502 80.8695897,54.1412989 Z" id="Path" fill="#FFFFFF"></path>
                    <path d="M38.6601257,31.5366095 L24.41637,31.5366095 L24.2653652,27.1571677 C24.2521427,26.7729649 24.4077347,26.4022214 24.6911859,26.1425254 C24.9746371,25.8828294 25.357549,25.7601994 25.7391304,25.8069144 L34.0280387,26.8218879 L34.0290538,26.8218879 C36.5875534,26.828781 38.6584498,28.9039046 38.6601257,31.462413 L38.6601257,31.5366095 Z" id="Path" fill="#E87722"></path>
                    <path d="M32.3116514,16.002025 L22.37732,16.002025 C22.1104883,16.002025 21.8545649,16.10792 21.6658864,16.2965985 C21.4772079,16.485277 21.3713129,16.7412004 21.3713129,17.0080321 L21.3713129,26.9423635 C21.3713129,27.2091952 21.4772079,27.4651189 21.6658863,27.6537976 C21.8545647,27.8424763 22.1104882,27.9483721 22.37732,27.9483721 L32.3116514,27.9483721 C32.5784846,27.9483721 32.8344101,27.8424791 33.0230904,27.6538003 C33.2117706,27.4651214 33.3176674,27.2091967 33.3176674,26.9423635 L33.3176674,17.0080321 C33.3176674,16.741199 33.2117706,16.4852744 33.0230903,16.2965958 C32.83441,16.1079172 32.5784844,16.002025 32.3116514,16.002025 Z" id="Path" fill="#CCCCCC"></path>
                    <path d="M30.0742905,23.4305396 L25.3838608,24.343941 C24.8045594,24.4560807 24.2438059,24.0781283 24.1303715,23.499079 L23.7698174,21.6475926 C23.6576777,21.0682915 24.0356302,20.5075384 24.6146793,20.3941047 L29.305109,19.4807048 C29.8844106,19.3685642 30.4451647,19.746517 30.5585984,20.3255668 L30.919151,22.1770517 C31.0312916,22.7563525 30.6533395,23.3171059 30.0742905,23.4305396 Z" id="Path" fill="#3F3D56"></path>
                    <path d="M29.135879,21.2431887 L25.5563409,21.9402573 C25.4200003,21.9668078 25.287951,21.8778055 25.2614004,21.7414649 C25.2348499,21.6051243 25.3238522,21.473075 25.4601928,21.4465244 L29.0397324,20.7494558 C29.176073,20.7229057 29.308122,20.8119084 29.3346721,20.948249 C29.3612223,21.0845895 29.2722196,21.2166385 29.135879,21.2431887 L29.135879,21.2431887 Z" id="Path" fill="#FFFFFF"></path>
                    <path d="M28.4401104,22.2754733 L26.5886255,22.6360259 C26.4522849,22.6625765 26.3202356,22.5735741 26.293685,22.4372335 C26.2671345,22.3008929 26.3561368,22.1688436 26.4924774,22.142293 L28.3439638,21.7817404 C28.4321607,21.7645655 28.5228207,21.7957477 28.5817931,21.8635409 C28.6407655,21.9313342 28.6590909,22.0254392 28.6298664,22.1104074 C28.6006419,22.1953756 28.5283073,22.2582984 28.4401104,22.2754733 L28.4401104,22.2754733 Z" id="Path" fill="#FFFFFF"></path>
                    <path d="M33.31766,17.0080321 L33.31766,18.328418 L21.3713129,18.328418 L21.3713129,17.0080321 C21.3713129,16.7412004 21.4772079,16.485277 21.6658864,16.2965985 C21.8545649,16.10792 22.1104883,16.0019533 22.37732,16.002025 L32.3116514,16.002025 C32.5784831,16.0019533 32.8344068,16.10792 33.0230855,16.2965984 C33.2117642,16.4852768 33.31766,16.7412003 33.31766,17.0080321 Z" id="Path" fill="#B3B3B3"></path>
                    <path d="M57.1733648,18.7419011 C57.0337503,18.2912263 56.7016851,17.9255396 56.2665219,17.7432405 C55.8313587,17.5609414 55.3377987,17.5807562 54.9186499,17.7973532 L41.2513537,12.8937517 L40.6493869,16.3080711 L54.2731791,20.0545346 C54.6929357,20.7498226 55.5663877,21.021273 56.306301,20.6863858 C57.0462142,20.3514987 57.4187146,19.5161262 57.1733648,18.7419011 L57.1733648,18.7419011 Z" id="Path" fill="#FFB8B8"></path>
                    <path d="M57.1733648,18.7419011 C57.0337503,18.2912263 56.7016851,17.9255396 56.2665219,17.7432405 C55.8313587,17.5609414 55.3377987,17.5807562 54.9186499,17.7973532 L41.2513537,12.8937517 L40.6493869,16.3080711 L54.2731791,20.0545346 C54.6929357,20.7498226 55.5663877,21.021273 56.306301,20.6863858 C57.0462142,20.3514987 57.4187146,19.5161262 57.1733648,18.7419011 L57.1733648,18.7419011 Z" id="Path" fill="#000000" opacity="0.2"></path>
                    <path d="M43.6772279,13.5159056 L42.3866158,16.8876292 C42.3123064,17.081752 42.1571812,17.2339162 41.9616626,17.304471 C41.766144,17.3750259 41.5495978,17.356983 41.3684516,17.2550439 L38.231795,15.4896158 C37.2121614,15.0925687 36.7060482,13.9453409 37.1002013,12.9245851 C37.4943544,11.9038294 38.6401419,11.3944639 39.6620116,11.7857199 L43.1646212,12.56255 C43.3675362,12.6076188 43.5407846,12.738779 43.6392209,12.9218527 C43.7376572,13.1049265 43.7515313,13.3217802 43.6772279,13.5159056 L43.6772279,13.5159056 Z" id="Path" fill="#E87722"></path>
                    <path d="M58.2491668,21.8638971 L53.3519065,24.0899245 L53.9948708,26.5105067 C55.2364852,31.1848194 55.5659933,36.0545552 54.9653831,40.853521 L54.9653831,40.853521 L58.5459719,41.6013401 L61.5140084,34.0328469 L60.4751957,25.425541 L58.2491668,21.8638971 Z" id="Path" fill="#E87722"></path>
                    <path d="M67.858185,33.068235 C64.6405174,33.068235 62.0183402,35.4073446 61.891096,38.3364999 L73.8252741,38.3364999 C73.6980284,35.4073387 71.0758513,33.068235 67.858185,33.068235 Z" id="Path" fill="#3F3D56"></path>
                    <path d="M65.3533967,33.5730313 C65.1859371,20.3506675 57.6555595,21.5670935 57.6555595,21.5670935 C57.6555595,21.5670935 57.796424,25.6827703 57.8641041,25.8107654 C62.6627439,34.8899253 54.7431736,45.5339336 44.6622776,43.5757789 C44.4722105,43.5388595 44.2896065,43.5014058 44.1144656,43.4634179 C41.4634176,42.9099343 39.6987493,40.3916981 40.0833853,37.7109417 C41.076428,29.7364775 36.1372887,29.8775958 36.1372887,29.8775958 L28.9150957,29.8775958 L25.1644844,26.5020627 C24.8956712,26.2601318 24.5243874,26.1672385 24.1733177,26.2540778 C23.8222479,26.3409171 23.5370844,26.5961867 23.4120547,26.935537 L22.9295321,28.2451831 C22.9295321,28.2451831 15.8062444,28.9871922 16.3998517,35.9620781 L18.6021111,35.9620781 C18.5967937,36.1602558 18.6047341,36.3585673 18.6258791,36.5556854 L35.0615179,36.4220584 C36.0249233,36.4142258 36.8753221,37.1948877 36.8792919,38.1583168 C36.8812831,38.6322449 36.6903305,39.0865783 36.3503675,39.4167858 C36.0104046,39.7469934 35.5507056,39.9246408 35.0770363,39.9088558 L32.4272534,39.8205256 C31.6110434,43.4563703 33.614468,45.9050005 35.8219452,47.4446694 C37.9003122,48.8732854 40.366528,49.630744 42.8884929,49.6152853 L50.0870708,49.6152853 C59.4363858,49.6152853 61.0688059,41.7497493 61.0688059,41.7497493 C65.9660618,39.6721163 65.3533967,33.5730313 65.3533967,33.5730313 Z" id="Path" fill="#F5964F"></path>
                    <circle id="Oval" fill="#E87722" cx="67.4129796" cy="45.5710889" r="8.34760274"></circle>
                    <circle id="Oval" fill="#FFFFFF" cx="67.4129796" cy="45.5710889" r="2.04598037"></circle>
                    <circle id="Oval" fill="#E87722" cx="25.2668608" cy="44.3096734" r="9.60901826"></circle>
                    <circle id="Oval" fill="#FFFFFF" cx="25.2668608" cy="44.3096734" r="2.35515183"></circle>
                    <path d="M53.3658192,24.7476607 L51.6037671,19.9617731 C51.4183047,19.4580295 51.4405537,18.9012428 51.6656194,18.4139038 C51.8906851,17.9265648 52.3001305,17.5485953 52.8038793,17.3631473 L57.8554775,15.5034869 C58.7418143,15.177099 59.7215067,15.2161788 60.5790295,15.6121291 C61.4365524,16.0080794 62.1016603,16.7284652 62.4280346,17.6148071 C62.5737461,18.00872 62.6481682,18.4254274 62.6478189,18.8454263 C62.6439918,19.9254199 62.1541143,20.9462943 61.3140132,21.6249925 C61.0143554,21.8653881 60.6775049,22.0553149 60.3167203,22.1872974 L53.3658192,24.7476607 Z" id="Path" fill="#3F3D56"></path>
                    <path d="M62.5736153,18.8453995 C62.5727799,19.9035592 62.092555,20.9043587 61.2676362,21.567089 C60.0029357,21.2334983 58.9490165,20.3604474 58.3859122,19.1799119 C57.822808,17.9993765 57.8075393,16.6308991 58.3441632,15.4380936 C59.37512,15.2138968 60.452155,15.4683642 61.2737579,16.130259 C62.0953607,16.7921538 62.5732398,17.790347 62.5736153,18.8453995 L62.5736153,18.8453995 Z" id="Path" fill="#E87722"></path>
                    <ellipse id="Oval" fill="#E87722" cx="17.6612672" cy="34.4038515" rx="2.07762557" ry="2.52283105"></ellipse>
                    <polygon id="Path" fill="#FFB8B8" points="45.1246918 43.3340753 46.9440982 43.3340753 47.809726 38.6153425 45.124395 38.6154909"></polygon>
                    <path d="M44.6605844,42.7400926 L48.2435684,42.7399442 L48.2437168,42.7399442 C48.849306,42.7399442 49.4300973,42.9804866 49.8583171,43.4086994 C50.2865368,43.8369122 50.5270985,44.4176996 50.5270985,45.0232888 L50.5270985,45.0974897 L44.6606971,45.0977064 L44.6605844,42.7400926 Z" id="Path" fill="#2F2E41"></path>
                    <path d="M47.2365032,41.3973618 C47.2153084,41.3973618 47.1940286,41.3963472 47.1726637,41.394318 L44.6547967,41.2109898 C44.4484228,41.1918419 44.2626374,41.0779565 44.151934,40.9027378 C44.0412306,40.7275191 44.0181591,40.5108308 44.0894866,40.3162307 L47.4591787,32.745565 C47.5078492,32.6091149 47.4972885,32.4585344 47.4300489,32.3302135 C47.3629606,32.2003128 47.2435502,32.1052799 47.1019057,32.0690604 C45.5173823,31.6548709 41.4519514,30.5520005 37.9326941,29.2615946 C36.4249449,28.7087118 35.475332,27.9097475 35.1102694,26.886876 C34.6289785,25.538362 35.3409882,24.3085427 35.3715308,24.2569463 L35.3954072,24.2165128 L38.7069494,24.5175192 L42.2969618,24.8228737 L50.1642516,29.0416008 C51.5312915,29.7808777 52.1009313,31.4464137 51.4729479,32.8680202 L47.8458708,41.0015741 C47.738672,41.242214 47.4999403,41.3973618 47.2365032,41.3973618 L47.2365032,41.3973618 Z" id="Path" fill="#2F2E41"></path>
                    <circle id="Oval" fill="#FFB8B8" cx="39.282753" cy="5.89455023" r="3.64490171"></circle>
                    <polygon id="Path" fill="#FFB8B8" points="44.085879 43.7792808 45.9052854 43.7792808 46.7709132 39.0605479 44.0855822 39.0606963"></polygon>
                    <path d="M43.6217716,43.1852981 L47.2047556,43.1851497 L47.204904,43.1851497 C47.8104932,43.1851497 48.3912845,43.4256921 48.8195043,43.8539049 C49.247724,44.2821177 49.4882857,44.862905 49.4882857,45.4684943 L49.4882857,45.5426952 L43.6218844,45.5429119 L43.6217716,43.1852981 Z" id="Path" fill="#2F2E41"></path>
                    <path d="M46.1976904,41.8425672 C46.1764957,41.8425672 46.1552158,41.8415527 46.1338509,41.8395235 L43.6159839,41.6561953 C43.40961,41.6370474 43.2238246,41.5231619 43.1131212,41.3479433 C43.0024178,41.1727246 42.9793463,40.9560363 43.0506739,40.7614362 L46.4203659,33.1907704 C46.4690364,33.0543204 46.4584757,32.9037399 46.3912361,32.7754189 C46.3241479,32.6455182 46.2047374,32.5504853 46.0630929,32.5142659 C44.4785695,32.1000764 40.4131386,30.9972059 36.8938813,29.7068001 C35.3861321,29.1539172 34.4365192,28.354953 34.0714566,27.3320815 C33.5901658,25.9835675 34.3021755,24.7537482 34.332718,24.7021518 L34.3565944,24.6617183 L37.6681366,24.9627247 L41.258149,25.2680792 L49.1254388,29.4868063 C50.4924787,30.2260831 51.0621185,31.8916191 50.4341352,33.3132257 L46.807058,41.4467796 C46.6998592,41.6874195 46.4611276,41.8425672 46.1976904,41.8425672 L46.1976904,41.8425672 Z" id="Path" fill="#2F2E41"></path>
                    <path d="M40.4068671,11.6062679 L36.5484196,10.2706515 C36.5484196,10.2706515 34.126205,12.1316104 35.2898237,16.7481775 C35.8973034,19.1305008 35.7203538,21.645213 34.7852442,23.9189909 C34.6726525,24.2003158 34.5428579,24.4744466 34.3965961,24.7398296 C34.3965961,24.7398296 38.7002491,29.9338935 42.7070984,26.075446 L41.1488792,18.5811538 C41.1488792,18.5811538 43.5975064,13.6096926 40.4068671,11.6062679 Z" id="Path" fill="#E87722"></path>
                    <path d="M39.7352925,9.66341199 C39.2165361,8.88692763 38.8071355,7.81023527 39.3782896,7.07143904 C39.9420785,6.34216872 41.0540653,6.44960868 41.917525,6.12691187 C43.1201734,5.67745171 43.8176753,4.26457283 43.6001405,2.9992484 C43.3826057,1.73392397 42.3668753,0.685007991 41.1568454,0.255825457 C39.9468155,-0.173357078 38.5823127,-0.0337777397 37.3973642,0.460452283 C35.9386766,1.06885525 34.6873761,2.24576781 34.1626703,3.73660811 C33.6379645,5.2274484 33.9184603,7.01748756 35.0069713,8.16337968 C36.1739751,9.39190046 38.0055134,9.71930457 39.6998467,9.69943801" id="Path" fill="#2F2E41"></path>
                    <path d="M36.3447723,3.03985559 C35.691086,3.57200525 34.6937619,3.33564715 33.9920691,2.86861918 C33.2903763,2.40159121 32.720997,1.73657295 31.9617837,1.37040479 C30.623315,0.724864269 29.0050568,1.15399783 27.7023975,1.86904829 C26.3997381,2.58409874 25.2449879,3.57195925 23.8689943,4.13309178 C22.4930007,4.69422432 20.7371325,4.7219621 19.6952167,3.66241906 C19.1698941,5.18442704 19.6556714,6.87241053 20.9096548,7.88235992 C22.1636381,8.89230932 23.9163694,9.00720493 25.2914644,8.16959772 C26.7991379,7.25122934 27.631917,5.32566963 29.3229365,4.8187839 C30.2586842,4.53829258 31.2634863,4.76420616 32.2092289,5.00889555 C33.1549715,5.25358493 34.1410986,5.51797466 35.0955138,5.30966747 C36.049929,5.10136027 36.9426713,4.24367934 36.821249,3.27437352 L36.3447723,3.03985559 Z" id="Path" fill="#2F2E41"></path>
                    <path d="M56.991997,18.5934414 C56.7978447,18.1634356 56.4231976,17.8415135 55.9688667,17.7142988 C55.5145358,17.587084 55.0271917,17.6676445 54.6379701,17.9343029 L40.4700833,14.7544732 L40.2939838,18.2169757 L54.275926,20.2538768 C54.7782611,20.8920632 55.6785325,21.053672 56.3714739,20.6300511 C57.0644153,20.2064302 57.3309991,19.3314794 56.991997,18.5934414 Z" id="Path" fill="#FFB8B8"></path>
                    <path d="M42.954186,15.0725621 L42.0894485,18.5777628 C42.0396585,18.779572 41.9044921,18.9497143 41.7191714,19.0438537 C41.5338506,19.1379931 41.3167315,19.146805 41.1243914,19.0679934 L37.7938805,17.7030631 C36.7323158,17.4354823 36.0877348,16.3590304 36.3530674,15.2969015 C36.6183999,14.2347727 37.6934846,13.5879139 38.7561728,13.8509969 L42.3278664,14.1897315 C42.5347916,14.20942 42.7228991,14.3182024 42.8431714,14.4877318 C42.9634437,14.6572613 43.003968,14.8707462 42.9541845,15.0725562 L42.954186,15.0725621 Z" id="Path" fill="#E87722"></path>
                    <circle id="Oval" fill="#E87722" cx="55.3553312" cy="20.305678" r="1.03881279"></circle>
                </g>
            </g>
        </g>
    </g>
</svg>