<svg width="31" height="20" xmlns="http://www.w3.org/2000/svg">
    <path d="M15.568.923a.846.846 0 0 0-.165.03c-.715.18-1.353.642-1.593 1.271-.239.63-.129 1.203.01 1.708.28 1.01.77 1.989.854 2.644v.203H7.428C3.802 6.779.85 9.708.85 13.286c0 3.579 2.962 6.506 6.588 6.506 3.164 0 5.78-2.263 6.413-5.205h3.598c.632 2.941 3.249 5.205 6.413 5.205 3.626 0 6.588-2.926 6.588-6.506 0-3.578-2.952-6.507-6.578-6.507h-7.215c-.006-.145-.01-.294-.03-.447-.154-1.192-.71-2.235-.895-2.908-.093-.337-.066-.524-.072-.509a.576.576 0 0 0 .134-.04c1.46-.003 2.929 0 4.162 0 .021-.001-.05.032.185-.02.498-.088.877-.604.805-1.1-.07-.494-.58-.886-1.082-.832-1.558-.003-2.902.001-4.255 0h-.041zM7.428 8.73h16.444c2.56 0 4.605 2.031 4.605 4.555 0 2.52-2.055 4.554-4.615 4.554-2.445 0-4.435-1.925-4.594-4.3-.036-.487-.493-.906-.987-.905H13.02c-.494 0-.95.418-.987.905-.16 2.374-2.149 4.3-4.594 4.3-2.56 0-4.615-2.032-4.615-4.554 0-2.524 2.045-4.555 4.605-4.555zm16.444.325c-.898 0-1.644.74-1.644 1.627s.746 1.627 1.644 1.627c.899 0 1.645-.74 1.645-1.627s-.746-1.627-1.645-1.627zm-16.454.63c-.52.006-.988.483-.977.997v1.627H4.694c-.518.025-.965.515-.938 1.027.027.511.523.953 1.04.925h1.645v1.626c-.007.516.465.99.987.99.521 0 .994-.474.986-.99v-1.626h1.645c.521.007 1-.46 1-.976s-.479-.984-1-.976H8.414v-1.627c.011-.521-.47-1.002-.996-.996zm16.454.672a.34.34 0 0 1 .33.325.34.34 0 0 1-.33.325.34.34 0 0 1-.329-.325.34.34 0 0 1 .33-.325zm-2.63 1.301c-.858 0-1.645.748-1.645 1.627 0 .878.787 1.626 1.644 1.626.857 0 1.645-.748 1.645-1.626 0-.879-.788-1.627-1.645-1.627zm5.261 0c-.899 0-1.644.738-1.644 1.627 0 .89.75 1.616 1.644 1.616.895 0 1.645-.73 1.645-1.616 0-.889-.746-1.627-1.645-1.627zm0 1.291c.17 0 .33.162.33.336a.338.338 0 0 1-.33.325.338.338 0 0 1-.329-.325c0-.171.16-.336.33-.336zm-5.262.01c.13 0 .329.209.329.326 0 .116-.198.325-.329.325-.13 0-.329-.209-.329-.325 0-.117.199-.326.33-.326zm2.631 1.302c-.898 0-1.644.739-1.644 1.626 0 .888.746 1.627 1.644 1.627.899 0 1.645-.74 1.645-1.627s-.746-1.626-1.645-1.626zm0 1.3a.34.34 0 0 1 .33.326.34.34 0 0 1-.33.326.34.34 0 0 1-.329-.326.34.34 0 0 1 .33-.325z" fill="#E87722" fill-rule="evenodd"/>
</svg>
