<?xml version="1.0" encoding="UTF-8"?>
<svg width="180px" height="180px" viewBox="0 0 180 180" version="1.1" xmlns="http://www.w3.org/2000/svg" xmlns:xlink="http://www.w3.org/1999/xlink">
    <title>B65BE7E8-867D-4000-B07E-5ACBBC4C9002</title>
    <g id="Page-1" stroke="none" stroke-width="1" fill="none" fill-rule="evenodd">
        <g id="H30_My-purchase_ftu" transform="translate(-117.000000, -210.000000)">
            <g id="Group" transform="translate(117.000000, 210.000000)">
                <path d="M154.250946,174.383609 C130.622213,185.137759 102.354768,177.377882 76.4000061,176.069614 C56.0117982,175.042282 41.6808702,165.747133 23.5010869,155.621271 C20.9813321,154.30883 18.5414789,152.772845 16.2005753,151.02531 C5.97668152,142.949197 1.1070258,127.553955 0.161692964,112.463471 C0.0901972033,111.323083 0.0465053494,110.18761 0.0187014424,109.052137 C-0.0726542522,104.495499 0.133889057,99.7815661 1.4684766,95.5001944 C6.43743198,79.5101802 24.9508621,74.2063913 28.5097622,57.6510984 C30.348792,49.0785239 27.5088215,39.6408272 29.7927139,31.2402941 C31.9177268,23.4345325 37.9432307,18.3765169 43.8535469,14.6014383 C68.5513603,-1.18704179 98.3214008,-4.34768707 124.838384,5.97970912 C142.033115,12.6696597 153.64477,29.2073429 162.361743,49.3931138 C183.357925,98.0136772 191.103937,157.610699 154.250946,174.383609 Z" id="Path" fill="#FFFFFF"></path>
                <g id="undraw_gone_shopping_vwmc" transform="translate(41.216742, 43.920000)" fill-rule="nonzero">
                    <path d="M84.3462045,53.2444153 L83.014295,56.3522073 L74.8452375,67.1850838 C74.8452375,67.1850838 69.2512119,73.2230786 72.3590039,73.5782513 C75.4667959,73.933424 77.5090603,67.9842257 77.5090603,67.9842257 L87.0988219,58.4832606 L88.1643514,54.1323518 L84.3462045,53.2444153 Z" id="Path" fill="#FFC4A0"></path>
                    <path d="M107.770084,97.3406802 L106.438175,100.448472 L98.4296555,113.052529 C98.4296555,113.052529 97.2681446,115.010321 95.8651997,115.528405 C91.1045413,116.412099 91.3198177,117.535236 92.4405595,117.663319 C93.3976937,117.772705 96.1315817,117.808649 97.003943,118.211116 C98.9641184,119.11545 99.7464287,119.190961 100.109895,118.393413 C100.63512,117.240922 100.364875,116.551301 100.8901,115.398811 C102.374791,112.140983 107.04843,109.026915 114.911016,106.056606 L111.588231,98.2286167 L107.770084,97.3406802 Z" id="Path-Copy" fill="#FFC4A0" transform="translate(103.341016, 108.142405) rotate(-67.000000) translate(-103.341016, -108.142405) "></path>
                    <path d="M84.2024181,98.9515913 L82.8705086,102.059383 L74.8619892,114.66344 C74.8619892,114.66344 73.7004783,116.621232 72.2975334,117.139316 C71.2764863,117.328847 68.3534419,117.005585 67.7500217,117.204965 C65.5399794,117.935201 68.0928275,118.818112 68.8728932,119.27423 C69.6529589,119.730349 72.5639154,119.41956 73.4362767,119.822027 C75.396452,120.726361 76.1787623,120.801872 76.5422291,120.004324 C77.0674541,118.851833 76.4761819,117.94998 77.3224339,117.009722 C80.3603426,113.634348 84.4903647,109.662569 89.7125004,105.094388 L88.020565,99.8395278 L84.2024181,98.9515913 Z" id="Path-Copy-2" fill="#FFC4A0" transform="translate(78.291031, 109.753316) rotate(-37.000000) translate(-78.291031, -109.753316) "></path>
                    <path d="M88.4307314,40.6356639 L87.1436203,40.9960102 C87.1436203,40.9960102 81.3641164,56.3492422 81.8968821,58.2139117 C82.4296478,60.0785811 84.8270906,62.3872331 85.8926144,62.2096478 C86.9581382,62.0320624 88.4307314,40.6356639 88.4307314,40.6356639 Z" id="Path" fill="#FF994D"></path>
                    <path d="M106.03203,120.955763 C106.03203,120.955763 103.478292,123.334697 105.425734,122.922317 C108.658005,122.237867 108.658005,120.881612 110.066189,119.681491 C110.809073,119.04837 112.445367,118.19315 112.832362,117.516611 C113.559206,116.245952 111.838429,115.185567 111.838429,115.185567 L106.03203,120.955763 Z" id="Path" fill="#2F2E41"></path>
                    <path d="M86.29968,55.6418581 C86.29968,55.6418581 69.4090711,99.8955461 75.8022404,101.76021 C82.1954098,103.624874 88.6971076,104.241283 88.6971076,103.000746 C88.6971076,101.76021 89.7182484,74.131381 89.7182484,74.131381 C89.7182484,74.131381 96.0026076,111.192942 103.499871,109.27346 C110.997134,107.353978 114.028303,103.533508 112.96277,103.000746 C111.897237,102.467985 100.329139,83.434391 100.417932,78.7283039 C100.506725,74.0222167 100.240343,59.2823986 98.286875,57.0625508 L86.29968,55.6418581 Z" id="Path" fill="#FFE9CF"></path>
                    <path d="M97.7485183,33.0377886 C96.310498,31.7372273 96.1091148,29.551633 97.2852703,28.0101985 C97.2101902,28.0805928 97.1367927,28.1536892 97.0665357,28.2314047 C95.6868973,29.7593849 95.8063346,32.1162683 97.3333722,33.4969499 C98.8604099,34.8776315 101.217374,34.7598039 102.599098,33.2337096 C102.669359,33.1560036 102.734713,33.0756393 102.797222,32.9938668 C101.381677,34.3188617 99.1869013,34.3379554 97.7485183,33.0377886 L97.7485183,33.0377886 Z" id="Path" fill="#2F2E41"></path>
                    <circle id="Oval" fill="#2F2E41" cx="97.3989347" cy="26.2510166" r="7.68068632"></circle>
                    <path d="M76.4468427,120.517288 C76.4468427,120.517288 70.4722264,123.652634 73.1254051,123.652634 C75.0698516,123.652634 80.5829496,122.699382 82.8557041,121.415491 C83.6841014,120.947524 83.2154682,119.178348 83.2154682,119.178348 C79.2714995,120.818393 76.6197192,121.761108 75.2601272,122.006494 C74.3774829,122.165798 74.7730548,121.669396 76.4468427,120.517288 Z" id="Path" fill="#2F2E41"></path>
                    <path d="M92.5152602,31.0458965 C92.5152602,31.0458965 93.8471697,36.5511351 92.8704386,37.6166589 C91.8937075,38.6821826 89.7626447,39.4813341 89.7626447,39.4813341 L90.1178231,49.4262722 C90.1178231,49.4262722 94.2023519,48.0055681 94.3799392,47.8279789 C94.5575265,47.6503897 98.1980823,41.8787788 98.1980823,41.8787788 L101.749845,38.5046049 C101.749845,38.5046049 96.3334071,35.9295767 97.9316966,31.4898657 C99.5299861,27.0501547 92.5152602,31.0458965 92.5152602,31.0458965 Z" id="Path" fill="#F2B48E"></path>
                    <path d="M97.4578719,34.6858421 C99.0411375,35.0412752 97.6685903,33.7040346 97.8902604,33.6713549 C100.118297,33.3428867 101.828334,31.4229781 101.828334,29.1036688 C101.828334,26.5536085 99.7611021,24.4863762 97.2110419,24.4863762 C95.6715348,24.4863762 93.5705605,24.9323256 92.0582803,26.2451284 C91.0655992,27.1068699 90.4395751,28.2444911 90.4395751,29.2550443 C90.4395751,30.4418675 91.4246975,32.0651785 92.7003615,32.7592138 C93.9757257,33.453086 95.4153895,33.6676781 96.6660567,33.7116492 C96.8522984,33.7181971 95.8746064,34.3304091 97.4578719,34.6858421 Z" id="Oval" fill="#FFC4A0" transform="translate(96.133955, 29.616131) rotate(-80.782530) translate(-96.133955, -29.616131) "></path>
                    <path d="M98.2868769,57.0625584 C98.2868769,57.0625584 100.329139,50.3142087 101.305874,49.4262684 C102.282609,48.5383281 104.680052,40.1916832 104.680052,40.1916832 C104.680052,40.1916832 103.170551,38.1494188 101.927433,38.1494188 C100.684314,38.1494188 99.5299956,38.5933899 98.1092915,39.9253071 C97.4402535,40.5525327 96.219958,41.2426388 95.1159662,41.7973264 C94.3245283,42.2017264 93.4037543,42.2710258 92.5607028,41.9896408 C91.7176513,41.7082558 91.0230893,41.0998064 90.6332061,40.3011172 C90.4124668,39.8320839 90.3398068,39.3826723 90.5617923,39.037361 C90.5617923,39.037361 87.2764111,39.9253032 87.0988219,41.16842 C86.9212327,42.4115368 87.0988219,44.9865631 86.8324419,45.5193288 C86.5660619,46.0520945 85.7669143,46.8512383 86.1220908,50.225416 C86.4772673,53.5995937 85.75138,57.8663156 85.75138,57.8663156 C89.0683024,61.0313438 93.663494,59.0776377 98.2868769,57.0625584 Z" id="Path" fill="#E87722"></path>
                    <ellipse id="Oval" fill="#2F2E41" cx="95.7562431" cy="24.3419451" rx="3.90693959" ry="2.66382279"></ellipse>
                    <circle id="Oval" fill="#2F2E41" cx="102.415802" cy="20.4350036" r="3.72935038"></circle>
                    <path d="M105.079621,23.0988264 C103.140714,23.0985574 101.525531,21.6124349 101.364166,19.6802542 C101.355692,19.78283 101.350271,19.8862729 101.350271,19.9910382 C101.350578,22.0498657 103.01921,23.7189572 105.078037,23.7198328 C107.136865,23.7207077 108.806915,22.0530356 108.808973,19.9942091 L108.808973,19.9910382 C108.808973,19.8862767 108.803552,19.7828357 108.795078,19.6802542 C108.633713,21.6124357 107.018529,23.0985584 105.079621,23.0988264 Z" id="Path" fill="#2F2E41"></path>
                    <polygon id="Path" fill="#E87722" points="96.3327192 80.1356174 95.0921825 80.1356174 92.6130149 101.76021 100.789885 101.485805"></polygon>
                    <polygon id="Path" fill="#000000" opacity="0.2" points="96.3327192 80.1356174 95.0921825 80.1356174 92.6130149 101.76021 100.789885 101.485805"></polygon>
                    <polygon id="Path" fill="#E87722" points="95.919207 79.8593074 94.4042659 101.623008 112.96277 103.000746 114.477711 81.7877607"></polygon>
                    <circle id="Oval" fill="#000000" opacity="0.2" cx="102.167613" cy="81.7877702" r="1"></circle>
                    <circle id="Oval" fill="#000000" opacity="0.2" cx="107.952976" cy="82.4756868" r="1"></circle>
                    <path d="M108.021574,82.4775905 L107.884371,82.4775905 C107.884371,82.4185173 107.981556,76.6083849 104.644875,76.0729152 C103.987448,75.968108 103.450072,76.1167437 103.047994,76.5150112 C101.670255,77.8813165 102.240025,81.7401286 102.245742,81.7782403 L102.110445,81.7992018 C102.085673,81.637227 101.52543,77.8317713 102.952714,76.4178263 C103.387188,75.9852582 103.966486,75.8232834 104.667742,75.935713 C108.120662,76.488333 108.023481,82.4185192 108.021574,82.4775905 Z" id="Path" fill="#3F3D56"></path>
                    <path d="M104.94643,52.4452677 L104.502459,57.4177368 L105.390399,72.3351383 C105.390399,72.3351383 107.432664,79.8826241 104.324866,79.7050483 C101.217068,79.5274724 102.371394,71.8023764 102.371394,71.8023764 L100.950688,54.4875321 L104.94643,52.4452677 Z" id="Path" fill="#FFC4A0"></path>
                    <path d="M102.371404,38.9485683 L104.680044,40.191687 C104.680044,40.191687 107.78784,61.3147292 106.011952,63.3569936 C104.236064,65.399258 100.595514,66.1984037 100.417926,65.3992561 C100.240339,64.6001085 99.6187787,48.3607408 99.6187787,48.3607408 L102.371404,38.9485683 Z" id="Path" fill="#FF994D"></path>
                    <path d="M12.5695573,0 L9.98005621,0 C9.790449,0 9.63674199,0.153707014 9.63674199,0.343314225 L9.63674199,1.47992018 C9.63674199,1.66952739 9.790449,1.82323441 9.98005621,1.82323441 L10.4091733,1.82323441 L10.4091733,3.52625681 L12.1404307,3.52625681 L12.1404307,1.82323441 L12.5695478,1.82323441 C12.7591546,1.82323336 12.912862,1.66952696 12.912862,1.47992018 L12.912862,0.343314225 C12.912862,0.153711171 12.7591604,0 12.5695573,0 L12.5695573,0 Z" id="Path" fill="#E6E6E6"></path>
                    <path d="M15.1632107,10.4022045 C13.5773301,8.08162387 12.7666001,5.3186501 12.8471612,2.5090911 C12.8501351,2.37542702 12.7584473,2.25820579 12.6280017,2.22889941 L12.6280017,1.73777649 L9.89314433,1.73777649 L9.89314433,2.2220736 L9.85546136,2.2220736 C9.78103635,2.22217007 9.70969795,2.25182797 9.65713996,2.30452284 C9.60458196,2.3572177 9.5751097,2.428633 9.5752068,2.50305801 C9.57521442,2.50987239 9.5754685,2.51668041 9.57596903,2.52348208 C9.79142732,5.52687272 9.06388593,8.2202556 7.39334488,10.6036307 C7.29721635,10.7405981 7.24810472,10.9050491 7.25338147,11.0723001 L7.55242321,20.3225225 C7.56735538,20.7511986 7.91741932,21.0919788 8.34634188,21.0953864 L14.5321644,21.0953864 C14.9663599,21.0918528 15.3186874,20.7430285 15.3265595,20.30889 L15.4417979,11.3276715 C15.4452081,10.9980304 15.3480244,10.6751859 15.1632107,10.4022045 L15.1632107,10.4022045 Z" id="Path" fill="#E6E6E6"></path>
                    <path d="M14.1839833,13.4748308 L8.79971324,13.4748308 C8.63842624,13.4748308 8.48518329,13.5452776 8.38016424,13.6676888 C8.27514519,13.7900999 8.22882522,13.9522718 8.25334928,14.1116835 L9.06699076,19.4003484 L13.7390251,19.4003484 L14.7273079,14.1294969 C14.7576105,13.9678667 14.71438,13.8011362 14.6093587,13.6745933 C14.5043374,13.5480504 14.3484296,13.4748308 14.1839833,13.4748308 L14.1839833,13.4748308 Z" id="Path" fill="#FFFFFF"></path>
                    <path d="M41.395604,27.7102002 L38.8061124,27.7102002 C38.6165052,27.7102002 38.4627982,27.8639072 38.4627982,28.0535144 L38.4627982,29.1901204 C38.4627982,29.3797276 38.6165052,29.5334346 38.8061124,29.5334346 L39.2352295,29.5334346 L39.2352295,31.236457 L40.9664889,31.236457 L40.9664889,29.5334346 L41.395604,29.5334346 C41.5852112,29.5334346 41.7389183,29.3797276 41.7389183,29.1901204 L41.7389183,28.0535144 C41.7389183,27.8639072 41.5852112,27.7102002 41.395604,27.7102002 Z" id="Path" fill="#E6E6E6"></path>
                    <path d="M43.9892574,38.1124047 C42.4033768,35.7918241 41.5926468,33.0288503 41.6732079,30.2192913 C41.6761818,30.0856272 41.584494,29.968406 41.4540484,29.9390996 L41.4540484,29.4479767 L38.719191,29.4479767 L38.719191,29.9322738 L38.6815081,29.9322738 C38.607083,29.9323703 38.5357446,29.9620282 38.4831867,30.014723 C38.4306287,30.0674179 38.4011564,30.1388332 38.4012535,30.2132582 C38.4012611,30.2200726 38.4015152,30.2268806 38.4020157,30.2336823 C38.617474,33.2370729 37.8899333,35.9304558 36.2193935,38.3138309 C36.1232632,38.4507975 36.0741507,38.6152489 36.0794282,38.7825003 L36.3784699,48.0327208 C36.3934011,48.4613977 36.7434653,48.802179 37.1723886,48.8055866 L43.3582149,48.8055866 C43.79241,48.802052 44.1447369,48.4532283 44.15261,48.0190902 L44.2678484,39.0378813 C44.2712594,38.7082365 44.1740743,38.3853883 43.9892574,38.1124047 L43.9892574,38.1124047 Z" id="Path" fill="#E6E6E6"></path>
                    <path d="M43.01003,41.1850387 L37.6257599,41.1850387 C37.4644733,41.1850387 37.3112308,41.2554862 37.2062122,41.3778973 C37.1011936,41.5003084 37.0548739,41.66248 37.0793979,41.8218913 L37.8930375,47.1105562 L42.5650718,47.1105562 L43.5533546,41.8397047 C43.5836572,41.6780745 43.5404267,41.511344 43.4354054,41.3848011 C43.3303841,41.2582583 43.1744763,41.1850387 43.01003,41.1850387 L43.01003,41.1850387 Z" id="Path" fill="#FFFFFF"></path>
                    <path d="M8.92907015,66.8842851 L7.70075595,66.8842851 C7.61081666,66.8842851 7.53790646,66.9571953 7.53790646,67.0471346 L7.53790646,67.5862802 C7.53790646,67.6762195 7.61081666,67.7491297 7.70075595,67.7491297 L7.90430686,67.7491297 L7.90430686,68.5569497 L8.72551924,68.5569497 L8.72551924,67.7491297 L8.92906825,67.7491297 C9.01900754,67.7491297 9.09191774,67.6762195 9.09191774,67.5862802 L9.09191774,67.0471346 C9.09191774,66.9571961 9.0190087,66.8842851 8.92907015,66.8842851 L8.92907015,66.8842851 Z" id="Path" fill="#E6E6E6"></path>
                    <path d="M10.1593585,71.8185263 C9.40710139,70.7177697 9.02253357,69.4071652 9.06074616,68.0744628 C9.06215685,68.01106 9.01866507,67.9554568 8.95678881,67.9415558 L8.95678881,67.7085922 L7.65952478,67.7085922 L7.65952478,67.9383163 L7.64165038,67.9383163 C7.60634716,67.9383623 7.57250813,67.9524305 7.54757751,67.9774262 C7.52264688,68.0024219 7.50866686,68.0362974 7.50871288,68.0716007 C7.50871288,68.0748325 7.50883483,68.0780619 7.50907875,68.0812887 C7.6288125,69.4411808 7.26192187,70.7994224 6.47376042,71.9140724 C6.42816092,71.9790416 6.40486502,72.0570488 6.40736979,72.1363838 L6.54921782,76.5241866 C6.55630047,76.7275272 6.7223518,76.8891749 6.9258093,76.8907909 L9.86003096,76.8907909 C10.0659891,76.8891143 10.2331137,76.723652 10.2368492,76.5177209 L10.2915109,72.2575219 C10.2931281,72.1011559 10.2470273,71.9480142 10.1593585,71.8185263 L10.1593585,71.8185263 Z" id="Path" fill="#E6E6E6"></path>
                    <rect id="Rectangle" fill="#FFFFFF" x="6.93734762" y="73.4314506" width="2.79972158" height="1.39986079"></rect>
                    <path d="M14.6469036,66.8842851 L13.418597,66.8842851 C13.3286577,66.8842851 13.2557475,66.9571953 13.2557475,67.0471346 L13.2557475,67.5862802 C13.2557475,67.6762195 13.3286577,67.7491297 13.418597,67.7491297 L13.622146,67.7491297 L13.622146,68.5569497 L14.4433622,68.5569497 L14.4433622,67.7491297 L14.6469112,67.7491297 C14.7368505,67.7491297 14.8097607,67.6762195 14.8097607,67.5862802 L14.8097607,67.0471346 C14.8097607,67.0039429 14.7926023,66.9625204 14.7620605,66.93198 C14.7315186,66.9014395 14.6900953,66.8842851 14.6469036,66.8842851 L14.6469036,66.8842851 Z" id="Path" fill="#E6E6E6"></path>
                    <path d="M15.8771843,71.8185263 C15.1249272,70.7177697 14.7403594,69.4071652 14.778572,68.0744628 C14.7799826,68.01106 14.7364909,67.9554568 14.6746146,67.9415558 L14.6746146,67.7085922 L13.3773506,67.7085922 L13.3773506,67.9383163 L13.3594762,67.9383163 C13.324173,67.9383623 13.2903339,67.9524305 13.2654033,67.9774262 C13.2404727,68.0024219 13.2264927,68.0362974 13.2265387,68.0716007 C13.2265387,68.0748325 13.2266606,68.0780619 13.2269045,68.0812887 C13.3466383,69.4411808 12.9797477,70.7994224 12.1915862,71.9140724 C12.1459867,71.9790416 12.1226908,72.0570488 12.1251956,72.1363838 L12.2670436,76.5241866 C12.2741263,76.7275272 12.4401776,76.8891749 12.6436351,76.8907909 L15.5778568,76.8907909 C15.7838141,76.8891132 15.9509377,76.7236513 15.9546731,76.5177209 L16.0093367,72.2575219 C16.010953,72.101156 15.9648523,71.9480146 15.8771843,71.8185263 L15.8771843,71.8185263 Z" id="Path" fill="#E6E6E6"></path>
                    <rect id="Rectangle" fill="#FFFFFF" x="12.655181" y="73.4314506" width="2.79972158" height="1.39986079"></rect>
                    <path d="M20.364737,66.8842851 L19.1364228,66.8842851 C19.0464835,66.8842851 18.9735733,66.9571953 18.9735733,67.0471346 L18.9735733,67.5862802 C18.9735733,67.6762195 19.0464835,67.7491297 19.1364228,67.7491297 L19.3399718,67.7491297 L19.3399718,68.5569497 L20.161188,68.5569497 L20.161188,67.7491297 L20.364737,67.7491297 C20.4546763,67.7491297 20.5275865,67.6762195 20.5275865,67.5862802 L20.5275865,67.0471346 C20.5275865,67.0039443 20.5104292,66.9625229 20.479889,66.9319827 C20.4493488,66.9014425 20.4079274,66.8842851 20.364737,66.8842851 L20.364737,66.8842851 Z" id="Path" fill="#E6E6E6"></path>
                    <path d="M21.5950254,71.8185263 C20.8427682,70.7177697 20.4582004,69.4071652 20.496413,68.0744628 C20.4978237,68.01106 20.4543319,67.9554568 20.3924556,67.9415558 L20.3924556,67.7085922 L19.0951916,67.7085922 L19.0951916,67.9383163 L19.0773172,67.9383163 C19.042014,67.9383623 19.008175,67.9524305 18.9832443,67.9774262 C18.9583137,68.0024219 18.9443337,68.0362974 18.9443797,68.0716007 C18.9443797,68.0748325 18.9445017,68.0780619 18.9447456,68.0812887 C19.0644793,69.4411808 18.6975887,70.7994224 17.9094272,71.9140724 C17.8638286,71.9790421 17.8405322,72.0570488 17.8430347,72.1363838 L17.9848847,76.5241866 C17.9919673,76.7275272 18.1580186,76.8891749 18.3614761,76.8907909 L21.2956978,76.8907909 C21.5016559,76.8891143 21.6687806,76.723652 21.672516,76.5177209 L21.7271797,72.2575219 C21.7287954,72.1011558 21.682694,71.9480144 21.5950254,71.8185263 Z" id="Path" fill="#E6E6E6"></path>
                    <rect id="Rectangle" fill="#FFFFFF" x="18.3730145" y="73.4314506" width="2.79972158" height="1.39986079"></rect>
                    <path d="M36.8970657,56.1642974 L34.307576,56.1642974 C34.1179685,56.1642974 33.9642599,56.3180041 33.9642599,56.5076116 L33.9642599,57.6442176 C33.9642599,57.8338251 34.1179685,57.9875318 34.307576,57.9875318 L34.7366911,57.9875318 L34.7366911,59.6905542 L36.4679505,59.6905542 L36.4679505,57.9875318 L36.8970657,57.9875318 C37.0866729,57.9875318 37.2403799,57.8338248 37.2403799,57.6442176 L37.2403799,56.5076116 C37.2403799,56.4165591 37.2042094,56.3292357 37.1398255,56.2648518 C37.0754416,56.2004679 36.9881183,56.1642974 36.8970657,56.1642974 L36.8970657,56.1642974 Z" id="Path" fill="#E6E6E6"></path>
                    <path d="M39.490721,66.5665001 C37.9048361,64.2459209 37.094102,61.4829469 37.17466,58.6733866 C37.1776346,58.5397223 37.0859465,58.4225006 36.9555005,58.3931949 L36.9555005,57.9020701 L34.2206527,57.9020701 L34.2206527,58.3863672 L34.1829697,58.3863672 C34.1085447,58.3864637 34.0372063,58.4161216 33.9846483,58.4688164 C33.9320903,58.5215113 33.902618,58.5929266 33.9027151,58.6673516 C33.9027228,58.6741673 33.9029768,58.6809753 33.9034774,58.6877757 C34.1189357,61.6911689 33.3913949,64.3845517 31.7208551,66.7679243 C31.624725,66.9048909 31.5756132,67.0693425 31.5808917,67.2365937 L31.8799316,76.4868161 C31.8948637,76.9154923 32.2449277,77.2562725 32.6738502,77.25968 L38.8596651,77.25968 C39.2938603,77.2561475 39.6461881,76.9073237 39.6540602,76.4731855 L39.7692986,67.4919671 C39.7727124,67.1623269 39.6755319,66.8394822 39.490721,66.5665001 L39.490721,66.5665001 Z" id="Path" fill="#E6E6E6"></path>
                    <path d="M38.5114917,69.6391264 L33.1272216,69.6391264 C32.9659351,69.6391264 32.8126931,69.7095766 32.7076746,69.8319876 C32.6026562,69.9543985 32.5563362,70.1165697 32.5808595,70.2759809 L33.3944991,75.5646458 L38.0665354,75.5646458 L39.0548162,70.2937943 C39.0851159,70.1321644 39.0418843,69.9654353 38.9368637,69.8388929 C38.8318432,69.7123505 38.6759371,69.6391264 38.5114917,69.6391264 L38.5114917,69.6391264 Z" id="Path" fill="#FFFFFF"></path>
                    <path d="M38.3107458,22.2862234 L22.8748628,22.2862234 C23.9540458,16.4515699 23.7057651,9.40602504 22.8748628,1.8290293 L38.3107458,1.8290293 C37.5019426,9.40604791 37.2602571,16.4515814 38.3107458,22.2862234 Z" id="Path" fill="#E6E6E6"></path>
                    <circle id="Oval" fill="#FFFFFF" cx="30.6857921" cy="11.4997041" r="3.71949088"></circle>
                    <path d="M24.1766831,49.4385004 L8.74080014,49.4385004 C9.81998316,43.603845 9.57170433,36.558302 8.74080014,28.9813062 L24.1766831,28.9813062 C23.3678818,36.5583249 23.1261963,43.6038564 24.1766831,49.4385004 Z" id="Path" fill="#E6E6E6"></path>
                    <circle id="Oval" fill="#FFFFFF" cx="16.5517295" cy="38.6519791" r="3.71949088"></circle>
                    <path d="M47.0515459,23.5880456 L31.615663,23.5880456 C32.6948479,17.7533902 32.4465671,10.7078472 31.615663,3.13085148 L47.0515459,3.13085148 C46.2427446,10.7078701 46.0010591,17.7534017 47.0515459,23.5880456 Z" id="Path" fill="#E6E6E6"></path>
                    <circle id="Oval" fill="#FFFFFF" cx="39.4265942" cy="12.8015243" r="3.71949088"></circle>
                    <path d="M47.0515459,22.6581729 L31.615663,22.6581729 C32.6948479,16.8235175 32.4465671,9.77797451 31.615663,2.20097876 L47.0515459,2.20097876 C46.2427446,9.77799738 46.0010591,16.8235289 47.0515459,22.6581729 Z" id="Path" fill="#E6E6E6"></path>
                    <circle id="Oval" fill="#FFFFFF" cx="39.4265942" cy="11.8716516" r="3.71949088"></circle>
                    <path d="M47.0515459,23.5880456 L31.615663,23.5880456 C32.6948479,17.7533902 32.4465671,10.7078472 31.615663,3.13085148 L47.0515459,3.13085148 C46.2427446,10.7078701 46.0010591,17.7534017 47.0515459,23.5880456 Z" id="Path" fill="#E6E6E6"></path>
                    <circle id="Oval" fill="#FFFFFF" cx="39.4265942" cy="12.8015243" r="3.71949088"></circle>
                    <rect id="Rectangle" fill="#E6E6E6" x="0" y="21.1703769" width="50.585063" height="5.57923441"></rect>
                    <rect id="Rectangle" fill="#E6E6E6" x="0" y="48.8805771" width="50.585063" height="5.57923441"></rect>
                    <rect id="Rectangle" fill="#E6E6E6" x="0" y="76.5907773" width="50.585063" height="5.57923441"></rect>
                </g>
            </g>
        </g>
    </g>
</svg>