<svg width="180" height="180" xmlns="http://www.w3.org/2000/svg">
    <g fill-rule="nonzero" fill="none">
        <path d="m103.893 100.54-70.799 18.333c-5 1.289-10.094-1.736-11.387-6.76L.295 28.505c-1.281-5.028 1.727-10.15 6.724-11.45L72.886 0l16.858 7.589 20.873 81.501c1.281 5.028-1.727 10.15-6.724 11.45z" fill="#E4E4E4"/>
        <path d="M7.69 19.676c-3.558.926-5.7 4.574-4.788 8.155l21.412 83.606c.92 3.579 4.548 5.732 8.109 4.815l70.799-18.332c3.558-.926 5.7-4.574 4.788-8.155L87.46 9.527l-14.815-6.67L7.69 19.677z" fill="#FFF"/>
        <path d="m89.564 8.02-10.957 2.837a3.113 3.113 0 0 1-3.792-2.251L72.73.468a.196.196 0 0 1 .063-.198.194.194 0 0 1 .204-.03l16.597 7.412a.196.196 0 0 1-.03.368z" fill="#E4E4E4"/>
        <path d="m90.229 79.418-32.234 8.347c-.539.14-1.11-.02-1.5-.42-.39-.4-.538-.978-.388-1.517.149-.539.573-.956 1.111-1.096l32.234-8.346c.539-.14 1.11.02 1.5.42.39.4.538.977.388 1.516-.149.539-.573.957-1.111 1.096zM97.76 82.925l-38.454 9.957a1.567 1.567 0 0 1-.777-3.033l38.454-9.956c.833-.215 1.68.289 1.895 1.126a1.567 1.567 0 0 1-1.118 1.906z" fill="#CCC"/>
        <ellipse fill="#E6E6E6" cx="38.41" cy="92.283" rx="5.504" ry="5.534"/>
        <path d="m80.373 64.935-42.81 11.08c-2.576.664-5.2-.894-5.866-3.483l-8.971-35.044c-.66-2.59.89-5.229 3.464-5.898L69 20.51c2.576-.665 5.2.894 5.866 3.483l8.97 35.043c.66 2.59-.889 5.23-3.463 5.899z" fill="#FFF"/>
        <path d="m80.373 64.935-42.81 11.08c-2.576.664-5.2-.894-5.866-3.483l-8.971-35.044c-.66-2.59.89-5.229 3.464-5.898L69 20.51c2.576-.665 5.2.894 5.866 3.483l8.97 35.043c.66 2.59-.889 5.23-3.463 5.899zM26.33 32.142c-2.271.59-3.639 2.919-3.056 5.204l8.971 35.044c.588 2.284 2.903 3.66 5.176 3.074l42.81-11.081c2.271-.59 3.638-2.919 3.056-5.205l-8.971-35.043c-.588-2.285-2.903-3.66-5.176-3.074l-42.81 11.08z" fill="#E6E6E6"/>
        <path d="m66.828 32.292-21.606 5.593a.773.773 0 0 1-.937-.49.753.753 0 0 1 .525-.952l21.993-5.692c.888.452.655 1.378.025 1.541zM67.803 36.103l-21.605 5.592a.773.773 0 0 1-.938-.49.753.753 0 0 1 .526-.95l21.992-5.694c.889.453.655 1.379.025 1.542z" fill="#F2F2F2"/>
        <path d="m42.083 45.074-6.594 1.707a.839.839 0 0 1-1.02-.607l-2.004-7.824a.844.844 0 0 1 .603-1.027l6.594-1.706a.84.84 0 0 1 1.02.606l2.004 7.824a.844.844 0 0 1-.603 1.027z" fill="#E6E6E6"/>
        <path d="m69.738 43.922-32.974 8.534a.773.773 0 0 1-.937-.49.753.753 0 0 1 .525-.95l33.361-8.636c.889.453.655 1.378.025 1.542zM70.714 47.733 37.74 56.268a.773.773 0 0 1-.938-.49.753.753 0 0 1 .526-.95l33.361-8.636c.889.452.655 1.378.025 1.541zM71.689 51.543l-32.974 8.534a.773.773 0 0 1-.937-.49.753.753 0 0 1 .525-.95L71.664 50c.889.453.655 1.379.025 1.542zM72.665 55.354 39.69 63.89a.773.773 0 0 1-.938-.49.753.753 0 0 1 .525-.951l33.362-8.635c.888.452.655 1.378.025 1.541zM73.64 59.164l-32.974 8.535a.773.773 0 0 1-.937-.49.753.753 0 0 1 .525-.952l33.361-8.635c.889.453.655 1.379.025 1.542z" fill="#F2F2F2"/>
        <path d="M38.817 94.223a.568.568 0 0 1-.361-.025l-.008-.003-1.499-.64a.578.578 0 0 1 .45-1.063l.971.415 1.274-3.011a.576.576 0 0 1 .753-.306l-.007.02.008-.02a.58.58 0 0 1 .304.758l-1.498 3.541a.576.576 0 0 1-.387.333z" fill="#FFF"/>
        <path d="M137.477 132.401H64.369c-5.162-.006-9.346-4.212-9.351-9.403V36.664c.005-5.19 4.189-9.397 9.35-9.402h68.016l14.444 11.576v84.16c-.006 5.191-4.189 9.397-9.351 9.403z" fill="#E6E6E6"/>
        <path d="M64.369 29.968c-3.676.005-6.655 3-6.66 6.696v86.334c.005 3.697 2.984 6.692 6.66 6.696h73.108c3.676-.004 6.655-3 6.66-6.696V40.142l-12.695-10.174H64.37z" fill="#FFF"/>
        <path d="M123.257 55.072H89.972c-.86 0-1.557-.701-1.557-1.566 0-.865.697-1.566 1.557-1.566h33.285c.86 0 1.558.701 1.558 1.566 0 .865-.698 1.566-1.558 1.566zM129.68 60.357H89.973a1.562 1.562 0 0 1-1.555-1.566c0-.864.696-1.565 1.555-1.566h39.709c.557 0 1.072.298 1.35.782a1.573 1.573 0 0 1 0 1.567 1.556 1.556 0 0 1-1.35.783z" fill="#FFAF73"/>
        <path d="M123.258 75.622H89.974c-.86 0-1.558.701-1.558 1.566 0 .865.698 1.566 1.558 1.566h33.284c.86 0 1.557-.701 1.557-1.566 0-.865-.697-1.566-1.557-1.566zM129.682 80.908H89.974c-.86 0-1.558.7-1.558 1.566 0 .864.698 1.565 1.558 1.565h39.708c.86 0 1.557-.7 1.557-1.565s-.697-1.566-1.557-1.566zM123.257 102.438H89.972c-.86 0-1.557-.701-1.557-1.566 0-.865.697-1.566 1.557-1.566h33.285c.86 0 1.558.701 1.558 1.566 0 .865-.698 1.566-1.558 1.566zM129.68 107.722H89.973a1.562 1.562 0 0 1-1.555-1.566c0-.864.696-1.564 1.555-1.565h39.709c.557-.001 1.072.297 1.35.782a1.573 1.573 0 0 1 0 1.567 1.556 1.556 0 0 1-1.35.782z" fill="#CCC"/>
        <ellipse fill="#E87722" cx="76.111" cy="56.149" rx="5.504" ry="5.534"/>
        <path d="M75.566 58.26a.569.569 0 0 1-.343-.115l-.007-.005-1.293-.995a.58.58 0 0 1 .129-.993c.19-.08.408-.05.57.076l.838.646 1.98-2.597a.574.574 0 0 1 .806-.107l-.012.017.012-.017a.58.58 0 0 1 .106.81l-2.328 3.054a.574.574 0 0 1-.457.225z" fill="#FFF"/>
        <path d="M82.181 79.83a5.55 5.55 0 0 1-1.611 3.915 5.488 5.488 0 0 1-3.892 1.622c-.047 0-.095-.001-.142-.006-3.02-.078-5.413-2.59-5.361-5.627.052-3.038 2.53-5.465 5.55-5.439 3.022.027 5.457 2.498 5.456 5.536z" fill="#CCC"/>
        <ellipse fill="#CCC" cx="76.111" cy="103.514" rx="5.504" ry="5.534"/>
        <path d="M146.547 39.21h-11.315a3.123 3.123 0 0 1-3.114-3.131v-8.403c0-.075.043-.144.11-.176a.194.194 0 0 1 .206.023l14.234 11.338a.196.196 0 0 1-.121.35z" fill="#CCC"/>
        <path d="M82.181 79.83a5.55 5.55 0 0 1-1.611 3.915 5.488 5.488 0 0 1-3.892 1.622c-.047 0-.095-.001-.142-.006a12.039 12.039 0 0 1 1.069-10.987c2.643.456 4.575 2.76 4.576 5.457zM88.415 77.19a1.566 1.566 0 0 1 1.559-1.568h8.294c.484.991.828 2.045 1.023 3.132h-9.317c-.86 0-1.557-.7-1.559-1.565zM99.483 80.908c0 1.057-.138 2.11-.413 3.131h-9.096c-.86 0-1.558-.7-1.558-1.565s.698-1.566 1.558-1.566h9.51z" fill="#FFAF73"/>
        <path d="M120.005 100.22a1.695 1.695 0 0 1-2.337.569L97.831 88.622a1.712 1.712 0 0 1 .071-2.96 1.692 1.692 0 0 1 1.7.041l19.837 12.167a1.715 1.715 0 0 1 .566 2.35z" fill="#3F3D56"/>
        <path d="M100.168 88.053a13.575 13.575 0 0 1-13.712 6.39c-5.435-.853-9.824-4.915-11.119-10.292-1.295-5.376.758-11.007 5.202-14.268a13.54 13.54 0 0 1 15.1-.628c6.406 3.939 8.432 12.348 4.53 18.798zM79.848 75.59c-2.934 4.836-1.414 11.148 3.396 14.098 4.81 2.95 11.087 1.421 14.021-3.415 2.934-4.837 1.413-11.149-3.397-14.099-4.81-2.943-11.083-1.415-14.02 3.416z" fill="#3F3D56"/>
        <ellipse fill="#DCB6A9" cx="143.747" cy="76.126" rx="6.96" ry="6.998"/>
        <path d="M143.297 115.358a3.15 3.15 0 0 1 .282-2.547 3.118 3.118 0 0 1 2.077-1.485 2.95 2.95 0 0 1 .413-.051l7.331-11.831-6.696-6.402a2.697 2.697 0 0 1-.753-2.593 2.68 2.68 0 0 1 1.869-1.941 2.663 2.663 0 0 1 2.602.673l9.246 9.167.018.023a2.445 2.445 0 0 1-.168 2.902l-10.272 12.216a3.148 3.148 0 0 1-.49 2.797 3.113 3.113 0 0 1-2.496 1.25 3.13 3.13 0 0 1-2.963-2.178zM132.285 176.279h-3.474l-1.653-13.475h5.127z" fill="#DCB6A9"/>
        <path d="M133.17 179.665H121.97v-.143c0-1.163.46-2.278 1.277-3.1a4.348 4.348 0 0 1 3.083-1.284h6.842v4.527z" fill="#2F2E41"/>
        <path fill="#DCB6A9" d="m164.963 170.53-2.985 1.787-8.276-10.726 4.405-2.638z"/>
        <path d="m167.447 172.984-9.625 5.762-.073-.122a4.405 4.405 0 0 1-.48-3.32 4.382 4.382 0 0 1 1.996-2.69l5.879-3.52 2.303 3.89z" fill="#2F2E41"/>
        <path d="M126.72 167.59c-2.327-27.555-3.712-53.153 4.795-63.595l.066-.081 14.317 5.759.024.051c.048.106 4.81 10.637 3.7 17.721l3.53 16.335 11.515 19.387a1.289 1.289 0 0 1-.58 1.831l-5.005 2.214a1.277 1.277 0 0 1-1.6-.503l-12.526-20.538-7.075-15.753a.425.425 0 0 0-.81.131l-3.922 37.069a1.275 1.275 0 0 1-1.268 1.146h-3.89a1.287 1.287 0 0 1-1.271-1.174z" fill="#605F79"/>
        <path d="m131.564 104.213-.069-.033-.01-.075c-.535-3.764.098-7.946 1.881-12.43 1.817-4.536 6.663-7.05 11.392-5.91a9.799 9.799 0 0 1 6.924 12.648c-2.248 6.61-5.165 12.795-5.194 12.856l-.061.13-14.863-7.186z" fill="#83819B"/>
        <path d="M115.943 94.838a3.105 3.105 0 0 1 4.774 1.18l13.589 2.762 3.618-8.549a2.666 2.666 0 0 1 4.615-.537 2.7 2.7 0 0 1 .284 2.687l-5.302 11.919-.014.025a2.414 2.414 0 0 1-2.763.858l-14.976-5.397a3.103 3.103 0 0 1-2.777.518 3.123 3.123 0 0 1-2.039-1.913 3.155 3.155 0 0 1 .99-3.553z" fill="#DCB6A9"/>
        <path d="M168.89 83.62c-.67-1.194-1.647-2.288-2.938-2.73-1.668-.57-3.474.037-5.188.443-1.32.312-2.7.503-4.032.24-1.332-.264-2.616-1.043-3.222-2.264-.89-1.796-.14-3.938-.194-5.944a7.23 7.23 0 0 0-2.885-5.602 7.147 7.147 0 0 0-6.161-1.183c-1.642-.476-3.128-.52-4.144.749-2.66 0-4.817 2.168-4.817 4.844h4.606a4.622 4.622 0 0 0 .695 3.4c.814 1.2 2.228 2.07 2.5 3.496.264 1.383-.671 2.696-1.652 3.7-.98 1.006-2.118 2.002-2.424 3.376a4.204 4.204 0 0 0 .596 3.01 9.784 9.784 0 0 0 2.093 2.318 30.657 30.657 0 0 0 12.762 6.565c3.316.803 6.944 1.011 10.023-.466a9.992 9.992 0 0 0 5.205-6.018c.83-2.645.533-5.518-.823-7.934z" fill="#2F2E41"/>
        <path d="M179.113 179.961h-53.839a.284.284 0 0 1-.283-.285c0-.157.126-.285.283-.285h53.84c.156 0 .283.128.283.285a.284.284 0 0 1-.284.285z" fill="#CCC"/>
    </g>
</svg>
