<svg width="181" height="180" xmlns="http://www.w3.org/2000/svg">
    <g fill="none" fill-rule="evenodd">
        <path d="M.5 0h180v180H.5z"/>
        <path d="M154.725 136.478c-21.288 7.8-46.755 2.172-70.139 1.223-18.368-.745-31.28-7.487-47.658-14.83a51.218 51.218 0 0 1-6.578-3.334c-9.21-5.858-13.598-17.024-14.45-27.969a52.303 52.303 0 0 1-.129-2.474c-.082-3.305.104-6.724 1.307-9.829 4.476-11.597 21.156-15.444 24.362-27.451 1.657-6.218-.902-13.063 1.156-19.156 1.914-5.661 7.343-9.33 12.668-12.068 22.251-11.45 49.072-13.743 72.962-6.253 15.492 4.852 25.953 16.847 33.806 31.487 18.917 35.264 25.895 78.49-7.307 90.654z" fill="#FFF"/>
        <g transform="translate(.874 20.164)" fill-rule="nonzero">
            <path d="M8.299 141.616c2.477 4.58 7.735 6.546 7.735 6.546s1.241-5.46-1.236-10.04c-2.478-4.579-7.735-6.545-7.735-6.545s-1.242 5.46 1.236 10.039z" fill="#FFA764"/>
            <path d="M10.001 140.11c4.473 2.682 6.196 8.01 6.196 8.01s-5.53.978-10.002-1.704S0 138.406 0 138.406s5.529-.979 10.001 1.703z" fill="#E87722"/>
            <path fill="#F2F2F2" d="M116.256 22.633h1v3.676h-1zM141.172 31.574h1v3.676h-1zM138.382 123.767h1v3.676h-1zM144.162 93.367h1v3.676h-1z"/>
            <path fill="#2F2E41" d="M72.168 139.519H24.97v-.338h46.858v-16.416h-42.89l-2.083-4.327.306-.147 1.99 4.135h43.017z"/>
            <ellipse fill="#3F3D56" cx="31.252" cy="144.258" rx="3.565" ry="3.554"/>
            <ellipse fill="#3F3D56" cx="66.395" cy="144.258" rx="3.565" ry="3.554"/>
            <ellipse fill="#3F3D56" cx="107.821" cy="68.778" rx="2.207" ry="2.2"/>
            <path d="M77.216 117.18h-53.05l-11.48-37.401h76.351l-.07.22-11.751 37.18zm-52.8-.339h52.55l11.608-36.724H13.146l11.27 36.724z" fill="#2F2E41"/>
            <path fill="#F2F2F2" d="M73.075 115.234H26.479l-10.082-33.17h67.06l-.06.194z"/>
            <path fill="#2F2E41" d="m89.989 76.437-.329-.087 2.24-8.418h13.035v.338H92.162zM16.396 91.117h68.826v1H16.396zM20.223 103.587H81.28v1H20.223z"/>
            <path fill="#2F2E41" d="M50.691 79.948h1v37.063h-1zM63.796 116.999l2.437-37.062.339.022-2.437 37.062zM35.157 79.959l.339-.022L37.919 117l-.339.022zM0 148.026h178.596v1H0z"/>
            <path d="M118.68 12.294s2.914 8.267 1.121 9.539c-1.793 1.272 6.052 11.658 6.052 11.658l9.414-2.543-5.155-8.691s-.673-8.69-.673-9.963c0-1.272-10.758 0-10.758 0z" fill="#EFB091"/>
            <path d="M113.79 71.222s-.85 10.599 0 16.11c.85 5.511 2.126 20.773 2.126 20.773s0 28.828 4.678 29.252c4.679.424 8.081.848 8.506-.848.426-1.695-2.126-2.543-.85-3.391 1.276-.848 1.7-3.816 0-7.207-1.701-3.392 0-37.731 0-37.731l8.08 21.621s.85 17.806 1.701 20.35c.851 2.543-.85 7.206 2.127 7.63 2.977.424 6.38-2.12 8.08-2.967 1.702-.848-2.551-.848-1.7-1.272.85-.424 3.402-1.696 2.551-2.12-.85-.424-1.701-20.773-1.701-20.773s-2.34-43.454-5.316-45.15c-2.977-1.696-4.891 1.225-4.891 1.225l-23.391 4.498z" fill="#2F2E41"/>
            <path d="M121.445 135.661v3.392s-3.828 9.22 0 9.22 6.805.955 6.805-.317v-11.447l-6.805-.848zM146.537 135.655v3.392s3.828 9.22 0 9.22c-3.827 0-6.804.955-6.804-.317v-11.447l6.804-.848z" fill="#2F2E41"/>
            <ellipse fill="#FFC8AD" cx="124.635" cy="10.811" rx="7.655" ry="7.631"/>
            <path d="M122.296 25.013s2.126 6.359 5.528 5.087l3.403-1.272 5.954 40.698s-4.678 6.784-11.483 2.544c-6.805-4.24-3.402-47.057-3.402-47.057z" fill="#E87722"/>
            <path d="m128.25 23.74 1.914-4.027s11.27 5.3 12.97 6.995c1.702 1.696 1.702 4.24 1.702 4.24l-2.977 10.598s.85 23.317.85 24.165c0 .848 2.978 5.511.851 3.816-2.126-1.696-2.552-3.392-4.253-.848-1.7 2.543-5.528 5.51-5.528 5.51l-5.53-50.448z" fill="#3F3D56"/>
            <path d="m143.135 54.265-1.276 11.87s-7.655 6.783-5.954 7.207c1.701.424 2.552-1.272 2.552-1.272s2.977 2.968 4.678 1.272 5.954-17.806 5.954-17.806l-5.954-1.271z" fill="#FFC8AD"/>
            <path d="M124.798.026c-1.697-.06-3.513-.09-4.944.821a7.227 7.227 0 0 0-1.709 1.667c-1.394 1.757-2.598 3.966-2.08 6.145l.601-.234c0 .582-.13 1.156-.38 1.682.085-.246.369.151.293.4l-.663 2.165c1.09-.398 2.444.408 2.61 1.552.075-2.516.337-5.4 2.384-6.874 1.032-.742 2.339-.97 3.596-1.17 1.16-.186 2.376-.363 3.487.017 1.11.38 2.056 1.513 1.804 2.657.513-.176 1.086.18 1.339.657.253.478.266 1.04.274 1.58.546.385 1.167-.378 1.39-1.007.522-1.475.986-3.045.705-4.584-.282-1.54-1.54-3.01-3.11-3.015.191-.209.293-.483.284-.765l-1.293-.109c.328-.046.63-.205.854-.449-.52.57-4.602-1.106-5.442-1.136z" fill="#F9AA62"/>
            <path d="M124.422 22.469s-3.462-3.382-4.708-3.175c-1.246.207-2.947 3.175-2.947 3.175s-10.207 3.391-9.782 6.783c.425 3.392 5.104 19.925 5.104 19.925s3.827 19.926.425 22.045c-3.402 2.12 16.161 7.631 16.586 5.088.426-2.544 1.276-27.98 0-31.796-1.276-3.816-4.678-22.045-4.678-22.045zM139.307 29.252h5.259s3.672 16.11 4.098 17.806c.425 1.695 1.276 9.75.85 9.75-.425 0-8.93-1.696-8.93-.424l-1.277-27.132z" fill="#3F3D56"/>
            <path d="M127.25 64.97h-4.805a1 1 0 0 1-1-1V52.406a1 1 0 0 1 1-1h4.805a1 1 0 0 1 1 1V63.97a1 1 0 0 1-1 1z" fill="#F2F2F2"/>
            <path d="m110.813 58.08 5.954 2.544s11.483 1.695 11.483-2.968-11.483-2.12-11.483-2.12l-3.828-1.22-2.126 3.764z" fill="#FFC8AD"/>
            <path d="m112.089 26.708-5.104 1.272-3.828 22.47s-1.275 5.934.851 6.358c2.127.424 8.08 3.816 8.08 3.816s.851-6.36 2.552-6.36l-4.253-3.391 2.552-14.838-.85-9.327z" fill="#3F3D56"/>
        </g>
    </g>
</svg>
