<?xml version="1.0" encoding="UTF-8"?>
<svg width="90px" height="90px" viewBox="0 0 90 90" version="1.1" xmlns="http://www.w3.org/2000/svg" xmlns:xlink="http://www.w3.org/1999/xlink">
    <title>img3</title>
    <g id="Symbols" stroke="none" stroke-width="1" fill="none" fill-rule="evenodd">
        <g id="img3">
            <rect id="Rectangle" x="0" y="0" width="90" height="90"></rect>
            <g id="Group-14" opacity="0.100000001" transform="translate(17.000000, 16.000000)" fill-rule="nonzero">
                <path d="M7.44234774,9.99200722e-15 L5.90912209,9.99200722e-15 C5.79685697,9.99200722e-15 5.70584811,0.0910088573 5.70584811,0.203273972 L5.70584811,0.876250479 C5.70584811,0.988515594 5.79685697,1.07952445 5.90912209,1.07952445 L6.16319932,1.07952445 L6.16319932,2.08787221 L7.18826487,2.08787221 L7.18826487,1.07952445 L7.4423421,1.07952445 C7.55460696,1.07952383 7.64561607,0.988515336 7.64561607,0.876250479 L7.64561607,0.203273972 C7.64561607,0.0910113185 7.5546104,9.99200722e-15 7.44234774,9.99200722e-15 L7.44234774,9.99200722e-15 Z" id="Path" fill="#E87722"></path>
                <path d="M8.97803193,6.15907318 C8.03904303,4.78507346 7.55901541,3.14913585 7.60671509,1.48561544 C7.60847588,1.40647387 7.55418819,1.33706799 7.47695223,1.31971589 L7.47695223,1.02892541 L5.85766216,1.02892541 L5.85766216,1.31567437 L5.83535034,1.31567437 C5.79128381,1.31573149 5.74904483,1.33329173 5.71792561,1.36449199 C5.68680639,1.39569226 5.66935606,1.43797676 5.66941355,1.48204329 C5.66941807,1.48607804 5.66956851,1.49010902 5.66986487,1.49413624 C5.79743622,3.27242301 5.36666401,4.86715634 4.37754824,6.27833623 C4.32063121,6.35943367 4.29155255,6.45680395 4.29467688,6.55583213 L4.47173742,12.0328247 C4.48057865,12.2866408 4.68784908,12.4884144 4.94181116,12.490432 L8.60439379,12.490432 C8.86147793,12.4883398 9.07008861,12.2818033 9.0747496,12.0247529 L9.14298147,6.70703578 C9.14500063,6.51185756 9.08745881,6.32070355 8.97803193,6.15907318 L8.97803193,6.15907318 Z" id="Path" fill="#E87722"></path>
                <path d="M8.39823818,7.97835391 L5.2102492,7.97835391 C5.11475228,7.97835391 5.02401819,8.02006494 4.96183714,8.09254375 C4.89965609,8.16502256 4.87223036,8.26104342 4.88675088,8.35542994 L5.36850236,11.4868118 L8.13478151,11.4868118 L8.71993688,8.36597714 C8.73787885,8.27027702 8.71228235,8.17155706 8.65009999,8.09663189 C8.58791762,8.02170673 8.49560566,7.97835391 8.39823818,7.97835391 L8.39823818,7.97835391 Z" id="Path" fill="#FFFFFF"></path>
                <path d="M24.5100501,16.4070174 L22.9768301,16.4070174 C22.864565,16.4070174 22.7735561,16.4980263 22.7735561,16.6102914 L22.7735561,17.2832679 C22.7735561,17.395533 22.864565,17.4865419 22.9768301,17.4865419 L23.2309073,17.4865419 L23.2309073,18.4948896 L24.255974,18.4948896 L24.255974,17.4865419 L24.5100501,17.4865419 C24.6223152,17.4865419 24.7133241,17.395533 24.7133241,17.2832679 L24.7133241,16.6102914 C24.7133241,16.4980263 24.6223152,16.4070174 24.5100501,16.4070174 Z" id="Path" fill="#E87722"></path>
                <path d="M26.0457343,22.5660906 C25.1067454,21.1920909 24.6267178,19.5561532 24.6744175,17.8926328 C24.6761783,17.8134913 24.6218906,17.7440854 24.5446546,17.7267333 L24.5446546,17.4359428 L22.9253645,17.4359428 L22.9253645,17.7226918 L22.9030527,17.7226918 C22.8589862,17.7227489 22.8167472,17.7403091 22.785628,17.7715094 C22.7545088,17.8027097 22.7370584,17.8449942 22.7371159,17.8890607 C22.7371204,17.8930954 22.7372709,17.8971264 22.7375672,17.9011536 C22.8651386,19.6794404 22.4343668,21.2741737 21.4452517,22.6853536 C21.3883336,22.7664506 21.3592545,22.8638211 21.3623793,22.9628495 L21.5394398,28.439841 C21.5482804,28.6936576 21.755551,28.8954318 22.0095135,28.8974494 L25.6720984,28.8974494 C25.9291823,28.8953566 26.1377927,28.6888205 26.1424542,28.4317703 L26.2106861,23.1140588 C26.2127057,22.9188784 26.1551631,22.7277223 26.0457343,22.5660906 L26.0457343,22.5660906 Z" id="Path" fill="#E87722"></path>
                <path d="M25.4659406,24.3853758 L22.2779516,24.3853758 C22.1824549,24.3853758 22.0917211,24.4270873 22.0295403,24.4995661 C21.9673595,24.5720449 21.9399339,24.6680655 21.9544544,24.7624519 L22.4362047,27.8938337 L25.2024839,27.8938337 L25.7876393,24.7729991 C25.8055812,24.6772989 25.7799847,24.578579 25.7178024,24.5036538 C25.65562,24.4287286 25.563308,24.3853758 25.4659406,24.3853758 L25.4659406,24.3853758 Z" id="Path" fill="#FFFFFF"></path>
                <path d="M5.28684053,39.6017215 L4.5595642,39.6017215 C4.50631177,39.6017215 4.46314215,39.6448911 4.46314215,39.6981435 L4.46314215,40.0173679 C4.46314215,40.0706203 4.50631177,40.11379 4.5595642,40.11379 L4.68008529,40.11379 L4.68008529,40.5920945 L5.16631944,40.5920945 L5.16631944,40.11379 L5.2868394,40.11379 C5.34009183,40.11379 5.38326145,40.0706203 5.38326145,40.0173679 L5.38326145,39.6981435 C5.38326145,39.6448915 5.34009252,39.6017215 5.28684053,39.6017215 L5.28684053,39.6017215 Z" id="Path" fill="#E87722"></path>
                <path d="M6.01528575,42.5232514 C5.56987951,41.8715011 5.34217957,41.0955013 5.36480498,40.3064174 C5.36564024,40.2688771 5.33988906,40.2359548 5.30325255,40.2277241 L5.30325255,40.089788 L4.53515151,40.089788 L4.53515151,40.225806 L4.52456821,40.225806 C4.50366542,40.2258333 4.48362956,40.234163 4.46886831,40.2489627 C4.45410706,40.2637625 4.44582958,40.28382 4.44585683,40.3047228 C4.44585683,40.3066363 4.44592904,40.3085484 4.44607346,40.310459 C4.51696699,41.1156417 4.29973359,41.9198471 3.83306866,42.5798236 C3.80606951,42.6182915 3.79227617,42.6644789 3.79375923,42.7114527 L3.87774646,45.3094403 C3.88194005,45.4298369 3.98025789,45.5255473 4.10072366,45.5265042 L5.83805597,45.5265042 C5.96000235,45.5255114 6.0589557,45.4275424 6.06116743,45.305612 L6.09353227,42.7831777 C6.09448975,42.6905945 6.06719379,42.5999203 6.01528575,42.5232514 L6.01528575,42.5232514 Z" id="Path" fill="#E87722"></path>
                <rect id="Rectangle" fill="#FFFFFF" x="4.10755543" y="43.4782528" width="1.65769573" height="1"></rect>
                <path d="M8.67233005,39.6017215 L7.94505824,39.6017215 C7.89180581,39.6017215 7.84863618,39.6448911 7.84863618,39.6981435 L7.84863618,40.0173679 C7.84863618,40.0706203 7.89180581,40.11379 7.94505824,40.11379 L8.06557819,40.11379 L8.06557819,40.5920945 L8.55181461,40.5920945 L8.55181461,40.11379 L8.67233456,40.11379 C8.72558699,40.11379 8.76875662,40.0706203 8.76875662,40.0173679 L8.76875662,39.6981435 C8.76875662,39.67257 8.75859727,39.648044 8.74051365,39.6299613 C8.72243003,39.6118785 8.69790355,39.6017215 8.67233005,39.6017215 L8.67233005,39.6017215 Z" id="Path" fill="#E87722"></path>
                <path d="M9.40077076,42.5232514 C8.95536451,41.8715011 8.72766458,41.0955013 8.75028998,40.3064174 C8.75112524,40.2688771 8.72537407,40.2359548 8.68873756,40.2277241 L8.68873756,40.089788 L7.92063652,40.089788 L7.92063652,40.225806 L7.91005321,40.225806 C7.88915042,40.2258333 7.86911457,40.234163 7.85435332,40.2489627 C7.83959207,40.2637625 7.83131459,40.28382 7.83134184,40.3047228 C7.83134184,40.3066363 7.83141405,40.3085484 7.83155847,40.310459 C7.902452,41.1156417 7.6852186,41.9198471 7.21855366,42.5798236 C7.19155452,42.6182915 7.17776118,42.6644789 7.17924423,42.7114527 L7.26323147,45.3094403 C7.26742506,45.4298369 7.3657429,45.5255473 7.48620867,45.5265042 L9.22354097,45.5265042 C9.34548692,45.5255108 9.44443959,45.427542 9.44665131,45.305612 L9.47901728,42.7831777 C9.47997426,42.6905946 9.45267834,42.5999206 9.40077076,42.5232514 L9.40077076,42.5232514 Z" id="Path" fill="#E87722"></path>
                <rect id="Rectangle" fill="#FFFFFF" x="7.49304495" y="43.4782528" width="1.65769573" height="1"></rect>
                <path d="M12.0578196,39.6017215 L11.3305432,39.6017215 C11.2772908,39.6017215 11.2341212,39.6448911 11.2341212,39.6981435 L11.2341212,40.0173679 C11.2341212,40.0706203 11.2772908,40.11379 11.3305432,40.11379 L11.4510632,40.11379 L11.4510632,40.5920945 L11.9372996,40.5920945 L11.9372996,40.11379 L12.0578196,40.11379 C12.111072,40.11379 12.1542416,40.0706203 12.1542416,40.0173679 L12.1542416,39.6981435 C12.1542416,39.6725708 12.1440829,39.6480455 12.1260003,39.6299629 C12.1079176,39.6118802 12.0833923,39.6017215 12.0578196,39.6017215 L12.0578196,39.6017215 Z" id="Path" fill="#E87722"></path>
                <path d="M12.7862648,42.5232514 C12.3408585,41.8715011 12.1131586,41.0955013 12.135784,40.3064174 C12.1366193,40.2688771 12.1108681,40.2359548 12.0742316,40.2277241 L12.0742316,40.089788 L11.3061306,40.089788 L11.3061306,40.225806 L11.2955472,40.225806 C11.2746445,40.2258333 11.2546086,40.234163 11.2398474,40.2489627 C11.2250861,40.2637625 11.2168086,40.28382 11.2168359,40.3047228 C11.2168359,40.3066363 11.2169081,40.3085484 11.2170525,40.310459 C11.287946,41.1156417 11.0707126,41.9198471 10.6040477,42.5798236 C10.577049,42.6182918 10.5632554,42.6644789 10.5647371,42.7114527 L10.6487255,45.3094403 C10.6529191,45.4298369 10.7512369,45.5255473 10.8717027,45.5265042 L12.609035,45.5265042 C12.7309814,45.5255114 12.8299347,45.4275424 12.8321465,45.305612 L12.8645124,42.7831777 C12.8654691,42.6905944 12.8381728,42.5999204 12.7862648,42.5232514 Z" id="Path" fill="#E87722"></path>
                <rect id="Rectangle" fill="#FFFFFF" x="10.8785345" y="43.4782528" width="1.65769573" height="1"></rect>
                <path d="M21.8464968,33.2544911 L20.3132779,33.2544911 C20.2010126,33.2544911 20.1100028,33.3454998 20.1100028,33.4577651 L20.1100028,34.1307416 C20.1100028,34.2430069 20.2010126,34.3340155 20.3132779,34.3340155 L20.567354,34.3340155 L20.567354,35.3423633 L21.5924206,35.3423633 L21.5924206,34.3340155 L21.8464968,34.3340155 C21.9587619,34.3340155 22.0497707,34.2430067 22.0497707,34.1307416 L22.0497707,33.4577651 C22.0497707,33.4038534 22.0283544,33.3521499 21.9902332,33.3140286 C21.9521119,33.2759074 21.9004084,33.2544911 21.8464968,33.2544911 L21.8464968,33.2544911 Z" id="Path" fill="#FFAB6C"></path>
                <path d="M23.3821821,39.4135631 C22.4431906,38.0395643 21.9631606,36.4036266 22.0108585,34.7401054 C22.0126197,34.6609637 21.9583318,34.5915576 21.8810956,34.5742058 L21.8810956,34.2834142 L20.2618112,34.2834142 L20.2618112,34.5701632 L20.2394994,34.5701632 C20.1954328,34.5702203 20.1531938,34.5877806 20.1220746,34.6189808 C20.0909554,34.6501811 20.0735051,34.6924656 20.0735626,34.7365321 C20.0735671,34.7405676 20.0737175,34.7445986 20.0740139,34.7486251 C20.2015852,36.5269133 19.7708134,38.1216467 18.7816984,39.5328251 C18.7247804,39.613922 18.6957016,39.7112926 18.698827,39.810321 L18.8758864,45.2873135 C18.8847277,45.5411297 19.0919981,45.7429033 19.3459602,45.7449208 L23.0085383,45.7449208 C23.2656222,45.7428292 23.4742331,45.5362931 23.4788941,45.2792429 L23.547126,39.9615257 C23.5491472,39.7663481 23.4916073,39.575194 23.3821821,39.4135631 L23.3821821,39.4135631 Z" id="Path" fill="#FFAB6C"></path>
                <path d="M22.8023872,41.2328439 L19.6143982,41.2328439 C19.5189016,41.2328439 19.4281681,41.274557 19.3659874,41.3470357 C19.3038067,41.4195143 19.2763809,41.5155348 19.290901,41.609921 L19.7726514,44.7413028 L22.5389317,44.7413028 L23.1240859,41.6204682 C23.1420261,41.5247683 23.116429,41.4260491 23.0542471,41.3511242 C22.9920651,41.2761993 22.8997542,41.2328439 22.8023872,41.2328439 L22.8023872,41.2328439 Z" id="Path" fill="#FFFFFF"></path>
                <path d="M22.6835269,13.1955184 L13.5440477,13.1955184 C14.1830245,9.74086049 14.0360191,5.56924221 13.5440477,1.08295556 L22.6835269,1.08295556 C22.2046402,5.56925575 22.0615399,9.74086726 22.6835269,13.1955184 Z" id="Path" fill="#F8B583"></path>
                <circle id="Oval" fill="#FFFFFF" cx="18.1688448" cy="6.80889504" r="2.20228476"></circle>
                <path d="M14.3148464,29.2721933 L5.17536716,29.2721933 C5.81434394,25.8175343 5.66733977,21.6459171 5.17536716,17.1596305 L14.3148464,17.1596305 C13.8359608,21.6459307 13.6928605,25.8175411 14.3148464,29.2721933 Z" id="Path" fill="#E87722"></path>
                <circle id="Oval" fill="#FFFFFF" cx="9.80016425" cy="22.8855688" r="2.20228476"></circle>
                <path d="M27.8588941,13.9663183 L18.7194148,13.9663183 C19.3583927,10.5116593 19.2113874,6.3400421 18.7194148,1.85375546 L27.8588941,1.85375546 C27.3800085,6.34005564 27.2369081,10.511666 27.8588941,13.9663183 Z" id="Path" fill="#E6E6E6"></path>
                <circle id="Oval" fill="#FFFFFF" cx="23.344213" cy="7.5796938" r="2.20228476"></circle>
                <path d="M27.8588941,13.4157471 L18.7194148,13.4157471 C19.3583927,9.96108807 19.2113874,5.78947091 18.7194148,1.30318427 L27.8588941,1.30318427 C27.3800085,5.78948445 27.2369081,9.96109484 27.8588941,13.4157471 Z" id="Path" fill="#E87722"></path>
                <circle id="Oval" fill="#FFFFFF" cx="23.344213" cy="7.02912261" r="2.20228476"></circle>
                <path d="M27.8588941,13.9663183 L18.7194148,13.9663183 C19.3583927,10.5116593 19.2113874,6.3400421 18.7194148,1.85375546 L27.8588941,1.85375546 C27.3800085,6.34005564 27.2369081,10.511666 27.8588941,13.9663183 Z" id="Path" fill="#E87722"></path>
                <circle id="Oval" fill="#FFFFFF" cx="23.344213" cy="7.5796938" r="2.20228476"></circle>
                <rect id="Rectangle" fill="#E6E6E6" x="1.03028697e-13" y="12.5348334" width="29.9510651" height="3.30342601"></rect>
                <rect id="Rectangle" fill="#E6E6E6" x="1.03028697e-13" y="28.9418508" width="29.9510651" height="3.30342601"></rect>
                <rect id="Rectangle" fill="#E6E6E6" x="1.03028697e-13" y="45.3488682" width="29.9510651" height="3.30342601"></rect>
            </g>
            <path d="M6.73648452,74.9653734 C7.85188537,77.0339287 10.2191674,77.9219204 10.2191674,77.9219204 C10.2191674,77.9219204 10.7780264,75.4561108 9.66262558,73.387551 C8.54722473,71.3189912 6.17994272,70.431004 6.17994272,70.431004 C6.17994272,70.431004 5.62108457,72.8968136 6.73648452,74.9653734 Z" id="Path" fill="#2F2E41" fill-rule="nonzero"></path>
            <path d="M7.50314232,74.2848314 C9.51689963,75.4963744 10.292462,77.9028332 10.292462,77.9028332 C10.292462,77.9028332 7.80307701,78.3449929 5.78931971,77.133449 C3.7755624,75.921905 3,73.5154471 3,73.5154471 C3,73.5154471 5.48938412,73.0732883 7.50314232,74.2848314 Z" id="Path" fill="#E87722" fill-rule="nonzero"></path>
            <g id="Group" transform="translate(8.000000, 11.000000)">
                <rect id="Rectangle" fill="#F2F2F2" fill-rule="nonzero" x="56.3442136" y="10.2227674" width="1" height="1.6603008"></rect>
                <rect id="Rectangle" fill="#F2F2F2" fill-rule="nonzero" x="67.5624623" y="14.2613369" width="1" height="1.6603008"></rect>
                <rect id="Rectangle" fill="#F2F2F2" fill-rule="nonzero" x="66.3060185" y="55.9034759" width="1" height="1.6603008"></rect>
                <rect id="Rectangle" fill="#F2F2F2" fill-rule="nonzero" x="68.9086521" y="42.1723396" width="1" height="1.6603008"></rect>
                <rect id="Rectangle" fill="#2F2E41" fill-rule="nonzero" x="0" y="66.8607621" width="74.4124064" height="1"></rect>
                <path d="M57.4357205,5.55312202 C57.4357205,5.55312202 58.7476651,9.28711788 57.9403138,9.86157927 C57.1329624,10.4360407 60.6651222,15.1274683 60.6651222,15.1274683 L64.9037122,13.9785464 L62.5825794,10.0530631 C62.5825794,10.0530631 62.2798231,6.12758071 62.2798231,5.55311933 C62.2798231,4.97865794 57.4357205,5.55312202 57.4357205,5.55312202 Z" id="Path" fill="#A0616A" fill-rule="nonzero"></path>
                <path d="M57.4357205,5.55312202 C57.4357205,5.55312202 58.7476651,9.28711788 57.9403138,9.86157927 C57.1329624,10.4360407 60.6651222,15.1274683 60.6651222,15.1274683 L64.9037122,13.9785464 L62.5825794,10.0530631 C62.5825794,10.0530631 62.2798231,6.12758071 62.2798231,5.55311933 C62.2798231,4.97865794 57.4357205,5.55312202 57.4357205,5.55312202 Z" id="Path" fill="#E3A3A3" fill-rule="nonzero"></path>
                <path d="M55.2336196,32.1698116 C55.2336196,32.1698116 54.8506456,36.9569865 55.2336196,39.4463168 C55.6165935,41.9356471 56.1910549,48.8291792 56.1910549,48.8291792 C56.1910549,48.8291792 56.1910549,61.8502938 58.2974113,62.0417803 C60.4037676,62.2332669 61.9356643,62.4247543 62.1271508,61.6588064 C62.3186374,60.8928584 61.1697164,60.5098845 61.7441769,60.1269105 C62.3186374,59.7439366 62.5101248,58.4035282 61.7441769,56.8716323 C60.978229,55.3397365 61.7441769,39.8292908 61.7441769,39.8292908 L65.3824299,49.5951271 C65.3824299,49.5951271 65.7654039,57.6375803 66.1483778,58.7865021 C66.5313518,59.935424 65.7654039,62.0417803 67.1058123,62.2332678 C68.4462207,62.4247552 69.9781174,61.2758324 70.7440653,60.8928584 C71.5100132,60.5098845 69.5951434,60.5098845 69.9781174,60.3183944 C70.3610914,60.1269043 71.5100132,59.5524465 71.1270393,59.360959 C70.7440653,59.1694716 70.3610914,49.9780975 70.3610914,49.9780975 C70.3610914,49.9780975 69.3079123,30.3506856 67.9675039,29.5847394 C66.6270955,28.8187933 65.7654066,30.1380917 65.7654066,30.1380917 L55.2336196,32.1698116 Z" id="Path" fill="#BDB9CB" fill-rule="nonzero"></path>
                <path d="M58.6803852,61.2758324 L58.6803852,62.8077282 C58.6803852,62.8077282 56.9570028,66.9718901 58.6803852,66.9718901 C60.4037676,66.9718901 61.7441769,67.4034157 61.7441769,66.8289552 L61.7441769,61.6588064 L58.6803852,61.2758324 Z" id="Path" fill="#2F2E41" fill-rule="nonzero"></path>
                <path d="M69.9781174,61.2731131 L69.9781174,62.8050089 C69.9781174,62.8050089 71.7014998,66.9691699 69.9781174,66.9691699 C68.254735,66.9691699 66.9143257,67.4006964 66.9143257,66.826235 L66.9143257,61.6560871 L69.9781174,61.2731131 Z" id="Path" fill="#2F2E41" fill-rule="nonzero"></path>
                <circle id="Oval" fill="#FFC5C5" fill-rule="nonzero" cx="60.1165382" cy="4.88291782" r="3.44676562"></circle>
                <path d="M59.0633592,11.2977314 C59.0633592,11.2977314 60.0207945,14.1700356 61.5526903,13.5955751 L63.0845862,13.0211111 L65.7654039,31.4038637 C65.7654039,31.4038637 63.6590467,34.4676554 60.595255,32.5527856 C57.5314633,30.6379158 59.0633592,11.2977314 59.0633592,11.2977314 Z" id="Path" fill="#FFD3AC" fill-rule="nonzero"></path>
                <path d="M66.7228383,13.2126012 L69.0905753,13.2126012 C69.0905753,13.2126012 70.7440653,20.4891064 70.9355519,21.2550552 C71.1270384,22.021004 71.5100159,25.6592552 71.3185258,25.6592552 C71.1270357,25.6592552 67.2972997,24.8933073 67.2972997,25.4677687 L66.7228383,13.2126012 Z" id="Path" fill="#EE8347" fill-rule="nonzero"></path>
                <path d="M61.7441769,10.7232736 L62.6058685,8.90414752 C62.6058685,8.90414752 67.6802737,11.297735 68.4462216,12.0636829 C69.2121695,12.8296308 69.2121695,13.9785527 69.2121695,13.9785527 L67.8717602,18.7657267 C67.8717602,18.7657267 68.2547341,29.2975083 68.2547341,29.6804849 C68.2547341,30.0634616 69.5951434,32.1698152 68.6377081,31.4038673 C67.6802728,30.6379194 67.4887862,29.8719715 66.7228383,31.0208933 C65.9568904,32.1698152 64.233508,33.5102245 64.233508,33.5102245 L61.7441769,10.7232736 Z" id="Path" fill="#D46425" fill-rule="nonzero"></path>
                <path d="M68.4462216,24.5103325 L67.8717575,29.8719679 C67.8717575,29.8719679 64.4249919,32.9357595 65.1909398,33.127247 C65.9568877,33.3187344 66.3398617,32.5527829 66.3398617,32.5527829 C66.3398617,32.5527829 67.680271,33.8931922 68.4462189,33.127247 C69.2121668,32.3613017 71.1270384,25.0847939 71.1270384,25.0847939 L68.4462216,24.5103325 Z" id="Path" fill="#FFC5C5" fill-rule="nonzero"></path>
                <path d="M60.1899639,0.0116553971 C59.4258558,-0.0156605897 58.6081469,-0.0291727458 57.963899,0.382594418 C57.6674776,0.589242715 57.4074876,0.843750126 57.1945695,1.13570058 C56.5671077,1.92891692 56.0249522,2.92696411 56.2580225,3.9111285 L56.528726,3.80555132 C56.5287171,4.06825529 56.4703156,4.32767285 56.3577464,4.56503663 C56.395866,4.45419136 56.523527,4.6333791 56.48935,4.74550235 L56.1911519,5.72379376 C56.6813507,5.54408729 57.2911334,5.90794266 57.3657644,6.42468212 C57.3998446,5.28838751 57.5177223,3.98541754 58.4394854,3.32007129 C58.9043257,2.98453976 59.4926232,2.88211086 60.0586485,2.7911533 C60.5808194,2.7072408 61.1282241,2.62722418 61.6283749,2.79912813 C62.1285257,2.97103209 62.5544378,3.48254384 62.4410518,3.99911547 C62.6716667,3.91967412 62.9295895,4.08039483 63.0435588,4.29604546 C63.1575281,4.5116961 63.1635151,4.76609008 63.1669452,5.00998019 C63.4127693,5.18371317 63.6925264,4.8387269 63.7927107,4.55486751 C64.0278749,3.88856277 64.2369004,3.17929573 64.1102168,2.4841583 C63.9835332,1.78902087 63.4170861,1.12471029 62.7105042,1.12235266 C62.7962687,1.02814929 62.8420273,0.904279462 62.8381015,0.776943679 L62.2557146,0.727735953 C62.4035645,0.706801162 62.5395364,0.635113837 62.6403435,0.524951301 C62.4065193,0.78224677 60.5680844,0.0251720405 60.1899639,0.0116553971 Z" id="Path" fill="#E9AE91" fill-rule="nonzero"></path>
                <path d="M54.4676699,12.0636793 L52.1698261,12.6381434 L50.4464456,22.7869501 C50.4464456,22.7869501 49.8719815,25.4677678 50.8294195,25.6592543 C51.7868576,25.8507409 54.4676699,27.3826421 54.4676699,27.3826421 C54.4676699,27.3826421 54.8506438,24.510337 55.6165918,24.510337 L53.7017238,22.9784366 L54.8506456,16.2763964 L54.4676699,12.0636793 Z" id="Path" fill="#EE8347" fill-rule="nonzero"></path>
                <path d="M60.0207927,10.1488095 C60.0207927,10.1488095 58.4619686,8.62125649 57.9009718,8.71482835 C57.339975,8.80840021 56.5740289,10.1488095 56.5740289,10.1488095 C56.5740289,10.1488095 51.9783414,11.6807053 52.1698279,13.2126012 C52.3613145,14.744497 54.4676699,22.2124887 54.4676699,22.2124887 C54.4676699,22.2124887 56.1910531,31.2123772 54.6591573,32.1698116 C53.1272615,33.1272461 61.9356625,35.6165772 62.127149,34.4676554 C62.3186356,33.3187335 62.7016131,21.8295148 62.127149,20.1061324 C61.552685,18.3827501 60.0207927,10.1488095 60.0207927,10.1488095 Z" id="Path" fill="#D46425" fill-rule="nonzero"></path>
                <rect id="Rectangle" fill="#3D3D3D" transform="translate(59.535721, 26.123742) rotate(3.000000) translate(-59.535721, -26.123742) " x="57.4357205" y="22.1596305" width="4.2" height="7.92822311" rx="1"></rect>
                <path d="M53.8932112,26.2337139 L56.5740289,27.3826421 C56.5740289,27.3826421 61.7441769,28.14859 61.7441769,26.0422328 C61.7441769,23.9358756 56.5740289,25.0847983 56.5740289,25.0847983 L54.8505308,24.5337454 L53.8932112,26.2337139 Z" id="Path" fill="#FFC5C5" fill-rule="nonzero"></path>
            </g>
            <g id="Group-5" transform="translate(34.329158, 57.451669) scale(-1, 1) translate(-34.329158, -57.451669) translate(10.829158, 36.951669)">
                <path d="M37.0236111,34.9614282 L29.6480363,29.7447483 C32.1355606,27.3215518 34.3980247,23.871142 36.5617092,19.9698909 L43.9372829,25.1865708 C40.9901065,28.5336812 38.4935307,31.8184986 37.0236111,34.9614282 Z" id="Path" fill="#E87722" fill-rule="nonzero"></path>
                <g id="Group-8" transform="translate(31.829158, 4.048331)" fill-rule="nonzero">
                    <path d="M13.889057,7.09003116 C13.889057,7.22578524 13.889057,7.35997892 13.889057,7.49261222 C13.889057,7.56517043 13.889057,7.63772865 13.8726729,7.70794627 C13.774486,8.91026923 13.3717323,10.0677833 12.7023791,11.0713706 C12.657908,11.1392476 12.6110962,11.2047841 12.5642845,11.2703205 C11.2692595,13.0862575 9.17728004,14.1653702 6.94687432,14.1679679 C6.79005495,14.1679679 6.63323559,14.1679679 6.47875681,14.1515838 C6.32427803,14.1351997 6.19086454,14.1281779 6.0480887,14.1094532 L6.0480887,14.1094532 C4.04004881,13.8371851 2.25132116,12.7008472 1.15157953,10.9988124 C1.11413013,10.9449789 1.07902132,10.8864642 1.04625309,10.8326307 L1.04625309,10.8209277 C0.359870747,9.69768386 -0.0022432708,8.40638689 -1.63424829e-13,7.09003116 C-0.000409970074,6.7391522 0.0246219795,6.38870491 0.074909258,6.04144793 L0.112358659,5.80738918 C0.49713325,3.63678107 1.87128935,1.76938254 3.8292117,0.756401233 L4.08199515,0.632350092 C5.74128056,-0.1333679 7.63722123,-0.206645038 9.35065774,0.428718975 C9.57157065,0.510851568 9.78798692,0.604605909 9.99900049,0.709589482 L9.99900049,0.709589482 C11.5538369,1.48401234 12.7681674,2.80502389 13.4092366,4.41942076 C13.4326424,4.47325427 13.4513671,4.5247472 13.4700918,4.57858071 C13.7585254,5.38401451 13.9004193,6.23458482 13.889057,7.09003116 L13.889057,7.09003116 Z" id="Path" fill="#FFBF7D"></path>
                    <path d="M13.4420048,4.57858071 C12.9967836,4.71063498 12.5348128,4.77764439 12.0704205,4.7775308 L11.9908405,4.7775308 L11.8082747,4.7775308 C11.6959265,4.7775308 11.5859189,4.76348713 11.4805924,4.7494436 C10.5702548,4.64059417 9.69808881,4.3199449 8.93403315,3.81320858 L8.93403315,3.81320858 C6.89070022,1.73008566 4.88949786,1.01854704 3.80814641,0.770444758 L4.06092986,0.646393618 C5.12355661,0.915561187 6.84856964,1.58262864 8.6438003,3.26785168 C9.10665905,3.70576231 9.65263819,4.04640235 10.2494434,4.26962315 C10.6596175,4.42125727 11.0861886,4.52416854 11.5203824,4.57624012 C11.6140059,4.57624012 11.7052888,4.59496482 11.7965717,4.60198659 L11.9814782,4.60198659 C12.4559429,4.61495702 12.9295845,4.55496242 13.3858307,4.42410193 C13.4022148,4.48261662 13.4232801,4.53410955 13.4420048,4.57858071 Z" id="Path" fill="#FFFFFF" opacity="0.5"></path>
                    <path d="M13.8773541,7.49261222 C13.8773541,7.56517043 13.8773541,7.63772865 13.86097,7.70794627 C13.2623652,7.32508278 12.6224541,7.01101601 11.9533911,6.77171125 L11.777847,6.70851539 C10.1827576,6.17260101 8.5350073,5.80852665 6.86261317,5.62248276 C2.93042608,5.12159702 0.969013704,5.58971453 0.0351192695,6.03442617 L0.0725686704,5.80036741 C1.08370249,5.35565578 3.0755425,4.95073413 6.88601904,5.43523576 C8.55726402,5.62185791 10.2045487,5.98190726 11.8012529,6.50956544 L11.976797,6.57276131 C12.6418081,6.8095274 13.2790785,7.11796 13.8773541,7.49261222 L13.8773541,7.49261222 Z" id="Path" fill="#FFFFFF" opacity="0.5"></path>
                    <path d="M11.976797,6.58914542 C11.976797,6.65234128 11.9627535,6.71553715 11.9557317,6.7810736 C11.9151615,7.1009539 11.857427,7.43565792 11.7825282,7.78518566 C11.7247937,8.04889186 11.6608177,8.30245551 11.5906,8.54587662 C11.5718753,8.60907248 11.5531506,8.67226834 11.5344259,8.73312362 C10.6450027,11.5816187 8.83572848,13.0257612 7.40562948,13.7466622 C7.10199485,13.9010561 6.7893525,14.0370555 6.46939446,14.1539244 L6.03872635,14.1117938 L6.03872635,14.1117938 C6.48799325,13.9719981 6.92484952,13.7950635 7.3447742,13.582821 C8.74912674,12.8806448 10.5256327,11.4458646 11.3916501,8.62545659 C11.4103748,8.56928249 11.4267589,8.5107678 11.443143,8.45225311 C11.5086795,8.22599632 11.5679743,7.99193756 11.6210277,7.75007685 C11.6974869,7.39898871 11.7560016,7.05570254 11.7965717,6.72021832 C11.7965717,6.65702246 11.8106153,6.59148601 11.817637,6.52829014 C11.8773536,5.94779579 11.8773536,5.36270618 11.817637,4.78221183 C11.817637,4.72135655 11.8059341,4.66050127 11.7965717,4.60198659 C11.6538985,3.34121149 11.107043,2.16046332 10.2377404,1.23622168 C9.95383952,0.938792601 9.64011181,0.671339722 9.3015054,0.438081325 C9.52241831,0.520213918 9.73883458,0.613968259 9.94984815,0.718951832 L9.94984815,0.718951832 C10.0871626,0.839101993 10.2229167,0.970174896 10.3571104,1.11217054 C11.2517204,2.07439783 11.810895,3.30031217 11.9510505,4.60666776 C11.9510505,4.66518245 11.965094,4.72603773 11.9721158,4.78455242 C12.0362442,5.38429389 12.037813,5.98907932 11.976797,6.58914542 Z" id="Path" fill="#FFFFFF" opacity="0.5"></path>
                    <path d="M12.6836544,11.0737112 C12.6391833,11.1415882 12.5923715,11.2071247 12.5455598,11.2726611 C12.3490529,10.420663 12.0338985,9.6004738 11.6093247,8.83610947 C11.5870033,8.79809479 11.559424,8.76342368 11.5274042,8.73312362 C11.4806168,8.6904663 11.4277705,8.65497253 11.3705848,8.62779718 C10.4694586,8.18074496 7.7777829,8.92973298 5.77658054,10.0110844 C4.23647393,10.8443336 2.22122805,10.9917906 1.11881131,11.001153 L1.01348487,10.8349712 L1.01348487,10.8232683 C2.06674927,10.8232683 4.13582867,10.6968766 5.69465998,9.85426506 C7.56713002,8.84781241 10.3524292,7.98179502 11.4244183,8.44991253 C11.4812267,8.47474753 11.5353424,8.50533471 11.5859189,8.54119544 C11.6594618,8.59369091 11.7215732,8.66058011 11.7684847,8.7378048 C12.1739812,9.47325581 12.481642,10.2585384 12.6836544,11.0737112 L12.6836544,11.0737112 Z" id="Path" fill="#FFFFFF" opacity="0.5"></path>
                </g>
                <g id="Group-2" transform="translate(21.771074, 13.394485) rotate(-63.000000) translate(-21.771074, -13.394485) translate(11.271074, 4.894485)">
                    <path d="M7.37557476,14.9915373 L-4.54747351e-13,9.77485742 C2.48752427,7.35166088 4.74998838,3.90125115 6.91367291,2.72848411e-12 L14.2892466,5.21667991 C11.3420701,8.56379026 8.84549436,11.8486077 7.37557476,14.9915373 Z" id="Path-Copy" fill="#E87722" fill-rule="nonzero"></path>
                    <polygon id="Rectangle" fill="#E87722" transform="translate(12.871360, 8.289288) rotate(39.000000) translate(-12.871360, -8.289288) " points="10.5040257 -0.098248403 15.2386949 -0.451268179 15.2386949 0.922751775 15.2386949 17.029845 14.1529833 17.029845 14.1529833 1.62714163"></polygon>
                    <circle id="Oval-Copy" fill="#FFFFFF" fill-rule="nonzero" cx="7.3776096" cy="7.2606072" r="2.17686292"></circle>
                </g>
                <circle id="Oval" fill="#FFFFFF" fill-rule="nonzero" cx="37.0256459" cy="27.2304981" r="2.17686292"></circle>
                <path d="M27.0651048,22.4548071 L25.5495833,22.4548071 C25.4386136,22.4548071 25.348654,22.5447656 25.348654,22.6557353 L25.348654,23.3209435 C25.348654,23.4319129 25.438614,23.5218707 25.5495833,23.5218707 L25.8007272,23.5218707 L25.8007272,24.5185797 L26.813961,24.5185797 L26.813961,23.5218707 L27.0651048,23.5218707 C27.1760738,23.5218707 27.2660319,23.4319125 27.2660319,23.3209435 L27.2660319,22.6557353 C27.2660319,22.5447662 27.176074,22.4548071 27.0651048,22.4548071 L27.0651048,22.4548071 Z" id="Path" fill="#E6E6E6" fill-rule="nonzero"></path>
                <path d="M30.5641303,9.78848705 L29.0486089,9.78848705 C28.9376391,9.78848705 28.8476796,9.87844551 28.8476796,9.98941528 L28.8476796,10.6546235 C28.8476796,10.7655928 28.9376395,10.8555506 29.0486089,10.8555506 L29.2997527,10.8555506 L29.2997527,11.8522596 L30.3129865,11.8522596 L30.3129865,10.8555506 L30.5641303,10.8555506 C30.6750993,10.8555506 30.7650575,10.7655925 30.7650575,10.6546235 L30.7650575,9.98941528 C30.7650575,9.87844611 30.6750995,9.78848705 30.5641303,9.78848705 L30.5641303,9.78848705 Z" id="Path-Copy-4" fill="#E6E6E6" fill-rule="nonzero"></path>
                <path d="M28.5830627,28.5427877 C27.6549099,27.1846487 27.1804211,25.5675942 27.2275687,23.9232748 C27.2293097,23.8450469 27.1756485,23.7764422 27.099304,23.759291 L27.099304,23.4718559 L25.4987103,23.4718559 L25.4987103,23.7552947 L25.4766564,23.7552947 C25.4330985,23.7553514 25.3913471,23.772709 25.360587,23.8035492 C25.329827,23.8343894 25.3125781,23.8761859 25.3126348,23.9197438 C25.3126405,23.9237329 25.312791,23.9277173 25.313086,23.931697 C25.4391831,25.6894572 25.0133833,27.2657826 24.0356865,28.6606731 C23.979426,28.7408341 23.950683,28.8370804 23.9537718,28.9349655 L24.128788,34.3487371 C24.137527,34.5996238 24.3424052,34.7990686 24.593436,34.8010628 L28.2137366,34.8010628 C28.4678524,34.7989935 28.6740543,34.5948422 28.6786631,34.3407597 L28.7461084,29.0844302 C28.7481054,28.8915032 28.6912276,28.7025537 28.5830627,28.5427877 L28.5830627,28.5427877 Z" id="Path" fill="#E87722" fill-rule="nonzero"></path>
                <path d="M32.0395783,16.0522902 C31.1114256,14.6941512 30.6369367,13.0770967 30.6840844,11.4327773 C30.6858253,11.3545494 30.6321641,11.2859447 30.5558197,11.2687935 L30.5558197,10.9813584 L28.955226,10.9813584 L28.955226,11.2647972 L28.933172,11.2647972 C28.8896141,11.2648539 28.8478627,11.2822116 28.8171027,11.3130518 C28.7863426,11.3438919 28.7690937,11.3856884 28.7691504,11.4292463 C28.7691562,11.4332354 28.7693066,11.4372198 28.7696016,11.4411995 C28.8956987,13.1989597 28.4698989,14.7752851 27.4922021,16.1701757 C27.4359417,16.2503366 27.4071986,16.346583 27.4102874,16.444468 L27.5853036,21.8582396 C27.5940427,22.1091263 27.7989208,22.3085711 28.0499517,22.3105654 L31.6702522,22.3105654 C31.924368,22.308496 32.1305699,22.1043447 32.1351788,21.8502622 L32.2026241,16.5939327 C32.204621,16.4010057 32.1477432,16.2120562 32.0395783,16.0522902 L32.0395783,16.0522902 Z" id="Path-Copy-2" fill="#E87722" fill-rule="nonzero"></path>
                <path d="M26.7491734,22.6715574 C26.7491734,22.9109696 26.5550915,23.1050515 26.3156793,23.1050515 C26.0762672,23.1050515 25.8821853,22.9109696 25.8821853,22.6715574" id="Path" fill="#000000" fill-rule="nonzero" opacity="0.2"></path>
                <path d="M30.2481989,10.0052373 C30.2481989,10.2446495 30.054117,10.4387314 29.8147048,10.4387314 C29.5752927,10.4387314 29.3812108,10.2446495 29.3812108,10.0052373" id="Path-Copy-5" fill="#000000" fill-rule="nonzero" opacity="0.2"></path>
                <path d="M28.0099617,30.3410712 L24.8587708,30.3410712 C24.7643758,30.3410712 24.6746882,30.3822956 24.6132247,30.4539381 C24.5517612,30.5255807 24.5246527,30.620494 24.5390072,30.7137912 L25.0151972,33.809028 L27.7495462,33.809028 L28.3279463,30.7242201 C28.3456806,30.6296249 28.3203794,30.5320449 28.2589151,30.4579848 C28.1974508,30.3839246 28.106205,30.3410712 28.0099617,30.3410712 L28.0099617,30.3410712 Z" id="Path" fill="#FFFFFF" fill-rule="nonzero"></path>
                <path d="M31.4664774,17.8505737 L28.3152864,17.8505737 C28.2208914,17.8505737 28.1312038,17.8917981 28.0697403,17.9634407 C28.0082768,18.0350832 27.9811683,18.1299965 27.9955228,18.2232937 L28.4717128,21.3185305 L31.2060618,21.3185305 L31.784462,18.2337226 C31.8021962,18.1391274 31.776895,18.0415474 31.7154307,17.9674873 C31.6539664,17.8934272 31.5627206,17.8505737 31.4664774,17.8505737 L31.4664774,17.8505737 Z" id="Path-Copy-3" fill="#FFFFFF" fill-rule="nonzero"></path>
                <path d="M22.7410681,34.9529003 L13.7070834,34.9529003 C14.338685,31.538119 14.1933773,27.4146543 13.7070834,22.9801526 L22.7410681,22.9801526 C22.2677129,27.4146673 22.126259,31.5381255 22.7410681,34.9529003 Z" id="Path" fill="#E87722" fill-rule="nonzero"></path>
                <circle id="Oval" fill="#FFFFFF" fill-rule="nonzero" cx="18.2784965" cy="28.6399966" r="2.17686292"></circle>
                <polygon id="Path" fill="#3F3D56" fill-rule="nonzero" points="41.438329 35.7436377 12.7377825 35.7436377 6.6601607 7.01297351 1.47333186 7.01297351 1.47333186 5.7238497 7.70510447 5.7238497 13.7827263 34.454406 41.438329 34.454406"></polygon>
                <circle id="Oval" fill="#3F3D56" fill-rule="nonzero" cx="16.9436834" cy="38.2298871" r="2.76255714"></circle>
                <circle id="Oval" fill="#3F3D56" fill-rule="nonzero" cx="37.5707752" cy="38.2298871" r="2.76255714"></circle>
                <path d="M40.9150454,35.1365347 L12.9910367,35.1365347 L8.06411283,10.7884871 L45.5386657,10.7884871 C45.9256492,10.7884871 46.2932454,10.9578685 46.5447661,11.2519664 C46.7962869,11.5460643 46.9065539,11.9354795 46.846564,12.3177849 L42.2227634,34.0181905 C42.1241386,34.6634802 41.5678227,35.1392297 40.9150454,35.1365347 L40.9150454,35.1365347 Z M13.2942701,34.7681902 L40.9150454,34.7681902 C41.3861791,34.7701668 41.787679,34.4267453 41.8587386,33.9609971 L46.4825393,12.2605915 C46.5259274,11.9846647 46.4463888,11.7035698 46.2648567,11.4912865 C46.0833245,11.2790031 45.817983,11.1568276 45.5386657,11.1568276 L8.51123002,11.1568276 L13.2942701,34.7681902 Z" id="Shape" fill="#3F3D56" fill-rule="nonzero"></path>
                <polygon id="Path" fill="#3F3D56" fill-rule="nonzero" points="18.4195563 35.058595 15.1929686 11.0026509 15.556324 10.9426314 18.7829118 34.9985755"></polygon>
                <polygon id="Path" fill="#3F3D56" fill-rule="nonzero" points="36.3605284 34.8738948 35.9968491 34.8149547 39.1291976 10.9431711 39.4928769 11.0021111"></polygon>
                <rect id="Rectangle" fill="#3F3D56" fill-rule="nonzero" x="27.4442769" y="10.9726573" width="1" height="24.0559172"></rect>
                <polygon id="Rectangle" fill="#3F3D56" fill-rule="nonzero" transform="translate(27.772658, 17.645962) rotate(-89.861270) translate(-27.772658, -17.645962) " points="27.5884869 -0.18153936 27.9568285 -0.18153936 27.9568285 35.4734631 27.5884869 35.4734631"></polygon>
                <polygon id="Rectangle" fill="#3F3D56" fill-rule="nonzero" transform="translate(27.423944, 29.088293) rotate(-0.391660) translate(-27.423944, -29.088293) " points="11.7617754 28.9041188 43.0861131 28.9041188 43.0861131 29.272468 11.7617754 29.272468"></polygon>
                <ellipse id="Oval" fill="#3F3D56" fill-rule="nonzero" cx="2.02587502" cy="6.18422515" rx="2.02587502" ry="1.10502264"></ellipse>
            </g>
        </g>
    </g>
</svg>