<svg width="25" height="25" xmlns="http://www.w3.org/2000/svg">
    <path d="M12 16c1.312 0 2.427.842 2.835 2.015l.048-.008L15 18h6a1 1 0 0 1 .117 1.993L21 20h-6c-.057 0-.112-.005-.166-.014a3 3 0 0 1-5.669-.001l-.048.008L9 20H3a1 1 0 0 1-.117-1.993L3 18h6c.057 0 .112.005.166.014A3 3 0 0 1 12 16zm0 2a1 1 0 1 0 0 2 1 1 0 0 0 0-2zM5 9c1.312 0 2.427.842 2.835 2.015l.048-.008L8 11h13a1 1 0 0 1 .117 1.993L21 13H8c-.057 0-.112-.005-.166-.014A3 3 0 1 1 5 9zm0 2a1 1 0 1 0 0 2 1 1 0 0 0 0-2zm11-9c1.312 0 2.427.842 2.835 2.015l.048-.008L19 4h2a1 1 0 0 1 .117 1.993L21 6h-2c-.057 0-.112-.005-.166-.014a3 3 0 0 1-5.669-.001l-.048.008L13 6H3a1 1 0 0 1-.117-1.993L3 4h10c.057 0 .112.005.166.014A3 3 0 0 1 16 2zm0 2a1 1 0 1 0 0 2 1 1 0 0 0 0-2z" fill="#E87722" fill-rule="nonzero"/>
</svg>
