<?xml version="1.0" encoding="UTF-8"?>
<svg width="128px" height="128px" viewBox="0 0 128 128" version="1.1" xmlns="http://www.w3.org/2000/svg" xmlns:xlink="http://www.w3.org/1999/xlink">
    <title>Holiday</title>
    <defs>
        <linearGradient x1="34.785216%" y1="6.51388665e-14%" x2="88.8244777%" y2="58.0798609%" id="linearGradient-1">
            <stop stop-color="#FFF9F1" offset="0%"></stop>
            <stop stop-color="#FFF4EB" offset="100%"></stop>
        </linearGradient>
        <circle id="path-2" cx="64" cy="64" r="64"></circle>
    </defs>
    <g id="Symbols" stroke="none" stroke-width="1" fill="none" fill-rule="evenodd">
        <g id="Earning/Holiday" transform="translate(-16.000000, -26.000000)">
            <g id="Holiday" transform="translate(16.000000, 26.000000)">
                <mask id="mask-3" fill="white">
                    <use xlink:href="#path-2"></use>
                </mask>
                <use id="Mask" fill="url(#linearGradient-1)" xlink:href="#path-2"></use>
                <g id="undraw_santa_visit_loux" mask="url(#mask-3)" fill-rule="nonzero">
                    <g transform="translate(5.000000, 18.000000)">
                        <ellipse id="Oval" fill="#FFE6D7" cx="77.0562771" cy="96.9469423" rx="77.0562771" ry="3.03030303"></ellipse>
                        <path d="M46.1914884,74.6805743 C46.1914884,82.5283366 39.8295704,88.8902049 31.9818081,88.8902049 C24.1340458,88.8902049 17.7721775,82.5283366 17.7721775,74.6805743 C17.7721775,66.832812 24.1340458,60.470894 31.9818081,60.470894 C35.7534885,60.4609591 39.3735678,61.9548344 42.0405579,64.6218245 C44.707548,67.2888146 46.2014233,70.9088939 46.1914884,74.6805743 Z" id="Path" fill="#FF6584"></path>
                        <path d="M39.9888225,49.7573333 C39.9888225,52.435544 36.5554329,54.6066522 32.3201356,54.6066522 C28.0848384,54.6066522 24.6514488,52.4355382 24.6514488,49.7573333 C24.6514488,47.0791284 28.0848384,38.3670736 32.3201356,38.3670736 C36.5554329,38.3670736 39.9888225,47.0791284 39.9888225,49.7573333 Z" id="Path" fill="#FF6584"></path>
                        <circle id="Oval" fill="#FFB8B8" cx="32.2637446" cy="58.1590592" r="8.458114"></circle>
                        <ellipse id="Oval" fill="#EAE6FC" cx="32.2637446" cy="67.9704704" rx="9.52947475" ry="8.74005051"></ellipse>
                        <path d="M39.3685657,61.993404 L34.4105974,61.993404 C33.2872089,61.993404 32.3765195,61.082719 32.3765195,59.9593304 L32.3765195,59.9593304 C32.3765195,59.309436 32.6870745,58.698669 33.2122568,58.3158552 C33.737439,57.9330413 34.4139551,57.8242935 35.0326522,58.0232323 C38.6973766,59.2025685 42.191785,59.9660202 44.2178846,57.1440938 L44.2178846,57.1440938 C44.2178846,58.4302121 43.7069744,59.663654 42.7975506,60.5730762 C41.8881268,61.4824983 40.654684,61.993404 39.3685657,61.993404 Z" id="Path" fill="#EAE6FC"></path>
                        <path d="M25.0461501,61.993404 L30.0041183,61.993404 C31.1275069,61.993404 32.0381962,61.082719 32.0381962,59.9593304 L32.0381962,59.9593304 C32.0381962,59.309436 31.7276412,58.698669 31.202459,58.3158552 C30.6772767,57.9330413 30.0007606,57.8242935 29.3820635,58.0232323 C25.7173391,59.2025685 22.2229307,59.9660202 20.1968312,57.1440938 L20.1968312,57.1440938 C20.1968312,58.4302121 20.7077414,59.663654 21.6171652,60.5730762 C22.5265889,61.4824983 23.7600318,61.993404 25.0461501,61.993404 L25.0461501,61.993404 Z" id="Path" fill="#EAE6FC"></path>
                        <circle id="Oval" fill="#FFB8B8" cx="32.2073579" cy="59.5687446" r="1.57884848"></circle>
                        <path d="M39.538619,54.6066522 L25.0743506,54.6066522 C24.3669649,54.6066522 23.755452,54.1130791 23.6061616,53.4216263 L23.1833997,51.4635743 C23.0875833,51.0197933 23.1976361,50.556486 23.4827861,50.2031988 C23.7679361,49.8499116 24.1975818,49.6445584 24.6515887,49.6445584 L39.9168831,49.6445584 C40.3651511,49.6445584 40.7899902,49.8447792 41.0753226,50.1905097 C41.3606551,50.5362402 41.4766559,50.9913443 41.3916306,51.4314747 L41.0133709,53.3895267 C40.8768636,54.0961551 40.258312,54.6066522 39.538619,54.6066522 L39.538619,54.6066522 Z" id="Path" fill="#EAE6FC"></path>
                        <circle id="Oval" fill="#EAE6FC" cx="34.8011789" cy="39.0437215" r="2.02994661"></circle>
                        <ellipse id="Oval" fill="#FFB8B8" cx="32.3201328" cy="62.5008903" rx="3.15769553" ry="1"></ellipse>
                        <path d="M45.7572583,78.1765945 C45.3947103,79.6129248 44.8078318,80.9830656 44.0182655,82.2364892 L19.9453506,82.2364892 C19.1557856,80.983065 18.5689071,79.6129243 18.2063579,78.1765945 L45.7572583,78.1765945 Z" id="Path" fill="#3F3D56"></path>
                        <path d="M35.5906061,83.8153362 L28.3730159,83.8153362 L28.3730159,76.597746 L35.5906061,76.597746 L35.5906061,83.8153362 Z M29.5007619,82.6875887 L34.4628543,82.6875887 L34.4628543,77.7254949 L29.5007619,77.7254949 L29.5007619,82.6875887 Z" id="Shape" fill="#EAE6FC"></path>
                        <rect id="Rectangle" fill="#FF6584" x="26.9069394" y="87.6496811" width="1.69162338" height="6.9920404"></rect>
                        <rect id="Rectangle" fill="#FF6584" x="35.2522785" y="87.6496811" width="1.69162338" height="6.9920404"></rect>
                        <polygon id="Rectangle" fill="#FF6584" transform="translate(44.909158, 67.662723) rotate(32.028030) translate(-44.909158, -67.662723) " points="44.0633463 64.1667029 45.7549697 64.1667029 45.7549697 71.1587433 44.0633463 71.1587433"></polygon>
                        <path d="M38.1844242,95.463938 L38.1844242,92.1606753 L34.3500808,92.1606753 L35.2725238,95.4311457 L35.2522799,95.4311457 L35.2522799,97.235544 L39.6504993,97.235544 L39.6504993,97.235544 C39.6502246,96.3697211 39.0349113,95.6261761 38.1844242,95.463938 Z" id="Path" fill="#3F3D56"></path>
                        <path d="M25.7791919,95.463938 L25.7791919,92.1606753 L29.6135354,92.1606753 L28.6910924,95.4311457 L28.7113362,95.4311457 L28.7113362,97.235544 L24.3131183,97.235544 L24.3131183,97.235544 C24.3133929,96.3697215 24.9287055,95.6261767 25.7791919,95.463938 L25.7791919,95.463938 Z" id="Path" fill="#3F3D56"></path>
                        <path d="M48.673342,61.976101 C48.0242482,61.337153 47.3250866,61.9954589 46.8117864,62.7540491 C46.6849899,62.3972468 46.5046984,62.1564473 46.3727518,62.1905397 C46.2153665,62.2312063 46.1866768,62.6469336 46.3086825,63.1190952 C46.3355307,63.223525 46.3691226,63.3261039 46.4092468,63.4261861 C46.1852237,63.8441429 46.0492843,64.1741198 46.0492843,64.1741198 L45.3416277,64.9649668 L47.350785,66.2698297 L47.8423203,65.2308254 C47.8423203,65.2308254 49.89643,63.1800736 48.673342,61.976101 Z" id="Path" fill="#3F3D56"></path>
                        <polygon id="Rectangle" fill="#FF6584" transform="translate(17.620558, 73.250429) rotate(-147.971970) translate(-17.620558, -73.250429) " points="16.7747464 69.7544088 18.4663698 69.7544088 18.4663698 76.7464492 16.7747464 76.7464492"></polygon>
                        <path d="M13.8563723,78.9370519 C14.5054661,79.576 15.2046291,78.9176941 15.7179293,78.1591039 C15.8447258,78.5159062 16.0250173,78.7567071 16.1569639,78.7226133 C16.3143492,78.6819481 16.343039,78.2662208 16.2210332,77.7940577 C16.1941837,77.6896283 16.1605919,77.5870495 16.120469,77.4869668 C16.3444921,77.0690101 16.48043,76.7390332 16.48043,76.7390332 L17.1880866,75.9481861 L15.1789322,74.6433232 L14.6873954,75.682329 C14.6873954,75.682329 12.6332857,77.7330808 13.8563723,78.9370519 Z" id="Path" fill="#3F3D56"></path>
                        <polygon id="Path" fill="#E87722" points="113.997114 88.0620491 101.783838 66.9080808 106.546032 66.9080808 96.0090909 48.6577201 103.652958 48.6577201 92.5466089 29.4207792 98.2608947 29.4207792 83.7434343 4.27590188 69.2261183 29.4207792 74.9402597 29.4207792 63.8339105 48.6577201 71.4777778 48.6577201 60.9409812 66.9080808 65.7030303 66.9080808 53.4897547 88.0620491 77.521645 88.0620491 77.521645 96.0810967 87.7529582 96.0810967 87.7529582 88.0620491"></polygon>
                        <circle id="Oval" fill="#FFD3A8" cx="99.0186046" cy="51.401" r="2.53860895"></circle>
                        <polygon id="Path" fill="#575A89" points="97.3415584 51.3203463 96.684127 50.3020202 96.8174603 50.215873 97.3828283 51.0917749 98.5435786 50.2294372 99.5813853 51.252381 100.601732 50.3650794 101.537229 51.4406926 101.417605 51.5448773 100.586147 50.5888889 99.5747475 51.4685426 98.5290043 50.4378066"></polygon>
                        <polygon id="Path" fill="#575A89" points="101.178788 52.7933622 100.340693 51.8297258 99.3287157 52.7098124 98.2835498 51.6796537 97.0976912 52.5607504 96.4463203 51.5515152 96.562482 51.4766234 97.1336219 52.3617605 98.2961039 51.4979798 99.334632 52.5215007 100.354257 51.634632 101.283117 52.7025974"></polygon>
                        <polygon id="Rectangle" fill="#575A89" transform="translate(99.176515, 47.992482) rotate(-86.015310) translate(-99.176515, -47.992482) " points="98.2245368 47.9131504 100.128493 47.9131504 100.128493 48.0718127 98.2245368 48.0718127"></polygon>
                        <circle id="Oval" fill="#FFD3A8" cx="65.144684" cy="52.5070866" r="2.53860895"></circle>
                        <polygon id="Path" fill="#575A89" points="63.4675325 52.4264069 62.8102453 51.4080808 62.9435786 51.3219336 63.5089466 52.1979798 64.669697 51.3354978 65.7075036 52.3584416 66.7278499 51.47114 67.6633478 52.5467532 67.5437229 52.650938 66.7122655 51.6949495 65.7008658 52.5746032 64.6551227 51.5438672"></polygon>
                        <polygon id="Path" fill="#575A89" points="67.3049062 53.8994228 66.466811 52.9357864 65.4546898 53.815873 64.4095238 52.7857143 63.2238095 53.666811 62.5724387 52.6575758 62.6886003 52.582684 63.2597403 53.4678211 64.4222222 52.6040404 65.4607504 53.6275613 66.4803752 52.7406926 67.4092352 53.808658"></polygon>
                        <polygon id="Rectangle" fill="#575A89" transform="translate(65.302431, 49.098772) rotate(-86.015294) translate(-65.302431, -49.098772) " points="64.3504556 49.0194414 66.2544073 49.0194414 66.2544073 49.1781034 64.3504556 49.1781034"></polygon>
                        <circle id="Oval" fill="#FFD3A8" cx="81.1829481" cy="24.9931674" r="2.53860895"></circle>
                        <polygon id="Path" fill="#575A89" points="79.505772 24.9125541 78.8484848 23.8940837 78.9818182 23.8080808 79.5471861 24.6839827 80.7079365 23.821645 81.7457431 24.8445887 82.7660895 23.9571429 83.7015873 25.0329004 83.5819625 25.1369408 82.7505051 24.1809524 81.7391053 25.0606061 80.6933622 24.0298701"></polygon>
                        <polygon id="Path" fill="#575A89" points="83.3431457 26.38557 82.5050505 25.4219336 81.4929293 26.3018759 80.4479076 25.2718615 79.2620491 26.1529582 78.6106782 25.1437229 78.7268398 25.0686869 79.2979798 25.953824 80.4604618 25.0900433 81.4989899 26.1137085 82.5186147 25.2268398 83.4474747 26.2948052"></polygon>
                        <polygon id="Rectangle" fill="#575A89" transform="translate(81.340860, 21.584647) rotate(-86.015310) translate(-81.340860, -21.584647) " points="80.3888817 21.5053154 82.2928384 21.5053154 82.2928384 21.6639777 80.3888817 21.6639777"></polygon>
                        <circle id="Oval" fill="#FFD3A8" cx="96.6681688" cy="70.3427431" r="2.53860895"></circle>
                        <polygon id="Path" fill="#575A89" points="94.9910534 70.2620491 94.3337662 69.2437229 94.4670996 69.1575758 95.0324675 70.0336219 96.1930736 69.17114 97.2310245 70.194228 98.2512266 69.3067821 99.1868687 70.3823954 99.0670996 70.4865801 98.2356421 69.5305916 97.2243867 70.4102453 96.1786436 69.3795094"></polygon>
                        <polygon id="Path" fill="#575A89" points="98.8284271 71.7350649 97.9901876 70.7714286 96.9782107 71.6515152 95.9330447 70.6213564 94.7471861 71.5025974 94.0958153 70.4932179 94.2119769 70.4183261 94.7832612 71.3034632 95.9457431 70.4396825 96.984127 71.4632035 98.0037518 70.5763348 98.9327561 71.6443001"></polygon>
                        <polygon id="Rectangle" fill="#575A89" transform="translate(96.826080, 66.934224) rotate(-86.015310) translate(-96.826080, -66.934224) " points="95.874102 66.8548931 97.7780587 66.8548931 97.7780587 67.0135554 95.874102 67.0135554"></polygon>
                        <circle id="Oval" fill="#FFD3A8" cx="68.0481631" cy="79.7444848" r="2.53860895"></circle>
                        <polygon id="Path" fill="#575A89" points="66.3709957 79.6637807 65.7137085 78.6454545 65.8470418 78.5593074 66.4124098 79.4353535 67.5731602 78.5728716 68.6109668 79.5959596 69.6313131 78.7085137 70.566811 79.784127 70.4471861 79.8883117 69.6157287 78.9323232 68.604329 79.8119769 67.5585859 78.781241"></polygon>
                        <polygon id="Path" fill="#575A89" points="70.2083694 81.1367965 69.3702742 80.1731602 68.358153 81.0532468 67.312987 80.023088 66.1272727 80.904329 65.4759019 79.8949495 65.5920635 79.8200577 66.1632035 80.7051948 67.3256854 79.8414141 68.3642136 80.8649351 69.3838384 79.9780664 70.3126984 81.0460317"></polygon>
                        <polygon id="Rectangle" fill="#575A89" transform="translate(68.205838, 76.336181) rotate(-86.015294) translate(-68.205838, -76.336181) " points="67.2538623 76.2568497 69.157814 76.2568497 69.157814 76.4155116 67.2538623 76.4155116"></polygon>
                        <circle id="Oval" fill="#FFD3A8" cx="88.234254" cy="39.7870837" r="2.53860895"></circle>
                        <polygon id="Path" fill="#575A89" points="86.5571429 39.7064935 85.8997114 38.6880231 86.033189 38.6020202 86.598557 39.4779221 87.7591631 38.6154401 88.797114 39.6385281 89.817316 38.7510823 90.7529582 39.8268398 90.633189 39.9308802 89.8017316 38.9748918 88.7904762 39.8545455 87.744733 38.8238095"></polygon>
                        <polygon id="Path" fill="#575A89" points="90.3945166 41.1795094 89.5562771 40.2157287 88.5443001 41.0958153 87.4991342 40.0656566 86.3132756 40.9468975 85.6619048 39.9376623 85.7780664 39.8626263 86.3493506 40.7477633 87.5118326 39.8839827 88.5502165 40.9076479 89.5698413 40.0206349 90.4988456 41.0887446"></polygon>
                        <polygon id="Rectangle" fill="#575A89" transform="translate(88.392166, 36.378564) rotate(-86.015310) translate(-88.392166, -36.378564) " points="87.4401879 36.2992329 89.3441446 36.2992329 89.3441446 36.4578953 87.4401879 36.4578953"></polygon>
                        <circle id="Oval" fill="#FFD3A8" cx="81.0446883" cy="64.8123074" r="2.53860895"></circle>
                        <polygon id="Path" fill="#575A89" points="79.3675325 64.7316017 78.7102453 63.7132756 78.8435786 63.6271284 79.4089466 64.5031746 80.569697 63.6406926 81.6075036 64.6637807 82.6278499 63.7763348 83.5633478 64.8519481 83.4437229 64.9561328 82.6122655 64.0001443 81.6008658 64.879798 80.5551227 63.849062"></polygon>
                        <polygon id="Path" fill="#575A89" points="83.2049062 66.2046176 82.366811 65.2409812 81.3546898 66.1210678 80.3095238 65.0909091 79.1238095 65.9721501 78.4724387 64.9627706 78.5886003 64.8878788 79.1597403 65.7730159 80.3222222 64.9092352 81.3607504 65.9327561 82.3803752 65.0458874 83.3092352 66.1138528"></polygon>
                        <polygon id="Rectangle" fill="#575A89" transform="translate(81.202599, 61.403788) rotate(-86.015310) translate(-81.202599, -61.403788) " points="80.2506205 61.3244569 82.1545772 61.3244569 82.1545772 61.4831193 80.2506205 61.4831193"></polygon>
                        <polygon id="Path" fill="#FFC8AA" points="85.7408369 6.76334776 83.5787879 5.14098124 81.3676768 6.6958153 82.2425685 4.13823954 80.0805195 2.51587302 82.7832612 2.55757576 83.658153 0 84.4536797 2.58340548 87.1564214 2.62510823 84.9453102 4.17994228"></polygon>
                        <path d="M83.7507446,19.382596 C79.3639307,19.382596 76.0925224,17.6454228 76.0439149,17.6189596 L76.1759639,17.3759899 C76.2475253,17.4148066 83.4188644,21.2175224 90.7311645,17.4262179 L90.8583535,17.671684 C88.662284,18.8081453 86.2234165,19.3952186 83.7507446,19.382596 L83.7507446,19.382596 Z" id="Path" fill="#3F3D56"></path>
                        <path d="M84.6297258,33.7917042 C80.8172951,33.7722852 77.0240165,33.2509699 73.3476912,32.2411991 L73.4287027,31.9768297 C73.5426595,32.0116652 84.9182641,35.4216061 94.0471299,31.9796652 L94.1446147,32.2383636 C91.0552136,33.4032496 87.7118326,33.7917042 84.6297258,33.7917042 Z" id="Path" fill="#3F3D56"></path>
                        <path d="M82.7380952,48.8164372 C80.3571352,48.8203443 77.9790453,48.6510322 75.6226551,48.3098413 C69.3759365,47.3933911 65.687583,45.5435426 65.6510606,45.5249105 L65.7763593,45.27843 C65.8126118,45.29686 69.4699105,47.1294921 75.6761227,48.0381804 C81.403684,48.8769264 90.5347085,49.0772973 101.512144,45.2710722 L101.602608,45.5323362 C94.3719899,48.0393954 87.9362424,48.8164372 82.7380952,48.8164372 Z" id="Path" fill="#3F3D56"></path>
                        <path d="M84.2939394,62.3911198 C81.8026345,62.3907277 79.3137971,62.2343854 76.8420274,61.9230101 C70.1339466,61.0765671 65.7073665,59.3695036 65.663417,59.3523564 L65.7639408,59.0947374 C65.807619,59.1117489 70.2090144,60.8082814 76.8855036,61.64986 C83.0441905,62.4258225 92.4539019,62.6124214 102.308768,59.0933838 L102.401661,59.3537013 C95.9082525,61.6726753 89.6079365,62.3911198 84.2939394,62.3911198 Z" id="Path" fill="#3F3D56"></path>
                        <path d="M85.3735556,77.9437157 C82.3057907,77.9384986 79.2416417,77.7329201 76.2006739,77.3282929 C67.7674329,76.2157244 61.7233117,73.9731703 61.663228,73.9506219 L61.7603074,73.6916522 C61.8201212,73.7140664 67.8401414,75.9471688 76.2437446,77.0551443 C83.9932395,78.0768442 95.413267,78.322987 105.809029,73.6948918 L105.921367,73.9473795 C99.0686753,76.998303 91.7767677,77.9437157 85.3735556,77.9437157 Z" id="Path" fill="#3F3D56"></path>
                        <rect id="Rectangle" fill="#6C63FF" x="114.808747" y="84.0004358" width="12.6220289" height="11.8015974"></rect>
                        <rect id="Rectangle" fill="#3F3D56" x="119.794449" y="83.6848846" width="2.65062626" height="12.4958081"></rect>
                        <path d="M120.739785,81.321189 C121.586169,82.0475815 121.326962,83.7379278 121.326962,83.7379278 C121.326962,83.7379278 119.695496,84.2505628 118.849113,83.5241703 C118.002729,82.7977778 118.261937,81.1074315 118.261937,81.1074315 C118.261937,81.1074315 119.893403,80.5947965 120.739785,81.321189 Z" id="Path" fill="#3F3D56"></path>
                        <path d="M123.549515,83.3645758 C122.825768,84.2132222 121.134615,83.9592944 121.134615,83.9592944 C121.134615,83.9592944 120.616889,82.3294358 121.340636,81.4807951 C122.064384,80.6321544 123.755535,80.8860765 123.755535,80.8860765 C123.755535,80.8860765 124.273261,82.5159293 123.549515,83.3645758 Z" id="Path" fill="#3F3D56"></path>
                        <rect id="Rectangle" fill="#FFFFFF" x="53.235404" y="87.1704949" width="9.33699278" height="8.73008802"></rect>
                        <path d="M59.8536797,84.8666898 C59.8536797,84.8666898 60.2366638,86.0723492 59.7012799,86.7001255 C59.4968775,86.9398029 59.1881637,87.0605942 58.8845824,87.1183422 L58.8842857,96.1806941 L56.9235166,96.1806941 L56.923761,87.0926284 C56.6702517,87.0638993 56.4190997,86.985445 56.224215,86.8181876 C55.5981126,86.2808427 55.7898586,85.03043 55.7898586,85.03043 C55.7898586,85.03043 56.9967157,84.651215 57.6228167,85.1885556 C57.7463896,85.2946093 57.8381037,85.4284405 57.9057213,85.5749532 C57.9441517,85.4786906 57.9980375,85.3878197 58.0672886,85.3066176 C58.602671,84.6788413 59.8536797,84.8666898 59.8536797,84.8666898 Z" id="Combined-Shape" fill="#FFBC89"></path>
                    </g>
                </g>
            </g>
        </g>
    </g>
</svg>