<svg width="31" height="28" xmlns="http://www.w3.org/2000/svg">
    <path d="M27.679 11.846H26.57V10.77c.42 0 .803-.23.99-.595a1.053 1.053 0 0 0-.104-1.128c-.133-.172-2.845-3.608-8.857-4.512.165-.415.24-.859.221-1.303C18.821 1.446 17.334 0 15.5 0s-3.321 1.446-3.321 3.23c-.002.45.092.893.276 1.304-6.067.904-8.78 4.308-8.857 4.512-.23.316-.267.727-.1 1.077.163.366.521.615.93.646v1.077H3.322C1.487 11.846 0 13.293 0 15.076c0 1.785 1.487 3.232 3.321 3.232H4.43v6.461C4.429 26.554 5.916 28 7.75 28h15.5c1.834 0 3.321-1.446 3.321-3.23v-6.462h1.108c1.834 0 3.321-1.447 3.321-3.231 0-1.784-1.487-3.23-3.321-3.23zM14.393 3.231c0-.595.496-1.077 1.107-1.077s1.107.482 1.107 1.077-.496 1.077-1.107 1.077-1.107-.482-1.107-1.077zM15.5 6.46a14.915 14.915 0 0 1 8.137 2.154H7.374A14.937 14.937 0 0 1 15.5 6.462zM3.321 16.155c-.611 0-1.107-.482-1.107-1.077S2.71 14 3.321 14H4.43v2.154H3.32zm21.036 8.615c0 .595-.496 1.077-1.107 1.077H7.75c-.611 0-1.107-.482-1.107-1.077v-14h17.714v14zm3.322-8.615H26.57V14h1.108c.611 0 1.107.482 1.107 1.077s-.496 1.077-1.107 1.077z" fill="#E87722" fill-rule="evenodd"/>
</svg>
