<svg xmlns="http://www.w3.org/2000/svg" width="64" height="64" viewBox="0 0 64 64">
    <g fill="none" fill-rule="evenodd">
        <g>
            <g>
                <g>
                    <g>
                        <path d="M0 0H64V64H0z" transform="translate(-175.000000, -77.000000) translate(12.000000, 77.000000) translate(14.500000, 0.000000) translate(148.500000, 0.000000)"/>
                        <path fill="#E87722" fill-rule="nonzero" d="M60.22 31.954v.051c0 .194-.002.387-.006.58l.006-.58c0 .25-.003.5-.01.748-.003.135-.008.27-.013.404l-.009.197c-.006.123-.012.245-.02.367l-.015.243-.028.366c-.008.106-.017.211-.027.316-.012.13-.025.259-.039.388l-.03.273-.03.24c-.013.111-.027.22-.042.33l-.015.102c-.03.22-.064.44-.1.659l-.043.246c-.124.72-.277 1.43-.456 2.129l-.068.26-.034.128c-1.307 4.82-3.858 9.13-7.285 12.56-4.925 4.926-11.667 8.036-19.13 8.254v-7.452c5.408-.213 10.283-2.49 13.86-6.067 2.052-2.052 3.677-4.532 4.73-7.294h-6.201c1.227-2.187 1.927-4.708 1.927-7.397v-.05H60.22zM32 3.785c7.792 0 14.848 3.16 19.956 8.269 3.277 3.277 5.753 7.36 7.107 11.926h-7.898c-1.055-2.511-2.582-4.768-4.48-6.66-3.753-3.76-8.948-6.088-14.685-6.088s-10.932 2.329-14.686 6.087c-3.759 3.76-6.087 8.949-6.087 14.686s2.328 10.932 6.087 14.69c1.086 1.086 2.292 2.053 3.597 2.878V32.005c0-6.123 4.966-11.089 11.089-11.089s11.09 4.966 11.09 11.09c0 6.127-4.967 11.088-11.09 11.088-1.59 0-3.102-.334-4.47-.937v17.718c-.391-.063-.78-.134-1.167-.212l-.27-.057c-.1-.02-.198-.042-.296-.064l-.279-.065c-.111-.026-.222-.052-.333-.08l-.22-.056c-.775-.199-1.538-.43-2.286-.692l-.1-.036c-.157-.055-.314-.112-.47-.17l-.132-.05-.378-.147-.2-.08c-.116-.048-.232-.095-.347-.144l-.141-.06c-3.334-1.426-6.338-3.475-8.867-6C6.94 46.852 3.78 39.796 3.78 32.004c0-7.792 3.16-14.848 8.264-19.951C17.152 6.946 24.208 3.785 32 3.785zm0 23.751c-2.47 0-4.47 2.004-4.47 4.47 0 2.47 2 4.468 4.47 4.468 2.47 0 4.47-1.998 4.47-4.469 0-2.465-2-4.469-4.47-4.469z" transform="translate(-175.000000, -77.000000) translate(12.000000, 77.000000) translate(14.500000, 0.000000) translate(148.500000, 0.000000)"/>
                    </g>
                </g>
            </g>
        </g>
    </g>
</svg>
