<svg xmlns="http://www.w3.org/2000/svg" width="164" height="165" viewBox="0 0 164 165">
    <g fill="none" fill-rule="evenodd">
        <g>
            <g>
                <path d="M0 0H164V164H0z" transform="translate(-125.000000, -325.000000) translate(125.000000, 325.500000)"/>
                <g>
                    <g fill="#EF7622">
                        <path fill-rule="nonzero" d="M47.12 0c13.011 0 24.795 5.275 33.317 13.798 5.482 5.482 9.614 12.293 11.874 19.919h-13.19c-1.757-4.19-4.314-7.961-7.471-11.125-6.276-6.276-14.947-10.156-24.53-10.156-9.58 0-18.252 3.88-24.528 10.156-6.276 6.276-10.156 14.947-10.156 24.529 0 9.575 3.88 18.247 10.156 24.522C27.189 76.247 33.078 79.56 39.657 81v12.655c-10.02-1.594-18.996-6.353-25.853-13.217C5.275 71.915 0 60.131 0 47.121c0-13.01 5.275-24.794 13.804-33.323C22.327 5.275 34.111 0 47.121 0zm1.383 81.78c9.026-.355 17.168-4.158 23.147-10.137 6.276-6.275 10.156-14.947 10.156-24.522v-.084h12.436v.084c0 13.01-5.275 24.794-13.805 33.316-8.219 8.226-19.473 13.424-31.934 13.786V81.78z" transform="translate(-125.000000, -325.000000) translate(125.000000, 325.500000) translate(15.980315, 15.392756) translate(18.898740, 0.000000)"/>
                        <path d="M47.12 28.603c10.228 0 18.519 8.29 18.519 18.518 0 10.227-8.29 18.518-18.518 18.518-10.227 0-18.518-8.29-18.518-18.518 0-10.227 8.29-18.518 18.518-18.518zm0 11.054c4.12 0 7.465 3.345 7.465 7.464 0 4.12-3.345 7.464-7.464 7.464-4.12 0-7.464-3.345-7.464-7.464 0-4.12 3.345-7.464 7.464-7.464z" transform="translate(-125.000000, -325.000000) translate(125.000000, 325.500000) translate(15.980315, 15.392756) translate(18.898740, 0.000000)"/>
                        <path d="M28.603 47.12h11.054v46.534c-3.861-.613-7.567-1.698-11.054-3.19V47.122zM72.405 47.037h21.837v.084c0 4.274-.568 8.413-1.634 12.352H69.19c2.047-3.655 3.222-7.865 3.222-12.352l-.007-.084z" transform="translate(-125.000000, -325.000000) translate(125.000000, 325.500000) translate(15.980315, 15.392756) translate(18.898740, 0.000000)"/>
                    </g>
                    <path fill="#333" fill-rule="nonzero" d="M22.237 124.123c-2.647 2.531-5.682 3.797-9.091 3.797-3.635 0-6.735-1.285-9.304-3.842C1.285 121.515 0 118.41 0 114.774c0-3.622 1.285-6.721 3.842-9.297 2.57-2.577 5.669-3.862 9.304-3.862 3.403 0 6.624 1.389 9.672 4.171l-2.499 2.267c-2.298-2.04-4.687-3.06-7.173-3.06-2.693 0-4.998.955-6.909 2.86-1.917 1.91-2.873 4.222-2.873 6.921 0 2.712.956 5.023 2.873 6.935 1.911 1.91 4.216 2.86 6.909 2.86 2.318 0 4.235-.607 5.76-1.834v-7.767h3.33v9.155zm8.613-13.036v16.562h-3.338v-16.562h3.338zm-1.679-6.805c.646 0 1.201.226 1.66.678.458.452.69 1.007.69 1.66 0 .651-.232 1.207-.69 1.659-.459.452-1.014.671-1.66.671-.632 0-1.181-.22-1.64-.671-.465-.452-.69-1.008-.69-1.66 0-.652.225-1.207.69-1.659.459-.452 1.008-.678 1.64-.678zm21.127 13.34c-.2-1.02-.717-1.944-1.544-2.764-1.117-1.13-2.472-1.692-4.054-1.692-1.589 0-2.938.562-4.068 1.692-1.117 1.124-1.679 2.473-1.679 4.048 0 1.589.562 2.945 1.679 4.068 1.13 1.117 2.48 1.679 4.068 1.679 1.582 0 2.937-.562 4.054-1.672.827-.827 1.343-1.737 1.544-2.738v-2.621zm.019-5.392v-1.143h3.345V123.4c0 3.216-.872 5.702-2.622 7.451-1.795 1.576-3.951 2.363-6.482 2.363-2.538 0-4.7-.787-6.49-2.363-.36-.368-.948-1.104-1.75-2.22l3.313-1.195c.433.516.717.846.872 1 1.123 1.118 2.473 1.673 4.055 1.673 2.647 0 4.48-1.737 5.5-5.21-1.045 2.014-2.827 3.021-5.358 3.021-2.531 0-4.694-.865-6.476-2.609-1.789-1.736-2.68-3.867-2.68-6.405 0-2.53.891-4.687 2.68-6.47 1.782-1.788 3.945-2.679 6.476-2.679 2.137 0 4.01.827 5.617 2.473zm11.564 7.18v8.239h-3.325v-25.75h7.302c2.066.285 3.816 1.137 5.243 2.564 1.705 1.717 2.557 3.777 2.557 6.179 0 2.421-.852 4.487-2.557 6.205-1.704 1.704-3.764 2.563-6.179 2.563h-3.041zm0-14.16v10.816h3.041c1.479 0 2.75-.536 3.803-1.589 1.059-1.052 1.588-2.33 1.588-3.835 0-1.492-.53-2.764-1.588-3.816-1.052-1.046-2.324-1.575-3.803-1.575h-3.041zm21.798 4.488c2.53 0 4.687.897 6.476 2.692 1.782 1.789 2.68 3.945 2.68 6.476 0 2.538-.898 4.7-2.68 6.49-1.789 1.788-3.945 2.685-6.476 2.685-2.518 0-4.681-.897-6.47-2.686-1.788-1.788-2.686-3.951-2.686-6.489 0-2.53.898-4.687 2.686-6.476 1.789-1.795 3.952-2.692 6.47-2.692zm0 3.428c-1.589 0-2.945.562-4.062 1.692-1.123 1.124-1.685 2.473-1.685 4.048 0 1.589.562 2.945 1.685 4.055 1.117 1.124 2.473 1.679 4.062 1.679 1.588 0 2.938-.555 4.061-1.679 1.123-1.11 1.685-2.466 1.685-4.055 0-1.575-.562-2.924-1.685-4.048-1.123-1.13-2.473-1.692-4.061-1.692zm16.62-2.079v16.562h-3.332v-16.562h3.331zm-1.68-6.805c.646 0 1.201.226 1.66.678.465.452.69 1.007.69 1.66 0 .651-.225 1.207-.69 1.659-.459.452-1.014.671-1.66.671-.626 0-1.175-.22-1.64-.671-.458-.452-.69-1.008-.69-1.66 0-.652.232-1.207.69-1.659.465-.452 1.014-.678 1.64-.678zm10.125 11.248v12.119h-3.345v-16.562h3.345v1.937c.697-1.891 2.098-2.834 4.203-2.834 1.788 0 3.209.633 4.268 1.905 1.059 1.272 1.601 2.866 1.633 4.79v10.764h-3.331v-10.64c0-.95-.349-1.77-1.046-2.448-.698-.684-1.53-1.02-2.493-1.02-.955 0-1.782.33-2.479.994-.387.4-.64.73-.755.995zm16.994-4.443v-6.21h3.325v6.21h2.976v3.339h-2.976v13.223h-3.325v-13.223h-2.977v-3.339h2.977z" transform="translate(-125.000000, -325.000000) translate(125.000000, 325.500000) translate(15.980315, 15.392756)"/>
                </g>
            </g>
        </g>
    </g>
</svg>
