<?xml version="1.0" encoding="UTF-8"?>
<svg width="90px" height="90px" viewBox="0 0 90 90" version="1.1" xmlns="http://www.w3.org/2000/svg" xmlns:xlink="http://www.w3.org/1999/xlink">
    <title>img2</title>
    <g id="Symbols" stroke="none" stroke-width="1" fill="none" fill-rule="evenodd">
        <g id="Circle/manage" transform="translate(-10.000000, -10.000000)">
            <g id="img2" transform="translate(10.000000, 10.000000)">
                <rect id="Rectangle" x="0" y="0" width="90" height="90"></rect>
                <g transform="translate(18.500000, 14.500000)" fill-rule="nonzero">
                    <path d="M51.9079827,21.0032668 C51.972072,21.5623243 54.0269427,39.8841733 47.9391698,58.1833988 L47.7521849,58.7378915 L47.7521849,58.7378915 C48.1762137,58.1759794 48.5990319,57.6107496 49.0163883,57.0468745 L49.5143223,56.3711736 C52.6478545,52.0996409 55.3677008,48.0143086 55.8077443,46.1662858 C55.7030803,46.6639408 52.4440612,61.8130167 43.5046539,70.727552 C43.4298321,70.8040517 43.3530579,70.8799327 43.2757298,70.954152 L39.1454745,69.6474982 L36.78715,68.9014132 C36.8188231,68.8217165 36.8535089,68.732525 36.8907689,68.6351725 C37.9566987,65.8785815 41.5978588,56.3834178 45.0299306,46.4908741 L45.4576491,45.2526952 C49.0095386,34.9249351 52.2086703,24.4526832 51.9079827,21.0032668 Z" id="Combined-Shape" fill="#E6E6E6"></path>
                    <path d="M15.9079827,21.0032668 C15.972072,21.5623243 18.0269427,39.8841733 11.9391698,58.1833988 L11.7521849,58.7378915 L11.7521849,58.7378915 C12.1762137,58.1759794 12.5990319,57.6107496 13.0163883,57.0468745 L13.5143223,56.3711736 C16.6478545,52.0996409 19.3677008,48.0143086 19.8077443,46.1662858 C19.7030803,46.6639408 16.4440612,61.8130167 7.50465388,70.727552 C7.42983211,70.8040517 7.35305793,70.8799327 7.27572982,70.954152 L3.1454745,69.6474982 L0.787149954,68.9014132 C0.818823076,68.8217165 0.853508876,68.732525 0.890768871,68.6351725 C1.95669872,65.8785815 5.5978588,56.3834178 9.02993059,46.4908741 L9.45764915,45.2526952 C13.0095386,34.9249351 16.2086703,24.4526832 15.9079827,21.0032668 Z" id="Combined-Shape-Copy" fill="#E6E6E6" transform="translate(10.297447, 45.978709) scale(-1, 1) translate(-10.297447, -45.978709) "></path>
                    <path d="M45.5692165,12.4673488 C45.567659,12.4673488 45.566219,12.4677943 45.5646595,12.4678439 L45.5646595,3.61419518 C45.5646561,1.61812932 43.9465241,0 41.9504582,0 L14.2317928,0 C12.235727,0 10.6175949,1.61812932 10.6175916,3.61419518 L10.6175916,8.15304056 C10.4584267,8.15643458 10.3311316,8.28636507 10.3309993,8.44556605 L10.3309993,10.6937025 C10.3311192,10.8529003 10.4584291,10.9828238 10.6175916,10.9861784 L10.6175916,13.3413171 L10.6028998,13.3413171 C10.525146,13.3413131 10.4505756,13.3721989 10.3955954,13.4271791 C10.3406151,13.4821594 10.3097333,13.5567298 10.3097333,13.6344836 L10.3097333,17.9818229 C10.3097333,18.0595766 10.3406155,18.1341469 10.3955957,18.1891271 C10.4505759,18.2441073 10.5251461,18.2749932 10.6028998,18.2749894 L10.6175916,18.2749894 L10.6175916,20.0016125 L10.6130234,20.0016125 C10.5352705,20.0016099 10.4607014,20.0324962 10.4057222,20.0874764 C10.3507431,20.1424565 10.319858,20.2170261 10.319862,20.294779 L10.319862,24.6846422 C10.319858,24.7623951 10.3507431,24.8369647 10.4057222,24.8919449 C10.4607014,24.946925 10.5352705,24.9778114 10.6130234,24.9778087 L10.6175916,24.9778087 L10.6175916,67.4110985 C10.6175949,69.4071644 12.235727,71.0252937 14.2317928,71.0252937 L41.9504582,71.0252937 C43.9465241,71.0252937 45.5646561,69.4071644 45.5646595,67.4110985 L45.5646595,21.0765837 C45.566217,21.0765837 45.567657,21.0770283 45.5692165,21.0770283 C45.7076655,21.0770356 45.8404464,21.0220416 45.9383467,20.9241455 C46.036247,20.8262494 46.0912453,20.6934708 46.0912453,20.5550218 L46.0912453,12.9894018 C46.0912453,12.7010873 45.857531,12.4673571 45.5692165,12.4673488 Z" id="Path" fill="#3F3D56"></path>
                    <path d="M43.4066725,4.62586267 L43.4066725,66.3984255 C43.4061133,67.9310149 42.1635473,69.1731275 40.6309578,69.1731275 L15.5512973,69.1731275 C14.0187078,69.1731275 12.7761418,67.9310149 12.7755826,66.3984255 L12.7755826,4.62586267 C12.7755826,3.09287779 14.0183124,1.850148 15.5512973,1.850148 L19.3042337,1.850148 L19.3042337,2.33723985 C19.3047925,3.59930196 20.3277564,4.62226587 21.5898185,4.62282467 L34.349397,4.62282467 C35.6097129,4.62003265 36.6299216,3.59755878 36.6299185,2.33723985 L36.6299185,1.85521133 L40.6309578,1.85521133 C42.1619675,1.85520878 43.4038797,3.09485551 43.4066725,4.62586267 L43.4066725,4.62586267 Z" id="Path" fill="#FFFFFF"></path>
                    <path d="M18.3926671,10.0245912 L15.6584717,10.0245912 C15.5186518,10.0245912 15.4053054,9.91124485 15.4053054,9.771425 C15.4053054,9.63160514 15.5186518,9.51825876 15.6584717,9.51825876 L18.3926671,9.51825876 C18.5324869,9.51825876 18.6458333,9.63160514 18.6458333,9.771425 C18.6458333,9.91124485 18.5324869,10.0245912 18.3926671,10.0245912 L18.3926671,10.0245912 Z" id="Path" fill="#3F3D56"></path>
                    <path d="M18.3926671,10.7334567 L15.6584717,10.7334567 C15.5186518,10.7334567 15.4053054,10.6201103 15.4053054,10.4802905 C15.4053054,10.3404706 15.5186518,10.2271242 15.6584717,10.2271242 L18.3926671,10.2271242 C18.5324869,10.2271242 18.6458333,10.3404706 18.6458333,10.4802905 C18.6458333,10.6201103 18.5324869,10.7334567 18.3926671,10.7334567 L18.3926671,10.7334567 Z" id="Path" fill="#3F3D56"></path>
                    <path d="M18.3926671,11.4423222 L15.6584717,11.4423222 C15.5186518,11.4423222 15.4053054,11.3289758 15.4053054,11.1891559 C15.4053054,11.0493361 15.5186518,10.9359897 15.6584717,10.9359897 L18.3926671,10.9359897 C18.5324869,10.9359897 18.6458333,11.0493361 18.6458333,11.1891559 C18.6458333,11.3289758 18.5324869,11.4423222 18.3926671,11.4423222 L18.3926671,11.4423222 Z" id="Path" fill="#3F3D56"></path>
                    <path d="M39.5868901,10.738516 L39.4947376,10.738516 L39.4592943,10.7091487 C39.5757017,10.570394 39.63952,10.395073 39.6395487,10.2139555 C39.6373056,9.79786053 39.2981777,9.46236613 38.8820827,9.46459406 C38.4659876,9.46684428 38.13049,9.80596895 38.1327139,10.222064 C38.1349601,10.638159 38.4740815,10.97366 38.8901766,10.9714289 C39.0707644,10.9701476 39.2453546,10.9064651 39.3843571,10.7911746 L39.4187877,10.8205418 L39.4187877,10.913707 L40.0000574,11.4959894 L40.1742358,11.321811 L39.5868901,10.738516 Z M38.8901766,10.7385199 C38.6780133,10.7393368 38.4862464,10.6122728 38.4042967,10.4165735 C38.3223469,10.2208743 38.3663529,9.9950795 38.5157946,9.84447697 C38.6652364,9.69387444 38.8906839,9.64812275 39.0870113,9.72855584 C39.2833388,9.80898892 39.4118829,9.99976687 39.4127036,10.2119302 L39.4127186,10.2139555 C39.4135156,10.3522702 39.359343,10.4852399 39.2621094,10.5836126 C39.1648757,10.6819854 39.0325459,10.7377029 38.8942313,10.7385079 C38.8928845,10.7385199 38.8915305,10.7385199 38.8901807,10.7385199 L38.8901766,10.7385199 Z" id="Shape" fill="#3F3D56"></path>
                    <path d="M23.9628682,19.3411089 L19.0508993,19.3411089 C18.435692,19.3411089 17.9369679,18.8423848 17.9369679,18.2271774 C17.9369679,17.6119701 18.435692,17.113246 19.0508993,17.113246 L23.9628682,17.113246 C24.5780756,17.113246 25.0767997,17.6119701 25.0767997,18.2271774 C25.0767997,18.8423848 24.5780756,19.3411089 23.9628682,19.3411089 L23.9628682,19.3411089 Z" id="Path" fill="#E87722"></path>
                    <path d="M39.0003991,21.7715048 L18.5445668,21.7715048 C18.2089992,21.7715048 17.9369679,21.4994735 17.9369679,21.1639058 C17.9369679,20.8283382 18.2089992,20.5563069 18.5445668,20.5563069 L39.0003991,20.5563069 C39.3359668,20.5563069 39.6079981,20.8283382 39.6079981,21.1639058 C39.6079981,21.4994735 39.3359668,21.7715048 39.0003991,21.7715048 Z" id="Path" fill="#E6E6E6"></path>
                    <path d="M26.0585611,24.2019007 L18.5445668,24.2019007 C18.2089992,24.2019007 17.9369679,23.9298694 17.9369679,23.5943018 C17.9369679,23.2587341 18.2089992,22.9867028 18.5445668,22.9867028 L26.0585611,22.9867028 C26.3941288,22.9867028 26.6661601,23.2587341 26.6661601,23.5943018 C26.6661601,23.9298694 26.3941288,24.2019007 26.0585611,24.2019007 Z" id="Path" fill="#E6E6E6"></path>
                    <path d="M23.9628682,46.2779969 L19.0508993,46.2779969 C18.435692,46.2779969 17.9369679,45.7792728 17.9369679,45.1640655 C17.9369679,44.5488581 18.435692,44.050134 19.0508993,44.050134 L23.9628682,44.050134 C24.5780756,44.050134 25.0767997,44.5488581 25.0767997,45.1640655 C25.0767997,45.7792728 24.5780756,46.2779969 23.9628682,46.2779969 L23.9628682,46.2779969 Z" id="Path" fill="#E87722"></path>
                    <path d="M39.0003991,48.7083929 L18.5445668,48.7083929 C18.2089992,48.7083929 17.9369679,48.4363615 17.9369679,48.1007939 C17.9369679,47.7652262 18.2089992,47.4931949 18.5445668,47.4931949 L39.0003991,47.4931949 C39.3359668,47.4931949 39.6079981,47.7652262 39.6079981,48.1007939 C39.6079981,48.4363615 39.3359668,48.7083929 39.0003991,48.7083929 L39.0003991,48.7083929 Z" id="Path" fill="#E6E6E6"></path>
                    <path d="M26.0585611,51.1387888 L18.5445668,51.1387888 C18.2089992,51.1387888 17.9369679,50.8667574 17.9369679,50.5311898 C17.9369679,50.1956221 18.2089992,49.9235908 18.5445668,49.9235908 L26.0585611,49.9235908 C26.3941288,49.9235908 26.6661601,50.1956221 26.6661601,50.5311898 C26.6661601,50.8667574 26.3941288,51.1387888 26.0585611,51.1387888 L26.0585611,51.1387888 Z" id="Path" fill="#E6E6E6"></path>
                    <path d="M23.9628682,58.733776 L19.0508993,58.733776 C18.435692,58.733776 17.9369679,58.2350519 17.9369679,57.6198445 C17.9369679,57.0046372 18.435692,56.5059131 19.0508993,56.5059131 L23.9628682,56.5059131 C24.5780756,56.5059131 25.0767997,57.0046372 25.0767997,57.6198445 C25.0767997,58.2350519 24.5780756,58.733776 23.9628682,58.733776 L23.9628682,58.733776 Z" id="Path" fill="#E87722"></path>
                    <path d="M39.0003991,61.1641719 L18.5445668,61.1641719 C18.2089992,61.1641719 17.9369679,60.8921406 17.9369679,60.5565729 C17.9369679,60.2210053 18.2089992,59.948974 18.5445668,59.948974 L39.0003991,59.948974 C39.3359668,59.948974 39.6079981,60.2210053 39.6079981,60.5565729 C39.6079981,60.8921406 39.3359668,61.1641719 39.0003991,61.1641719 L39.0003991,61.1641719 Z" id="Path" fill="#E6E6E6"></path>
                    <path d="M26.0585611,63.5945678 L18.5445668,63.5945678 C18.2089992,63.5945678 17.9369679,63.3225365 17.9369679,62.9869688 C17.9369679,62.6514012 18.2089992,62.3793699 18.5445668,62.3793699 L26.0585611,62.3793699 C26.3941288,62.3793699 26.6661601,62.6514012 26.6661601,62.9869688 C26.6661601,63.3225365 26.3941288,63.5945678 26.0585611,63.5945678 L26.0585611,63.5945678 Z" id="Path" fill="#E6E6E6"></path>
                    <path d="M41.8864943,39.9488409 L2.79762665,39.9488409 C2.32246609,39.9482935 1.93740887,39.5632363 1.93686143,39.0880757 L1.93686143,28.4550936 C1.93739217,27.9799261 2.32245916,27.5948591 2.79762665,27.5943284 L41.8864943,27.5943284 C42.3616546,27.5948764 42.7467115,27.9799332 42.7472595,28.4550936 L42.7472595,39.0880757 C42.7466942,39.5632289 42.3616474,39.9482757 41.8864943,39.9488409 L41.8864943,39.9488409 Z" id="Path" fill="#E87722"></path>
                    <path d="M16.6991875,32.4551202 L9.90887395,32.4551202 C9.47762956,32.4551202 9.1267928,31.9554136 9.1267928,31.3411887 C9.1267928,30.7269639 9.47763463,30.2272573 9.90887902,30.2272573 L16.6991875,30.2272573 C17.1304319,30.2272573 17.4812686,30.7269639 17.4812686,31.3411887 C17.4812686,31.9554136 17.1304268,32.4551202 16.6991875,32.4551202 Z" id="Path" fill="#FFFFFF"></path>
                    <path d="M34.9497393,34.8855161 L9.73438165,34.8855161 C9.398814,34.8855161 9.12678267,34.6134848 9.12678267,34.2779171 C9.12678267,33.9423495 9.398814,33.6703181 9.73438165,33.6703181 L34.9497393,33.6703181 C35.2853069,33.6703181 35.5573382,33.9423495 35.5573382,34.2779171 C35.5573382,34.6134848 35.2853069,34.8855161 34.9497393,34.8855161 L34.9497393,34.8855161 Z" id="Path" fill="#E6E6E6"></path>
                    <path d="M22.0079013,37.315912 L9.73438165,37.315912 C9.398814,37.315912 9.12678267,37.0438807 9.12678267,36.708313 C9.12678267,36.3727454 9.398814,36.1007141 9.73438165,36.1007141 L22.0079013,36.1007141 C22.3434689,36.1007141 22.6155002,36.3727454 22.6155002,36.708313 C22.6155002,37.0438807 22.3434689,37.315912 22.0079013,37.315912 L22.0079013,37.315912 Z" id="Path" fill="#E6E6E6"></path>
                </g>
            </g>
        </g>
    </g>
</svg>