<svg width="22" height="22" viewBox="0 0 22 22" xmlns="http://www.w3.org/2000/svg">
    <path d="M11 .8a8.32 8.32 0 0 1 8.32 8.32v3.12a5.2 5.2 0 0 1-3.12 9.36h-1.04a1.04 1.04 0 0 1-1.04-1.04v-8.32c0-.574.466-1.04 1.04-1.04h1.04a5.2 5.2 0 0 1 1.04.104V9.12a6.24 6.24 0 1 0-12.48 0v2.184A5.2 5.2 0 0 1 5.8 11.2h1.04c.574 0 1.04.466 1.04 1.04v8.32a1.04 1.04 0 0 1-1.04 1.04H5.8a5.2 5.2 0 0 1-3.12-9.36V9.12A8.32 8.32 0 0 1 11 .8zm5.038 12c-.024.037-.03.855-.03 1.928l.001.511c.005 1.751.025 3.913.03 4.566V20c1.543-.009 3.6-1.612 3.6-3.6a3.6 3.6 0 0 0-3.6-3.6zm-10.109 0a3.6 3.6 0 0 0 0 7.2c.008-.009.033-2.604.035-4.676v-.526c0-1.107-.01-1.96-.035-1.998z" fill="#E87722" fill-rule="evenodd"/>
</svg>
