<?xml version="1.0" encoding="UTF-8"?>
<svg width="180px" height="180px" viewBox="0 0 180 180" version="1.1" xmlns="http://www.w3.org/2000/svg" xmlns:xlink="http://www.w3.org/1999/xlink">
    <title>27DF3FD3-05E6-4389-BB43-E7F32F49D6A1</title>
    <g id="Page-1" stroke="none" stroke-width="1" fill="none" fill-rule="evenodd">
        <g id="H14-_error" transform="translate(-117.000000, -198.000000)">
            <g id="No-Internet" transform="translate(117.000000, 198.000000)">
                <rect id="Rectangle" x="0" y="0" width="180" height="180"></rect>
                <g id="Group-28" transform="translate(21.166667, 21.166667)" fill-rule="nonzero">
                    <path d="M127.122675,32.6666667 C144.173327,59.728603 140.222381,94.9888944 117.605159,117.605912 C94.9879368,140.22293 59.7279582,144.173209 32.6666667,127.121822 L40.0946217,119.694012 C42.8696617,121.318142 45.7754093,122.707832 48.7816095,123.84861 C47.0985284,121.15101 45.6306837,118.324946 44.3917113,115.396672 L52.260786,107.527713 C56.745955,120.041667 63.1149133,127.511211 69.1251524,127.511211 C76.2195198,127.511211 83.8242578,117.132332 88.2263916,100.295981 C82.0850689,98.1554356 75.6288124,97.0578013 69.1251524,97.0485615 C66.8359327,97.06516 64.5497726,97.2191378 62.2790021,97.5096645 L72.7488727,87.0398297 C78.7206683,87.3484579 84.6264417,88.4369063 90.315903,90.2774762 C91.4293349,83.2817067 91.9830843,76.2082808 91.971885,69.1244666 C91.971885,68.6892315 91.950206,68.2743048 91.9461697,67.8428014 L101.703933,58.0850818 C101.963142,61.6699517 102.125988,65.339254 102.125988,69.1244666 C102.153701,77.5502886 101.437844,85.9621214 99.9867472,94.2620922 C105.534983,97.0618543 110.676839,100.602917 115.271059,104.788004 C129.794705,86.1385249 131.548509,60.541207 119.704188,40.0850833 L127.122675,32.6666667 Z M97.9124752,105 C96.1520948,111.981902 93.4308861,118.662146 89.8333333,124.833333 C96.7276707,122.147819 103.064034,118.112817 108.5,112.946382 C105.27189,109.888117 101.719859,107.222168 97.9124752,105 Z M105,10.5448449 L97.5771728,17.9676278 C94.799552,16.346577 91.8922852,14.9586643 88.8852603,13.8181581 C90.5683839,16.5150937 92.0372265,19.3399817 93.2782554,22.2667961 L85.4058806,30.1390047 C80.9207116,17.62505 74.5517534,10.1555069 68.5415142,10.1555069 C61.4471468,10.1555069 53.8424088,20.5343853 49.440275,37.370736 C55.5815977,39.5112818 62.0378542,40.6089162 68.5415142,40.6181559 C70.8307339,40.6015574 73.1168941,40.4475796 75.3876646,40.157053 L64.917794,50.6268877 C58.9459983,50.3182595 53.040225,49.2298111 47.3507636,47.3892412 C46.2373318,54.3850107 45.6835824,61.4584367 45.6947817,68.5422509 C45.6947817,68.977486 45.7164607,69.3924126 45.720497,69.8239161 L35.9639775,79.5803917 C35.704134,75.9963088 35.5406783,72.3277681 35.5406783,68.5422509 C35.5125133,60.1158227 36.2269095,51.7033015 37.6755786,43.4022897 C32.1206857,40.5987724 26.9732908,37.0520976 22.3751726,32.8599539 C7.86204107,51.5174075 6.12305064,77.1156914 17.9795374,97.5645751 L10.5439921,105 C-6.50666032,77.9380637 -2.55571428,42.6777723 20.0615078,20.0607544 C42.6787299,-2.55626346 77.9387085,-6.50654273 105,10.5448449 Z M47.8333333,12.8333333 C40.9399715,15.5143258 34.6035374,19.5461747 29.1666667,24.7108623 C32.3941917,27.7727992 35.9459563,30.4419292 39.7533166,32.6666667 C41.5130869,25.6838094 44.234688,19.0033254 47.8333333,12.8333333 Z" id="Combined-Shape" fill="#BEBEBE"></path>
                    <path d="M130.344597,14.5156138 L14.5071245,130.35311 C12.5191266,132.330489 9.30587108,132.326187 7.32317538,130.343491 C5.34047968,128.360795 5.33617741,125.147539 7.3135567,123.15954 L123.151029,7.32204451 C125.137668,5.33665465 128.357477,5.33716102 130.343491,7.32317566 C132.329506,9.30919029 132.330012,12.529 130.344622,14.5156392 L130.344597,14.5156138 Z" id="Path" fill="#E87722"></path>
                </g>
            </g>
        </g>
    </g>
</svg>