<?xml version="1.0" encoding="UTF-8"?>
<svg width="180px" height="180px" viewBox="0 0 180 180" version="1.1" xmlns="http://www.w3.org/2000/svg" xmlns:xlink="http://www.w3.org/1999/xlink">
    <title>2E1CB00D-4422-4EAD-87BE-7180272D9FEE</title>
    <g id="Page-1" stroke="none" stroke-width="1" fill="none" fill-rule="evenodd">
        <g id="04_No-enough-points-" transform="translate(-117.000000, -200.000000)" fill-rule="nonzero">
            <g id="Group-3" transform="translate(117.000000, 200.000000)">
                <path d="M103.892926,100.540835 L33.0943079,118.873027 C28.0939059,120.161747 22.9996766,117.137281 21.706739,112.112178 L0.295372204,28.5055878 C-0.986268814,23.477559 2.02157975,18.3551837 7.01907337,17.0551041 L72.8856237,4.04574333e-13 L89.7443607,7.58879906 L110.616633,89.0903512 C111.898273,94.1183818 108.890422,99.2407579 103.892926,100.540835 Z" id="Path" fill="#F2F2F2"></path>
                <path d="M7.69036386,19.6764232 C4.13153502,20.602227 1.98957576,24.2499858 2.90226857,27.8305543 L24.3136354,111.437147 C25.2343536,115.015639 28.8620706,117.169432 32.4229664,116.251696 L103.221584,97.9195045 C106.780412,96.9936994 108.922371,93.3459417 108.00968,89.7653733 L87.4608129,9.52665352 L72.6450377,2.85743018 L7.69036386,19.6764232 Z" id="Path" fill="#FFFFFF"></path>
                <path d="M89.5644773,8.02009094 L78.6074372,10.8572454 C76.9417404,11.28855 75.2437056,10.2804183 74.8147688,8.60551923 L72.7308011,0.468090755 C72.7121848,0.395394684 72.7365582,0.318396839 72.7935389,0.269895883 C72.8505197,0.221394927 72.9300679,0.209936757 72.9982984,0.240402194 L89.5949306,7.65167199 C89.6706361,7.68547754 89.716771,7.7637572 89.7099098,7.84676346 C89.7030485,7.92976971 89.6446943,7.99931666 89.5644773,8.02009094 L89.5644773,8.02009094 Z" id="Path" fill="#F2F2F2"></path>
                <path d="M90.2285943,79.4183372 L57.9949732,87.7647343 C57.4562146,87.9042372 56.8843662,87.744131 56.4948377,87.3447261 C56.1053091,86.9453213 55.9572791,86.3672968 56.1065091,85.828389 C56.255739,85.2894812 56.6795574,84.8715629 57.218316,84.73206 L89.4519371,76.3856629 C89.9906957,76.2461599 90.5625441,76.4062661 90.9520726,76.805671 C91.3416012,77.2050759 91.4896312,77.7831003 91.3404013,78.3220082 C91.1911713,78.860916 90.7673529,79.2788343 90.2285943,79.4183372 Z" id="Path" fill="#CCCCCC"></path>
                <path d="M97.759729,82.925271 L59.3055877,92.8823645 C58.4727392,93.0980165 57.6237221,92.5939498 57.4092549,91.7564999 C57.1947878,90.9190501 57.6960848,90.0653423 58.5289333,89.8496902 L96.9830747,79.8925939 C97.8155877,79.6778285 98.6637257,80.181888 98.8780584,81.0188074 C99.0923911,81.8557268 98.5918629,82.7090029 97.7597347,82.925271 L97.759729,82.925271 Z" id="Path" fill="#CCCCCC"></path>
                <ellipse id="a597741b-ffcf-4aba-98b0-6652ef5d57c9" fill="#E6E6E6" cx="38.4104835" cy="92.2828577" rx="5.50385436" ry="5.53426239"></ellipse>
                <path d="M80.372661,64.9347917 L37.5632059,76.0155087 C34.9871751,76.6791814 32.3629977,75.1208775 31.6971819,72.5321131 L22.725909,37.4882762 C22.0658901,34.8980185 23.615629,32.259352 26.1901623,31.5898575 L68.9996344,20.5091405 C71.5756608,19.8454752 74.1998296,21.4037777 74.8656443,23.9925361 L83.8369199,59.0363729 C84.4969369,61.6266322 82.9471956,64.2652984 80.372661,64.9347917 Z" id="Path" fill="#FFFFFF"></path>
                <path d="M80.372661,64.9347917 L37.5632059,76.0155087 C34.9871751,76.6791814 32.3629977,75.1208775 31.6971819,72.5321131 L22.725909,37.4882762 C22.0658901,34.8980185 23.615629,32.259352 26.1901623,31.5898575 L68.9996344,20.5091405 C71.5756608,19.8454752 74.1998296,21.4037777 74.8656443,23.9925361 L83.8369199,59.0363729 C84.4969369,61.6266322 82.9471956,64.2652984 80.372661,64.9347917 Z M26.3314541,32.1417266 C24.0598144,32.7324697 22.6924033,35.0606973 23.2747601,37.3462181 L32.2460329,72.3900549 C32.8335302,74.6742437 35.1489634,76.0492091 37.4219255,75.4636368 L80.2313975,64.3829226 C82.5030372,63.7921795 83.8704483,61.4639519 83.2880916,59.1784311 L74.3167989,24.1345943 C73.7293016,21.8504041 71.4138665,20.4754382 69.1409035,21.0610124 L26.3314541,32.1417266 Z" id="Shape" fill="#E6E6E6"></path>
                <path d="M66.8278234,32.2922529 L45.2224503,37.8845444 C44.8305163,37.9945666 44.4207988,37.7805692 44.2849405,37.3948786 C44.2233528,37.19864 44.2447083,36.9855718 44.3439994,36.8056365 C44.4432905,36.6257012 44.6117836,36.4947255 44.809969,36.443422 L66.8029127,30.7508119 C67.6913236,31.203448 67.4575526,32.1292551 66.8275655,32.2923213 L66.8278234,32.2922529 Z" id="b056fd3f-f1a0-44f0-b006-deff0bee637d" fill="#F2F2F2"></path>
                <path d="M67.8033551,36.1029206 L46.197982,41.6952121 C45.8060502,41.8052258 45.39634,41.591229 45.2604808,41.2055435 C45.198894,41.0093044 45.2202502,40.7962363 45.3195418,40.6163011 C45.4188333,40.4363659 45.5873267,40.3053904 45.7855121,40.2540868 L67.7784558,34.5614767 C68.6668667,35.0141128 68.4330929,35.9399199 67.8031086,36.1029861 L67.8033551,36.1029206 Z" id="f1ea6668-a825-428d-96fe-a2c4e1b5a672" fill="#F2F2F2"></path>
                <path d="M42.0828519,45.0738185 L35.4891022,46.7805339 C35.0407108,46.896111 34.5839088,46.6248497 34.4680648,46.1742145 L32.4650717,38.3500622 C32.3501295,37.8991944 32.6198989,37.439869 33.0680569,37.3233837 L39.6618066,35.6166711 C40.1101742,35.501262 40.5668652,35.7724574 40.682844,36.2229906 L42.6858399,44.0471514 C42.8007802,44.4980192 42.5310097,44.957343 42.0828519,45.0738271 L42.0828519,45.0738185 Z" id="ee9aa382-a9c9-40d0-8ed3-22ec2dd616d6" fill="#E6E6E6"></path>
                <path d="M69.7379324,43.921548 L36.7641742,52.45641 C36.3722411,52.5664305 35.9625255,52.3524334 35.8266673,51.9667443 C35.7650779,51.7705052 35.786433,51.5574359 35.8857249,51.3775 C35.9850168,51.1975642 36.1535118,51.066589 36.3516986,51.0152876 L69.7132909,42.3800301 C70.6017018,42.832669 70.367928,43.7584733 69.7379437,43.9215423 L69.7379324,43.921548 Z" id="be954d2b-d8b8-4d26-80a0-a319e99a4b10" fill="#F2F2F2"></path>
                <path d="M70.713756,47.7333184 L37.7399949,56.2681918 C37.3480626,56.378212 36.9383479,56.1642148 36.8024909,55.778526 C36.7408996,55.582287 36.7622535,55.3692169 36.8615451,55.1892802 C36.9608366,55.0093435 37.129332,54.8783678 37.3275193,54.8270665 L70.6891117,46.1918175 C71.5775226,46.6444536 71.3437487,47.5702608 70.7137645,47.7333269 L70.713756,47.7333184 Z" id="baaae9e4-1b4d-40c2-8a9d-f2abb078b489" fill="#F2F2F2"></path>
                <path d="M71.6889392,51.5426155 L38.7151781,60.0774804 C38.3232458,60.1875006 37.9135311,59.9735034 37.7776741,59.5878146 C37.7160828,59.3915756 37.7374367,59.1785055 37.8367283,58.9985688 C37.9360198,58.8186321 38.1045152,58.6876564 38.3027025,58.6363551 L71.6642948,50.0011061 C72.5527058,50.4537422 72.3189348,51.3795494 71.6889477,51.5426155 L71.6889392,51.5426155 Z" id="a91bf4c9-37f6-4391-92ed-1882bd0ce21c" fill="#F2F2F2"></path>
                <path d="M72.6646863,55.3541124 L39.6909281,63.8889772 C39.298995,63.9989977 38.8892794,63.7850006 38.7534212,63.3993115 C38.6918317,63.203072 38.7131868,62.9900024 38.8124787,62.8100661 C38.9117705,62.6301297 39.0802655,62.499154 39.2784525,62.4478519 L72.6400448,53.8126115 C73.5284557,54.2652476 73.2946819,55.1910548 72.6646976,55.3541209 L72.6646863,55.3541124 Z" id="efb98e07-468b-4c85-9a64-ee4cc5493d6f" fill="#F2F2F2"></path>
                <path d="M73.6399431,59.1636888 L40.6661849,67.6985536 C40.2742512,67.8085723 39.8645362,67.5945743 39.7286781,67.208885 C39.6670887,67.012646 39.6884438,66.7995767 39.7877357,66.6196408 C39.8870276,66.4397049 40.0555226,66.3087298 40.2537093,66.2574283 L73.6153016,57.6221794 C74.5037126,58.0748154 74.2699387,59.0006226 73.6399545,59.1636888 L73.6399431,59.1636888 Z" id="aeb1db98-32e5-40b8-ab89-fdad6a3263dc" fill="#F2F2F2"></path>
                <path d="M38.8165409,94.2228007 C38.6966843,94.2540523 38.5699719,94.2452699 38.4555132,94.1977781 L38.4484148,94.1948319 L36.9490533,93.555677 C36.7597355,93.4750964 36.6276288,93.298986 36.6025893,93.0938089 C36.5775498,92.8886318 36.6633903,92.6856287 36.827715,92.5614121 C36.9920396,92.4371954 37.2098279,92.4106786 37.3988878,92.491869 L38.3704496,92.9073985 L39.6435918,89.8958775 C39.7032184,89.7548654 39.8161125,89.6434467 39.9574382,89.5861327 C40.0987638,89.5288187 40.256944,89.5303045 40.3971802,89.5902631 L40.3973729,89.5903429 L40.389722,89.6100373 L40.3976903,89.5902603 C40.6894958,89.7154363 40.8254351,90.0545273 40.7015433,90.3482002 L39.2037119,93.8890864 C39.1333311,94.0545648 38.9903176,94.1776419 38.8168554,94.2220143 L38.8165409,94.2228007 Z" id="be265de5-288f-49a7-867d-c42e7cdbf4db" fill="#FFFFFF"></path>
                <path d="M137.477044,132.401138 L64.368695,132.401138 C59.2066601,132.395274 55.0234582,128.188961 55.0176271,122.998407 L55.0176271,36.664238 C55.0234582,31.4736835 59.2066601,27.26737 64.368695,27.2615068 L132.38407,27.2615068 L146.828112,38.8379528 L146.828112,122.998407 C146.822281,128.188961 142.639079,132.395274 137.477044,132.401138 L137.477044,132.401138 Z" id="Path" fill="#E6E6E6"></path>
                <path d="M64.3686638,29.9683536 C60.692666,29.972521 57.7137146,32.9679307 57.7095701,36.664238 L57.7095701,122.998407 C57.713713,126.694714 60.6926653,129.690125 64.3686638,129.694291 L137.477013,129.694291 C141.153011,129.690125 144.131963,126.694714 144.136106,122.998407 L144.136106,40.1419863 L131.442417,29.9683536 L64.3686638,29.9683536 Z" id="Path" fill="#FFFFFF"></path>
                <path d="M123.257467,55.0720076 L89.9722589,55.0720076 C89.1122399,55.0720076 88.4150567,54.3709726 88.4150567,53.5062022 C88.4150567,52.6414317 89.1122399,51.9403967 89.9722589,51.9403967 L123.257467,51.9403967 C124.117486,51.9403967 124.814669,52.6414317 124.814669,53.5062022 C124.814669,54.3709726 124.117486,55.0720076 123.257467,55.0720076 L123.257467,55.0720076 Z" id="Path" fill="#FFAF73"></path>
                <path d="M129.680925,60.3566119 L89.9722589,60.3566119 C89.1130593,60.355445 88.4171545,59.6547508 88.4171545,58.7908035 C88.4171545,57.9268562 89.1130593,57.226162 89.9722589,57.2249952 L129.680925,57.2249952 C130.237761,57.2242413 130.75262,57.5225171 131.031255,58.0072897 C131.30989,58.4920622 131.30989,59.0895448 131.031255,59.5743173 C130.75262,60.0590899 130.237761,60.3573657 129.680925,60.3566119 L129.680925,60.3566119 Z" id="Path" fill="#FFAF73"></path>
                <path d="M123.257663,75.6223235 L89.9735284,75.6223235 C89.1135688,75.6223235 88.4164339,76.32331 88.4164339,77.1880207 C88.4164339,78.0527314 89.1135688,78.753718 89.9735284,78.753718 L123.257663,78.753718 C124.117622,78.753718 124.814757,78.0527314 124.814757,77.1880207 C124.814757,76.32331 124.117622,75.6223235 123.257663,75.6223235 Z" id="Path" fill="#CCCCCC"></path>
                <path d="M129.68154,80.9078096 L89.9735397,80.9078096 C89.1135801,80.9078096 88.4164452,81.6087961 88.4164452,82.4735068 C88.4164452,83.3382175 89.1135801,84.039204 89.9735397,84.039204 L129.68154,84.039204 C130.5415,84.039204 131.238635,83.3382175 131.238635,82.4735068 C131.238635,81.6087961 130.5415,80.9078096 129.68154,80.9078096 Z" id="Path" fill="#CCCCCC"></path>
                <path d="M123.257467,102.437648 L89.9722589,102.437648 C89.1122399,102.437648 88.4150567,101.736613 88.4150567,100.871842 C88.4150567,100.007072 89.1122399,99.3060369 89.9722589,99.3060369 L123.257467,99.3060369 C124.117486,99.3060369 124.814669,100.007072 124.814669,100.871842 C124.814669,101.736613 124.117486,102.437648 123.257467,102.437648 L123.257467,102.437648 Z" id="Path" fill="#CCCCCC"></path>
                <path d="M129.680925,107.722246 L89.9722589,107.722246 C89.1130593,107.72108 88.4171545,107.020385 88.4171545,106.156438 C88.4171545,105.292491 89.1130593,104.591797 89.9722589,104.59063 L129.680925,104.59063 C130.237761,104.589876 130.75262,104.888152 131.031255,105.372924 C131.30989,105.857697 131.30989,106.455179 131.031255,106.939952 C130.75262,107.424724 130.237761,107.723 129.680925,107.722246 L129.680925,107.722246 Z" id="Path" fill="#CCCCCC"></path>
                <ellipse id="abdb8e2f-a218-463c-85f4-c869fef49971" fill="#E87722" cx="76.1114572" cy="56.1485064" rx="5.50385436" ry="5.53426239"></ellipse>
                <path d="M75.5660547,58.2596626 C75.4422347,58.2598727 75.3217038,58.2195938 75.222641,58.1449 L75.2164976,58.140267 L73.9230183,57.1453298 C73.759536,57.0198677 73.6751692,56.8161417 73.7017783,56.611087 C73.7283874,56.4060322 73.8619175,56.2308951 74.0519425,56.1518143 C74.2419674,56.0727335 74.459531,56.1017596 74.6224725,56.227931 L75.4602856,56.8739528 L77.4400796,54.2768215 C77.532795,54.1552169 77.669755,54.0756277 77.8208298,54.0555628 C77.9719046,54.035498 78.1247186,54.0766011 78.2456542,54.1698298 L78.2458186,54.1699552 L78.2335318,54.1871109 L78.2461529,54.1699552 C78.4976966,54.3643473 78.5452456,54.7268137 78.3524349,54.980143 L76.023764,58.0335716 C75.9145654,58.1761732 75.7455463,58.2595012 75.5665591,58.2589779 L75.5660547,58.2596626 Z" id="ba7dbbd6-0052-44b1-a552-47a8298b8d3e" fill="#FFFFFF"></path>
                <path d="M82.1809835,79.8307609 C82.1815424,81.2987309 81.6020409,82.7067801 80.5700005,83.745061 C79.5379601,84.7833419 78.1379484,85.3667757 76.678044,85.3669751 C76.6307456,85.3679249 76.5834331,85.3660219 76.5363612,85.3612765 C73.5159852,85.2833898 71.122806,82.7716523 71.1747395,79.7340394 C71.2266729,76.6964266 73.704298,74.2688869 76.7255516,74.2954373 C79.7468053,74.3219877 82.1818568,76.7926994 82.1809835,79.8307609 L82.1809835,79.8307609 Z" id="Path" fill="#CCCCCC"></path>
                <ellipse id="e4a71040-498e-4958-ad41-c2d79154b8f7" fill="#CCCCCC" cx="76.1114572" cy="103.514141" rx="5.50385436" ry="5.53426239"></ellipse>
                <path d="M146.546948,39.2105147 L135.232439,39.2105147 C133.5124,39.2105147 132.118035,37.8084423 132.118035,36.0789009 L132.118035,27.6759934 C132.118035,27.6009242 132.160734,27.5324687 132.227945,27.499788 C132.295156,27.4671073 132.375035,27.47596 132.433554,27.522575 L146.667809,38.8613656 C146.732744,38.9130853 146.758011,39.0004635 146.730779,39.0791299 C146.703548,39.1577963 146.629786,39.2105147 146.546948,39.2105147 Z" id="Path" fill="#CCCCCC"></path>
                <path d="M82.1809835,79.8307609 C82.1815424,81.2987309 81.6020409,82.7067801 80.5700005,83.745061 C79.5379601,84.7833419 78.1379484,85.3667757 76.678044,85.3669751 C76.6307456,85.3679249 76.5834331,85.3660219 76.5363612,85.3612765 C75.0934182,81.7423291 75.4919364,77.6437187 77.6046499,74.3743275 C80.247964,74.8299416 82.1804506,77.1340754 82.1809835,79.8307609 Z" id="Path" fill="#FFAF73"></path>
                <path d="M88.4150284,77.1894454 C88.4165693,76.3245905 89.1134367,75.623873 89.9735397,75.6223235 L98.2676535,75.6223235 C98.7520852,76.6130881 99.0963876,77.6670872 99.290564,78.753718 L89.9735397,78.753718 C89.1139863,78.7535171 88.4167924,78.0537459 88.4150284,77.1894454 L88.4150284,77.1894454 Z" id="Path" fill="#FFAF73"></path>
                <path d="M99.483311,80.9078096 C99.4838711,81.9654208 99.3447504,83.0184236 99.0695954,84.039204 L89.9735284,84.039204 C89.1135688,84.039204 88.4164339,83.3382175 88.4164339,82.4735068 C88.4164339,81.6087961 89.1135688,80.9078096 89.9735284,80.9078096 L99.483311,80.9078096 Z" id="Path" fill="#FFAF73"></path>
                <path d="M120.00512,100.219709 C119.516142,101.025754 118.46992,101.280618 117.668283,100.788973 L97.8312959,88.622326 C97.3127295,88.3042727 97.0023016,87.7321989 97.0169473,87.1215995 C97.031593,86.511 97.3690873,85.9546394 97.9022993,85.6620933 C98.4355114,85.3695472 99.0834336,85.3852603 99.6019999,85.7033136 L119.438984,97.8699606 C120.240599,98.3616418 120.494063,99.4136422 120.00512,100.219709 Z" id="Path" fill="#3F3D56"></path>
                <path d="M100.168133,88.0530619 C97.3034051,92.7755829 91.891609,95.2978893 86.4562572,94.4438333 C81.0209055,93.5897774 76.6323976,89.5275508 75.3370883,84.1513637 C74.0417789,78.7751766 76.0947569,73.1437771 80.5387219,69.8830781 C84.9826869,66.6223791 90.942476,66.3745196 95.6390485,69.255076 C102.044694,73.1938595 104.07078,81.6031352 100.168133,88.0530619 Z M79.8473193,75.5896676 C76.9135237,80.4260446 78.4343285,86.7381538 83.2441319,89.6881584 C88.0539352,92.638163 94.3313626,91.1089563 97.2651586,86.2725796 C100.198955,81.4362028 98.6781504,75.1240934 93.8683473,72.1740884 C89.057483,69.2309203 82.7851702,70.758881 79.8473193,75.5896676 L79.8473193,75.5896676 Z" id="Shape" fill="#3F3D56"></path>
                <ellipse id="Oval" fill="#DCB6A9" cx="143.7473" cy="76.1257999" rx="6.95975329" ry="6.99820496"></ellipse>
                <path d="M143.297497,115.358385 C143.02602,114.507844 143.128296,113.581244 143.578642,112.811258 C144.028987,112.041272 144.784625,111.501042 145.655811,111.326221 C145.792279,111.29943 145.930452,111.282321 146.069307,111.275021 L153.400425,99.4436957 L146.703836,93.0422052 C146.007546,92.3766607 145.720047,91.3865636 145.95079,90.4488491 C146.181534,89.5111346 146.895018,88.770079 147.819616,88.5078061 C148.744215,88.2455333 149.737668,88.5023963 150.421764,89.1806061 L159.667816,98.3479356 L159.686425,98.3707529 C160.273723,99.2693284 160.20525,100.448889 159.51797,101.272655 L149.245963,113.488513 C149.276632,113.586435 149.30217,113.685909 149.322472,113.786522 C149.496214,114.662585 149.290021,115.57157 148.755669,116.285231 C148.221317,116.998891 147.409562,117.449439 146.524236,117.52374 C146.435752,117.531528 146.347708,117.535423 146.260102,117.535423 C144.908462,117.529738 143.713405,116.651564 143.297497,115.358385 Z" id="Path" fill="#DCB6A9"></path>
                <polygon id="Path" fill="#DCB6A9" points="132.284588 176.278506 128.810525 176.278221 127.157936 162.804393 132.285155 162.804677"></polygon>
                <path d="M133.170489,179.664589 L121.968898,179.664173 L121.968898,179.521708 C121.968898,178.358978 122.428238,177.243868 123.245901,176.4217 C124.063565,175.599532 125.172555,175.13769 126.328896,175.13769 L126.32918,175.13769 L133.170704,175.137975 L133.170489,179.664589 Z" id="Path" fill="#2F2E41"></path>
                <polygon id="Path" fill="#DCB6A9" points="164.962526 170.530269 161.977552 172.317358 153.701856 161.590836 158.107343 158.953228"></polygon>
                <path d="M167.446518,172.983972 L157.821758,178.746222 L157.749271,178.623816 C157.157648,177.624791 156.984951,176.43036 157.269172,175.303299 C157.553393,174.176237 158.27125,173.208873 159.264812,172.614029 L159.26505,172.613886 L165.143514,169.094535 L167.446518,172.983972 Z" id="Path" fill="#2F2E41"></path>
                <path d="M126.719754,167.589569 C124.392503,140.03499 123.008051,114.437092 131.515457,103.994806 L131.581247,103.913834 L145.89848,109.672562 L145.92207,109.724038 C145.970358,109.829773 150.731885,120.361376 149.621182,127.445149 L153.152672,143.779722 L164.667447,163.166729 C164.854957,163.482432 164.898687,163.863877 164.787532,164.2142 C164.676378,164.564523 164.421032,164.850022 164.086338,164.998199 L159.082332,167.211981 C158.498602,167.46742 157.81689,167.25315 157.481758,166.7089 L144.955832,146.171033 L137.88082,130.418287 C137.801787,130.242513 137.61547,130.141741 137.426051,130.17232 C137.236633,130.2029 137.091051,130.357253 137.070712,130.54907 L133.148902,167.617671 C133.081011,168.270182 132.533417,168.765402 131.880951,168.764353 L127.99083,168.764353 C127.329434,168.760467 126.779221,168.251936 126.719754,167.589569 L126.719754,167.589569 Z" id="Path" fill="#605F79"></path>
                <path d="M131.563686,104.213245 L131.495475,104.180413 L131.48482,104.105006 C130.949981,100.341064 131.583057,96.1589285 133.366337,91.67488 C135.183031,87.1389974 140.029086,84.6247408 144.758179,85.7645026 L144.758179,85.7645026 C147.422937,86.4247509 149.690412,88.1780008 151.009382,90.5980393 C152.31142,92.9933 152.555304,95.8276886 151.681752,98.4122218 C149.433574,105.022684 146.517177,111.207695 146.487982,111.26946 L146.426894,111.398568 L131.563686,104.213245 Z" id="Path" fill="#83819B"></path>
                <path d="M115.942849,94.8380129 C116.640087,94.2844646 117.539064,94.0563023 118.41404,94.2108191 C119.289017,94.3653359 120.05688,94.8878543 120.524813,95.6471664 C120.597558,95.7663176 120.661882,95.8904643 120.717309,96.0186882 L134.305859,98.7802903 L137.923957,90.2313356 C138.300098,89.342466 139.121725,88.7249612 140.076039,88.6139084 C141.030353,88.5028556 141.970525,88.9153412 142.538627,89.69433 C143.106729,90.4733188 143.215353,91.4989563 142.823146,92.3807772 L137.521374,104.299523 L137.506639,104.325041 C136.875254,105.192864 135.752477,105.541445 134.744432,105.182604 L119.76779,99.7857842 C119.687313,99.8489616 119.603594,99.9078504 119.51698,99.9622079 C118.761743,100.432637 117.842787,100.556754 116.990864,100.303391 C116.138941,100.050028 115.434971,99.4432525 115.055722,98.6354256 C115.017479,98.5548166 114.983018,98.473256 114.952339,98.3907437 C114.484298,97.1157002 114.883851,95.6825967 115.942849,94.8380129 L115.942849,94.8380129 Z" id="Path" fill="#DCB6A9"></path>
                <path d="M168.889916,83.6202582 C168.219552,82.4258891 167.242853,81.3319212 165.951658,80.8904202 C164.284118,80.3202728 162.478492,80.9273587 160.764045,81.3326848 C159.443102,81.6449552 158.06308,81.8360985 156.731621,81.5725741 C155.400298,81.3090355 154.116022,80.5299423 153.510271,79.3090547 C152.619086,77.5129649 153.369835,75.3711281 153.315599,73.3646622 C153.25914,71.15164 152.195934,69.0870338 150.431171,67.7634806 C148.666408,66.4399273 146.395249,66.0037956 144.26962,66.5802754 C142.627952,66.1038903 141.141529,66.0598228 140.126088,67.3288297 C137.465619,67.3288454 135.308871,69.4974933 135.308871,72.1726609 L139.915085,72.1726609 C139.696706,73.3536728 139.946281,74.5737322 140.610493,75.5722013 C141.423648,76.7734201 142.837572,77.6423693 143.10973,79.0694474 C143.373586,80.4523641 142.438672,81.7645209 141.457963,82.7697612 C140.477391,83.7749987 139.339777,84.7710642 139.03358,86.1451309 C138.845987,87.1882349 139.059014,88.2640565 139.629645,89.1553583 C140.19929,90.0358349 140.90597,90.8185262 141.72265,91.4734877 C145.402229,94.6432556 149.775341,96.892813 154.48476,98.0384006 C157.801301,98.8412827 161.42888,99.0493993 164.507714,97.5723955 C166.997288,96.3780536 168.882313,94.1984244 169.713038,91.5535506 C170.543762,88.9086769 170.245683,86.0357619 168.889919,83.6202611 L168.889916,83.6202582 Z" id="Path" fill="#2F2E41"></path>
                <path d="M179.113479,179.961117 L125.273998,179.961117 C125.117499,179.961117 124.990632,179.833549 124.990632,179.676186 C124.990632,179.518823 125.117499,179.391255 125.273998,179.391255 L179.113479,179.391255 C179.269978,179.391255 179.396845,179.518823 179.396845,179.676186 C179.396845,179.833549 179.269978,179.961117 179.113479,179.961117 Z" id="Path" fill="#CCCCCC"></path>
            </g>
        </g>
    </g>
</svg>