<?xml version="1.0" encoding="UTF-8"?>
<svg width="128px" height="128px" viewBox="0 0 128 128" version="1.1" xmlns="http://www.w3.org/2000/svg" xmlns:xlink="http://www.w3.org/1999/xlink">
    <title>earn1</title>
    <defs>
        <linearGradient x1="34.785216%" y1="6.51388665e-14%" x2="88.8244777%" y2="58.0798609%" id="linearGradient-1">
            <stop stop-color="#FFF9F1" offset="0%"></stop>
            <stop stop-color="#FFF4EB" offset="100%"></stop>
        </linearGradient>
        <circle id="path-2" cx="64" cy="64" r="64"></circle>
    </defs>
    <g id="Symbols" stroke="none" stroke-width="1" fill="none" fill-rule="evenodd">
        <g id="Earning/activities" transform="translate(-16.000000, -27.000000)">
            <g id="earn1" transform="translate(16.000000, 27.000000)">
                <mask id="mask-3" fill="white">
                    <use xlink:href="#path-2"></use>
                </mask>
                <use id="Mask" fill="url(#linearGradient-1)" xlink:href="#path-2"></use>
                <g id="undraw_On_the_way_re_swjt" mask="url(#mask-3)">
                    <g transform="translate(4.000000, 22.000000)">
                        <path d="M51.2953045,63.8838885 C50.6954724,68.5834775 48.4898456,72.8831911 46.1368584,77.0250591 C46.0590658,77.1660678 45.9790128,77.3049719 45.8970068,77.4459807 L21.441425,77.4459807 C20.9468212,77.3175996 20.458588,77.1765909 19.9724089,77.0250591 C17.2102251,76.1840821 14.6025173,74.901193 12.2506158,73.2262422 C3.25341775,66.7440504 -0.208701942,54.4952335 1.35506158,43.5197042 C2.3274156,36.7007752 5.32011096,29.7387328 11.1477571,26.0661924 C14.2247189,24.1236394 18.1771259,23.4922571 21.7192017,24.2141376 C21.8118949,24.2309744 21.904485,24.2520205 21.9991314,24.270962 C25.0466033,24.9570641 27.761522,26.6617964 29.3063736,29.4083094 C32.0843947,34.3436145 30.4302025,40.4575 29.0643647,45.9505261 C27.7026393,51.4435523 26.9638673,58.0183468 30.9163774,62.0697167 C29.6114806,58.2288076 30.8995258,53.6470766 34.0164646,51.0499906 C36.371508,49.0906008 39.6504995,48.3560927 42.641147,48.9643244 C42.9273442,49.025358 43.2094311,49.0948101 43.4871993,49.1789944 C44.1586106,49.3756187 44.8059341,49.6466921 45.4171078,49.9871637 C50.0787844,52.5905698 51.9666617,58.5865951 51.2953045,63.8838885 Z" id="Path" fill="#FFD0A0" fill-rule="nonzero"></path>
                        <path d="M36.7945826,77.0250612 C37.4722094,77.1829068 38.1519935,77.3218109 38.835991,77.4459828 L35.1382268,77.4459828 C34.654106,77.3154971 34.1721424,77.176593 33.6944954,77.0250612 C32.6442484,76.6967424 31.6101684,76.3200176 30.5922552,75.8948869 C26.5093352,74.1817362 22.7483822,71.6099056 19.9029526,68.1878134 C18.511351,66.529846 17.3749743,64.6734803 16.531371,62.680055 C15.6166017,60.4269794 15.0352471,58.0525582 14.8056537,55.6317237 C14.2899827,50.6648495 14.8161347,45.5611758 15.7989717,40.6826951 C16.81325,35.6264089 18.4505057,30.7153805 20.6732748,26.0619853 C20.94056,25.5042726 21.2169609,24.9500593 21.5024776,24.3993452 C21.5422755,24.3074768 21.6222583,24.2391281 21.719208,24.2141397 C21.816361,24.1953079 21.9170176,24.2157407 21.9991377,24.2709641 C22.2038256,24.388398 22.2806257,24.6456073 22.1738369,24.856045 C19.8820458,29.3253544 18.1447984,34.0578891 17.0006943,38.9484983 C15.8810788,43.719644 15.2454831,48.7117736 15.4622135,53.6176141 C15.668465,58.2014498 16.8660731,62.7095195 19.5830522,66.4578132 C22.0643847,69.8799054 25.4906482,72.5780125 29.2811014,74.415335 C31.6802346,75.5632055 34.2004578,76.4385777 36.7945826,77.0250612 L36.7945826,77.0250612 Z" id="Path" fill="#FFFFFF" fill-rule="nonzero"></path>
                        <path d="M44.9099499,77.4459828 L43.8197253,77.4459828 C43.6976433,77.3070787 43.5797726,77.1660699 43.4640592,77.0250612 C40.9808324,74.0079058 39.2985784,70.4132455 38.5729024,66.5735793 C37.6916051,61.7818854 38.3771846,56.8337576 40.528083,52.4621845 C41.1281721,51.2363513 41.8352562,50.0658595 42.6411092,48.9643265 C42.9273063,49.0253601 43.2093932,49.0948122 43.4871615,49.1789965 C41.3675164,51.9873597 39.9418088,55.2570401 39.326352,58.7212879 C38.2144297,65.295482 40.127488,72.0204753 44.5332252,77.0250612 C44.6552061,77.1660657 44.7815036,77.3070829 44.9099499,77.4459828 Z" id="Path" fill="#FFFFFF" fill-rule="nonzero"></path>
                        <path d="M100.877059,72.8874378 C101.035366,74.1277463 101.617471,75.2625192 102.238467,76.3556335 C102.258997,76.3928472 102.280125,76.4295053 102.301769,76.466721 L108.756043,76.466721 C108.88658,76.4328369 109.015432,76.3956232 109.143744,76.3556335 C109.872735,76.1336838 110.560957,75.7951055 111.181667,75.3530552 C113.556191,73.642287 114.469906,70.4096011 114.057192,67.5129558 C113.800571,65.7133184 113.010744,63.8759053 111.472722,62.9066556 C110.637538,62.3979881 109.641091,62.2234165 108.682725,62.4178647 C108.658261,62.4223096 108.633825,62.4278616 108.608853,62.4328621 C107.801965,62.5888434 107.100198,63.0822191 106.680338,63.7887009 C105.947167,65.0912195 106.383738,66.7047844 106.744209,68.1544992 C107.103594,69.6042119 107.298563,71.3394189 106.255428,72.4086501 C106.566716,71.4981843 106.362251,70.4905924 105.720688,69.7734833 C105.079126,69.0563742 104.100413,68.7414643 103.161049,68.9498957 C103.085517,68.9660065 103.011068,68.9843334 102.93775,69.0065538 C102.760553,69.0584474 102.589712,69.1299889 102.428412,69.2198453 C101.198121,69.906924 100.699874,71.4893848 100.877059,72.8874378 Z" id="Path" fill="#FFD0A0" fill-rule="nonzero"></path>
                        <path d="M116.829578,79.6711181 C116.650741,79.7127767 116.471334,79.7494327 116.290813,79.7822057 L117.26672,79.7822057 C117.394488,79.7477701 117.521687,79.7111078 117.647746,79.6711181 C117.924927,79.5844672 118.19784,79.4850428 118.466485,79.3728447 C119.556128,78.9304522 120.523616,78.2328859 121.28759,77.3388066 C121.65486,76.9012389 121.954773,76.4113102 122.177418,75.8852088 C122.418838,75.2905792 122.572265,74.6639248 122.632855,74.0250218 C122.743608,72.7042086 122.655236,71.3742506 122.370701,70.0797031 C122.103015,68.7452554 121.670913,67.4491439 121.084282,66.2210269 C121.01374,66.0738362 120.940793,65.9275702 120.865441,65.7822288 C120.854938,65.7579827 120.833829,65.739944 120.808242,65.7333493 C120.782604,65.728381 120.756041,65.7337737 120.73437,65.7483467 C120.68035,65.7793396 120.66008,65.8472211 120.688263,65.9027597 C121.293109,67.0822941 121.751601,68.3312988 122.053551,69.6220225 C122.364532,70.8879996 122.501139,72.1905209 122.459585,73.4934715 C122.43737,74.7052939 122.059146,75.8838055 121.372018,76.8822351 C120.703798,77.7814009 119.824865,78.5025906 118.812527,78.9823705 C118.17935,79.2853127 117.514216,79.5163372 116.829578,79.6711181 L116.829578,79.6711181 Z" id="Path" fill="#FFFFFF" fill-rule="nonzero"></path>
                        <path d="M114.687782,79.7822057 L114.975511,79.7822057 C115.007731,79.7455476 115.038839,79.7083339 115.069377,79.6711181 C115.724745,78.8748354 116.168722,77.9261391 116.360242,76.9127814 C116.592832,75.6481649 116.411894,74.3422629 115.844232,73.1885244 C115.685857,72.8650042 115.499243,72.5560894 115.286564,72.265374 C115.211031,72.2814848 115.136583,72.2998117 115.063265,72.3220321 C115.62268,73.06321 115.998951,73.9261392 116.16138,74.8404184 C116.454838,76.5754692 115.94995,78.3503195 114.787197,79.6711245 C114.755016,79.7083318 114.721683,79.7455476 114.687782,79.7822057 Z" id="Path" fill="#FFFFFF" fill-rule="nonzero"></path>
                        <path d="M54.8270873,47.7246462 L34.626852,47.7246462 L34.4126997,41.5138015 C34.3939478,40.9689321 34.6146056,40.4431503 35.0165909,40.0748542 C35.4185763,39.706558 35.961615,39.5326464 36.5027667,39.5988968 L48.2579458,41.0383137 L48.2593853,41.0383137 C51.887803,41.0480895 54.8247106,43.990992 54.8270873,47.6194221 L54.8270873,47.7246462 Z" id="Path" fill="#E87722" fill-rule="nonzero"></path>
                        <path d="M45.8237965,25.6937809 L31.7351083,25.6937809 C31.3566926,25.6937809 30.9937465,25.8439593 30.7261662,26.1115397 C30.4585858,26.3791201 30.3084073,26.7420661 30.3084073,27.1204819 L30.3084073,41.20917 C30.3084073,41.587586 30.4585857,41.9505322 30.726166,42.2181129 C30.9937464,42.4856936 31.3566924,42.6358731 31.7351083,42.6358731 L45.8237965,42.6358731 C46.2022145,42.6358731 46.5651634,42.4856977 46.8327463,42.2181168 C47.1003292,41.9505358 47.2505101,41.587588 47.2505101,41.20917 L47.2505101,27.1204819 C47.2505101,26.7420641 47.1003292,26.3791165 46.8327462,26.1115359 C46.5651632,25.8439552 46.2022143,25.6937809 45.8237965,25.6937809 Z" id="Path" fill="#CCCCCC" fill-rule="nonzero"></path>
                        <path d="M42.650812,36.2287653 L35.9989299,37.5241345 C35.1773752,37.683169 34.3821247,37.1471638 34.2212541,36.3259666 L33.7099228,33.7002222 C33.5508883,32.8786679 34.0868938,32.0834181 34.9080907,31.9225485 L41.5599728,30.6271813 C42.3815278,30.4681456 43.176779,31.0041514 43.3376486,31.8253493 L43.8489778,34.4510915 C44.0080136,35.2726454 43.4720088,36.0678957 42.650812,36.2287653 Z" id="Path" fill="#3F3D56" fill-rule="nonzero"></path>
                        <path d="M41.3199738,33.126704 L36.243538,34.115274 C36.0501822,34.1529275 35.8629123,34.0267059 35.8252588,33.8333502 C35.7876053,33.6399945 35.9138268,33.4527245 36.1071825,33.415071 L41.1836205,32.426501 C41.3769762,32.3888481 41.5642457,32.5150701 41.6018987,32.7084258 C41.6395516,32.9017815 41.5133296,33.089051 41.3199738,33.126704 L41.3199738,33.126704 Z" id="Path" fill="#FFFFFF" fill-rule="nonzero"></path>
                        <path d="M40.3332475,34.5906712 L37.7075052,35.1020004 C37.5141495,35.1396539 37.3268795,35.0134323 37.289226,34.8200766 C37.2515725,34.6267209 37.3777941,34.4394509 37.5711498,34.4017974 L40.1968941,33.8904682 C40.3219734,33.866111 40.4505457,33.910333 40.5341793,34.0064762 C40.6178128,34.1026194 40.6438016,34.2360774 40.602356,34.3565777 C40.5609103,34.4770781 40.4583267,34.566314 40.3332475,34.5906712 L40.3332475,34.5906712 Z" id="Path" fill="#FFFFFF" fill-rule="nonzero"></path>
                        <path d="M47.2504996,27.1204819 L47.2504996,28.9930292 L30.3084073,28.9930292 L30.3084073,27.1204819 C30.3084073,26.7420661 30.4585858,26.3791201 30.7261662,26.1115397 C30.9937465,25.8439593 31.3566926,25.6936793 31.7351083,25.6937809 L45.8237965,25.6937809 C46.2022124,25.6936793 46.5651587,25.8439593 46.8327394,26.1115396 C47.1003201,26.3791199 47.2504996,26.7420659 47.2504996,27.1204819 Z" id="Path" fill="#B3B3B3" fill-rule="nonzero"></path>
                        <path d="M81.0822265,29.5794234 C80.8842277,28.9402846 80.4132989,28.4216744 79.7961583,28.1631411 C79.1790177,27.9046078 78.47906,27.9327088 77.8846307,28.2398827 L58.5019197,21.2856842 L57.6482214,26.12781 L76.9692358,31.4409763 C77.5645271,32.4270211 78.8032407,32.8119871 79.8525723,32.3370563 C80.9019038,31.8621254 81.430177,30.6774154 81.0822265,29.5794234 L81.0822265,29.5794234 Z" id="Path" fill="#FFB8B8" fill-rule="nonzero"></path>
                        <path d="M81.0822265,29.5794234 C80.8842277,28.9402846 80.4132989,28.4216744 79.7961583,28.1631411 C79.1790177,27.9046078 78.47906,27.9327088 77.8846307,28.2398827 L58.5019197,21.2856842 L57.6482214,26.12781 L76.9692358,31.4409763 C77.5645271,32.4270211 78.8032407,32.8119871 79.8525723,32.3370563 C80.9019038,31.8621254 81.430177,30.6774154 81.0822265,29.5794234 L81.0822265,29.5794234 Z" id="Path" fill="#000000" fill-rule="nonzero" opacity="0.2"></path>
                        <path d="M61.9422504,22.1680116 L60.1119278,26.9497287 C60.0065436,27.22503 59.7865479,27.4408266 59.5092669,27.5408862 C59.231986,27.6409458 58.9248842,27.6153577 58.6679859,27.4707896 L54.2196365,24.9670914 C52.7736107,24.4040066 52.0558502,22.7770289 52.6148309,21.3294116 C53.1738116,19.8817944 54.7987467,19.1594216 56.2479438,19.7142936 L61.215281,20.81598 C61.5030514,20.8798957 61.7487491,21.0659048 61.8883496,21.3255366 C62.0279502,21.5851684 62.0476262,21.8927064 61.9422504,22.1680116 L61.9422504,22.1680116 Z" id="Path" fill="#E87722" fill-rule="nonzero"></path>
                        <path d="M82.6079093,34.0069814 L75.6627038,37.163893 L76.574544,40.5967186 C78.3353791,47.2257438 78.8026814,54.1319147 77.9509069,60.9377207 L77.9509069,60.9377207 L83.0288329,61.9982641 L87.2380483,51.2647647 L85.7648229,39.0580399 L82.6079093,34.0069814 Z" id="Path" fill="#E87722" fill-rule="nonzero"></path>
                        <path d="M96.2352442,49.8967697 C91.6720064,49.8967697 87.9532824,53.2140524 87.7728271,57.3681271 L104.697661,57.3681271 C104.517204,53.214044 100.79848,49.8967697 96.2352442,49.8967697 Z" id="Path" fill="#3F3D56" fill-rule="nonzero"></path>
                        <path d="M92.6829989,50.6126625 C92.4455108,31.8609466 81.7660662,33.5860599 81.7660662,33.5860599 C81.7660662,33.5860599 81.9658376,39.4228379 82.0618204,39.6043582 C88.8671641,52.4802578 77.6357735,67.5753967 63.3392301,64.7983773 C63.0696803,64.7460189 62.8107147,64.6929028 62.5623331,64.6390291 C58.802665,63.8540886 56.3000445,60.2827718 56.8455282,56.4809718 C58.2538433,45.1717317 51.2492458,45.3718631 51.2492458,45.3718631 L41.0068629,45.3718631 L35.6878142,40.5847434 C35.3065883,40.2416415 34.7800403,40.1099019 34.2821596,40.2330558 C33.7842788,40.3562097 33.3798651,40.7182284 33.2025503,41.1994888 L32.5182455,43.0568051 C32.5182455,43.0568051 22.4161284,44.109109 23.2579715,54.0007653 L26.3811757,54.0007653 C26.3736347,54.2818173 26.3848956,54.563059 26.4148831,54.8426084 L49.7236072,54.6531011 C51.0898912,54.641993 52.2959114,55.7491134 52.3015412,57.1154311 C52.3043652,57.7875473 52.0335596,58.4318747 51.5514303,58.900169 C51.0693011,59.3684633 50.4173644,59.6203997 49.7456151,59.5980137 L45.9877412,59.4727454 C44.830207,64.6290343 47.6714274,68.101637 50.8020314,70.2851675 C53.7495337,72.3112048 57.2470761,73.3854188 60.8236809,73.3634955 L71.0325731,73.3634955 C84.2916017,73.3634955 86.6066702,62.2087354 86.6066702,62.2087354 C93.5518694,59.2622741 92.6829989,50.6126625 92.6829989,50.6126625 Z" id="Path" fill="#A5541B" fill-rule="nonzero"></path>
                        <circle id="Oval" fill="#F9A05C" fill-rule="nonzero" cx="95.6038619" cy="67.6280898" r="11.8384184"></circle>
                        <circle id="Oval" fill="#FFFFFF" fill-rule="nonzero" cx="95.6038619" cy="67.6280898" r="2.90157215"></circle>
                        <circle id="Oval" fill="#F9A05C" fill-rule="nonzero" cx="35.8330027" cy="65.8391732" r="13.627335"></circle>
                        <circle id="Oval" fill="#FFFFFF" fill-rule="nonzero" cx="35.8330027" cy="65.8391732" r="3.3400335"></circle>
                        <path d="M75.6824345,38.0966825 L73.1835243,31.3094236 C72.9205049,30.5950237 72.952058,29.8053988 73.271242,29.1142635 C73.5904261,28.4231282 74.1710942,27.8870988 74.8855016,27.6240998 L82.0495863,24.9867632 C83.306573,24.5238858 84.695955,24.5793081 85.9120783,25.1408376 C87.1282015,25.7023671 88.0714456,26.7240052 88.5343036,27.9809991 C88.740949,28.5396392 88.846493,29.1306061 88.8459977,29.7262409 C88.8405701,31.2578683 88.1458348,32.7056538 86.9544188,33.6681711 C86.5294495,34.0090959 86.0517343,34.2784467 85.5400761,34.4656217 L75.6824345,38.0966825 Z" id="Path" fill="#3F3D56" fill-rule="nonzero"></path>
                        <path d="M88.7407635,29.726203 C88.7395788,31.2268658 88.0585325,32.6461814 86.8886477,33.5860535 C85.0950724,33.1129612 83.6004233,31.8748162 82.8018392,30.2006024 C82.003255,28.5263886 81.9816012,26.5856388 82.7426315,24.8940237 C84.2047156,24.5760718 85.7321471,24.9369529 86.8973293,25.87564 C88.0625116,26.8143272 88.740231,28.2299466 88.7407635,29.726203 L88.7407635,29.726203 Z" id="Path" fill="#E87722" fill-rule="nonzero"></path>
                        <ellipse id="Oval" fill="#E87722" fill-rule="nonzero" cx="25.0468881" cy="51.7909167" rx="2.94645081" ry="3.57783313"></ellipse>
                        <polygon id="Path" fill="#FFB8B8" fill-rule="nonzero" points="63.9950174 64.4555978 66.5752665 64.4555978 67.8028842 57.7635766 63.9945965 57.763787"></polygon>
                        <path d="M63.3368287,63.6132222 L68.4181515,63.6130117 L68.418362,63.6130117 C69.2771976,63.6130117 70.1008653,63.9541446 70.7081587,64.5614282 C71.3154522,65.1687118 71.6566124,65.9923739 71.6566124,66.8512096 L71.6566124,66.95644 L63.3369887,66.9567472 L63.3368287,63.6132222 Z" id="Path" fill="#2F2E41" fill-rule="nonzero"></path>
                        <path d="M66.98995,61.7089858 C66.959892,61.7089858 66.9297133,61.7075469 66.899414,61.7046692 L63.3286208,61.4446765 C63.0359451,61.4175213 62.7724675,61.256011 62.61547,61.0075191 C62.4584725,60.7590271 62.4257529,60.4517237 62.5269083,60.1757454 L67.3057443,49.4391648 C67.3747679,49.2456538 67.359791,49.0321034 67.2644329,48.8501209 C67.1692896,48.6658981 66.999944,48.5311242 66.7990663,48.4797584 C64.551924,47.8923624 58.7864038,46.3282916 53.795457,44.4982615 C51.6571945,43.714173 50.3104708,42.5810964 49.7927457,41.1304787 C49.1101877,39.2180406 50.119947,37.4739333 50.1632619,37.4007603 L50.1971229,37.3434181 L54.8934919,37.7702999 L59.9847821,38.2033482 L71.1420295,44.1862702 C73.0807406,45.2346992 73.8885934,47.5967321 72.9979989,49.6128287 L67.854144,61.1476869 C67.7021167,61.488958 67.3635518,61.7089858 66.98995,61.7089858 L66.98995,61.7089858 Z" id="Path" fill="#2F2E41" fill-rule="nonzero"></path>
                        <circle id="Oval" fill="#FFB8B8" fill-rule="nonzero" cx="55.710086" cy="11.359544" r="5.16913334"></circle>
                        <polygon id="Path" fill="#FFB8B8" fill-rule="nonzero" points="62.521792 65.0869801 65.1020411 65.0869801 66.3296588 58.3949589 62.5213711 58.3951694"></polygon>
                        <path d="M61.8636033,64.2446045 L66.9449261,64.2443941 L66.9451366,64.2443941 C67.8039722,64.2443941 68.6276399,64.585527 69.2349333,65.1928106 C69.8422268,65.8000941 70.183387,66.6237562 70.183387,67.4825919 L70.183387,67.5878223 L61.8637633,67.5881296 L61.8636033,64.2446045 Z" id="Path" fill="#2F2E41" fill-rule="nonzero"></path>
                        <path d="M65.5167246,62.3403681 C65.4866666,62.3403681 65.4564879,62.3389292 65.4261886,62.3360515 L61.8553954,62.0760588 C61.5627197,62.0489036 61.2992421,61.8873933 61.1422446,61.6389014 C60.985247,61.3904095 60.9525274,61.083106 61.0536829,60.8071277 L65.8325189,50.0705472 C65.9015425,49.8770361 65.8865656,49.6634857 65.7912075,49.4815032 C65.6960642,49.2972804 65.5267186,49.1625065 65.3258409,49.1111407 C63.0786986,48.5237447 57.3131784,46.9596739 52.3222316,45.1296438 C50.1839691,44.3455554 48.8372454,43.2124788 48.3195203,41.761861 C47.6369623,39.849423 48.6467216,38.1053156 48.6900365,38.0321426 L48.7238975,37.9748004 L53.4202665,38.4016822 L58.5115567,38.8347305 L69.6688041,44.8176525 C71.6075152,45.8660816 72.415368,48.2281144 71.5247735,50.244211 L66.3809186,61.7790692 C66.2288913,62.1203404 65.8903264,62.3403681 65.5167246,62.3403681 L65.5167246,62.3403681 Z" id="Path" fill="#2F2E41" fill-rule="nonzero"></path>
                        <path d="M57.3042843,19.4597981 L51.8323042,17.5656512 C51.8323042,17.5656512 48.3971635,20.2048293 50.0473864,26.7519608 C50.908903,30.1305285 50.6579563,33.6968475 49.3318008,36.921478 C49.1721254,37.3204479 48.9880531,37.7092152 48.7806272,38.0855765 C48.7806272,38.0855765 54.8839896,45.4517035 60.5664305,39.9797234 L58.3565924,29.3514544 C58.3565924,29.3514544 61.8291909,22.3010186 57.3042843,19.4597981 Z" id="Path" fill="#E87722" fill-rule="nonzero"></path>
                        <path d="M56.3518693,16.7044752 C55.6161784,15.6032792 55.035574,14.0763337 55.8455744,13.0285863 C56.6451296,11.9943484 58.222129,12.1467178 59.4466718,11.689075 C61.1522459,11.0516588 62.1414305,9.04793965 61.8329266,7.25347955 C61.5244226,5.45901945 60.0839323,3.97146588 58.3678899,3.36280701 C56.6518475,2.75414814 54.7167343,2.95209702 53.0362619,3.65300506 C50.9675777,4.51583108 49.1930062,6.18490707 48.4488779,8.29918968 C47.7047497,10.4134723 48.1025437,12.9520733 49.6462503,14.5771566 C51.3012738,16.3194225 53.898728,16.783741 56.3016008,16.7555666" id="Path" fill="#2F2E41" fill-rule="nonzero"></path>
                        <path d="M51.5434952,7.31106793 C50.6164492,8.0657529 49.2020623,7.73055413 48.2069343,7.06822356 C47.2118063,6.40589299 46.4043231,5.46277618 45.3276205,4.94348316 C43.4294285,4.02798933 41.1344443,4.63657874 39.2870364,5.6506503 C37.4396286,6.66472186 35.8019828,8.06568766 33.8505737,8.86147562 C31.8991646,9.65726357 29.4090243,9.6966008 27.9313982,8.19397613 C27.1863953,10.3524602 27.8753159,12.7463277 29.6536923,14.1786195 C31.4320686,15.6109114 33.9177602,15.7738543 35.8678949,14.5859749 C38.0060501,13.2835616 39.1870823,10.5527678 41.5852554,9.83391172 C42.9123158,9.43612402 44.3373078,9.75651056 45.6785428,10.1035246 C47.0197777,10.4505386 48.4182853,10.8254913 49.7718196,10.5300739 C51.1253538,10.2346564 52.3914248,9.01830888 52.2192258,7.64365699 L51.5434952,7.31106793 Z" id="Path" fill="#2F2E41" fill-rule="nonzero"></path>
                        <path d="M80.825014,29.3688806 C80.5496706,28.7590542 80.0183529,28.3025101 79.3740291,28.1220964 C78.7297053,27.9416828 78.0385628,28.0559322 77.4865758,28.4341022 L57.3939364,23.9245256 L57.1441952,28.8349837 L76.9731315,31.7236799 C77.685534,32.6287442 78.9622824,32.8579349 79.9449993,32.2571634 C80.9277163,31.6563919 81.3057806,30.4155526 80.825014,29.3688806 Z" id="Path" fill="#FFB8B8" fill-rule="nonzero"></path>
                        <path d="M56.0475248,0.541903302 C59.6794377,0.541903302 62.6236847,2.79106422 62.6236847,5.56554481 C62.6236847,5.68858269 72.784289,7.28900925 69.0885038,8.27627715 C65.9277186,9.12062865 48.9079452,9.45282699 48.0853351,8.73584102 C47.6444657,8.35157987 47.9106051,4.42125531 50.1462376,2.26269107 C51.869994,0.598357259 55.5662528,0.541903302 56.0475248,0.541903302 Z" id="Oval" fill="#E87722" fill-rule="evenodd"></path>
                        <path d="M60.9168455,24.3756335 L59.6904906,29.3466454 C59.6198793,29.6328475 59.4281888,29.8741402 59.1653703,30.007647 C58.9025518,30.1411538 58.5946375,30.1536508 58.3218642,30.0418815 L53.5985941,28.1061623 C52.0931024,27.726684 51.1789694,26.2000794 51.5552592,24.6937876 C51.9315489,23.1874958 53.4562145,22.2701324 54.9632997,22.643232 L60.0286106,23.1236192 C60.3220682,23.1515411 60.5888387,23.3058143 60.7594067,23.5462379 C60.9299747,23.7866615 60.9874456,24.0894218 60.9168434,24.3756251 L60.9168455,24.3756335 Z" id="Path" fill="#E87722" fill-rule="nonzero"></path>
                        <circle id="Oval" fill="#E87722" fill-rule="nonzero" cx="78.5039242" cy="31.7971433" r="1.4732254"></circle>
                    </g>
                </g>
            </g>
        </g>
    </g>
</svg>