<?xml version="1.0" encoding="UTF-8"?>
<svg width="128px" height="128px" viewBox="0 0 128 128" version="1.1" xmlns="http://www.w3.org/2000/svg" xmlns:xlink="http://www.w3.org/1999/xlink">
    <title>earn2</title>
    <defs>
        <linearGradient x1="34.785216%" y1="6.51388665e-14%" x2="88.8244777%" y2="58.0798609%" id="linearGradient-1">
            <stop stop-color="#FFF9F1" offset="0%"></stop>
            <stop stop-color="#FFF4EB" offset="100%"></stop>
        </linearGradient>
        <circle id="path-2" cx="64" cy="64" r="64"></circle>
    </defs>
    <g id="Symbols" stroke="none" stroke-width="1" fill="none" fill-rule="evenodd">
        <g id="Earning/act2" transform="translate(-16.000000, -26.000000)">
            <g id="earn2" transform="translate(16.000000, 26.000000)">
                <mask id="mask-3" fill="white">
                    <use xlink:href="#path-2"></use>
                </mask>
                <use id="Mask" fill="url(#linearGradient-1)" xlink:href="#path-2"></use>
                <g id="Group-3" mask="url(#mask-3)">
                    <g transform="translate(17.765356, 9.000000)" id="Group-19">
                        <g transform="translate(0.000000, 25.738804)">
                            <path d="M27.1365168,2.23704456 L1.92486865,30.0298765 C3.30068615,33.0199644 5.37706326,35.6343103 7.97803128,37.6513539 L35.1354288,7.34061643 C32.9070459,5.03470406 30.1667045,3.28627513 27.1365168,2.23704456 L27.1365168,2.23704456 Z" id="Path" fill="#F2F2F2" fill-rule="nonzero"></path>
                            <path d="M20.4726667,41.8540399 C9.184024,41.8540399 0,32.6700159 0,21.3813034 C0,10.0926607 9.184024,0.908636707 20.4726667,0.908636707 C31.7613093,0.908636707 40.9453333,10.0926607 40.9453333,21.3813034 C40.9453333,32.6700131 31.7613093,41.8540399 20.4726667,41.8540399 Z M20.4726667,1.05130337 C9.26267471,1.05130337 0.142666667,10.1713128 0.142666667,21.3813034 C0.142666667,32.5912939 9.26267471,41.7113733 20.4726667,41.7113733 C31.6826586,41.7113733 40.8026667,32.5912953 40.8026667,21.3813034 C40.8026667,10.1713114 31.6826586,1.05130337 20.4726667,1.05130337 Z" id="Shape" fill="#000000" fill-rule="nonzero"></path>
                            <path d="M6.06333333,21.3813333 C6.06333333,29.3393884 12.5146116,35.7906667 20.4726667,35.7906667 L20.4726667,6.972 C12.5146116,6.972 6.06333333,13.4232783 6.06333333,21.3813333 L6.06333333,21.3813333 Z" id="Path" fill="#FFD5B7" fill-rule="nonzero"></path>
                            <path d="M20.4726667,6.972 L20.4726667,35.7906667 C28.4307216,35.7906667 34.8819997,29.3393883 34.8819997,21.3813333 C34.8819997,13.4232784 28.4307216,6.972 20.4726667,6.972 L20.4726667,6.972 Z" id="Path" fill="#FFBB86" fill-rule="nonzero"></path>
                            <circle id="Oval" fill="#2F2E41" fill-rule="nonzero" cx="20.4726667" cy="22.094661" r="1.99733333"></circle>
                            <polygon id="Path" fill="#2F2E41" fill-rule="nonzero" points="20.4692427 14.769869 20.966864 18.7175983 21.4644853 22.6653276 20.4692427 22.6653276 19.474 22.6653276 19.9716213 18.7175983"></polygon>
                            <polygon id="Path" fill="#2F2E41" fill-rule="nonzero" points="32.3817667 22.206797 25.8887213 22.4496156 19.3958187 22.6922916 19.3993853 22.1251916 19.402952 21.557949 25.892288 21.882373"></polygon>
                            <path d="M41.6586667,23.0933034 C41.328332,23.0933034 41.195,22.8663464 41.0261412,22.5790628 C40.9839261,22.5073115 40.9382285,22.4294996 40.8852849,22.3472295 L41.0053817,22.2700468 C41.0594381,22.3540575 41.1061115,22.4334715 41.1491626,22.5067551 C41.3173253,22.7929943 41.4099758,22.9506381 41.6586667,22.9506381 C42.4847067,22.9506381 43.1566667,21.5746181 43.1566667,19.8833048 C43.1566667,18.1919915 42.4847067,16.8159715 41.6586667,16.8159715 C41.1817648,16.8159715 40.8501747,17.1102215 40.5835121,17.7700548 L40.4511545,17.7165548 C40.7427581,16.9950709 41.115168,16.6733048 41.6586667,16.6733048 C42.5632903,16.6733048 43.2993333,18.1132766 43.2993333,19.8833048 C43.2993333,21.653333 42.5632903,23.0933034 41.6586667,23.0933034 Z" id="Path" fill="#000000" fill-rule="nonzero"></path>
                        </g>
                        <g transform="translate(22.234644, 0.000000)">
                            <circle id="Oval" fill="#F2F2F2" fill-rule="nonzero" cx="62.016385" cy="3.42636946" r="3.42636946"></circle>
                            <circle id="Oval" fill="#F69F60" fill-rule="nonzero" cx="36.5856147" cy="15.5750144" r="5.09672458"></circle>
                            <path d="M28.0110615,47.5259308 C28.0110615,47.5259308 32.0802831,57.8060834 32.5086299,57.8060834 C32.9369766,57.8060834 33.579478,53.9510262 33.579478,53.9510262 L31.0094399,46.669252 L28.0110615,47.5259308 Z" id="Path" fill="#FFCCCC" fill-rule="nonzero"></path>
                            <path d="M34.0078182,19.4696788 C34.0078182,19.4696788 35.078668,23.9672456 34.6503278,24.823926 C34.2219875,25.6806065 35.5070066,26.9656239 35.5070066,26.9656239 L38.505385,26.9656239 L40.6470846,23.5389069 L41.0754232,22.0397169 C41.0754232,22.0397169 39.7904041,18.6129999 40.0045734,18.1846597 C40.2187427,17.7563195 34.0078182,19.4696788 34.0078182,19.4696788 Z" id="Path" fill="#FFB9B9" fill-rule="nonzero"></path>
                            <path d="M34.0078182,19.4696788 C34.0078182,19.4696788 35.078668,23.9672456 34.6503278,24.823926 C34.2219875,25.6806065 35.5070066,26.9656239 35.5070066,26.9656239 L38.505385,26.9656239 L40.6470846,23.5389069 L41.0754232,22.0397169 C41.0754232,22.0397169 39.7904041,18.6129999 40.0045734,18.1846597 C40.2187427,17.7563195 34.0078182,19.4696788 34.0078182,19.4696788 Z" id="Path" fill="#000000" fill-rule="nonzero" opacity="0.1"></path>
                            <polygon id="Path" fill="#575A89" fill-rule="nonzero" points="46.001371 92.2874667 46.001371 94.6433405 48.7855409 95.2858663 48.9997706 92.2874667"></polygon>
                            <path d="M34.6503278,50.0959755 C34.6503278,50.0959755 31.6519494,55.4502227 32.7227992,58.2344302 C33.7936489,61.0186377 37.8628755,74.7255089 37.8628755,74.7255089 C37.8628755,74.7255089 40.2187492,82.435625 40.2187492,82.8639636 C40.2187492,83.2923022 42.1462778,92.7157776 42.7887874,92.9299485 C43.4312969,93.1441195 49.2138828,93.7866274 49.4280537,93.1441178 C49.6422246,92.5016083 49.8563923,89.0748962 49.2138828,88.4323801 C48.5713732,87.7898641 45.1446611,67.8720733 45.1446611,67.8720733 L44.7163193,61.2328021 L50.0705665,77.7238808 C50.0705665,77.7238808 51.5697549,87.5756948 52.2122644,88.2181978 C52.854774,88.8607008 50.9272453,89.5032169 51.5697549,90.1457264 C52.2122644,90.7882359 54.5681333,92.5016002 54.3539623,93.1441048 C54.1397914,93.7866094 59.4940403,93.7866143 60.1365498,93.3582741 C60.7790594,92.9299339 60.5648884,86.2906692 60.5648884,86.2906692 L57.56651,77.2955422 L54.1397849,55.4502162 C54.1397849,55.4502162 53.0689351,49.0251208 52.2122563,49.0251208 C51.3555774,49.0251208 34.6503278,50.0959755 34.6503278,50.0959755 Z" id="Path" fill="#2F2E41" fill-rule="nonzero"></path>
                            <polygon id="Path" fill="#E86E11" fill-rule="nonzero" points="0.523331296 80.4760543 0.824218861 94.7731794 10.079822 99.6644415 26.935411 96.6544624 27.3494072 81.7928972 16.6640364 78.0303313"></polygon>
                            <path d="M10.2626062,99.8188045 L0.88520798,94.8632434 L0.579645255,80.3493174 L16.8853107,77.8787546 L16.9200599,77.8909501 L27.7070355,81.6892161 L27.2868302,96.7787624 L10.2626062,99.8188045 Z M1.17706524,94.6831081 L10.3108218,99.5099221 L26.9980094,96.5300593 L27.4055134,81.896479 L16.8566914,78.1820092 L0.880661562,80.6026368 L1.17706524,94.6831081 Z" id="Shape" fill="#FFFFFF" fill-rule="nonzero"></path>
                            <polygon id="Path" fill="#FFFFFF" fill-rule="nonzero" points="9.88825131 84.3524646 9.85201974 84.3381191 0.483675731 80.6132561 0.592738278 80.3386686 9.92503463 84.0490022 27.3441441 81.6464996 27.3846057 81.9392948"></polygon>
                            <polygon id="Rectangle" fill="#FFFFFF" fill-rule="nonzero" transform="translate(10.228288, 91.790046) rotate(-0.696950) translate(-10.228288, -91.790046) " points="10.0804755 84.0576756 10.3761012 84.0576756 10.3761012 99.5224173 10.0804755 99.5224173"></polygon>
                            <polygon id="Path" fill="#FFFFFF" fill-rule="nonzero" points="6.67280555 82.7377792 4.11378991 81.7052714 20.3710982 79.114806 22.9299299 80.1473138"></polygon>
                            <polygon id="Rectangle" fill="#FFFFFF" fill-rule="nonzero" transform="translate(4.962774, 87.102904) rotate(-66.705540) translate(-4.962774, -87.102904) " points="4.81497182 84.9707176 5.11057546 84.9707176 5.11057546 89.2350908 4.81497182 89.2350908"></polygon>
                            <polygon id="Rectangle" fill="#FFFFFF" fill-rule="nonzero" transform="translate(4.962774, 90.630129) rotate(-66.705540) translate(-4.962774, -90.630129) " points="4.81497182 88.4979427 5.11057546 88.4979427 5.11057546 92.7623159 4.81497182 92.7623159"></polygon>
                            <path d="M46.6438397,93.7866209 C46.6438397,93.7866209 44.9304804,92.2874325 44.0738016,92.7157711 C43.2171227,93.1441097 40.4329136,97.2133379 39.5762348,96.9991686 C38.719556,96.7849993 37.4345352,99.3040269 39.5762348,99.5182028 C41.7179343,99.7323786 45.1446513,99.3040318 45.1446513,99.3040318 C45.8531422,99.4218558 46.5685565,99.4933977 47.2863493,99.5182028 C48.1430281,99.5182028 50.0705583,99.7323721 50.0705583,99.5182028 C50.0705583,99.3040334 49.6422181,94.4291353 49.4280488,94.4291353 C49.2138795,94.4291353 46.858009,94.4291304 46.6438397,93.7866209 Z" id="Path" fill="#FF8324" fill-rule="nonzero"></path>
                            <path d="M58.4231823,92.2874325 C58.4231823,92.2874325 56.2814828,91.8590922 56.0673086,92.2874325 C55.8531344,92.7157727 54.9964588,94.0007902 54.9964588,94.2149611 C54.9964588,94.429132 55.4247991,96.9991686 55.4247991,97.2133379 C55.4247991,97.4275072 55.8531393,98.0700183 56.2814779,98.4983569 C56.5296536,98.7081553 56.6158982,99.0531324 56.4956488,99.3550374 C56.4956488,99.3550374 62.0640654,99.9975469 62.0640654,99.1408665 C62.0640654,98.284186 61.4215558,96.356659 60.9932156,95.9283188 C60.5648754,95.4999785 59.7082014,92.5016018 58.4231823,92.2874325 Z" id="Path" fill="#FF8324" fill-rule="nonzero"></path>
                            <circle id="Oval" fill="#FFCCCC" fill-rule="nonzero" cx="36.5778564" cy="16.8996406" r="4.49756677"></circle>
                            <path d="M34.8644971,25.0380953 C34.8644971,25.0380953 37.4345352,26.5372837 38.9337187,24.1814165 C40.4329022,21.8255493 45.1446448,28.8931526 45.1446448,28.8931526 L46.4296672,50.7384785 C46.4296672,50.7384785 44.0737934,50.9526478 40.0045718,52.0234976 C35.9353501,53.0943474 34.0078166,50.5243092 34.0078166,50.5243092 L33.7936473,38.102457 L34.2219859,32.3198712 L33.5794764,27.6081335 L34.0078166,24.823926 L34.8644971,25.0380953 Z" id="Path" fill="#FF8324" fill-rule="nonzero"></path>
                            <path d="M30.152761,27.8223028 C30.152761,27.8223028 28.4394017,28.250643 28.0110615,31.2490214 C27.5827212,34.2473998 26.7260424,43.2425333 26.7260424,43.2425333 L27.7968922,48.5967806 C27.7968922,48.5967806 30.7952706,46.2409068 31.8661138,47.3117615 L31.2236043,44.0992122 L31.8661138,42.1716836 L29.9385852,33.8190596 L30.152761,27.8223028 Z" id="Path" fill="#FF8324" fill-rule="nonzero"></path>
                            <path d="M34.4123991,21.3972074 C34.4123991,21.3972074 34.0078182,21.3972074 34.0078182,22.8963974 C34.0078182,24.3955874 29.9385966,26.5372837 29.9385966,26.5372837 C29.9385966,26.5372837 29.510258,27.1797932 29.510258,28.8931575 C29.510258,30.6065217 29.510258,34.6757433 29.9385966,35.9607624 C30.3669352,37.2457815 31.0094464,41.5291789 31.2236157,41.9575192 C31.437785,42.3858594 31.4377866,44.3133929 31.0094464,44.7417283 C30.5811061,45.1700636 32.0802962,47.740105 32.5086364,47.9542759 C32.9369766,48.1684469 31.0094464,53.7368618 32.0802962,53.9510311 C33.1511459,54.1652004 35.0786745,51.3809929 35.7211841,49.8818095 C36.3636936,48.382626 35.9353534,27.6081433 35.7211841,26.1089549 C35.5070148,24.6097665 34.4123991,21.3972074 34.4123991,21.3972074 Z" id="Path" fill="#FFC097" fill-rule="nonzero"></path>
                            <path d="M40.3790674,20.0189258 C40.3790674,20.0189258 40.2187443,19.0413385 41.2895941,19.8980239 C42.3604439,20.7547093 42.5746132,21.3972123 42.5746132,21.3972123 C42.5746132,21.3972123 48.1430281,21.3972123 48.357199,22.0397218 C48.57137,22.6822314 48.229557,28.1500138 48.229557,28.1500138 L51.0439622,38.6143387 C51.0439622,38.6143387 54.9964637,50.7384834 55.424804,51.1668236 C55.8531442,51.5951639 51.998087,49.239295 49.8563874,50.9526527 C47.7146879,52.6660104 43.8596323,53.5226925 43.431292,52.4518427 C43.0029518,51.3809929 38.2912239,26.5372837 38.2912239,26.5372837 C38.2912239,26.5372837 38.2912239,22.4680621 38.9337334,22.0397169 C39.576243,21.6113718 40.3790674,20.0189258 40.3790674,20.0189258 Z" id="Path" fill="#FFC097" fill-rule="nonzero"></path>
                            <path d="M51.783916,40.244155 L50.9272372,50.0959755 L50.7130679,50.9526543 L53.9256156,55.2360518 C53.9256156,55.2360518 54.5681251,52.8801781 54.3539542,52.0235041 C54.1397832,51.1668302 55.424804,41.5291871 55.424804,41.5291871 L51.783916,40.244155 Z" id="Path" fill="#FFCCCC" fill-rule="nonzero"></path>
                            <path d="M33.056384,13.7025279 C33.056384,13.7025279 32.0158103,10.9970372 33.524643,10.1125493 L33.9408654,11.3092088 C33.9408654,11.3092088 37.73896,9.01994535 38.7275035,9.54023303 L37.790987,10.7889212 C37.790987,10.7889212 42.2134265,10.7889212 42.5255982,12.5058684 L40.9647368,12.557897 C40.9647368,12.557897 42.6296554,13.6504993 42.681684,15.4194751 L39.3518484,15.6275895 L40.9647368,16.5641061 C40.9647368,16.5641061 34.9294088,17.3965654 33.4726063,15.0032463 L33.056384,13.7025279 Z" id="Path" fill="#F69F60" fill-rule="nonzero"></path>
                            <path d="M32.1551297,13.8094812 C32.1551297,13.8094812 33.354359,16.2079398 34.9533314,15.6083252 C36.5523038,15.0087105 34.9533314,12.8101235 34.9533314,12.8101235 L33.8873504,12.2771337 L32.1551297,13.8094812 Z" id="Path" fill="#F69F60" fill-rule="nonzero"></path>
                            <rect id="Rectangle" fill="#000000" fill-rule="nonzero" x="24" y="99.4463469" width="46.6638889" height="1"></rect>
                            <path d="M47.9288588,22.4680572 C47.9288588,22.4680572 49.2138779,22.6822265 50.0705583,24.1814165 C50.9272388,25.6806065 55.2106347,35.5324189 55.424804,35.9607575 C55.6389733,36.3890961 55.6389733,42.1716836 55.6389733,42.1716836 C55.6389733,42.1716836 52.6405965,40.4583259 51.3555774,41.529174 L51.1414146,38.9591326 L48.3572072,29.1073202 L47.9288588,25.8947709 L47.9288588,22.4680572 Z" id="Path" fill="#FF8324" fill-rule="nonzero"></path>
                        </g>
                    </g>
                </g>
            </g>
        </g>
    </g>
</svg>