<?xml version="1.0" encoding="UTF-8"?>
<svg width="128px" height="128px" viewBox="0 0 128 128" version="1.1" xmlns="http://www.w3.org/2000/svg" xmlns:xlink="http://www.w3.org/1999/xlink">
    <title>img8</title>
    <defs>
        <linearGradient x1="34.785216%" y1="6.51388665e-14%" x2="88.8244777%" y2="58.0798609%" id="linearGradient-1">
            <stop stop-color="#FFF9F1" offset="0%"></stop>
            <stop stop-color="#FFF4EB" offset="100%"></stop>
        </linearGradient>
        <circle id="path-2" cx="64" cy="64" r="64"></circle>
    </defs>
    <g id="Symbols" stroke="none" stroke-width="1" fill="none" fill-rule="evenodd">
        <g id="Earning/Holiday-Copy" transform="translate(-16.000000, -26.000000)">
            <g id="img8" transform="translate(16.000000, 26.000000)">
                <mask id="mask-3" fill="white">
                    <use xlink:href="#path-2"></use>
                </mask>
                <use id="Mask" fill="url(#linearGradient-1)" xlink:href="#path-2"></use>
                <g id="undraw_My_location_re_r52x" mask="url(#mask-3)">
                    <g transform="translate(22.900000, 24.000000)">
                        <path d="M86.4287058,79.861444 L86.3082861,79.8162996 C86.2818244,79.8063293 83.6481459,78.7972813 82.4144168,76.5093004 C81.1806339,74.2212129 81.7847607,71.4663484 81.7910059,71.4388454 L81.8194401,71.3133857 L81.9398048,71.358529 C81.9662665,71.3685004 84.5998889,72.3775473 85.8336729,74.6655282 C87.0674569,76.9536157 86.4633302,79.7084813 86.457085,79.7359832 L86.4287058,79.861444 Z M82.6119764,76.4028073 C83.6550485,78.337306 85.7362637,79.3289346 86.2635804,79.55531 C86.3638384,78.9901363 86.6782564,76.7046788 85.6361144,74.7720438 C84.5940825,72.8396286 82.512046,71.8464662 81.9845105,71.6195411 C81.8841975,72.1850323 81.5698895,74.470271 82.6119764,76.4028073 Z" id="Shape" fill="#E87722" fill-rule="nonzero"></path>
                        <path d="M83.3572656,75.7067119 C85.5744393,77.0406373 86.4283456,79.6901823 86.4283456,79.6901823 C86.4283456,79.6901823 83.6874996,80.1770053 81.4703259,78.8430799 C79.2531523,77.5091546 78.399246,74.8596151 78.399246,74.8596151 C78.399246,74.8596151 81.140092,74.3727854 83.3572656,75.7067119 Z" id="Path" fill="#E87722" fill-rule="nonzero"></path>
                        <path d="M47.6624684,42.8571456 C47.8798257,42.5210096 48.2302575,42.2935636 48.6257717,42.2319184 C49.0212858,42.1702732 49.424314,42.2802843 49.7336572,42.5343282 C49.7819068,42.5742945 49.827288,42.6176023 49.8694654,42.6639316 L55.3910362,41.8600785 L55.6983316,37.7080314 C55.7300249,37.2789405 55.988228,36.8993523 56.3756783,36.7122541 C56.7631285,36.5251559 57.2209631,36.5589722 57.5767201,36.8009649 C57.932477,37.0429576 58.1321085,37.4563621 58.1004151,37.885453 C58.0998669,37.8928411 58.0992527,37.9002233 58.0985728,37.9075994 L57.5603265,43.7337167 L57.5577313,43.7466839 C57.4138964,44.2065565 56.9854199,44.5176161 56.5036118,44.5119394 L50.009067,44.3998059 C49.9838782,44.4383032 49.9566853,44.4754513 49.9276006,44.5110968 C49.6734918,44.8204108 49.2994968,45.0066311 48.8995237,45.0229989 C48.4995505,45.0393667 48.1115905,44.8843273 47.8330581,44.5968101 C47.8050973,44.5681777 47.7786083,44.5385937 47.753591,44.5080583 C47.3696485,44.035267 47.3328914,43.3693198 47.6624684,42.8571456 L47.6624684,42.8571456 Z" id="Path" fill="#FFB7B7" fill-rule="nonzero"></path>
                        <polygon id="Path" fill="#FFB7B7" fill-rule="nonzero" points="58.7945021 78.2585133 57.2196353 78.2584011 56.4704628 72.1841234 58.7947265 72.1842356"></polygon>
                        <path d="M59.1961032,79.7850446 L54.1182317,79.7848527 L54.1182317,79.7206194 C54.1183098,78.6290953 55.0031575,77.7442661 56.0946816,77.7442109 L56.094805,77.7442109 L59.1961919,77.7443344 L59.1961032,79.7850446 Z" id="Path" fill="#2F2E41" fill-rule="nonzero"></path>
                        <polygon id="Path" fill="#FFB7B7" fill-rule="nonzero" points="69.7988219 76.8307433 68.308331 77.3390182 65.6381487 71.8319215 67.8380926 71.0816269"></polygon>
                        <path d="M70.6717734,78.1458581 L65.8657571,79.7850446 L65.845021,79.7242592 C65.4926967,78.6911575 66.0444995,77.5680356 67.0775596,77.2155893 L67.0776718,77.2155489 L70.01303,76.2144011 L70.6717734,78.1458581 Z" id="Path" fill="#2F2E41" fill-rule="nonzero"></path>
                        <path d="M60,32 L62.4,32 C62.4,32.5628833 62.4,32.9904956 62.4,33.282837 C62.4,33.5751785 62.5793607,34.0027908 62.9380822,34.5656741 L59.5677096,34.5656741 C59.9558049,34.085645 60.1498525,33.6995538 60.1498525,33.4074003 C60.1498525,33.1152469 60.0999017,32.6461134 60,32 Z" id="Rectangle" fill="#EFABAB" fill-rule="evenodd"></path>
                        <path d="M60.5286104,25.1473795 C60.5286104,25.1473795 58.961159,24.6297268 57.9535192,26.7003512 C56.9458794,28.7709756 55.3784281,31.0486597 55.3784281,31.0486597 L56.2741128,31.2557206 C56.2741128,31.2557206 56.4980309,29.8062856 57.0578435,29.5992213 L56.8339254,31.4627837 C56.8339254,31.4627837 63.5515691,33.6369358 66.5745066,31.2557229 L66.4625436,30.5310014 C66.4625436,30.5310014 66.9103865,30.6345335 66.9103865,31.2557229 L67.2462665,30.9451299 C67.2462665,30.9451299 66.9103865,30.3239439 65.9027321,29.4956948 C65.2413543,28.9520696 65.0140813,27.9178233 64.9359764,27.2711966 C64.8740431,26.7237444 64.6392873,26.2102655 64.2657717,25.8052645 C63.5961335,25.0876208 62.3759708,24.3248752 60.5286104,25.1473795 Z" id="Path" fill="#F69F60" fill-rule="nonzero"></path>
                        <path d="M61.1063921,33.1380297 C62.6875036,33.1380297 63.9692477,31.1000579 63.9692477,29.5189464 C63.9692477,27.937835 62.6875036,26.6560909 61.1063921,26.6560909 C59.5252807,26.6560909 58.2435366,27.937835 58.2435366,29.5189464 C58.2435366,31.1000579 59.5252807,33.1380297 61.1063921,33.1380297 Z" id="Oval" fill="#FFB7B7" fill-rule="nonzero"></path>
                        <path d="M57.2892443,34.739182 L56.7687282,34.5656741 C56.7687282,34.5656741 55.7276892,34.9994401 55.7276892,35.7802177 C55.7276892,36.5609952 55.5541823,39.6841111 55.5541823,39.6841111 L57.8965217,39.9443725 L57.2892443,34.739182 Z" id="Path" fill="#CBCBCB" fill-rule="nonzero"></path>
                        <path d="M66.605582,51.8033649 C66.1594126,51.303372 66.1462494,50.5521747 66.5746278,50.0368572 L65.1133935,37.7993358 C65.0835953,37.1984567 65.5459153,36.6868968 66.1467357,36.6559365 C66.747556,36.6249762 67.2600091,37.086306 67.2921313,37.6870654 C67.2923437,37.6910612 67.2925285,37.6950571 67.2926856,37.699053 L68.5999102,49.9495607 C68.6473108,49.9971408 68.6909937,50.048285 68.730575,50.1025436 C68.9423341,50.395371 69.0290945,50.760326 68.9717699,51.1171223 C68.9144453,51.4739187 68.7177314,51.7933293 68.4249032,52.0050872 C68.4098771,52.0159484 68.3946371,52.0265017 68.3791832,52.0367473 L68.3791832,52.0367473 C68.0392702,52.2616926 67.6165614,52.3228105 67.2268533,52.2033582 C66.9865295,52.1305384 66.7713435,51.9919952 66.605582,51.8033649 Z" id="Path" fill="#FFB7B7" fill-rule="nonzero"></path>
                        <path d="M65.267301,39.6841111 L67.6096404,39.423853 C67.6096404,39.423853 67.4361335,36.3007405 67.4361335,35.5199596 C67.4361335,34.7391787 66.3950945,34.305416 66.3950945,34.305416 L65.8745717,34.4789206 L65.267301,39.6841111 Z" id="Path" fill="#CBCBCB" fill-rule="nonzero"></path>
                        <path d="M57.6362603,44.0173341 C57.6362603,44.0173341 55.6409358,47.6654115 55.6409358,52.0898165 C55.6409358,56.5142216 55.4674278,76.8144763 55.4674278,76.8144763 C55.4674278,76.8144763 58.0700219,78.0290233 59.6315792,76.5542149 L61.0196297,54.0851344 L66.4850794,76.1204454 C66.4850794,76.1204454 69.0876735,76.6409683 70.3022194,75.7734306 L67.9598912,60.4181285 C67.9598912,60.4181285 67.0056067,46.0170985 64.4030126,44.9760595 C61.8004185,43.9350205 57.6362603,44.0173341 57.6362603,44.0173341 Z" id="Path" fill="#2F2E41" fill-rule="nonzero"></path>
                        <path d="M58.0128325,29.5370996 C59.0263069,28.8036353 59.8466884,27.9588309 60.3893722,26.9539029 C60.3893722,26.9539029 62.249278,29.0204634 63.385885,29.1237891 C64.522492,29.2271147 63.4892118,26.6439203 63.4892118,26.6439203 L61.4226513,26.1272696 L59.4594188,26.3339265 L57.909499,27.3672067 L58.0128325,29.5370996 Z" id="Path" fill="#F69F60" fill-rule="nonzero"></path>
                        <path d="M63.9692398,33.7848965 C63.9692398,33.7848965 64.0518575,33.7405475 59.1113077,33.9205161 L57.0435377,34.4899837 L56.7687102,34.5656741 C56.7687102,34.5656741 57.0289717,39.7708656 57.7229958,40.7251501 C58.4170199,41.6794345 58.2435119,42.1999551 58.0700107,42.2867086 C57.8965094,42.373462 57.4627411,42.1999551 57.7229958,42.6337201 C57.9832505,43.067485 58.3302654,42.8072281 57.9832572,43.0674861 C57.6362491,43.3277442 57.4627344,44.2820297 57.4627344,44.2820297 L65.0970154,45.3230687 C65.0970154,45.3230687 65.3572769,41.9396937 66.0512999,40.2046306 C66.7453229,38.4695675 66.9188309,37.7755411 66.9188309,37.7755411 L66.398317,34.305416 L63.9692398,33.7848965 Z" id="Path" fill="#CBCBCB" fill-rule="nonzero"></path>
                        <path d="M49.4548937,18.9872146 L49.0158833,18.9872146 L49.0158833,6.96065414 C49.0158889,3.11639826 45.8995086,2.24403927e-06 42.0552527,2.24403927e-06 L16.5753335,2.24403927e-06 C12.7310756,2.24403927e-06 9.61466816,3.11636929 9.61466816,6.96062721 L9.61466816,72.9393088 C9.61466816,76.7835655 12.7310466,79.8999596 16.5753032,79.8999596 L42.0552123,79.8999596 C43.9012912,79.8999596 45.6717622,79.1666209 46.9771417,77.8612506 C48.2825212,76.5558804 49.0158793,74.7854146 49.0158856,72.9393358 L49.0158856,72.9393358 L49.0158856,27.5479259 L49.4548937,27.5479259 L49.4548937,18.9872146 Z" id="Path" fill="#FFCBA5" fill-rule="nonzero"></path>
                        <path d="M47.534464,7.009554 L47.534464,72.8911809 C47.5356919,74.2686291 46.9896836,75.5901497 46.0165513,76.5650233 C45.0434189,77.5398969 43.7228765,78.0882668 42.3454283,78.0894992 L16.7339018,78.0894992 C13.8649742,78.0915194 11.5376092,75.7674342 11.5355836,72.8985066 L11.5355836,7.00955288 C11.5346132,5.63184488 12.0809738,4.31017826 13.0544736,3.33530468 C14.0279733,2.3604311 15.3488682,1.81220715 16.7265762,1.81123377 L19.8396533,1.81123377 C19.5290518,2.57271762 19.6179281,3.43885723 20.0767029,4.12139172 C20.5354778,4.80392622 21.3039379,5.21327433 22.1263293,5.21319944 L36.7238048,5.21319944 C37.5461962,5.21327433 38.3146563,4.80392622 38.7734312,4.12139172 C39.232206,3.43885723 39.3210823,2.57271762 39.0104808,1.81123377 L42.336147,1.81123377 C45.2045228,1.80866372 47.5318873,4.1318542 47.534464,7.00023001 L47.534464,7.00955512 L47.534464,7.009554 Z" id="Path" fill="#FFFFFF" fill-rule="nonzero"></path>
                        <path d="M47.5344482,16.7565419 L47.5344482,14.5125027 L44.1380937,14.5125027 L44.1380937,2.13213801 C43.561235,1.91909996 42.9510629,1.81043577 42.3361234,1.81122486 L41.8940544,1.81122486 L41.8940544,14.5125027 L30.1128482,14.5125027 L30.1128482,5.21320393 L27.868809,5.21320393 L27.868809,14.5125027 L17.9950362,14.5125027 L17.9950362,1.81122486 L16.733913,1.81122486 C16.4040472,1.81122486 16.0748953,1.84191151 15.7509958,1.90436802 L15.7509958,14.5125027 L11.5355893,14.5125027 L11.5355893,16.7565419 L15.7509992,16.7565419 L15.7509992,21.9470676 L11.5355893,24.3807035 L11.5355893,26.9725689 L15.750998,24.5389386 L15.750998,39.9823495 L11.5355893,39.9823495 L11.5355893,42.2263888 L15.750998,42.2263888 L15.750998,64.5545795 L11.5355893,64.5545795 L11.5355893,66.7986188 L15.750998,66.7986188 L15.750998,77.9963669 C16.0748987,78.0588155 16.4040499,78.0895006 16.7339153,78.0895006 L17.9950373,78.0895006 L17.9950373,66.7986109 L27.8688101,66.7986109 L27.8688101,78.0895006 L30.1128494,78.0895006 L30.1128494,66.7986109 L41.8940555,66.7986109 L41.8940555,78.0895006 L42.3361245,78.0895006 C42.9510636,78.0902945 43.5612362,77.9816341 44.1380948,77.7685969 L44.1380948,66.7986222 L47.5344482,66.7986222 L47.5344482,64.5545829 L44.1380948,64.5545829 L44.1380948,54.7930121 L47.5041537,54.7930121 L47.5041537,52.5489728 L44.1380948,52.5489728 L44.1380948,42.2263921 L47.5344482,42.2263921 L47.5344482,39.9823529 L44.1380948,39.9823529 L44.1380948,26.2937133 L47.5344482,26.2937133 L47.5344482,24.0496741 L44.1380948,24.0496741 L44.1380948,16.7565464 L47.5344482,16.7565419 Z M24.7418345,16.7565419 L24.7418345,16.7565419 L17.9950339,20.6522547 L17.9950339,20.6522547 L17.9950339,16.7565419 L24.7418345,16.7565419 Z M17.9950339,23.2430003 L17.9950339,23.2429734 L27.8688067,17.5420185 L27.8688067,39.9823461 L17.9950339,39.9823461 L17.9950339,23.2430003 Z M17.9950339,64.5545795 L17.9950339,42.2263888 L27.8688067,42.2263888 L27.8688067,64.5545795 L17.9950339,64.5545795 Z M41.8940522,64.5545795 L30.112846,64.5545795 L30.112846,54.7930087 L41.8940522,54.7930087 L41.8940522,64.5545795 Z M41.8940522,52.5489694 L30.112846,52.5489694 L30.112846,42.2263888 L41.8940522,42.2263888 L41.8940522,52.5489694 Z M41.8940522,39.9823495 L30.112846,39.9823495 L30.112846,26.29371 L41.8940522,26.29371 L41.8940522,39.9823495 Z M41.8940522,24.0496707 L30.112846,24.0496707 L30.112846,16.7565431 L41.8940522,16.7565431 L41.8940522,24.0496707 Z" id="Shape" fill="#E5E5E5" fill-rule="nonzero"></path>
                        <path d="M49.4115972,24.0911787 C49.4115972,31.2174306 36.5083714,47.0925812 36.5083714,47.0925812 C36.5083714,47.0925812 23.6051456,31.2174306 23.6051456,24.0911787 C23.6051456,16.9649238 29.3821166,11.1879529 36.5083714,11.1879529 C43.6346262,11.1879529 49.4115972,16.9649238 49.4115972,24.0911787 Z" id="Path" fill="#E87722" fill-rule="nonzero"></path>
                        <path d="M44.1382553,23.5301689 C44.1382553,27.7439543 40.7223072,31.1599024 36.5085217,31.1599024 C32.2947363,31.1599024 28.8787882,27.7439543 28.8787882,23.5301689 C28.8787882,19.3163834 32.2947363,15.9004337 36.5085217,15.9004337 C38.5311242,15.8995052 40.4712555,16.7020894 41.9021083,18.1316284 C43.3329611,19.5611674 44.1373273,21.5005605 44.1382553,23.523163 L44.1382553,23.5301689 Z" id="Path" fill="#FFFFFF" fill-rule="nonzero"></path>
                        <path d="M40.5017798,20.0605194 L41.5967874,21.1944328 L35.5222769,27.0605194 L34.5136909,26.0165194 L34.5131026,26.016639 L32.4256909,23.8550609 L33.5596044,22.7600534 L35.5606909,24.8315194 L40.5017798,20.0605194 Z" id="Combined-Shape" fill="#E87722" fill-rule="evenodd"></path>
                        <circle id="Oval" fill="#E87722" fill-rule="nonzero" cx="36.5083748" cy="52.9270788" r="3.47826087"></circle>
                        <path d="M90.3225806,79.9677565 L0.112201964,79.9677565 C0.0502345302,79.9677565 0,79.917522 0,79.8555546 C0,79.7935871 0.0502345302,79.7433526 0.112201964,79.7433526 L90.3225806,79.7433526 C90.3845481,79.7433526 90.4347826,79.7935871 90.4347826,79.8555546 C90.4347826,79.917522 90.3845481,79.9677565 90.3225806,79.9677565 Z" id="Path" fill="#CBCBCB" fill-rule="nonzero"></path>
                    </g>
                </g>
            </g>
        </g>
    </g>
</svg>