<svg xmlns="http://www.w3.org/2000/svg" width="367" height="267" viewBox="0 0 367 267">
    <g fill="none" fill-rule="evenodd">
        <g>
            <g>
                <path fill="#FFF" d="M362.662 215.695c-7.79 17.65-22.347 31.434-40.402 38.257-11.753 4.405-24.462 5.55-36.986 6.505-47.903 3.631-95.978 4.472-143.979 2.518-37.706-1.534-64.21-15.417-97.832-30.541-4.66-1.96-9.172-4.255-13.501-6.865C11.053 213.507 2.047 190.513.299 167.974c-.132-1.703-.213-3.4-.264-5.095-.17-6.806.213-13.847 2.68-20.241 9.19-23.883 43.43-31.804 50.011-56.531 3.401-12.804-1.85-26.9 2.373-39.447 3.93-11.658 15.074-19.213 26.004-24.851C126.78-1.773 181.837-6.494 230.878 8.93c31.8 9.992 63.688 32.017 69.396 64.842 3.262 18.765-2.35 39.359 6.31 56.325 9.359 18.354 32.594 26.805 47.396 40.343 6.045 5.52 10.68 11.893 12.377 20.123 1.741 8.429-.242 17.239-3.695 25.13z" transform="translate(-24.000000, -161.000000) translate(24.000000, 161.000000)"/>
                <g fill-rule="nonzero" transform="translate(-24.000000, -161.000000) translate(24.000000, 161.000000) translate(48.000000, 38.000000)">
                    <circle cx="81.5" cy="119.5" r="32.5" fill="#E87722" opacity=".1"/>
                    <path fill="#CCC" d="M72.46 167.664l7.923 4.91V139.39l-8.88-5.502c-.734-.455-1.27-1.17-1.503-2.001.848-.162 1.727 0 2.46.455l7.923 4.91v-12.868c0-2.49.306-4.97.91-7.384.603 2.415.908 4.895.908 7.384v21.002l11.688-7.242c.933-.578 2.013-.876 3.111-.858-.473.99-1.22 1.825-2.153 2.403L82.2 147.525V226h-1.818v-51.288l-8.88-5.502c-.734-.455-1.27-1.17-1.503-2.001.848-.162 1.727 0 2.46.455z"/>
                    <circle cx="32.5" cy="122.5" r="32.5" fill="#E87722" opacity=".1"/>
                    <path fill="#CCC" d="M41.54 168.931l-7.923 4.935v-33.358l8.88-5.531c.734-.457 1.27-1.175 1.503-2.012-.848-.162-1.727.001-2.46.458l-7.923 4.935v-12.935c0-2.502-.306-4.995-.91-7.423-.603 2.428-.908 4.92-.908 7.423v21.113l-11.688-7.28c-.933-.582-2.013-.881-3.111-.863.473.996 1.22 1.835 2.153 2.416l12.646 7.877V225h1.818v-48.984l8.88-5.531c.734-.457 1.27-1.175 1.503-2.011-.848-.163-1.727 0-2.46.457z"/>
                    <circle cx="56.5" cy="55.5" r="55.5" fill="#E87722" opacity=".1"/>
                    <path fill="#CCC" d="M71.716 136.523l-13.79 8.48V87.68l15.457-9.505c1.278-.786 2.212-2.02 2.617-3.456-1.477-.28-3.006 0-4.284.786l-13.79 8.48V61.757c0-4.3-.532-8.584-1.583-12.756-1.05 4.172-1.582 8.456-1.582 12.756v36.281l-20.346-12.51c-1.624-1-3.504-1.514-5.415-1.483.823 1.712 2.124 3.153 3.748 4.152l22.013 13.536V226h3.165v-77.302l15.457-9.505c1.278-.786 2.212-2.02 2.617-3.456-1.477-.28-3.006 0-4.284.786z"/>
                    <path fill="#3F3D56" d="M22 225H286V226H22z"/>
                    <path fill="#FF9443" d="M208.4 102.224L223.541 102.266 223.582 117.359 208.441 117.318z" transform="translate(215.991219, 109.791753) rotate(-30.000000) translate(-215.991219, -109.791753)"/>
                    <path fill="#2F2E41" d="M219.053 123L211 109.052 224.947 101 233 114.948 219.053 123zm-7.122-13.698l7.371 12.767 12.767-7.37-7.371-12.768-12.767 7.371z"/>
                    <circle cx="207" cy="154" r="6" fill="#FFB379"/>
                    <path fill="#2F2E41" d="M210.5 160c-3.59 0-6.5-2.91-6.5-6.5s2.91-6.5 6.5-6.5 6.5 2.91 6.5 6.5-2.91 6.5-6.5 6.5zm0-12.35c-3.23 0-5.85 2.62-5.85 5.85 0 3.23 2.62 5.85 5.85 5.85 3.23 0 5.85-2.62 5.85-5.85 0-3.23-2.62-5.85-5.85-5.85z"/>
                    <path fill="#E87722" d="M247.167 227h-61.334c-1.564-.002-2.831-1.256-2.833-2.803v-56.394c.002-1.547 1.27-2.801 2.833-2.803h61.334c1.564.002 2.831 1.256 2.833 2.803v56.394c-.002 1.547-1.27 2.801-2.833 2.803z"/>
                    <path fill="#3F3D56" d="M221.035 229h-9.07c-1.637-.002-2.963-1.262-2.965-2.818v-60.364c.002-1.556 1.328-2.816 2.965-2.818h9.07c1.637.002 2.963 1.262 2.965 2.818v60.364c-.002 1.556-1.328 2.816-2.965 2.818zM262.987 157.482c-.374 6.075-8.664 10.518-8.664 10.518s-7.684-5.407-7.31-11.482c.374-6.075 8.664-10.518 8.664-10.518s7.684 5.407 7.31 11.482z"/>
                    <path fill="#3F3D56" d="M263.543 177.989c-6.075-.333-10.543-8.091-10.543-8.091s5.382-7.22 11.457-6.887c6.075.333 10.543 8.091 10.543 8.091s-5.382 7.22-11.457 6.887z"/>
                    <path fill="#000" d="M250 171.672L250 193 228 165 244.758 165z" opacity=".1"/>
                    <path fill="#E87722" d="M267.429 209c-.897.002-1.744-.418-2.285-1.134l-45.563-60.181c-.458-.606-.658-1.37-.554-2.122.104-.753.502-1.434 1.107-1.892l6.712-5.09c.605-.458 1.367-.658 2.12-.554.752.104 1.432.502 1.89 1.108l45.563 60.182c.459.605.658 1.368.554 2.121-.104.753-.502 1.434-1.107 1.893l-6.712 5.089c-.496.377-1.102.58-1.725.58z"/>
                    <path fill="#3F3D56" d="M241.204 165.088L255.574 165.132 255.618 179.477 241.247 179.434z" transform="translate(248.410715, 172.282548) rotate(-37.150040) translate(-248.410715, -172.282548)"/>
                    <path fill="#FFB379" d="M188.558 120.421L203.634 120.445 203.658 135.604 188.582 135.58z" transform="translate(196.108030, 128.012454) rotate(-75.000000) translate(-196.108030, -128.012454)"/>
                    <path fill="#2F2E41" d="M195.774 140L180 135.774 184.226 120 200 124.226 195.774 140zm-14.928-4.715l14.439 3.869 3.869-14.44-14.44-3.868-3.868 14.44z"/>
                    <path fill="#FFB8B8" d="M131.8 174.908c.832-.787 1.268-1.899 1.191-3.034-.077-1.136-.659-2.18-1.59-2.85L125.118 119 117 121.384l8.764 48.681c-1.06 1.656-.7 3.834.84 5.07 1.54 1.235 3.772 1.138 5.196-.227zM138 222L142.743 222 145 204 138 204z"/>
                    <path fill="#2F2E41" d="M137 221h15v6h-9.735c-2.908 0-5.265-2.44-5.265-5.451V221z" transform="translate(144.500000, 224.000000) rotate(-180.000000) translate(-144.500000, -224.000000)"/>
                    <path fill="#FFB8B8" d="M106 214.417L110.123 216 118 200.337 111.915 198z"/>
                    <path fill="#2F2E41" d="M104.138 215.44l14.597-.03-.012 5.613-9.473.019c-2.83.006-5.12-2.273-5.114-5.09l.002-.513z" transform="translate(111.435656, 218.225749) rotate(-159.596430) translate(-111.435656, -218.225749)"/>
                    <circle cx="129.5" cy="98.5" r="8.5" fill="#FFB8B8"/>
                    <path fill="#2F2E41" d="M115.171 121.134c-.273-8.098 8.178-13.716 15.288-9.924.906.483 10.26 8.486 10.613 13.457.352 4.97 1.057 13.135 1.057 13.135L152 212l-21.151-1.065 2.554-21.645-13.748 22.011L103 205.965l20.446-59.288s-7.86-13.27-8.275-25.543z"/>
                    <path fill="#2F2E41" d="M116.002 123.785l1.389 17.542c.03.38.356.673.748.673h6.11c.251 0 .486-.122.625-.324.139-.203.165-.46.069-.685l-7.5-17.541c-.14-.331-.509-.513-.867-.43-.359.084-.602.408-.574.765z"/>
                    <path fill="#FFB8B8" d="M147.107 171.578c.736-.875 1.039-2.026.827-3.141-.212-1.116-.916-2.082-1.923-2.639L133.804 117 126 120.295l14.518 47.184c-.86 1.762-.241 3.876 1.44 4.922 1.68 1.046 3.893.692 5.15-.823z"/>
                    <path fill="#2F2E41" d="M128.096 113.202s-2.467 4.908 0 13.672c2.468 8.764 4.23 16.126 4.23 16.126s5.639-3.506 8.106-2.454c2.467 1.052-3.903-23.363-3.903-23.363s-3.85-8.188-8.433-3.981zM131.436 99.867c.117-1.786 2.372-1.848 4.163-1.865 1.791-.016 3.933.047 4.947-1.429.67-.975.541-2.33-.012-3.376-.553-1.045-1.464-1.85-2.36-2.624-2.311-1.998-4.694-3.98-7.47-5.259-2.775-1.279-6.028-1.795-8.906-.769-3.537 1.261-8.317 7.753-8.73 11.482-.413 3.73 1.079 7.532 3.593 10.319 2.514 2.787 8.268 1.663 11.89 2.654-2.202-3.114-.751-8.772 2.775-10.226l.11 1.093z"/>
                </g>
            </g>
        </g>
    </g>
</svg>
