<svg xmlns="http://www.w3.org/2000/svg" width="367" height="264" viewBox="0 0 367 264">
    <g fill="none" fill-rule="evenodd">
        <g>
            <g>
                <path fill="#FFF" d="M362.662 215.695c-7.79 17.65-22.347 31.434-40.402 38.257-11.753 4.405-24.462 5.55-36.986 6.505-47.903 3.631-95.978 4.472-143.979 2.518-37.706-1.534-64.21-15.417-97.832-30.541-4.66-1.96-9.172-4.255-13.501-6.865C11.053 213.507 2.047 190.513.299 167.974c-.132-1.703-.213-3.4-.264-5.095-.17-6.806.213-13.847 2.68-20.241 9.19-23.883 43.43-31.804 50.011-56.531 3.401-12.804-1.85-26.9 2.373-39.447 3.93-11.658 15.074-19.213 26.004-24.851C126.78-1.773 181.837-6.494 230.878 8.93c31.8 9.992 63.688 32.017 69.396 64.842 3.262 18.765-2.35 39.359 6.31 56.325 9.359 18.354 32.594 26.805 47.396 40.343 6.045 5.52 10.68 11.893 12.377 20.123 1.741 8.429-.242 17.239-3.695 25.13z" transform="translate(-24.000000, -161.000000) translate(24.000000, 161.000000)"/>
                <g fill-rule="nonzero" transform="translate(-24.000000, -161.000000) translate(24.000000, 161.000000) translate(101.440655, 35.000000)">
                    <path fill="#3F3D56" d="M66.051 190.988H203.11900000000003V191.988H66.051z"/>
                    <path fill="#A0616A" d="M177.539 90.458c.533.627.776 1.45.668 2.267-.109.816-.558 1.548-1.237 2.014l-14.185 9.739-6.247 4.164c-.735.49-1.722.343-2.281-.341-.319-.39-.45-.9-.36-1.394.089-.495.391-.926.826-1.179l6.05-3.513 10.56-10.056-6.789-7.29 5.029-3.771 7.966 9.36zM144.181 182.161L140.711 182.161 138.65 153.501 147.449 153.25z"/>
                    <path fill="#2F2E41" d="M144.432 191.462c-.925.423-1.7-2.998-2.48-2.232-2.183 2.146-5.526 2.613-8.44 1.676l1.02-.011c-.355-.114-.648-.37-.811-.705-.163-.336-.18-.724-.05-1.073.158-.42.512-.736.948-.845l2.321-.58 3.645-6.411 3.722-.252c1.68 2.143 2.287 4.938 1.644 7.585-.338 1.378-.859 2.547-1.519 2.848z"/>
                    <path fill="#A0616A" d="M167.285 182.161L163.815 182.161 161.754 153.501 170.805 151.741z"/>
                    <path fill="#2F2E41" d="M167.536 191.462c-.925.423-1.7-2.998-2.48-2.232-2.183 2.146-5.526 2.613-8.44 1.676l1.02-.011c-.355-.114-.649-.37-.811-.705-.163-.336-.18-.724-.05-1.073.158-.42.512-.736.947-.845l2.322-.58 3.645-6.411 3.973-.503.1.164c1.554 2.504 1.954 5.556 1.098 8.376-.33 1.058-.78 1.896-1.324 2.144z"/>
                    <path fill="#FFA163" d="M171.22 81.746c-3.192.444-5.4 2.192-6.3 5.678l-5.866-10.83c-.719-1.423-.284-3.158 1.022-4.072 1.391-.976 3.302-.696 4.356.637l6.787 8.587z"/>
                    <path fill="#2F2E41" d="M177.366 150.484c-14.261 6.31-28.857 7.087-43.744 3.017 5.437-21.085 11.856-40.15 11.816-55.81l14.581-1.258 2.245 3.56c5.327 8.444 9.004 17.822 10.836 27.637l4.266 22.854z"/>
                    <circle cx="153.483" cy="57.718" r="7.542" fill="#A0616A"/>
                    <path fill="#A0616A" d="M161.779 71.042L152.477 71.544 150.969 63.248 158.511 61.991z"/>
                    <path fill="#FFA163" d="M160.773 97.69l-10.19.287-5.145.719c-2.525-8.342-4.651-16.666.503-23.632l6.033-6.033 9.05-.252.12.069c2.961 1.696 4.349 5.22 3.34 8.479-2.246 7.298-3.689 14.19-3.71 20.363z"/>
                    <path fill="#A0616A" d="M145.187 121.07l-.632 8.64c-.07.956-.834 1.715-1.792 1.78-.539.035-1.069-.158-1.459-.532-.39-.373-.605-.894-.592-1.435l.2-8.453 6.286-23.883.251-14.58 7.04-.252-.503 16.844-8.8 21.871z"/>
                    <path fill="#FFA163" d="M155.243 83.612c-2.985-1.214-5.772-.807-8.297 1.76l.346-12.312c.09-1.591 1.336-2.875 2.924-3.013 1.693-.147 3.207 1.052 3.451 2.733l1.576 10.832z"/>
                    <path fill="#2F2E41" d="M169.447 91.28h-23.129c5.395-14.288 7.135-27.58 0-38.968.122-3.42 4.51-6.385 7.916-6.058 4.024.387 9.431 3.344 10.185 7.315l5.028 37.71z"/>
                    <path fill="#3F3D56" d="M95.736 45.626h-1.055v-28.9c0-4.436-1.762-8.69-4.899-11.827C86.645 1.762 82.391 0 77.955 0H16.727C12.29 0 8.036 1.762 4.899 4.9 1.762 8.035 0 12.29 0 16.725v158.548c0 4.436 1.762 8.69 4.9 11.827C8.035 190.238 12.29 192 16.726 192h61.228c4.436 0 8.69-1.762 11.827-4.9 3.137-3.136 4.9-7.39 4.9-11.826V66.198h1.054V45.626z"/>
                    <path fill="#FFF" d="M78.63 4.352h-7.993c.747 1.83.533 3.91-.57 5.551-1.101 1.64-2.948 2.624-4.924 2.624H30.066c-1.976 0-3.823-.984-4.925-2.624-1.103-1.64-1.316-3.721-.57-5.551h-7.464c-3.313 0-6.49 1.316-8.833 3.658-2.343 2.343-3.659 5.52-3.659 8.833v158.314c0 3.313 1.316 6.49 3.659 8.833 2.342 2.342 5.52 3.658 8.833 3.658H78.63c3.313 0 6.49-1.316 8.832-3.658 2.343-2.343 3.659-5.52 3.659-8.833V16.843c0-6.899-5.593-12.491-12.491-12.491z"/>
                    <path fill="#E6E6E6" d="M15.419 29.081H80.318V84.746H15.419z"/>
                    <circle cx="34.677" cy="91.606" r="4.749" fill="#FFA163"/>
                    <path fill="#FFF" d="M37.052 91.21L35.073 91.21 35.073 89.232 34.282 89.232 34.282 91.21 32.303 91.21 32.303 92.002 34.282 92.002 34.282 93.98 35.073 93.98 35.073 92.002 37.052 92.002z"/>
                    <circle cx="59.74" cy="91.606" r="4.749" fill="#FFA163"/>
                    <path fill="#FFF" d="M59.344 89.232L60.136 89.232 60.136 93.98 59.344 93.98z" transform="translate(59.739873, 91.606048) rotate(90.000000) translate(-59.739873, -91.606048)"/>
                    <path fill="#FFA163" d="M50.289 36.024h-5.13c-.375 0-.679.304-.679.68v2.25c0 .181.072.354.2.482.127.127.3.199.48.199h.85v3.373h3.429v-3.373h.85c.375 0 .68-.305.68-.68v-2.251c0-.376-.305-.68-.68-.68z"/>
                    <path fill="#3F3D56" d="M55.425 56.626c-3.14-4.596-4.746-10.068-4.587-15.633.006-.265-.175-.497-.434-.555v-.972h-5.416v.959h-.075c-.147 0-.289.059-.393.163-.104.104-.162.246-.162.393 0 .014 0 .027.002.04.426 5.95-1.015 11.284-4.323 16.004-.19.271-.288.597-.277.928l.592 18.32c.03.85.723 1.525 1.572 1.532h12.252c.86-.007 1.557-.698 1.573-1.558l.228-17.788c.007-.653-.185-1.292-.552-1.833z"/>
                    <path fill="#000" d="M49.22 36.757c0 .81-.657 1.467-1.468 1.467-.81 0-1.467-.657-1.467-1.467" opacity=".2"/>
                    <path fill="#FFA163" d="M53.486 62.712h-1.483c-.293-1.9-1.927-3.301-3.849-3.301-1.921 0-3.556 1.401-3.848 3.3h-1.484c-.32 0-.623.14-.83.382-.209.243-.3.564-.252.88l1.612 10.474h9.253l1.957-10.439c.06-.32-.025-.65-.233-.9-.208-.251-.517-.396-.843-.396z"/>
                    <path fill="#E6E6E6" d="M15.419 107.435H80.318V163.1H15.419z"/>
                    <circle cx="34.677" cy="169.96" r="4.749" fill="#FFA163"/>
                    <path fill="#FFF" d="M37.052 169.564L35.073 169.564 35.073 167.585 34.282 167.585 34.282 169.564 32.303 169.564 32.303 170.355 34.282 170.355 34.282 172.334 35.073 172.334 35.073 170.355 37.052 170.355z"/>
                    <circle cx="59.74" cy="169.96" r="4.749" fill="#FFA163"/>
                    <path fill="#FFF" d="M59.344 167.585L60.136 167.585 60.136 172.334 59.344 172.334z" transform="translate(59.739873, 169.959612) rotate(90.000000) translate(-59.739873, -169.959612)"/>
                    <path fill="#FFF" d="M60.644 146.98h.036c2.5.022 4.76-1.491 5.691-3.812 4.006-10.128-.877-21.595-10.954-25.726-10.078-4.131-21.604.608-25.861 10.634-4.257 10.025.34 21.61 10.31 25.99 2.274 1.007 4.932.514 6.694-1.24 3.728-3.748 8.798-5.852 14.084-5.845z"/>
                    <circle cx="50.423" cy="134.387" r="6.571" fill="#F9A825"/>
                </g>
            </g>
        </g>
    </g>
</svg>
