<svg xmlns="http://www.w3.org/2000/svg" width="234" height="212" viewBox="0 0 234 212">
    <g fill="none" fill-rule="evenodd">
        <g>
            <g transform="translate(-85.000000, -206.000000) translate(85.000000, 206.000000)">
                <path fill="#E87722" fill-rule="nonzero" d="M178.457 83.93c-.494.34-.978.683-1.46 1.038-4.657 13.457-7.022 27.598-6.997 41.836-.002 1.647.034 3.29.108 4.928.514 12.287 2.86 24.429 6.96 36.024.217.61.437 1.218.661 1.823.16.435.324.873.5 1.303l.52.642c.012.009.023.025.035.034.07.086.14.172.202.256.299.365.601.726.9 1.09l-.237.027-.592.065.003.004c.2-.013.402-.029.603-.049.073-.003.152-.005.227-.015l.203-.015c8.55-.62 17.291-1.446 24.922-5.297 7.987-4.034 14.543-12.27 13.785-21.175-.102-1.166-.333-2.318-.686-3.434-.148-.466-.318-.923-.5-1.378-2.241-5.678-7.377-9.704-13.43-10.529-6.054-.825-12.082 1.68-15.764 6.55 1.919-9.28 11.737-14.418 20.643-17.675 8.912-3.255 18.95-6.693 23.193-15.169 2.37-4.717 2.188-10.08.28-14.952-.059-.146-.12-.295-.184-.442-2.385-5.727-6.844-10.344-12.488-12.929-10.566-4.641-23.04-2.267-33.419 2.775-2.777 1.351-5.447 2.91-7.988 4.665z"/>
                <path fill="#FFF" fill-rule="nonzero" d="M210.733 142.37c-8.01 1.1-15.453 4.74-21.227 10.38-4.916 4.854-8.428 10.937-10.17 17.61-.102.381-.193.762-.277 1.144-.22-.376-.436-.761-.65-1.143-.136-.244-.276-.492-.409-.74.16.43.321.863.495 1.287l.515.634c.012.01.023.025.035.034.069.085.138.17.2.253.296.36.595.717.89 1.077l-.233.026-.586.064.002.004c.197-.013.399-.029.597-.048.073-.003.151-.005.225-.015.019-.115.045-.23.07-.344 3.508-17.77 19.639-30.237 37.79-29.206-.146-.46-.315-.912-.494-1.362-2.263-.081-4.53.034-6.773.345zM181.338 109.252c-3.171 2.621-5.944 5.693-8.23 9.12-1.19 1.825-2.209 3.757-3.042 5.772-.395.935-.75 1.896-1.066 2.864-.002 1.668.034 3.332.108 4.992.248-1.269.563-2.523.943-3.758.197-.677.419-1.343.657-2.001 2.672-7.377 7.849-13.34 14.062-17.98 6.659-4.963 14.245-8.808 21.975-11.762 7.922-3.04 16.185-5.093 24.604-6.113.395-.05.68-.404.648-.802 0-.168-.067-.329-.184-.448-.126-.113-.298-.16-.463-.125-1.039.126-2.075.256-3.11.415-8.61 1.29-17.028 3.652-25.058 7.03-7.753 3.25-15.386 7.354-21.844 12.796z"/>
                <circle cx="222" cy="66" r="3" fill="#F2F2F2" fill-rule="nonzero"/>
                <path fill="#3F3D56" fill-rule="nonzero" d="M166.962 211H96.038c-8.853-.01-16.028-7.164-16.038-15.992V15.992C80.01 7.164 87.185.01 96.038 0h70.924C175.815.01 182.99 7.164 183 15.992v179.016c-.01 8.828-7.185 15.982-16.038 15.992z"/>
                <path fill="#FFF" fill-rule="nonzero" d="M165.833 5h-7.897c-1.467 0-2.656 1.187-2.658 2.65-.003 2.99-2.434 5.415-5.434 5.418h-38.621c-3-.003-5.432-2.427-5.435-5.418-.001-1.463-1.19-2.65-2.658-2.65h-6.963C89.451 5.009 84.009 10.434 84 17.13v177.74c.009 6.696 5.45 12.121 12.167 12.13h69.666c6.716-.009 12.158-5.434 12.167-12.13V17.13c-.009-6.696-5.45-12.121-12.167-12.13z"/>
                <path fill="#FFF" fill-rule="nonzero" d="M140.2 9h-22.4c-.442 0-.8-.448-.8-1s.358-1 .8-1h22.4c.442 0 .8.448.8 1s-.358 1-.8 1z"/>
                <circle cx="143.5" cy="8.5" r="1" fill="#FFF" fill-rule="nonzero"/>
                <path fill="#3F3D56" fill-rule="nonzero" d="M183.5 71c-.828 0-1.5-.623-1.5-1.392V42.392c0-.769.672-1.392 1.5-1.392s1.5.623 1.5 1.392v27.216c0 .769-.672 1.391-1.5 1.392zM79.5 51c-.828 0-1.5-.626-1.5-1.397v-6.206c0-.772.672-1.397 1.5-1.397s1.5.625 1.5 1.397v6.206c0 .771-.672 1.396-1.5 1.397zM79.5 62c-.828 0-1.5-.626-1.5-1.397v-6.206c0-.772.672-1.397 1.5-1.397s1.5.625 1.5 1.397v6.206c0 .771-.672 1.396-1.5 1.397zM207.69 212H.31c-.17 0-.31-.224-.31-.5s.14-.5.31-.5h207.38c.17 0 .31.224.31.5s-.14.5-.31.5z"/>
                <path fill="#FFB6B6" fill-rule="nonzero" d="M19.001 208L23.066 208 25 194 19 194z"/>
                <path fill="#2F2E41" fill-rule="nonzero" d="M18 207h7.329c2.58 0 4.67 2.168 4.671 4.842V212H18v-5z"/>
                <path fill="#FFB6B6" fill-rule="nonzero" d="M54.001 208L58.066 208 60 194 54 194z"/>
                <path fill="#2F2E41" fill-rule="nonzero" d="M53 207h7.329c2.58 0 4.67 2.168 4.671 4.842V212H53v-5z"/>
                <path fill="#FFB6B6" fill-rule="nonzero" d="M49.474 90L52 105.692 28 106 31.158 90.923z"/>
                <path fill="#2F2E41" fill-rule="nonzero" d="M53.13 102l5.933 20.355L60 206h-6.401l-15.302-67.204-14.052 65.45H18l4.372-73.592s-2.186-18.163 5.308-23.487v-4.671L53.13 102z"/>
                <path fill="#FFB6B6" fill-rule="nonzero" d="M18.955 117.826c1.332-.364 2.435-1.3 3.012-2.557s.569-2.705-.023-3.956L32 78.47 24.604 77l-9.197 32.195c-2.076 1.16-2.958 3.692-2.053 5.894.905 2.202 3.311 3.378 5.6 2.737z"/>
                <circle cx="40.026" cy="49.912" r="10.662" fill="#FFB6B6" fill-rule="nonzero" transform="translate(40.026456, 49.911553) rotate(-45.000000) translate(-40.026456, -49.911553)"/>
                <path fill="#E4E4E4" fill-rule="nonzero" d="M32.423 98.963c-.858-.168-1.497-.88-1.561-1.74-.234-3.155-1.391-8.638-3.44-16.298-.933-3.502-.304-7.23 1.728-10.246 2.033-3.016 5.276-5.035 8.915-5.548 3.445-.491 6.946.412 9.705 2.503 2.759 2.091 4.541 5.193 4.941 8.599 1.014 8.79-.898 17.62-1.767 21.008-.216.838-.974 1.431-1.852 1.45L32.842 99c-.14.002-.28-.01-.419-.037z"/>
                <path fill="#FFB6B6" fill-rule="nonzero" d="M78.347 69.679c-.098.22-.177.447-.24.679l-20.259 6.94-3.915-3.448L48 79.125l6.342 6.782c1.052 1.126 2.715 1.416 4.082.712l21.679-11.162c1.605.992 3.652.88 5.14-.282 1.49-1.162 2.11-3.132 1.558-4.947-.551-1.815-2.16-3.096-4.039-3.218-1.879-.123-3.637.94-4.415 2.669z"/>
                <path fill="#E4E4E4" fill-rule="nonzero" d="M57.319 78.083l-7.573 6.439c-.436.37-1.016.538-1.59.459-.573-.08-1.082-.398-1.395-.872l-5.417-8.21c-1.992-2.245-1.741-5.636.56-7.58 2.301-1.946 5.786-1.711 7.79.523l7.607 6.307c.44.366.695.9.699 1.463.003.564-.245 1.1-.681 1.471zM31.006 85.868l-8.816-3.514c-.508-.202-.904-.619-1.084-1.14-.18-.523-.128-1.099.143-1.579l4.704-8.308c1.064-2.706 4.086-4.027 6.756-2.954s3.98 4.137 2.928 6.848l-2.119 9.305c-.122.54-.47.997-.953 1.255-.483.258-1.052.29-1.56.087z"/>
                <path fill="#2F2E41" fill-rule="nonzero" d="M44.59 46.725c2.316 2.36 5.46 4.936 8.583 3.529 2.05-.924 3.087-3.18 2.771-5.404-.567-3.997-3.84-6.355-7.03-8.297-4.15-2.525-8.762-4.793-13.615-4.533-4.852.261-9.82 3.916-9.917 8.764-.078 3.899 2.86 7.737 1.601 11.428-1.267 3.716-5.966 4.874-9.899 4.805-3.932-.07-8.224-.69-11.494 1.491-4.17 2.783-4.534 9.16-1.987 13.473 2.548 4.313 7.16 6.952 11.726 9.03 6.048 2.75 12.755 4.895 19.276 3.604 6.52-1.292 12.538-7.05 12.038-13.664-.212-2.794-1.505-5.375-2.75-7.886-1.247-2.51-2.494-5.125-2.604-7.925-.09-2.333.818-4.841 2.63-6.22.672-.49.95-1.357.689-2.146l-.017-.049z"/>
                <path fill="#FFF" fill-rule="nonzero" d="M175.392 93.174c-3.373 2.023-9.384 4.558-15.526 1.953l-3.97-1.684 7.956-8.919c-13.156-14.505-13.133-36.632.052-51.11 13.186-14.478 35.216-16.565 50.885-4.82 15.67 11.745 19.847 33.474 9.649 50.192-10.199 16.717-31.432 22.946-49.046 14.388z"/>
                <g>
                    <g opacity=".2" transform="translate(171.000000, 38.000000) translate(5.000000, 5.000000)">
                        <circle cx="17" cy="17" r="15.583" fill="#E87722"/>
                        <g>
                            <path d="M0 0H34V34H0z"/>
                            <path fill="#FFF" fill-rule="nonzero" d="M27.425 17.406v.013c-.005.12-.012.239-.02.357l-.008.1-.022.233-.02.177-.03.216-.02.138-.035.206-.03.167c-.047.235-.1.467-.162.696l-.007.027c-.483 1.782-1.426 3.375-2.693 4.644-1.821 1.82-4.314 2.97-7.072 3.05v-2.754c1.999-.079 3.801-.921 5.123-2.243.759-.759 1.36-1.676 1.75-2.697h-2.294c.454-.808.713-1.74.713-2.734v-.019h4.835v.019l-.006.344-.002.06zM17 6.569c2.88 0 5.49 1.169 7.378 3.057 1.211 1.212 2.126 2.721 2.627 4.41h-2.92c-.39-.93-.954-1.764-1.656-2.463-1.388-1.39-3.308-2.25-5.429-2.25-2.121 0-4.041.86-5.43 2.25-1.389 1.39-2.25 3.308-2.25 5.429 0 2.12.861 4.041 2.25 5.43.402.402.848.76 1.33 1.065v-6.495c0-2.264 1.836-4.1 4.1-4.1 2.264 0 4.1 1.836 4.1 4.1 0 2.265-1.836 4.1-4.1 4.1-.588 0-1.147-.124-1.652-.347v6.55c-.14-.022-.28-.047-.418-.075l.418.075c-.154-.025-.307-.052-.458-.084-.114-.023-.227-.048-.34-.075l-.142-.036c-.084-.021-.168-.044-.252-.068l-.137-.04c-.076-.022-.152-.046-.227-.07l-.18-.06c-.065-.022-.13-.045-.195-.07l-.164-.06c-1.373-.53-2.607-1.34-3.63-2.362-1.887-1.889-3.056-4.498-3.056-7.378s1.169-5.49 3.055-7.376C11.511 7.738 14.12 6.57 17 6.57zm0 8.78c-.913 0-1.652.741-1.652 1.653 0 .913.739 1.652 1.652 1.652.913 0 1.652-.739 1.652-1.652 0-.912-.739-1.652-1.652-1.652z"/>
                        </g>
                    </g>
                    <g transform="translate(171.000000, 38.000000)">
                        <circle cx="17" cy="17" r="15.583" fill="#E87722"/>
                        <g>
                            <path d="M0 0H34V34H0z"/>
                            <path fill="#FFF" fill-rule="nonzero" d="M27.425 17.406v.013c-.005.12-.012.239-.02.357l-.008.1-.022.233-.02.177-.03.216-.02.138-.035.206-.03.167c-.047.235-.1.467-.162.696l-.007.027c-.483 1.782-1.426 3.375-2.693 4.644-1.821 1.82-4.314 2.97-7.072 3.05v-2.754c1.999-.079 3.801-.921 5.123-2.243.759-.759 1.36-1.676 1.75-2.697h-2.294c.454-.808.713-1.74.713-2.734v-.019h4.835v.019l-.006.344-.002.06zM17 6.569c2.88 0 5.49 1.169 7.378 3.057 1.211 1.212 2.126 2.721 2.627 4.41h-2.92c-.39-.93-.954-1.764-1.656-2.463-1.388-1.39-3.308-2.25-5.429-2.25-2.121 0-4.041.86-5.43 2.25-1.389 1.39-2.25 3.308-2.25 5.429 0 2.12.861 4.041 2.25 5.43.402.402.848.76 1.33 1.065v-6.495c0-2.264 1.836-4.1 4.1-4.1 2.264 0 4.1 1.836 4.1 4.1 0 2.265-1.836 4.1-4.1 4.1-.588 0-1.147-.124-1.652-.347v6.55c-.14-.022-.28-.047-.418-.075l.418.075c-.154-.025-.307-.052-.458-.084-.114-.023-.227-.048-.34-.075l-.142-.036c-.084-.021-.168-.044-.252-.068l-.137-.04c-.076-.022-.152-.046-.227-.07l-.18-.06c-.065-.022-.13-.045-.195-.07l-.164-.06c-1.373-.53-2.607-1.34-3.63-2.362-1.887-1.889-3.056-4.498-3.056-7.378s1.169-5.49 3.055-7.376C11.511 7.738 14.12 6.57 17 6.57zm0 8.78c-.913 0-1.652.741-1.652 1.653 0 .913.739 1.652 1.652 1.652.913 0 1.652-.739 1.652-1.652 0-.912-.739-1.652-1.652-1.652z"/>
                        </g>
                    </g>
                </g>
                <path fill="#F97A26" fill-rule="nonzero" d="M174.881 94.196c-3.248 1.906-9.435 4.54-15.744 1.866l-4.524-1.919 8.114-9.091c-14.094-15.847-12.709-40.104 3.098-54.245 15.807-14.14 40.08-12.836 54.278 2.918 14.2 15.753 12.974 40.019-2.739 54.264-11.564 10.547-28.382 13.004-42.483 6.207zm44.507-59.995c-9.034-9.967-22.703-14.356-35.855-11.515-13.151 2.842-23.786 12.483-27.896 25.29-4.11 12.806-1.07 26.832 7.975 36.79l.257.283-7.832 8.775 3.432 1.456c6.093 2.583 12.121-.1 15.173-1.93l.197-.118.207.1c16.225 7.88 35.761 3.15 46.58-11.277 10.82-14.428 9.88-34.498-2.238-47.854z"/>
                <path fill="#000" fill-rule="nonzero" d="M223.843 58.5c0-17.872-13.82-32.784-31.843-34.364 1.017-.088 2.047-.136 3.087-.136C214.372 24.01 230 39.453 230 58.5S214.372 92.99 195.087 93c-1.039 0-2.066-.048-3.082-.136 18.022-1.583 31.837-16.494 31.838-34.364z" opacity=".1"/>
                <path fill="#FFF" fill-rule="nonzero" d="M96.877 152.777c-7.19-6.521-9.744-16.731-6.47-25.87 3.273-9.138 11.728-15.405 21.424-15.878 9.695-.473 18.72 4.94 22.868 13.717 4.147 8.776 2.6 19.187-3.922 26.377l5.025 5.633-2.507 1.064c-3.88 1.645-7.676.044-9.806-1.234-8.816 4.284-19.351 2.776-26.612-3.809z"/>
                <g>
                    <g opacity=".2" transform="translate(98.000000, 120.000000) translate(4.000000, 4.000000)">
                        <circle cx="13" cy="13" r="11.917" fill="#E87722"/>
                        <g>
                            <path d="M0 0H26V26H0z"/>
                            <path fill="#FFF" fill-rule="nonzero" d="M20.978 12.987v.014c0 .114-.002.228-.007.34l.007-.34c0 .158-.005.314-.014.47-.003.063-.008.126-.013.189l-.013.146-.02.177c-.007.062-.016.123-.024.184l-.02.121c-.01.067-.022.134-.034.2l-.029.144-.03.14c-.015.065-.03.13-.047.193-.01.043-.021.085-.033.127-.37 1.363-1.09 2.581-2.06 3.551-1.392 1.393-3.298 2.272-5.407 2.333V18.87c1.529-.06 2.907-.704 3.918-1.715.58-.58 1.04-1.281 1.337-2.062h-1.753c.347-.619.545-1.331.545-2.092v-.014h3.697zM13 5.024c2.203 0 4.198.893 5.642 2.337.926.927 1.626 2.081 2.009 3.372h-2.233c-.298-.71-.73-1.348-1.266-1.883C16.09 7.787 14.622 7.129 13 7.129c-1.622 0-3.09.658-4.152 1.72-1.062 1.063-1.72 2.53-1.72 4.152 0 1.622.658 3.09 1.72 4.154.307.306.648.58 1.016.813L9.865 13c0-1.73 1.404-3.135 3.135-3.135 1.731 0 3.135 1.404 3.135 3.135 0 1.733-1.404 3.135-3.135 3.135-.45 0-.877-.094-1.264-.265v5.01c-.12-.02-.238-.042-.357-.066l.358.065c-.154-.024-.306-.053-.457-.086-.095-.021-.19-.044-.283-.068l-.069-.018c-.092-.025-.184-.051-.274-.08l-.1-.03-.24-.082-.122-.045c-.1-.038-.2-.078-.299-.12l-.028-.011c-.943-.404-1.792-.983-2.507-1.697-1.442-1.444-2.336-3.439-2.336-5.642 0-2.202.894-4.197 2.336-5.64C8.802 5.917 10.798 5.024 13 5.024zm0 6.714c-.698 0-1.263.566-1.263 1.263 0 .699.565 1.264 1.263 1.264S14.263 13.7 14.263 13c0-.697-.565-1.263-1.263-1.263z"/>
                        </g>
                    </g>
                    <g transform="translate(98.000000, 120.000000)">
                        <circle cx="13" cy="13" r="11.917" fill="#E87722"/>
                        <g>
                            <path d="M0 0H26V26H0z"/>
                            <path fill="#FFF" fill-rule="nonzero" d="M20.978 12.987v.014c0 .114-.002.228-.007.34l.007-.34c0 .158-.005.314-.014.47-.003.063-.008.126-.013.189l-.013.146-.02.177c-.007.062-.016.123-.024.184l-.02.121c-.01.067-.022.134-.034.2l-.029.144-.03.14c-.015.065-.03.13-.047.193-.01.043-.021.085-.033.127-.37 1.363-1.09 2.581-2.06 3.551-1.392 1.393-3.298 2.272-5.407 2.333V18.87c1.529-.06 2.907-.704 3.918-1.715.58-.58 1.04-1.281 1.337-2.062h-1.753c.347-.619.545-1.331.545-2.092v-.014h3.697zM13 5.024c2.203 0 4.198.893 5.642 2.337.926.927 1.626 2.081 2.009 3.372h-2.233c-.298-.71-.73-1.348-1.266-1.883C16.09 7.787 14.622 7.129 13 7.129c-1.622 0-3.09.658-4.152 1.72-1.062 1.063-1.72 2.53-1.72 4.152 0 1.622.658 3.09 1.72 4.154.307.306.648.58 1.016.813L9.865 13c0-1.73 1.404-3.135 3.135-3.135 1.731 0 3.135 1.404 3.135 3.135 0 1.733-1.404 3.135-3.135 3.135-.45 0-.877-.094-1.264-.265v5.01c-.12-.02-.238-.042-.357-.066l.358.065c-.154-.024-.306-.053-.457-.086-.095-.021-.19-.044-.283-.068l-.069-.018c-.092-.025-.184-.051-.274-.08l-.1-.03-.24-.082-.122-.045c-.1-.038-.2-.078-.299-.12l-.028-.011c-.943-.404-1.792-.983-2.507-1.697-1.442-1.444-2.336-3.439-2.336-5.642 0-2.202.894-4.197 2.336-5.64C8.802 5.917 10.798 5.024 13 5.024zm0 6.714c-.698 0-1.263.566-1.263 1.263 0 .699.565 1.264 1.263 1.264S14.263 13.7 14.263 13c0-.697-.565-1.263-1.263-1.263z"/>
                        </g>
                    </g>
                </g>
                <path fill="#F97A26" fill-rule="nonzero" d="M112.97 159c-5.955-.005-11.694-2.23-16.093-6.24-9.795-8.88-10.559-24.007-1.708-33.828 8.852-9.82 23.982-10.633 33.836-1.818s10.718 23.936 1.932 33.815l5.057 5.667-2.82 1.196c-3.932 1.668-7.79.025-9.814-1.163-3.243 1.558-6.793 2.368-10.39 2.371zm-15.737-6.633c7.087 6.465 17.407 7.942 26.024 3.724l.129-.063.123.074c1.902 1.14 5.66 2.813 9.458 1.203l2.14-.908-4.882-5.47.16-.177c8.708-9.597 7.984-24.433-1.618-33.138-9.601-8.704-24.444-7.98-33.152 1.617-8.708 9.598-7.984 24.434 1.618 33.138z"/>
                <path fill="#000" fill-rule="nonzero" d="M92.888 134.5c0-11.655 8.728-21.38 20.112-22.412-.643-.057-1.293-.088-1.95-.088-12.18.007-22.05 10.078-22.05 22.5s9.87 22.493 22.05 22.5c.656 0 1.305-.031 1.947-.089-11.382-1.032-20.108-10.757-20.109-22.411z" opacity=".1"/>
                <circle cx="144.5" cy="158.5" r="3.5" fill="#F97A26" fill-rule="nonzero"/>
                <circle cx="148.5" cy="94.5" r="4.5" fill="#F97A26" fill-rule="nonzero"/>
            </g>
        </g>
    </g>
</svg>
