<svg xmlns="http://www.w3.org/2000/svg" width="342" height="194" viewBox="0 0 342 194">
    <defs>
        <linearGradient id="yw2nrjoboa" x1="49.997%" x2="49.997%" y1="100.013%" y2=".028%">
            <stop offset="0%" stop-color="gray" stop-opacity=".25"/>
            <stop offset="54%" stop-color="gray" stop-opacity=".12"/>
            <stop offset="100%" stop-color="gray" stop-opacity=".1"/>
        </linearGradient>
        <linearGradient id="ti7zqfg4rb" x1=".017%" x2="99.997%" y1="50.001%" y2="50.001%">
            <stop offset="0%" stop-color="gray" stop-opacity=".25"/>
            <stop offset="54%" stop-color="gray" stop-opacity=".12"/>
            <stop offset="100%" stop-color="gray" stop-opacity=".1"/>
        </linearGradient>
    </defs>
    <g fill="none" fill-rule="evenodd">
        <g fill-rule="nonzero">
            <g transform="translate(-36.000000, -182.000000) translate(36.920448, 182.000000)">
                <path fill="#FFA163" d="M204.49 139.84c6.571-.374 14.724-4.832 21.064-6.803 7.502-2.327 15.035-4.566 22.597-6.717 26.326-7.49 52.935-13.873 79.826-19.148 2.51-.494 5.023-.975 7.54-1.445-3.92-8.474-9.996-15.77-17.62-21.162.196-1.855.295-3.718.298-5.584 0-29.478-23.558-53.374-52.629-53.374-8.95-.01-17.75 2.3-25.541 6.704-20.576-13.534-47.431-21.726-76.814-21.726-41.752 0-78.405 16.54-99.174 41.449l97.61 16.49 59.866 10.11c-68.248 2.036-136.707 4.061-204.758-.72-18.526 17.925-21.78 46.453-7.766 68.09 0 1.067.044 2.126.124 3.176 1.734.496 3.408.978 4.91 1.293 24.106 5.092 48.366 9.354 72.781 12.785-17.991 11.094-39.902 12.664-60.656 17.362C36.198 188.916 49.846 194 64.885 194h223.93c24.248 0 43.902-16.88 43.902-37.705 3.638-6 6.063-12.657 7.136-19.592-44.868 4.332-90.295.571-135.363 3.137z" opacity=".1"/>
                <path fill="#FFF" d="M340.16 127.834c.048-17.418-8.382-33.77-22.599-43.834.194-1.854.293-3.716.298-5.58 0-29.479-23.57-53.367-52.629-53.367-8.95-.01-17.751 2.3-25.544 6.702-20.576-13.54-47.434-21.735-76.817-21.735-47.794 0-88.933 21.69-107.178 52.795-1.014-.06-2.034-.092-3.062-.092C23.567 62.723 0 86.62 0 116.098c-.02 10.412 2.988 20.605 8.659 29.338 0 26.522 25.032 48.023 55.899 48.023h223.936c24.245 0 43.898-16.883 43.898-37.708 5.1-8.418 7.786-18.076 7.767-27.917z"/>
                <path fill="url(#yw2nrjoboa)" d="M277.802 95.133c-.426-.327-.923-.545-1.451-.637-.557-.127-1.124-.208-1.69-.297l-7.32-1.056c-.739-.137-1.492-.177-2.242-.118-.759.062-1.462.426-1.95 1.01-.218.27-.338.605-.34.952.042.349.155.685.334.987.07.141.131.287.181.437.07.337.158.669.262.996.032.071.074.137.125.197v.05c-.08.41.178.839.062 1.234-.1.339-.431.544-.64.827-.283.41-.295.949-.029 1.37.223.345.628.58.744.976.151.52-.26 1.022-.625 1.424-.673.739-1.295 1.523-1.861 2.346-.16.202-.262.443-.298.699-.032.517.464.972.378 1.486-.068.405-.464.651-.806.892-1.263.833-2.277 2.17-2.378 3.684-.325-2.408-1.323-4.675-2.879-6.541-.425-.512-.892-1.026-1.067-1.674-.065-.259-.077-.535-.167-.785-.297-.788-1.242-1.127-1.656-1.853-.297-.51-.297-1.168-.666-1.617-.368-.449-.948-.55-1.266-.984-.16-.294-.295-.6-.405-.916-.133-.257-.32-.482-.55-.66-.044-.035-.09-.068-.137-.098.1-.09.158-.217.158-.351 0-.348-.345-.577-.645-.75-.387-.22-.764-.457-1.133-.704.402-.187.75-.473 1.014-.83.33-.532.466-1.162.386-1.784-.02-.501-.207-.982-.532-1.364-.187-.2-.422-.342-.618-.53-.509-.496-.681-1.23-.892-1.909-.28-.892-.717-1.828-1.532-2.3-.392-.23-.85-.337-1.234-.578-.383-.24-.704-.696-.57-1.133.089-.297.365-.502.553-.755.465-.68.297-1.608-.378-2.081-.22-.14-.49-.262-.535-.518-.352-.09-.62-.375-.69-.731-.067-.35-.067-.709 0-1.059.077-.553.154-1.104.229-1.653.264.11.562.11.826 0 .258.418.557.808.892 1.166.906 1.069 1.611 2.293 2.082 3.612.17.476.342 1.008.782 1.261.151.086.324.131.473.223.183.128.34.29.463.476.357.473.714.942 1.068 1.415l.018.072c.01.041.025.082.047.119.066.074.157.12.256.13 1.094.253 2.322.485 3.27-.113.857-.535 1.232-1.593 1.957-2.301.515-.503 1.243-.892 1.389-1.6-.174-.053-.345-.116-.512-.187.149-.149.298-.321.5-.517.294-.288.558-.604.79-.943.252-.418.451-.866.595-1.332.573-1.633 1.148-3.268 1.725-4.903.274-.773.547-1.552.892-2.304.357-.815.779-1.597 1.168-2.397 1.006-2.08 1.781-4.264 2.314-6.512.094-.306.126-.629.092-.948-.083-.515-.473-.919-.844-1.285-.374-.404-.8-.757-1.267-1.05-.474-.294-1.046-.386-1.588-.255-.761.223-1.24 1.002-1.415 1.784-.176.782-.11 1.588-.185 2.379-.107 1.145-.5 2.25-.594 3.398-.05.663 0 1.335-.08 1.998-.147.868-.45 1.702-.893 2.462-.964 1.813-2.27 3.422-3.844 4.74-.181.152-.369.297-.547.46 0-.127.02-.258.038-.386-.129.034-.255.079-.377.134.015-.15 0-.302-.045-.446-.238-.71-1.296-.892-1.486-1.614-.032-.18-.05-.36-.051-.542-.062-.633-.494-1.168-.642-1.784-.137-.568-.033-1.189-.298-1.715-.225-.33-.49-.629-.79-.892-.358-.408-.615-.894-.753-1.419-.038-.145-.074-.297-.116-.443.045-.33.009-.666-.107-.978-.27-.672-.97-1.103-1.222-1.784-.196-.53-.11-1.19-.481-1.6-.198-.196-.44-.341-.705-.425-1.361-.53-2.79-.867-4.243-1.002-.815-.074-1.713-.116-2.296-.69-.68-.666-.713-1.864-1.51-2.378-.702-.455-1.695-.12-2.239.52-.082.094-.157.193-.226.297-.1-.398-.12-.812-.062-1.219 0-.1.02-.205.03-.297 1.342-.439 2.484-1.341 3.222-2.545v.018l.036.092c.086.217.223.425.425.449.135-.002.265-.049.369-.134.18-.125.345-.268.494-.428.075-.083.146-.17.214-.259.137-.186.254-.385.35-.595.148-.315.248-.65.298-.996.053-.345.06-.698.119-1.043.055-.267.128-.53.217-.788.03-.086.06-.173.086-.259l.095-.297c.186-.612.286-1.246.298-1.885v-.321c-.022-.843-.382-1.641-1-2.216-.51-.419-1.189-.594-1.563-1.162-.244-.38-.298-.871-.44-1.317-.315-1.09-1.222-1.905-2.338-2.103-.658-.072-1.32.11-1.85.509l-.04.033c-.296.225-.546.503-.738.82-.393-.108-.753-.312-1.047-.594-.297-.277-.526-.625-.826-.892-.572-.524-1.383-.695-2.117-.446-.754.301-1.316.946-1.514 1.733-.163.613-.134 1.317-.476 1.829-.264.398-.698.594-1.002.957-.188.23-.317.502-.374.794-.036.163-.053.33-.05.496 0 .075 0 .15.017.22v.036c.01.082.028.162.05.241.085.301.237.58.444.815.196.225.441.402.716.517.113.044.228.08.345.11l.354.08.125.03c-.866 1.625-.927 3.56-.167 5.236 0 .083-.02.167-.03.25-.048 1.17.004 2.344.155 3.506.042.46.066.969-.217 1.335-.128.143-.273.272-.43.383.16-.208.323-.413.49-.618-.42-.422-1.083-.476-1.677-.434-1.151.086-2.268.427-3.271.999-.666.383-1.35.892-2.111.802-.45-.05-.892-.297-1.33-.178-.245.1-.474.237-.68.404-.163.117-.359.178-.56.173-.466-.574-1.188-.963-1.747-1.43-.637-.567-1.219-1.19-1.74-1.865-.963-1.162-1.924-2.328-2.87-3.502-.796-.987-1.614-2.055-1.753-3.318-.015-.126-.022-.252-.021-.378.02-.6.095-1.198.226-1.784.035-.142.035-.29 0-.431-.09-.298-.431-.408-.726-.473.039-.229.066-.464.08-.687.167-2.557-.014-5.156.527-7.66.205-.963.541-1.938 1.234-2.637 1.085-1.097 2.902-1.361 3.734-2.66.696-1.083.42-2.614-.455-3.569-.874-.954-2.22-1.344-3.502-1.296-.36-.013-.715.083-1.02.273-.285.254-.499.578-.619.94L208.44 34.8c-.37.808-.682 1.64-.934 2.492-.357 1.302-.437 2.676-.72 3.99 0 1.011-.65 2.272-1.007 3.202-.399 1.047-.83 2.082-1.19 3.15-.089.267-.401 1.06-.594 1.783-.073.043-.141.094-.202.152-.156.199-.297.408-.423.627-.27.357-.71.547-1.008.892-.297.345-.36.978.054 1.15.084.03.17.048.259.057.054.005.107.014.16.027.446.125.622.687.556 1.15-.065.465-.297.893-.336 1.357-.08.82.402 1.585.865 2.274.48.748 1.011 1.462 1.588 2.138.42.47.892.892 1.314 1.344 1.609 1.653 2.887 3.586 4.333 5.382.52.678 1.11 1.298 1.763 1.85.426.333.871.64 1.335.918l2.486 1.576c.281.207.6.357.94.443.11.015.222.015.332 0 .015.074.027.146.045.22.193.78.618 1.487.666 2.28.047.795-.024 1.606.032 2.41.054.74.218 1.486.26 2.214.082 1.404-.263 2.79-.596 4.163-.502 2.01-.805 4.062-1.784 5.884-.273.503-.594 1.014-.594 1.588 0 .068 0 .14.018.208l-.446.253c-.131.074-.262.149-.381.226-.565.369-1.169.776-1.4 1.412-.188.515-.102 1.103-.327 1.603-.011.022-.023.044-.036.065-.238.464-.71.809-.818 1.317-.08.39.074.803 0 1.19v.015c-.068.194-.121.393-.16.594-.004.066.002.132.017.197.057.225.182.427.357.58.107.102.224.195.348.276.127.083.258.16.393.232l.077.041c.113.06.226.116.342.17l.077.033c.134.06.27.113.408.16l.095.03c.107.036.217.068.327.095l.074.024.068.015.298.062.11.021c.13.022.264.04.401.054h.12c.1 0 .198.014.296.017h.545c.14 0 .28-.02.419-.038h.044c.125-.018.25-.039.375-.066l.095-.02c.116-.027.232-.054.348-.09l.063-.018c.14-.041.28-.086.416-.14.473-.194.932-.421 1.374-.68.297-.164.594-.33.892-.482.22-.111.446-.21.677-.297.563-.24 1.175-.342 1.784-.298.301.041.6.102.892.182v.098c.242 1.427.481 2.854.717 4.282.39-.28.801-.528 1.231-.74-.08.215-.133.44-.158.668-.017.177-.017.355 0 .532.027.283.087.595-.083.818-.104.137-.297.214-.354.369-.04.158-.051.323-.03.484-.025.382-.326.688-.707.72.175.493-.01 1.041-.449 1.326-.124.06-.24.136-.345.226-.102.132-.17.286-.2.45-.392 1.472-1.2 2.8-2.327 3.826-.423.332-.809.709-1.151 1.124-.211.321-.386.665-.52 1.026-.793 1.938-1.598 3.878-2.415 5.818-.452 1.086-.892 2.189-1.034 3.357-.357 3.206-3.212 5.923-2.676 9.105.108.795.428 1.545.927 2.173.595.717 1.487 1.127 2.379 1.46 2.292.892 4.71 1.38 7.118 1.87l3.782.777c.742.17 1.496.29 2.254.356.913.063 1.85-.023 2.739.209.55.142 1.076.407 1.644.437.487.026 1.088-.078 1.377.32.288.4.065.925.338 1.28.44.561 1.514 0 1.993.529.13.203.23.424.297.657.073.143.174.27.297.374.03.168.041.338.036.509-.062.69-.206 1.37-.428 2.028-.357 1.207-.713 2.415-1.068 3.624-.135.427-.235.865-.297 1.308-.022.216-.022.433 0 .649.062.657.44 1.335 1.067 1.549.487.128 1.005.065 1.446-.179.425-.222.824-.491 1.189-.803.658-.498 1.237-1.093 1.716-1.766 1.486-2.224 1.005-5.233 2.048-7.692.693-1.641 2.043-2.973 2.492-4.704.105-.329.117-.68.036-1.017-.188-.594-.821-.933-1.413-1.147h-.027c-.486-.173-.982-.315-1.486-.425-.125-.027-.253-.048-.38-.069-.284-.23-.509-.523-.658-.856-.023-.177-.07-.35-.14-.515-.096-.143-.255-.232-.428-.237-.297-.03-.696.077-1.02.053-.663-.047-1.103-.699-1.698-.999-.594-.3-1.24-.226-1.873-.181-.226.03-.457.016-.678-.042-.264-.122-.505-.288-.713-.49-.742-.578-1.712-.773-2.62-.527-.284.115-.586.183-.892.202-.58-.032-.99-.55-1.418-.942-1.172-1.074-2.84-1.356-4.261-2.06-.217-.082-.399-.238-.511-.44-.164-.405.205-.81.538-1.086l2.444-2.03c2.676-2.225 6.021-3.899 7.264-7.16.13-.438.33-.851.595-1.223.096-.113.207-.213.33-.297.54-.35 1.195-.478 1.828-.357.771.173 1.502.492 2.153.94 1.064.644 2.1 1.338 3.107 2.081.997.713 1.946 1.492 2.84 2.331 1.56 1.487 2.86 3.25 4.314 4.853 1.454 1.602 3.116 3.098 5.135 3.865 2.019.767 4.46.734 6.193-.553 2.002-1.487 2.644-4.145 3.15-6.583 1.114-1.076 1.45-2.715 1.994-4.163.342-.919.78-1.784 1.148-2.7.44-1.076.785-2.188 1.13-3.297.39-1.114.656-2.268.79-3.44.144-1.853-.353-3.824.167-5.563.687-.152 1.312-.539 1.987-.765 1.005-.33 2.081-.276 3.145-.27h.069c.367.039.736-.048 1.046-.247.357-.297.414-.806.432-1.267.041-1.138-.03-2.417-.883-3.154zm-43.082-50.72c-.245.06-.5.079-.752.054l.752-.054z"/>
                <path fill="#BE6F72" d="M235.892 63.223c-.36.305-.782.53-1.237.657l-2.108.755c-1.145.41-2.34.823-3.547.675-.675-.083-3.568-.509-4.005-1.035-.666-.815 1.668-2.013 2.464-2.7.181-.13.348-.277.5-.44.297-.363.259-.871.217-1.329-.151-1.16-.203-2.33-.155-3.5.024-.278.063-.555.12-.83.297-1.367 1.57-.867 2.574-.505 1.21.393 2.38.9 3.494 1.514.34.175.634.425.862.731.44.666.265 1.54.194 2.379-.063.651-.06 1.276.347 1.748.205.181.394.38.562.595.196.444.081.963-.282 1.285zM206.77 41.793c.298-1.317.364-2.676.72-3.98.252-.85.564-1.68.934-2.484l1.311-3.06c.12-.36.334-.684.619-.936.305-.19.66-.284 1.02-.273 1.281-.048 2.628.35 3.502 1.293.874.943 1.15 2.468.455 3.547-.832 1.3-2.65 1.561-3.734 2.656-.693.698-1.03 1.67-1.234 2.63-.542 2.499-.36 5.088-.527 7.64-.053.793-.208 1.7-.892 2.11-.413.203-.873.292-1.332.26l-1.95.032c-.327 0-1.514.205-1.73-.042-.381-.43.487-2.578.644-3.056.351-1.062.782-2.096 1.19-3.14.354-.93 1.005-2.189 1.005-3.197z"/>
                <path fill="#3F3D56" d="M247.045 135.205c-.449 1.718-1.799 3.056-2.492 4.695-1.043 2.453-.574 5.453-2.048 7.67-.479.675-1.057 1.271-1.716 1.77-.365.31-.764.579-1.19.8-.44.243-.958.307-1.444.178-.628-.214-1.005-.892-1.068-1.546-.022-.214-.022-.43 0-.645.063-.443.162-.88.298-1.305.356-1.204.712-2.409 1.067-3.616.222-.655.366-1.333.428-2.022.039-.75-.437-1.724-.235-2.423.092-.315.437-.595.595-.86.224-.38.396-.79.511-1.216.244-.83.41-1.715.922-2.414.334-.414.724-.78 1.16-1.085.321-.282.698-.494 1.106-.622.396-.07.802-.05 1.19.057.504.108 1 .249 1.486.422h.027c.594.214 1.225.544 1.412 1.145.091.333.088.685-.009 1.017zM278.682 98.65c-.018.461-.075.975-.432 1.264-.31.199-.68.286-1.046.247h-.08c-1.062 0-2.141-.06-3.146.27-.764.253-1.466.717-2.263.809-1.097.125-2.129-.476-3.101-1-.916-.492-1.855-.939-2.816-1.337-.63-.259-1.918-.425-2.221-1.115-.104-.327-.191-.658-.262-.993-.05-.15-.11-.296-.181-.437-.178-.302-.292-.637-.333-.984.001-.347.12-.683.339-.952.49-.58 1.19-.94 1.947-1.002.75-.058 1.503-.018 2.242.119l7.32 1.053c.566.08 1.134.16 1.69.297.528.091 1.026.31 1.45.636.866.726.937 2.001.893 3.125z"/>
                <path fill="#65617D" d="M272.247 100.553c-.892 1.882-.25 4.11-.41 6.19-.135 1.17-.4 2.321-.791 3.432-.345 1.106-.69 2.215-1.13 3.288-.369.892-.806 1.784-1.148 2.694-.544 1.451-.892 3.084-1.995 4.163-.505 2.432-1.147 5.09-3.148 6.565-1.74 1.285-4.163 1.33-6.194.553-2.03-.776-3.681-2.262-5.135-3.865-1.454-1.603-2.753-3.348-4.314-4.84-.895-.84-1.846-1.618-2.846-2.329-1.007-.731-2.043-1.42-3.107-2.063-.652-.446-1.382-.764-2.153-.937-.632-.121-1.288.006-1.828.357-.123.084-.234.184-.33.297-.265.37-.466.783-.595 1.22-1.249 3.252-4.6 4.923-7.276 7.141l-2.444 2.025c-.333.277-.702.681-.538 1.082.112.203.294.36.511.44 1.421.702 3.09.985 4.261 2.055.428.393.839.91 1.418.94.306-.018.608-.086.892-.2.907-.245 1.877-.051 2.62.524.208.203.45.369.713.49.222.059.452.073.678.042.634-.045 1.306-.101 1.874.181.568.283 1.034.949 1.697.996.325.024.711-.083 1.02-.053.173.005.333.094.428.238.07.163.117.335.14.511.122.42.532.675.8 1.02.41.53.47 1.249.428 1.918-.134 2.092-1.067 4.052-2.604 5.477-.437.446-.994.756-1.603.892-.626.13-1.265-.153-1.588-.705-.066-.231-.166-.452-.297-.654-.479-.526-1.552.033-1.992-.53-.274-.35-.078-.912-.34-1.275-.261-.363-.891-.297-1.376-.318-.568-.03-1.094-.297-1.644-.437-.892-.232-1.826-.146-2.739-.208-.758-.067-1.511-.186-2.254-.357l-3.782-.773c-2.408-.49-4.825-.987-7.118-1.864-.877-.333-1.76-.744-2.379-1.457-.498-.627-.819-1.377-.927-2.17-.538-3.173 2.316-5.885 2.676-9.082.128-1.165.594-2.265 1.034-3.348.807-1.934 1.612-3.87 2.415-5.807.13-.36.3-.705.505-1.028.342-.414.728-.79 1.151-1.121 1.127-1.023 1.935-2.348 2.328-3.818.03-.164.098-.318.2-.45.105-.087.22-.162.344-.222.437-.285.623-.831.45-1.323.38-.032.682-.338.707-.72-.022-.16-.012-.324.03-.481.071-.155.25-.232.353-.37.17-.222.11-.534.084-.814-.018-.177-.018-.355 0-.532.065-.63.346-1.217.797-1.662.71-.699 1.721-.518 2.702-.684.98-.211 1.935-.517 2.855-.913 2.58-1.016 5.296-1.645 8.06-1.864 2.779-.219 5.569.226 8.142 1.296.374.152.727.352 1.05.595.228.176.416.4.55.657.11.315.244.62.404.913.318.434.918.574 1.266.984.348.41.378 1.103.666 1.612.414.725 1.371 1.061 1.657 1.849.089.25.1.523.166.782.16.648.642 1.16 1.068 1.671 1.558 1.864 2.556 4.133 2.878 6.541.095-1.507 1.109-2.842 2.378-3.675.342-.223.738-.47.806-.874.086-.511-.41-.966-.377-1.487.036-.254.138-.494.297-.695.567-.822 1.188-1.603 1.861-2.34.366-.402.776-.892.625-1.422-.116-.395-.52-.627-.744-.972-.266-.42-.254-.96.03-1.368.208-.282.538-.487.64-.823.115-.396-.143-.824-.063-1.231.109-.326.324-.606.612-.794.395-.36.843-.654 1.33-.874.784-.298 1.659-.188 2.491-.072 1.392.194 2.953.491 3.738 1.657.502.728.758 1.834.383 2.613z"/>
                <path fill="#000" d="M278.682 98.65c-.018.461-.075.975-.432 1.264-.31.199-.68.286-1.046.247h-.08c.121-.619.874-.973 1.005-1.6.045-.39-.074-.78-.327-1.08-.637-.859-1.66-1.334-2.677-1.682-2.872-.985-5.95-1.216-8.937-.67-.813.133-1.603.376-2.35.723-.247.155-.485.324-.713.506-.178-.302-.292-.637-.333-.984.001-.347.12-.683.339-.952.49-.58 1.19-.94 1.947-1.002.75-.058 1.503-.018 2.242.119l7.32 1.053c.566.08 1.134.16 1.69.297.528.091 1.026.31 1.45.636.875.726.946 2.001.902 3.125zM247.045 135.205c-.449 1.718-1.799 3.056-2.492 4.695-1.043 2.453-.574 5.453-2.048 7.67-.479.675-1.057 1.271-1.716 1.77-.365.31-.764.579-1.19.8-.44.243-.958.307-1.444.178-.628-.214-1.005-.892-1.068-1.546-.022-.214-.022-.43 0-.645l.018.048c.259.624.681 1.278 1.347 1.388.505.036 1.003-.14 1.374-.485.98-.788 1.552-1.962 2.096-3.095.426-.817.763-1.677 1.005-2.566.119-.505.175-1.023.297-1.528.565-2.456 2.489-4.46 2.914-6.949.035-.171.043-.347.024-.52-.056-.227-.142-.445-.256-.648-.103-.23-.179-.472-.226-.72.595.214 1.225.544 1.413 1.145.076.334.06.682-.048 1.008zM242.555 130.94c-.275.72-.738 1.353-1.34 1.832-.847.645-1.838 1.074-2.888 1.25-.488.124-1.001.118-1.487-.019-.66-.228-1.135-.847-1.81-1.025-.482-.131-1-.015-1.487-.087-.877-.121-1.558-.79-2.266-1.326-2.167-1.63-5.013-2.155-7.18-3.785-.097-.059-.177-.142-.232-.24-.042-.107-.057-.223-.045-.337.008-.988.23-1.963.651-2.857.345-.624.756-1.21 1.225-1.745 1.942-2.38 3.892-4.776 6.218-6.783.975-.841 2.04-1.626 3.27-2.007.684-.21 2.034-.41 2.867-.053-.123.084-.234.184-.33.297-.265.37-.466.783-.595 1.22-1.252 3.255-4.603 4.926-7.279 7.144l-2.444 2.025c-.333.277-.702.681-.538 1.082.112.203.294.36.511.44 1.421.702 3.09.985 4.261 2.055.428.393.839.91 1.418.94.306-.018.608-.086.892-.2.907-.245 1.877-.051 2.62.524.208.203.45.369.713.49.222.059.452.073.678.042.634-.045 1.306-.101 1.874.181.568.283 1.034.949 1.697.996.33.024.717-.089 1.026-.053z" opacity=".1"/>
                <path fill="#3F3D56" d="M215.21 90.586c-.566.363-1.166.773-1.398 1.404-.19.514-.101 1.103-.33 1.602-.23.5-.744.848-.857 1.383-.08.39.078.8 0 1.19-.067.202-.122.409-.163.618-.03.443.35.803.722 1.05 1.605 1.043 3.61 1.264 5.403.594.794-.297 1.51-.782 2.272-1.162.742-.428 1.591-.634 2.447-.595.49.053.96.232 1.45.297.493.097 1-.054 1.36-.404.151-.21.253-.45.297-.705.413-1.632.226-3.363-.167-5.004-.392-1.641-.987-3.22-1.406-4.853-.297-1.21-.526-2.45-1.023-3.594-.496-1.145-1.332-2.21-2.5-2.647-.093-.045-.197-.058-.298-.038-.075.031-.141.08-.193.142-.924.98-1.62 2.152-2.04 3.432-.467 1.424-.594 2.934-1.023 4.365-.184.594-.422 1.391-.892 1.846-.47.455-1.13.737-1.662 1.08z"/>
                <path fill="#000" d="M226.422 95.85c-.05.255-.157.495-.312.704-.358.352-.868.502-1.36.401-.487-.06-.957-.24-1.447-.297-.856-.04-1.705.167-2.447.595-.762.38-1.487.853-2.275 1.16-1.153.436-2.412.508-3.607.204-.634-.159-1.237-.424-1.784-.785-.374-.243-.752-.594-.722-1.05.041-.207.096-.413.163-.615.078-.39-.077-.8 0-1.189.113-.535.63-.892.857-1.386.226-.493.14-1.085.327-1.6.232-.633.835-1.04 1.4-1.406.565-.365 1.237-.645 1.689-1.088.058-.069.111-.142.158-.22.326-.503.565-1.056.707-1.638.437-1.433.556-2.94 1.02-4.368.42-1.28 1.118-2.45 2.043-3.428.05-.064.115-.113.19-.143.1-.02.205-.008.297.036 1.166.44 2.002 1.504 2.501 2.649.5 1.145.71 2.379 1.023 3.592.416 1.632 1.014 3.217 1.406 4.855.393 1.639.586 3.38.173 5.016zM235.265 59.586c-2.896.92-6.02-.49-7.244-3.27.024-.28.063-.556.12-.83.297-1.368 1.57-.868 2.574-.506 1.21.393 2.38.9 3.494 1.514.34.175.634.425.862.731.44.657.265 1.532.194 2.361z" opacity=".1"/>
                <circle cx="233.469" cy="53.622" r="5.947" fill="#BE6F72"/>
                <path fill="#000" d="M249.605 98.061c0 .494-.669.652-1.165.625-1.784-.104-3.53-.595-5.296-.446-2.233.202-4.285 1.436-6.524 1.549-.862.045-1.739-.083-2.59.074-1.1.205-2.08.874-3.202.97-.972.083-1.932-.283-2.905-.244-.68.04-1.342.23-1.941.553.065-.63.346-1.217.797-1.662.71-.699 1.721-.518 2.702-.684.98-.211 1.935-.517 2.855-.913 2.58-1.017 5.296-1.645 8.06-1.864 2.777-.221 5.566.22 8.139 1.287.374.152.727.352 1.05.595.016.052.023.106.02.16z" opacity=".1"/>
                <path fill="#E3E8F4" d="M230.718 64.48l-2.408-.892-1.017-.374c-.414-.174-.85-.29-1.296-.345-1.166-.09-2.263.687-2.885 1.677-.621.99-.856 2.17-1.055 3.32-.274 1.575-.506 3.155-.696 4.74-.205 1.432-.31 2.877-.312 4.324.068 3.68.847 7.311 1.704 10.894.42 1.589.736 3.203.948 4.832.072.672.104 1.347.176 2.022.077.758.202 1.507.327 2.26l.716 4.272c.892-.633 1.906-1.19 3.003-1.222.973-.036 1.936.327 2.905.244 1.115-.092 2.102-.761 3.203-.966.85-.158 1.727-.033 2.592-.075 2.236-.113 4.29-1.35 6.521-1.549 1.77-.16 3.526.34 5.299.443.493.03 1.162-.128 1.162-.624 0-.345-.345-.574-.645-.746-1.416-.853-2.763-1.814-4.029-2.876-1.172-.927-2.36-1.879-3.167-3.134-1.941-3.018-1.275-7.1-2.931-10.285-1.347-2.586 0-5.976 0-8.893 0-1.454 0-2.926-.342-4.338-.214-.79-.48-1.565-.797-2.32l-1.157-2.928c-.024-.086-.071-.163-.137-.223-.077-.054-.17-.082-.264-.08-.695-.042-1.38.178-1.921.615-.544.443-.892 1.08-1.427 1.54-.586.509-1.341.955-2.07.687z"/>
                <path fill="#3F3D56" d="M234.604 62.791c.19-.814.396-1.662.94-2.298.544-.636 1.537-.972 2.239-.517.797.517.83 1.712 1.51 2.378.595.571 1.487.616 2.296.69 1.454.132 2.882.469 4.243 1 .265.081.507.226.705.421.371.423.297 1.07.481 1.597.253.678.952 1.11 1.222 1.784.298.75 0 1.588-.25 2.358-.448 1.383-.73 2.819-1.168 4.207-.437 1.389-1.058 2.757-2.081 3.803-.452.464-1.124.892-1.719.616l-.229 1.65c-.067.349-.067.707 0 1.055.07.356.339.64.69.732.045.256.315.378.535.517.328.225.553.571.624.962.07.391-.018.794-.246 1.12-.188.252-.464.452-.553.752-.134.434.184.892.57 1.13.387.238.842.348 1.235.577.814.47 1.251 1.394 1.53 2.292.209.678.381 1.412.893 1.906.196.187.431.33.618.526.325.383.512.864.533 1.365.081.622-.056 1.252-.387 1.784-.595.85-1.704 1.103-2.676 1.487-1.579.648-2.878 1.808-4.27 2.795-.567.456-1.234.77-1.947.916-.964.127-1.912-.298-2.882-.336-.58.005-1.157.08-1.718.226l-1.784.386c.095-1.383-.666-2.768-1.091-4.085-.803-2.48-.952-5.132-.762-7.731.19-2.599.72-5.162 1.243-7.713.366-1.784.33-3.648.892-5.382.527-1.668 1.279-3.27 1.555-5.007.452-2.81-1.427-5.191-.79-7.963z"/>
                <path fill="#3F3D56" d="M248.13 68.29c.164.301.28.627.342.965.138.524.395 1.009.753 1.416.299.264.564.563.79.892.274.517.17 1.148.298 1.712.148.616.58 1.151.642 1.784.002.182.019.363.05.542.194.72 1.252.892 1.487 1.611.158.467-.113.975-.062 1.466.037.152.046.309.027.464-.068.175-.186.326-.34.434-.983.94-1.665 2.152-1.956 3.482-.286 1.322-.437 2.67-.449 4.023l-1.162-1.537c-.124-.187-.281-.348-.464-.476-.149-.09-.321-.134-.473-.223-.44-.25-.613-.78-.782-1.255-.47-1.317-1.176-2.538-2.081-3.604-.473-.556-1.023-1.115-1.127-1.837-.031-.332-.013-.667.053-.993.298-1.948.616-3.943 1.564-5.67.443-.81 1.017-1.54 1.442-2.361.286-.544.687-1.96 1.448-.836zM218.798 70.16c.006.25-.058.497-.184.713-.232.269-.596.384-.94.297-.338-.085-.657-.234-.94-.44-.828-.523-1.657-1.047-2.485-1.573-.463-.278-.909-.584-1.335-.915-.652-.551-1.244-1.17-1.763-1.847-1.445-1.784-2.724-3.72-4.333-5.352-.437-.446-.892-.874-1.314-1.34-.577-.676-1.107-1.389-1.588-2.136-.463-.687-.945-1.448-.865-2.268.048-.464.27-.892.336-1.353.066-.461-.11-1.023-.556-1.148-.053-.013-.106-.022-.16-.027-.088-.01-.175-.028-.26-.056-.412-.173-.35-.812-.053-1.148.298-.336.738-.523 1.008-.892.126-.219.267-.428.423-.627.199-.171.436-.29.692-.348 1.715-.506 3.53-.574 5.278-.2.297.066.636.185.726.473.035.14.035.288 0 .428-.132.587-.207 1.184-.226 1.784 0 .126.006.25.02.375.14 1.26.958 2.328 1.755 3.312.945 1.172 1.906 2.334 2.869 3.494.521.672 1.103 1.294 1.74 1.858.594.494 1.364.892 1.828 1.526.378.511.256 1.21.297 1.825.139 1.859.149 3.725.03 5.584z"/>
                <path fill="#BE6F72" d="M256.56 82.564c.294-.285.558-.599.79-.936.25-.418.45-.865.595-1.33l1.725-4.89c.273-.774.547-1.55.892-2.302.357-.812.779-1.594 1.168-2.379 1.002-2.065 1.777-4.234 2.31-6.467.095-.307.126-.63.093-.948-.083-.515-.473-.916-.844-1.282-.374-.403-.8-.755-1.267-1.046-.474-.295-1.046-.387-1.588-.256-.761.223-1.24 1.002-1.415 1.784-.176.782-.11 1.582-.185 2.379-.107 1.141-.5 2.244-.594 3.39-.05.662 0 1.331-.08 1.991-.147.867-.45 1.7-.893 2.46-.966 1.807-2.27 3.413-3.844 4.727-.431.318-.819.69-1.154 1.11-.28.417-.469.89-.556 1.385-.197.754-.112 1.555.241 2.25.485.827 1.415 1.19 2.304 1.374 1.202.25 1.478-.16 2.302-1.014z"/>
                <path fill="#3F3D56" d="M233.504 45.005c.524-.984 1.585-1.559 2.694-1.46 1.115.197 2.022 1.011 2.337 2.099.14.443.197.934.44 1.314.369.574 1.053.74 1.564 1.157.617.573.977 1.37 1 2.212.028.851-.106 1.7-.396 2.5-.123.342-.222.692-.297 1.047-.06.345-.066.696-.12 1.041-.133.903-.625 1.715-1.364 2.25-.104.086-.234.133-.369.135-.232-.027-.374-.298-.46-.542-.473-1.364-.36-3.032-1.232-4.12-.396-.44-.875-.796-1.41-1.05-.217-.14-.462-.233-.719-.27-.377.02-.74.152-1.04.38-.628.42-1.324.729-2.058.91-.741.175-1.522.007-2.126-.458-.41-.34-.71-.848-1.165-1.112-.455-.265-.931-.25-1.38-.431-.58-.247-1.013-.747-1.175-1.356-.162-.61-.033-1.259.348-1.76.298-.357.738-.56 1.002-.955.342-.511.313-1.213.476-1.826.197-.786.76-1.43 1.514-1.727.733-.25 1.544-.08 2.117.443.297.267.535.612.826.892.585.56 1.414.783 2.2.595"/>
                <path fill="#000" d="M238.393 88.77c-.355.315-.48.815-.316 1.26.066.14 3.134-.452 3.458-.496.81-.116 2.227-.06 2.772-.8.969-1.311-2.034-1.02-2.584-.972-1.047.089-2.534.232-3.33 1.008z" opacity=".1"/>
                <path fill="#3F3D56" d="M210.479 50.413c-.132.587-.207 1.184-.226 1.784-.892.182-1.82-.116-2.676-.413l-2.46-.838c-.31-.199-.721-.122-.939.175-.395.41-.94 1.19-1.487 1.65-.088-.01-.174-.028-.258-.056-.414-.173-.351-.812-.054-1.148.297-.336.738-.523 1.008-.892.126-.219.267-.428.422-.627.2-.171.437-.29.693-.348 1.715-.506 3.53-.574 5.278-.2.297.066.636.185.725.473.03.147.02.298-.026.44z"/>
                <path fill="#000" d="M210.479 50.413c-.132.587-.207 1.184-.226 1.784-.892.182-1.82-.116-2.676-.413l-2.46-.838c-.31-.199-.721-.122-.939.175-.395.41-.94 1.19-1.487 1.65-.088-.01-.174-.028-.258-.056-.414-.173-.351-.812-.054-1.148.297-.336.738-.523 1.008-.892.126-.219.267-.428.422-.627.2-.171.437-.29.693-.348 1.715-.506 3.53-.574 5.278-.2.297.066.636.185.725.473.03.147.02.298-.026.44zM232.972 106.863c.428.142.892.35 1.038.779l-3.443-.875-1.784-.454c-.316-.08-1.445-.173-1.654-.42-.297-.362.759-.113.949-.086.577.086 1.154.175 1.727.28 1.083.193 2.123.511 3.167.776zM234.307 109.91c-.297-.199-1.15-.175-1.516-.261-.535-.128-1.062-.298-1.588-.461-1.067-.348-2.126-.744-3.223-1-.202-.044-.892-.056-.86-.311.033-.256.69-.345.854-.357.972-.072 2.185.383 3.09.707 1.151.413 2.242.98 3.243 1.683zM232.125 104.145c-1.092-.297-2.082-.975-3.206-1.106-.293.011-.58-.077-.817-.25-.132-.13-.224-.295-.265-.476.752-.038 1.627.28 2.31.58.377.162.739.355 1.083.577.25.152.624.589.895.675z" opacity=".1"/>
                <path fill="#3F3D56" d="M252.926 77.521c-.381 2.556 1.172 5.004 3.646 5.748-.146.705-.874 1.094-1.389 1.597-.725.704-1.1 1.76-1.956 2.295-.955.595-2.183.363-3.271.113-.099-.011-.19-.059-.256-.134-.022-.035-.038-.075-.047-.116-.36-1.317-.595-2.723-.226-4.043.297-1.124 1.01-2.082 1.582-3.075.57-.993.624-2.057 1.917-2.385zM226.341 60.472c-1.15.084-2.268.424-3.27.996-.666.38-1.35.892-2.111.8-.45-.05-.892-.297-1.33-.178-.246.099-.475.235-.68.404-.212.169-.496.214-.75.119l-.297 4.115c-.113 1.564-.223 3.16.152 4.686.193.78.618 1.487.666 2.278.047.79-.024 1.602.032 2.402.054.74.218 1.47.26 2.21.082 1.397-.263 2.783-.596 4.141-.502 2.004-.805 4.053-1.784 5.867-.273.502-.594 1.014-.594 1.585 0 .07 0 .14.018.208-.298.163-.574.318-.827.478-.565.366-1.169.774-1.4 1.407-.188.514-.102 1.103-.327 1.6-.226.496-.744.85-.857 1.385-.08.39.075.8 0 1.19-.067.201-.122.407-.163.615-.03.446.348.806.722 1.05.546.36 1.15.625 1.784.784l1.775-7.046c1.619-2.993 2.965-6.124 4.023-9.358.303-1.056.692-2.087 1.163-3.08.336-.562.634-1.146.892-1.748.27-.75.297-1.561.428-2.352.155-.923.39-1.832.699-2.715.32-.954.693-1.906.758-2.908.098-1.433-.422-2.946.13-4.273.236-.496.541-.956.908-1.364.767-.94 1.466-1.924 2.233-2.864-.399-.425-1.062-.47-1.657-.434z"/>
                <g fill="#000" opacity=".1">
                    <path d="M8.551.12L8.18.147l-.041.03c.14-.006.277-.025.413-.057zM15.354 6.293c-.062.591-.19 1.174-.38 1.737-.123.341-.223.69-.298 1.046-.06.345-.065.696-.119 1.04-.133.904-.625 1.716-1.364 2.252-.105.085-.235.132-.37.134-.231-.027-.374-.298-.46-.542-.473-1.364-.36-3.032-1.231-4.12-.396-.44-.875-.796-1.41-1.05-.217-.14-.463-.233-.719-.27-.377.02-.74.152-1.04.38-.628.42-1.325.729-2.058.91-.742.175-1.523.007-2.126-.458-.41-.34-.71-.848-1.166-1.112-.455-.265-.93-.25-1.38-.432C.667 5.566.24 5.078.075 4.482.064 4.445.056 4.408.05 4.37c-.074.332-.066.677.024 1.005.165.596.592 1.084 1.16 1.326.449.182.954.185 1.38.432.425.246.755.773 1.165 1.112.603.465 1.384.633 2.126.458.733-.181 1.43-.49 2.057-.91.302-.228.664-.36 1.041-.38.256.037.502.13.72.27.527.259.999.618 1.388 1.058.871 1.088.758 2.757 1.231 4.121.086.247.23.515.461.541.143.001.281-.05.39-.142.742-.538 1.236-1.353 1.367-2.26.054-.345.06-.696.12-1.04.074-.356.174-.706.297-1.047.29-.801.423-1.65.395-2.5l-.018-.12z" transform="translate(226.169308, 43.906071)"/>
                </g>
                <path fill="#FFA163" d="M222.711 74.057l-.202 2.715c-.03.369-.735 9.146-5.932 19.404-4.46 8.799-13.14 20.258-29.526 26.698-1.278.506-2.605.977-3.98 1.415l-1.535-4.816c3.852-1.213 7.562-2.835 11.067-4.841 8.352-4.823 14.846-11.706 19.374-20.564 2.403-4.716 4.115-9.753 5.085-14.956h-18.643v-5.055h24.292z"/>
                <path fill="#FFF" d="M185.044 122.877c16.384-6.44 25.066-17.897 29.523-26.695 5.197-10.258 5.905-19.03 5.932-19.404l.202-2.715h2.081l-.202 2.715c-.027.369-.734 9.146-5.932 19.404-4.46 8.798-13.139 20.255-29.522 26.695-1.279.506-2.607.978-3.985 1.418l-.202-.633c.718-.256 1.42-.517 2.105-.785z" opacity=".1"/>
                <path fill="#FFA163" d="M152.242 119.473l-1.534 4.816c-1.378-.44-2.706-.912-3.984-1.418-16.384-6.44-25.066-17.896-29.523-26.695-5.197-10.258-5.905-19.03-5.932-19.404l-.202-2.715h24.28v5.055h-18.645c.974 5.204 2.692 10.24 5.099 14.956 4.528 8.858 11.02 15.741 19.371 20.561 3.506 2.008 7.217 3.632 11.07 4.844z"/>
                <path fill="#FFF" d="M148.728 122.877c-16.383-6.44-25.066-17.897-29.523-26.695-5.197-10.258-5.905-19.03-5.932-19.404l-.202-2.715h-2.081l.202 2.715c.027.369.734 9.146 5.932 19.404 4.46 8.798 13.14 20.255 29.522 26.695 1.279.506 2.607.978 3.985 1.418l.202-.633c-.716-.256-1.417-.517-2.105-.785z" opacity=".1"/>
                <path fill="#FFA163" d="M194.937 166.036v27.256h-56.099v-27.256l1.784-2.38c18.18-6.451 21.864-23.278 22.598-29.935.11-.92.172-1.845.187-2.771h6.937c.016.926.078 1.851.187 2.771.747 6.657 4.43 23.49 22.598 29.936l1.808 2.379z"/>
                <path fill="#000" d="M138.838 166.036H194.93599999999998V169.455H138.838z" opacity=".1"/>
                <path fill="#FFF" d="M143.596 163.657c18.179-6.452 21.863-23.279 22.597-29.936.11-.92.172-1.845.188-2.771h-2.974c-.015.926-.078 1.851-.187 2.771-.746 6.657-4.43 23.49-22.598 29.936l-1.784 2.379v27.256h2.974v-27.256l1.784-2.38z" opacity=".1"/>
                <path fill="#000" d="M130.317 74.057h5.03v5.055h-4.584c-.18-1.665-.33-3.35-.446-5.055zM152.242 119.473l-1.534 4.816c-1.378-.44-2.706-.912-3.984-1.418-2.103-2.568-3.962-5.328-5.552-8.242 3.506 2.008 7.217 3.632 11.07 4.844zM181.533 119.473c3.852-1.213 7.562-2.835 11.067-4.841-1.59 2.915-3.45 5.675-5.552 8.245-1.278.506-2.605.977-3.98 1.415l-1.535-4.82zM203.456 74.057c-.117 1.705-.266 3.39-.446 5.055h-4.582v-5.055h5.028zM170.543 133.721c-2.414.468-4.896.468-7.311 0 .11-.92.172-1.845.187-2.771h6.937c.016.926.078 1.851.187 2.771z" opacity=".1"/>
                <path fill="#FFA163" d="M130.911 65.684c.128 37.483 16.184 67.793 35.978 67.793s35.847-30.31 35.978-67.793H130.91z"/>
                <path fill="#FFF" d="M137.304 65.684h-6.393c.128 37.483 16.184 67.793 35.978 67.793 1.071-.002 2.14-.092 3.196-.27-18.298-3.057-32.659-32.08-32.78-67.523z" opacity=".1"/>
                <path fill="#3F3D56" d="M147.809 176.469H185.966V186.281H147.809z"/>
                <path fill="#FFF" d="M149.593 177.807L185.966 177.807 185.966 176.469 147.809 176.469 147.809 186.281 149.593 186.281z" opacity=".1"/>
                <path fill="url(#ti7zqfg4rb)" d="M110.562 101.873c-.687-.229-4.731-3.428-5.037-4.876-.306-1.448 2.138-14.938 2.138-14.938s-.226 0-.595-.045v-.217l.502-17.721s2.061-11.894-1.831-11.2c-3.892.692-1.451 11.2-1.451 11.2s-.443 5.334-.755 6.934c-.298 1.543-1.66 7.829-.732 9.782.034.07.072.137.113.202 0 0 .155 6.705-1.525 7.621-1.603.871-2.269 5.257-2.325 5.65l-.087-.036c-.478-.3-.898-.683-1.24-1.133-.035-.045-.062-.092-.095-.14 2.27-2.552 2.193-6.42-.175-8.881-.53-.552-1.154-1.006-1.84-1.344-.02-.568-.155-1.127-.396-1.642-.773-1.653-5.055-3.814-8.096-3.865-1.404-.042-2.555.357-2.974 1.454-.214.556-.148 1.19-.238 1.766-.178 1.19-.942 2.12-1.923 2.86-.397-.442-.825-.854-1.282-1.233-.993-.761-2.973-3.271-2.973-3.271s-6.182-6.402-6.64-8.156c-.458-1.754-6.633-12.289-8.007-10.454-1.374 1.834 4.73 9.83 4.73 9.83s1.16 2.905 2.052 3.886c.892.981 7.73 10.912 7.73 10.912l.328.678c-1.445.761-2.765 1.73-3.232 3.241-.684 2.224.812 4.46 1.846 6.541 2.016 4.062 2.305 9.242-.297 12.952-2.331 3.277-6.375 4.835-10.16 6.197 1.828 1.435 4.099 2.19 6.422 2.132-.874 2.533-3.972 3.372-6.612 3.841 1.385 1.332 3.369 1.817 5.271 2.111.932.159 1.877.234 2.822.223h.232l.232-.017c.322-.022.643-.063.96-.122 1.374-.28 2.71-1.03 3.41-2.242.596-1.038.804-2.453 1.883-2.974.281-.127.584-.198.892-.21h-.033.613l4.499.044h.573c1.27-.03 2.626-.25 3.271-1.3.266-.51.405-1.075.407-1.65.096-1.424 0-2.89.04-4.326.383 2.614.784 6.687-.17 8.192-.776 1.14-1.716 2.159-2.79 3.024-.27.226-.516.48-.737.755-.145.104-.232.16-.232.16l-.092.277c-.339.514-.584 1.084-.725 1.683-.052.154-.072.317-.057.479.104.21-.743 1.082-.496 1.448-2.117 2.482-2.519 6.244-2.519 6.244l-3.865 5.869c-1.986 5.218-4.96 5.754-4.96 5.754s-6.984-4.687-7.175-4.915c-.19-.23-2.86-1.374-2.86-1.374-.315-.552-.795-.991-1.374-1.255-.915-.38-.993-1.784-.993-1.784-.113-3.315-2.06-3.568-2.06-3.568-1.57-.134-2.768.146-3.69.657l-.28.021c-1.35.11-2.973.232-4.757.35-4.963.328-6.143 3.542-6.143 3.542s-.61.687.19 1.43c.8.744 5.92 0 6.137-.018-.39.043-.785.016-1.165-.08.806-.03 1.915-.06 2.86-.06h.23c-.06.502-.09 1.006-.087 1.511 0 .952 2.631 1.561 2.631 1.561l8.013 7.136s5.037 2.251 8.243 5.49c3.205 3.237 6.039.442 6.039.442 3.392-.838 13.154-12.64 13.163-12.652 0 .345.205 11.823.594 14.127.016.117.045.232.087.342.457.99-.155 3.696-.42 4.837-.169.956-.233 1.927-.193 2.897 0 0-3.66 13.974-3.357 15.202.303 1.228-1.983 6.934-1.983 6.934v4.758l.398-.021c-.052.076-.1.156-.142.238l-.027.05s2.44.532 4.082.38c1.642-.15 4.46 1.265 4.46 1.265s.955.451 3.892.642c2.938.19 2.938-1.297 2.938-1.297-.336-2.024-4.977-2.702-5.12-2.723-.375-.235-.726-.49-1.014-.71l-.06-.048c.02-.045.037-.09.051-.137.497-2.022-2.25-2.9-2.25-2.9v-.493c1.783-.916 2.137-7.201 2.137-7.201s2.676-7.773 3.05-9.07c.375-1.295 0-3.237 0-3.237l.268-1.677s.574-1.142.574-1.37c.075-.581.298-1.132.648-1.6.42-.497-.457-1.677-.457-1.677l.764-1.98v-2.174l1.784-7.886s1.87-9.184 1.222-12.19c-.648-3.006.764-4.535.764-4.535-.127.067-.258.127-.393.179.179-.413.333-.836.461-1.267l4.014.497v.059h1.448s-.458-5.65-.458-7.927c0-2.278 1.544-10.451 1.544-10.451s.687-7.99 0-8.219zm-17.82-6.595c0 .223-.02.455-.035.693l-.08.122-.15-.125-.18.283-.054.026c-.393-.202-.595-1.358-.877-1.109l-.039.033c-.062-.071-.125-.092-.19-.033l-.06.05v-.264c.544.14 1.104.211 1.665.211.003.039 0 .078 0 .113zm13.35 26.309h.087l-.143.374c.018-.125.036-.246.057-.374zm-14.655 67.427l-.547-.137.297-.05.277.18.032.025-.059-.018zm5.59-.8c-.181-.095-.366-.205-.544-.318.06.032.294.154.544.318z"/>
                <path fill="#F86D70" d="M108.067 115.97L104.466 125.354 105.34 125.354 101.954 128.054 108.067 128.815z"/>
                <path fill="#000" d="M108.067 115.97L104.466 125.354 103.559 125.11 101.954 128.054 108.067 128.815z" opacity=".1"/>
                <path fill="#F86D70" d="M102.421 121.973L108.067 121.973 110.139 104.921 102.421 104.921z"/>
                <path fill="#000" d="M102.421 121.973L108.067 121.973 110.139 104.921 102.421 104.921z" opacity=".1"/>
                <path fill="#FBBEBE" d="M91.392 108.959l1.22-.205 2.8-.476s8.412-1.897 10.148-2.052c1.052-.139 2.078-.431 3.045-.868.455-.196.744-.345.744-.345l-3.03-5.533-4.701-3.485s-2.974-.633-4.231-2.364c-.57-.756-.717-1.751-.39-2.64.767-2.379-4.582 2.274-4.582 2.274s.05 1.115 0 2.537c0 .28-.027.57-.047.868 0 .196-.027.392-.048.595-.13 1.412-.398 2.866-.928 3.734-1.293 2.123 0 7.96 0 7.96z"/>
                <path fill="#000" d="M92.415 95.92h.12c.213 0 .386-.454.594-.475 1.674-.16 3.202-.512 4.264-1.698-.57-.756-.716-1.749-.39-2.637.767-2.379-4.582 2.271-4.582 2.271s.057 1.118-.006 2.54z" opacity=".1"/>
                <path fill="#FBBEBE" d="M85.904 89.177c-.001 1.729.685 3.387 1.908 4.61 1.222 1.222 2.88 1.908 4.61 1.908.213 0 .424 0 .635-.03 3.5-.343 6.097-3.401 5.868-6.91-.229-3.51-3.2-6.205-6.715-6.09-3.515.113-6.306 2.995-6.306 6.512z"/>
                <path fill="#3F3D56" d="M83.902 79.285c-.214.553-.148 1.171-.234 1.757-.319 2.114-2.468 3.38-4.413 4.267-1.944.886-4.139 1.935-4.757 3.978-.678 2.21.803 4.424 1.831 6.497 2.004 4.038 2.29 9.188-.297 12.88-2.298 3.271-6.304 4.823-10.074 6.185 1.815 1.428 4.07 2.178 6.378 2.123-.865 2.518-3.943 3.354-6.565 3.818 1.377 1.326 3.348 1.808 5.236 2.099 1.377.214 2.789.354 4.163.077 1.373-.276 2.676-1.023 3.383-2.23.595-1.031.797-2.438 1.87-2.958.485-.19 1.007-.267 1.526-.223l4.46.047c1.389 0 3.033-.107 3.75-1.293.264-.507.402-1.07.404-1.641.193-2.926-.369-6.018.835-8.688.363-.806-1.965-2.082-1.721-2.935.838-2.935 1.05-5.245 1.04-8.299 0-2.364 1.538-4.4 2.807-6.396 1.27-1.995 2.331-4.513 1.33-6.654-1.13-2.388-9.616-5.857-10.952-2.411z"/>
                <path fill="#FBBEBE" d="M89.84 188.157l1.136.753.176.116.032.02 1.347.892 3.146.53 2.765-.19s.797-1.666-.455-1.627c-.4-.02-.791-.134-1.141-.33l-.173-.086c-.181-.096-.363-.203-.541-.316-.372-.234-.723-.49-1.005-.707-.416-.321-.693-.565-.693-.565l-4.594 1.51z"/>
                <path fill="#000" d="M90.991 188.91l.175.116.033.02 1.347.892 3.146.53 2.765-.19s.797-1.666-.455-1.627c-.4-.02-.792-.134-1.142-.33.22.172.405.36.423.517.05.425-2.046 1.19-2.046 1.19l-2.956-.782s-.502-.143-1.189-.322l-.065-.017-.036.003z" opacity=".1"/>
                <path fill="#3F3D56" d="M85.936 189.635s2.424.53 4.053.378c1.63-.152 4.436 1.252 4.436 1.252s.949.446 3.866.636c2.916.19 2.916-1.29 2.916-1.29-.333-2.014-4.941-2.677-5.084-2.706.057.03.297.151.541.315.327.214.681.493.708.72.05.422-2.046 1.189-2.046 1.189l-2.955-.78s-.503-.145-1.19-.323h-.065c-1.019-.278-2.053-.491-3.098-.64-1.273-.136-1.924.946-2.058 1.19-.01.019-.018.039-.024.06z"/>
                <path fill="#FBBEBE" d="M47.74 136.165l1.288.987s.375-.018.934-.035h.178c.8-.03 1.903-.06 2.84-.06.605-.027 1.212.007 1.81.101.643.226 1.784-3.675 1.784-3.675l-1.29-.297-.428-.101-.298-.072-1.05-.246-3.18.362-2.237 1.44-.35 1.596z"/>
                <path fill="#000" d="M47.74 136.165l1.288.987s.375-.018.934-.035c-.257-.1-.468-.289-.595-.533-.833-2.31 3.297-3.297 3.297-3.297l1.924-.083.375-.018h.297l-.428-.101-.297-.072-1.05-.246-3.182.362-2.235 1.44-.328 1.596z" opacity=".1"/>
                <path fill="#3F3D56" d="M45.201 137.209c.78.72 5.881 0 6.096-.018-.388.044-.78.016-1.157-.08-.379-.068-.706-.303-.892-.64-.833-2.313 3.297-3.297 3.297-3.297l1.924-.083.372-.018 4.677-.202.226-1.288s-1.52.143-3.904.333c-1.341.11-2.973.232-4.737.348-4.927.327-6.098 3.523-6.098 3.523s-.598.684.196 1.422z"/>
                <path fill="#FBBEBE" d="M102.424 81.399c.031.07.069.138.113.202l1.135 1.665 2.956.297.033-1.171.496-17.626s2.046-11.822-1.82-11.141c-3.865.68-1.439 11.14-1.439 11.14s-.44 5.305-.749 6.899c-.3 1.54-1.647 7.802-.725 9.735zM95.79 125.179l.841 1.439 1.883 3.22s3.413 1.252 4.287.297c.479-.52.996-2.337 1.359-3.865.297-1.237.497-2.28.497-2.28l-8.867 1.189z"/>
                <path fill="#000" d="M95.79 125.179l.841 1.439c.053-.046.101-.097.143-.152.952-1.213 5.141-.259 7.386-.181.297-1.237.497-2.281.497-2.281l-8.867 1.175zM52.98 137.051c.605-.027 1.212.007 1.81.101.643.226 1.784-3.675 1.784-3.675l-1.718-.404 4.677-.202.226-1.288s-1.52.143-3.904.333c-.493.284-.933.651-1.3 1.085l-.071.09c-.996 1.222-1.365 2.798-1.504 3.96zM89.84 188.157l1.312.869c1.956-.354 3.743-.91 3.954-1.784v-.042c-.416-.321-.693-.565-.693-.565l-4.573 1.522zM85.963 189.585c1.728-.086 3.45-.271 5.156-.553-1.02-.28-2.055-.495-3.101-.646-1.27-.136-1.921.946-2.055 1.199z" opacity=".1"/>
                <path fill="#3F3D56" d="M53.122 138.553c0 .948 2.614 1.555 2.614 1.555l7.96 7.085s5 2.236 8.182 5.456c3.182 3.22 5.989.455 5.989.455 3.371-.832 13.082-12.58 13.082-12.58s.226 13.416.681 14.4c.455.984-.151 3.675-.416 4.814-.167.95-.23 1.915-.19 2.878 0 0-3.637 13.907-3.333 15.12.303 1.213-1.972 6.898-1.972 6.898v4.736s8.905-.341 9.396-2.348c.49-2.008-2.233-2.882-2.233-2.882v-.493c1.784-.91 2.12-7.16 2.12-7.16s2.655-7.73 3.033-9.018c.378-1.288 0-3.223 0-3.223l.265-1.666s.567-1.138.567-1.364c.075-.577.297-1.125.646-1.591.416-.494-.455-1.668-.455-1.668l.758-1.971v-2.16l1.784-7.843s1.858-9.134 1.213-12.128c-.645-2.994.758-4.508.758-4.508-3.041 1.594-4.576-1.953-5.078-3.479-.128-.392-.19-.654-.19-.654s-4.178-1.54-8.067-1.171c-.79.064-1.569.229-2.316.49-4.32 1.555-5.002 7.996-5.002 7.996l-3.826 5.836c-1.972 5.192-4.927 5.721-4.927 5.721s-6.934-4.66-7.136-4.888c-.203-.229-2.843-1.365-2.843-1.365-.312-.55-.79-.986-1.365-1.249-.91-.38-.984-1.784-.984-1.784-.113-3.297-2.046-3.568-2.046-3.568-6.707-.559-6.669 6.375-6.669 7.32z"/>
                <path fill="#F86D70" d="M91.699 107.332H95.78999999999999V120.02499999999999H91.699z" transform="translate(93.744324, 113.679031) rotate(-180.000000) translate(-93.744324, -113.679031)"/>
                <path fill="#000" d="M91.699 107.332H95.78999999999999V120.02499999999999H91.699z" opacity=".1" transform="translate(93.744324, 113.679031) rotate(-180.000000) translate(-93.744324, -113.679031)"/>
                <path fill="#000" d="M102.42 81.372v.027c.032.07.07.138.114.202l1.135 1.665 2.956.297.033-1.171c-.922-.072-3.021-.324-4.237-1.02z" opacity=".1"/>
                <path fill="#F86D70" d="M102.537 81.6s.151 6.667-1.517 7.577c-1.668.91-2.316 5.65-2.316 5.65s5.055 3.324 6.182 4.787c1.126 1.462 3.713 4.947 3.181 5.78-.532.832 1.29 4.623 1.29 4.623s-3.336 6.821-2.577 9.4c.758 2.577.832 9.395.832 9.395h1.442s-.455-5.608-.455-7.882c0-2.275 1.514-10.383 1.514-10.383s.684-7.957 0-8.183c-.684-.226-4.698-3.41-5.002-4.853-.303-1.442 2.123-14.866 2.123-14.866s-3.107-.134-4.697-1.044z"/>
                <path fill="#000" d="M91.621 106.155c.139.928.476 1.814.99 2.599l2.801-.476s8.412-1.897 10.148-2.052c1.052-.139 2.078-.431 3.045-.868-.666-2.362-1.967-4.495-3.761-6.17l-1.068-.99c-1.573-1.46-3.396-2.625-5.381-3.44.125.104 8.95 7.639 7.017 9.116-1.933 1.478-7.136-2.12-7.136-2.12l-5.917-5.084-.214-.184-.342.532c.174.071.343.153.508.244 2.017 1.106 3.513 2.966 4.163 5.173 1.216 4.089-4.853 3.72-4.853 3.72z" opacity=".1"/>
                <path fill="#444053" d="M89.802 125.101s5.607 3.107 6.97 1.365c.297-.384.924-.55 1.706-.595-.128-.392-.19-.654-.19-.654s-4.178-1.54-8.067-1.171l-.42 1.055z"/>
                <path fill="#E8E8F0" d="M92.383 96.492l6.13 5.274s5.183 3.61 7.137 2.12c1.953-1.49-7.02-9.12-7.02-9.12 1.981.818 3.802 1.98 5.378 3.432l1.068.99c2.807 2.602 3.44 2.602 3.535 6.426.024.942-.297 2.295-.544 2.539-.91.892-1.546 7.371-1.406 8.13.14.757-1.695 7.302-1.1 9.121.594 1.82-7.434-.91-8.793.836-1.359 1.745-6.966-1.365-6.966-1.365s3.107-7.96 3.865-8.489c.758-.529 1.668-4.623 0-6.517-1.668-1.894-1.817-3.714-1.817-3.714s6.066.375 4.85-3.714c-.692-2.398-2.394-4.375-4.662-5.417l.345-.532z"/>
                <path fill="#000" d="M100.565 109.907s-2.352 4.434-5.393 5.584c-.099.036-.194.069-.298.098-3.175.967 5.93-4.308 5.691-5.682z" opacity=".1"/>
                <path fill="#FBBEBE" d="M67.674 70.686s1.136 2.88 2.046 3.865c.91.984 7.653 10.838 7.653 10.838l.57 1.19.491 1.013 4.32-.455.298-1.742-.166-.202c-.435-.52-1.618-1.918-2.412-2.528-.984-.755-2.955-3.255-2.955-3.255s-6.137-6.37-6.592-8.112c-.455-1.742-6.595-12.19-7.957-10.383-1.362 1.808 4.704 9.77 4.704 9.77z"/>
                <g fill="#000" opacity=".1">
                    <path d="M7.6 39.718c-.519-.045-1.04.03-1.525.22-1.07.52-1.273 1.927-1.868 2.958-.695 1.208-2.022 1.954-3.386 2.23-.272.053-.546.09-.821.113.87.085 1.746.047 2.605-.113 1.364-.276 2.69-1.022 3.386-2.23.595-1.031.797-2.438 1.868-2.958.28-.127.584-.197.892-.208L7.6 39.718zM18.161 16.91c0-2.365 1.538-4.401 2.804-6.396 1.267-1.996 2.331-4.514 1.33-6.655-.857-1.828-6.019-4.282-8.998-3.797 2.917.378 6.512 2.299 7.213 3.797 1.002 2.14-.062 4.66-1.329 6.655-1.266 1.995-2.81 4.031-2.804 6.395 0 3.05-.205 5.352-1.043 8.299-.241.847 2.081 2.129 1.724 2.932-1.207 2.676-.642 5.762-.835 8.688-.004.571-.144 1.134-.408 1.641-.594.978-1.813 1.231-3 1.285h1.038c1.385 0 3.03-.107 3.746-1.294.264-.507.404-1.07.408-1.641.193-2.926-.372-6.015.835-8.688.363-.803-1.965-2.082-1.724-2.932.838-2.926 1.05-5.24 1.043-8.29z" transform="translate(72.609652, 77.836919)"/>
                </g>
                <path fill="#000" d="M77.944 86.572l.49 1.014 4.32-.455.298-1.742-.166-.202c-.461.226-3.913 1.888-4.942 1.385z" opacity=".1"/>
                <path fill="#000" d="M93.896 97.97s-1.062-1.666-1.668-1.214c-.607.452-.842-1.365-1.19-1.061-.347.303-1.361 1.147-1.783-.033-.33-.94-3.922-6.883-5.38-9.274-.374-.618-.609-.999-.609-.999s-4.091 2.046-5.075 1.365v1.439l.832.077 4.46 8.326s1.404 2.233 1.309 3.012c-.096.779 1.798 4.19 2.102 4.415.303.226 3.568 4.017 3.568 4.017s1.668 8.186.226 10.46c-1.442 2.275-3.94 3.94-3.94 3.94s-.752 2.197-.642 2.426c.11.23-.874 1.213-.42 1.517.455.303 1.062 2.423 1.062 2.423s2.123-3.41 3.27-3.94c1.148-.529 2.617-7.504 2.617-7.504s.42-4.11.452-6.762c.033-2.652-.1-12.63.809-12.63z" opacity=".1"/>
                <path fill="#F86D70" d="M93.667 97.97s-1.059-1.666-1.665-1.214c-.607.452-.845-1.365-1.19-1.061-.344.303-1.358 1.147-1.783-.033-.333-.94-3.925-6.883-5.38-9.274l-.609-.999s-4.091 2.046-5.078 1.365v1.439l.835.077 4.46 8.326s1.407 2.233 1.309 3.012c-.099.779 1.784 4.19 2.102 4.415.318.226 3.568 4.017 3.568 4.017s1.668 8.186.229 10.46c-.76 1.143-1.685 2.167-2.745 3.04-.89.733-1.516 1.737-1.784 2.86-.051.152-.07.315-.053.475.11.226-.874 1.213-.42 1.517.455.303 1.068 2.432 1.068 2.432s2.123-3.41 3.27-3.94c1.148-.53 2.62-7.505 2.62-7.505s.416-4.109.452-6.761c.036-2.652-.098-12.649.794-12.649z"/>
                <path fill="#000" d="M83.284 132.454s3.185.595 4.46 1.514c1.276.919-4.85-1.44-4.85-1.44l.39-.074zM90.94 140.524s3.322 2.768 2.727 5.269c-.595 2.5-2.129 8.792-2.129 8.792l-.598-14.061zM61.894 135.202s-4.68.511-4.377 1.118c.303.606 4.377-.56 4.377-.56v-.558zM97.83 158.222s.297.377-1.44 0c-1.736-.378-.454-1.544-.454-1.544l1.894 1.544zM97.235 163.452s-2.379.377-3.654 0c-1.276-.378 3.654 0 3.654 0zM92.34 183.914s-.415-.455-2.5.378c-2.084.833-2.917.871-3.523.595-.607-.277 6.024-.973 6.024-.973zM94.654 134.557l-2.955 4.112s1.59-3.601 2.955-4.112zM88.91 96.756s-.128 1.365-2.034 1.897c-1.906.532-2.269.964-2.269.964M83.956 86.864s-2.515 1.784-5.14 1.406M85.87 125.063s.735.46 2.498-1.556M104.184 103.687c.071-.369-.185-.71-.425-.999l-.494-.595c-.096-.121-.205-.233-.324-.333-.297-.229-.678-.297-.987-.502" opacity=".1"/>
                <path fill="#FFA163" d="M263.83.033s-25.033-1.51-22.09 16.032c0 0-.594 3.101 2.225 4.508 0 0 .044-1.3 2.569-.857.898.15 1.811.193 2.72.131 1.228-.085 2.395-.567 3.324-1.374 0 0 7.038-2.908 9.774-14.409 0 0 2.025-2.509 1.944-3.154l-4.225 1.805s1.445 3.047.298 5.58c0 0-.137-5.47-.949-5.351-.163.026-2.194 1.055-2.194 1.055s2.483 5.308.61 9.167c0 0 .71-6.541-1.386-8.783l-2.974 1.736s2.902 5.483.934 9.958c0 0 .506-6.863-1.561-9.536l-2.694 2.102s2.727 5.406 1.065 9.117c0 0-.217-7.99-1.648-8.593 0 0-2.357 2.081-2.717 2.932 0 0 1.867 3.924.707 5.994 0 0-.71-5.323-1.293-5.352 0 0-2.349 3.526-2.593 5.946 0 0 .101-3.594 2.025-6.28 0 0-2.272.39-3.598 1.862 0 0 .366-2.492 4.178-2.709 0 0 1.941-2.676 2.459-2.84 0 0-3.788-.314-6.087.702 0 0 2.022-2.351 6.783-1.281l2.66-2.174s-4.989-.68-7.106.072c0 0 2.436-2.082 7.823-.565l2.896-1.73s-4.254-.916-6.788-.595c0 0 2.676-1.442 7.639.122l2.081-.931s-3.116-.613-4.029-.71c-.913-.099-.96-.349-.96-.349 1.974-.329 4-.103 5.854.652 0 0 4.401-1.624 4.324-1.9zM232.954 4.496s-11.299-.684-9.975 7.243c0 0-.265 1.403 1.002 2.04 0 0 .02-.595 1.162-.39.406.068.818.088 1.228.06.555-.038 1.082-.257 1.502-.622 0 0 3.181-1.311 4.418-6.509 0 0 .913-1.136.877-1.427l-1.909.815s.655 1.38.14 2.524c0 0-.062-2.474-.428-2.414-.074 0-.993.476-.993.476s1.124 2.399.276 4.144c0 0 .322-2.955-.627-3.969l-1.344.785s1.314 2.477.422 4.499c0 0 .23-3.102-.704-4.309l-1.216.96s1.23 2.445.481 4.119c0 0-.098-3.61-.746-3.88 0 0-1.065.94-1.228 1.326 0 0 .844 1.784.321 2.705 0 0-.321-2.405-.595-2.414 0 0-1.058 1.594-1.171 2.676.053-1.01.369-1.989.916-2.84-.613.116-1.178.409-1.627.842 0 0 .167-1.124 1.888-1.225 0 0 .892-1.207 1.112-1.282 0 0-1.712-.142-2.75.319 0 0 .913-1.065 3.066-.595l1.189-.981s-2.254-.298-3.211.032c0 0 1.1-.94 3.535-.255l1.308-.782s-1.92-.417-3.068-.265c0 0 1.21-.654 3.452.054l.936-.42s-1.409-.28-1.822-.32c-.414-.042-.434-.158-.434-.158.892-.149 1.809-.046 2.646.297 0 0 2.007-.735 1.971-.86z" opacity=".1"/>
                <ellipse cx="272.423" cy="191.473" fill="#FFA163" rx="11.956" ry="2.022"/>
                <path fill="#FFA163" d="M277.367 188.166c.546-.444.944-1.045 1.14-1.721.148-.681-.144-1.487-.798-1.752-.731-.28-1.513.23-2.105.74-.592.512-1.272 1.098-2.045.988.81-.736 1.175-1.843.963-2.917-.034-.219-.126-.424-.268-.595-.407-.434-1.141-.25-1.63.093-1.545 1.088-1.976 3.19-1.985 5.078-.155-.68-.024-1.392-.027-2.081-.003-.69-.196-1.487-.788-1.853-.365-.196-.775-.292-1.19-.28-.692-.026-1.468.045-1.941.554-.595.63-.437 1.689.074 2.379.512.69 1.294 1.132 2.013 1.611.576.343 1.067.812 1.436 1.37.045.079.08.162.107.248h4.36c.974-.497 1.877-1.123 2.684-1.862z"/>
            </g>
        </g>
    </g>
</svg>
