<svg xmlns="http://www.w3.org/2000/svg" width="367" height="264" viewBox="0 0 367 264">
    <g fill="none" fill-rule="evenodd">
        <g>
            <g>
                <path fill="#FFF" d="M362.662 215.695c-7.79 17.65-22.347 31.434-40.402 38.257-11.753 4.405-24.462 5.55-36.986 6.505-47.903 3.631-95.978 4.472-143.979 2.518-37.706-1.534-64.21-15.417-97.832-30.541-4.66-1.96-9.172-4.255-13.501-6.865C11.053 213.507 2.047 190.513.299 167.974c-.132-1.703-.213-3.4-.264-5.095-.17-6.806.213-13.847 2.68-20.241 9.19-23.883 43.43-31.804 50.011-56.531 3.401-12.804-1.85-26.9 2.373-39.447 3.93-11.658 15.074-19.213 26.004-24.851C126.78-1.773 181.837-6.494 230.878 8.93c31.8 9.992 63.688 32.017 69.396 64.842 3.262 18.765-2.35 39.359 6.31 56.325 9.359 18.354 32.594 26.805 47.396 40.343 6.045 5.52 10.68 11.893 12.377 20.123 1.741 8.429-.242 17.239-3.695 25.13z" transform="translate(-24.000000, -161.000000) translate(24.000000, 161.000000)"/>
                <g fill-rule="nonzero" transform="translate(-24.000000, -161.000000) translate(24.000000, 161.000000) translate(80.615565, 56.000000)">
                    <path fill="#F1F1F1" d="M186.977 131.34c1.796 3.174.273 13.896.273 13.896s-9.973-4.221-11.769-7.394c-1.79-3.174-.672-7.2 2.5-8.994 3.172-1.794 7.199-.679 8.996 2.492z"/>
                    <path fill="#FFF" d="M187.394 145.222l-.212.045c-2.04-9.695-9.166-16.269-9.238-16.334l.146-.16c.072.066 7.249 6.684 9.304 16.45z"/>
                    <path fill="#F1F1F1" d="M203.295 134.955c-2.437 4.42-16.177 10.41-16.177 10.41s-2.265-14.817.17-19.236c1.577-2.86 4.56-4.66 7.824-4.725 3.264-.064 6.315 1.618 8.003 4.413 1.687 2.795 1.756 6.278.18 9.138z"/>
                    <path fill="#FFF" d="M187.24 145.524l-.207-.217c9.942-9.442 12.516-22.611 12.54-22.743l.295.055c-.025.133-2.614 13.395-12.629 22.905z"/>
                    <path fill="#3F3D56" d="M48.143 101.48c-1.573-.005-3.138-.208-4.66-.603l-.3-.083-.278-.14C32.844 95.61 24.357 88.949 17.678 80.853 12.149 74.11 7.838 66.457 4.94 58.234 1.475 48.39-.193 38.003.018 27.568c.004-.219.008-.388.008-.505 0-5.072 2.815-9.522 7.172-11.338C10.533 14.335 40.812 1.899 43 1c4.12-2.064 8.515-.341 9.219-.04 1.578.645 29.569 12.094 35.618 14.974 6.233 2.969 7.897 8.302 7.897 10.985 0 12.147-2.104 23.5-6.253 33.741-3.35 8.29-8.1 15.945-14.04 22.628C63.978 96.187 52.513 100.76 52.402 100.8c-1.37.472-2.811.702-4.26.68zM45.447 94.8c.993.223 3.282.557 4.773.013 1.895-.69 11.491-5.667 20.458-15.758 12.39-13.942 18.676-31.468 18.685-52.093-.022-.417-.319-3.398-4.266-5.277-5.931-2.824-35.025-14.721-35.319-14.84l-.08-.035c-.61-.255-2.55-.794-3.888-.093l-.268.125c-.324.133-32.465 13.335-35.893 14.763-2.398.999-3.253 3.474-3.253 5.457 0 .145-.003.356-.009.629-.274 14.111 2.992 48.836 39.06 67.11z"/>
                    <path fill="#FFA163" d="M44.332 3.897S11.9 17.217 8.424 18.665c-3.475 1.448-5.213 4.923-5.213 8.398 0 3.475-2.606 48.82 41.121 70.744 0 0 3.969 1.098 6.98 0 3.01-1.098 41.236-19.632 41.236-70.888 0 0 0-5.213-6.081-8.109S50.984 3.897 50.984 3.897s-3.611-1.593-6.652 0z"/>
                    <path fill="#000" d="M47.807 14.322v71.062S15.084 69.633 15.374 28.222l32.433-13.9z" opacity=".1"/>
                    <path fill="#FFF" d="M48.234 65.395L37.81 51.992 43.872 47.277 48.808 53.623 65.482 36.022 71.057 41.305z"/>
                    <path fill="#CACACA" d="M204.519 146h-95.25c-.138 0-.25-.112-.25-.25s.112-.25.25-.25h95.25c.138 0 .25.112.25.25s-.112.25-.25.25z"/>
                    <path fill="#FFB8B8" d="M136.803 142.059L140.669 142.059 142.509 127.146 136.802 127.146z"/>
                    <path fill="#2F2E41" d="M135.816 140.797h7.615c2.68 0 4.852 2.172 4.853 4.852v.158h-12.467v-5.01z"/>
                    <path fill="#FFB8B8" d="M149.803 142.059L153.669 142.059 155.509 127.146 149.802 127.146z"/>
                    <path fill="#2F2E41" d="M148.816 140.797h7.615c2.68 0 4.852 2.172 4.853 4.852v.158h-12.467v-5.01zM142.88 89.687L143.807 137 136.305 136.535 131.1 106.399 129.456 85.852z"/>
                    <path fill="#2F2E41" d="M155.756 81.743L156.807 137.75 148.057 137.5 146.167 104.207 142.88 92.153 129.456 85.852 131.647 70.784 151.372 70.51z"/>
                    <circle cx="140.67" cy="24.898" r="6.71" fill="#FFB8B8"/>
                    <path fill="#CCC" d="M146.235 34.434L147.263 35.991 150.003 43.662 147.811 73.524 134.935 73.798 133.291 39.553 136.735 35.249z"/>
                    <path fill="#2F2E41" d="M128.086 40.375l-2.192-.274s-.548.274-.822 2.191c-.274 1.918-3.561 18.904-3.561 18.904l4.383 20.82 4.931-6.574-3.013-11.507 3.013-11.506-2.74-12.054zM156.03 40.101L157.674 40.101 161.783 62.291 157.948 79.551 154.112 73.25 155.208 66.401 154.66 60.374 152.742 56.812zM144.635 24.898l-1.22-.305s-.915-5.184-3.05-4.574c-2.135.61-7.624 1.22-7.624-1.22s5.184-4.575 8.234-4.27c3.05.305 6.945 1.317 7.93 5.795 1.578 7.178-3.257 8.991-3.257 8.991l.08-.261c.456-1.48.032-3.091-1.093-4.156z"/>
                    <path fill="#2F2E41" d="M126.168 40.1l8.767-3.56 2.055-1.507 6.164 27.259 2.876-28.081 11.37 5.89-3.836 18.63-.548 7.122 1.644 5.753s5.753 4.11 3.835 8.493c-1.917 4.383-4.109 4.657-4.109 4.657s-9.315-8.766-9.863-10.958c-.547-2.192-1.37-6.027-1.37-6.027s-4.657 17.533-10.136 17.26c-5.479-.275-5.479-6.028-5.479-6.028l1.37-6.027 2.191-6.301-1.095-10.41-3.836-16.164z"/>
                </g>
            </g>
        </g>
    </g>
</svg>
