<?xml version="1.0" encoding="UTF-8"?>
<svg width="128px" height="128px" viewBox="0 0 128 128" version="1.1" xmlns="http://www.w3.org/2000/svg" xmlns:xlink="http://www.w3.org/1999/xlink">
    <title>earn5</title>
    <defs>
        <linearGradient x1="34.785216%" y1="6.51388665e-14%" x2="88.8244777%" y2="58.0798609%" id="linearGradient-1">
            <stop stop-color="#FFF9F1" offset="0%"></stop>
            <stop stop-color="#FFF4EB" offset="100%"></stop>
        </linearGradient>
        <circle id="path-2" cx="64" cy="64" r="64"></circle>
    </defs>
    <g id="Symbols" stroke="none" stroke-width="1" fill="none" fill-rule="evenodd">
        <g id="Earning/Express-delivery" transform="translate(-16.000000, -26.000000)">
            <g id="earn5" transform="translate(16.000000, 26.000000)">
                <mask id="mask-3" fill="white">
                    <use xlink:href="#path-2"></use>
                </mask>
                <use id="Mask" fill="url(#linearGradient-1)" xlink:href="#path-2"></use>
                <g id="Group-39" mask="url(#mask-3)">
                    <g transform="translate(63.000000, 59.500000) scale(-1, 1) translate(-63.000000, -59.500000) translate(18.500000, 14.500000)">
                        <circle id="Oval" stroke="#E87722" stroke-width="1" fill="#FFFFFF" fill-rule="nonzero" cx="34.7788136" cy="32.6209354" r="32.6209354"></circle>
                        <g id="Group-38" stroke="none" stroke-width="1" fill="none" fill-rule="evenodd" transform="translate(0.000000, 64.456480)">
                            <path d="M0.613694465,14.4141609 C2.41573139,15.0475962 4.41768456,14.6949429 5.89480269,13.4838692 C7.74453573,11.9313395 8.32448136,9.37355718 8.79636489,7.00518347 L10.1920985,-1.07148333e-13 L7.26998373,2.01205789 C5.16857247,3.45901058 3.01982026,4.95232 1.56481034,7.0481605 C0.109800417,9.14400099 -0.525309594,12.005011 0.643744927,14.2728087" id="Path" fill="#E87722" fill-rule="nonzero"></path>
                            <path d="M0.863475627,22.8953941 C0.567718547,20.7410893 0.263603227,18.5591128 0.471061175,16.3817157 C0.655306458,14.4479537 1.24526657,12.5592113 2.44635261,11.0105709 C3.08389095,10.1901134 3.85965053,9.48714492 4.73875595,8.93326835 C4.96799712,8.7885714 5.17898737,9.15187062 4.95074442,9.29593615 C3.42963499,10.2572774 2.25311179,11.6768379 1.59080348,13.3499484 C0.859297908,15.2105289 0.741828939,17.2387167 0.867885754,19.2151898 C0.94411654,20.4104348 1.10567837,21.5978495 1.26848484,22.7837395 C1.29511591,22.8950206 1.23101535,23.0079164 1.12180823,23.0420707 C1.01005868,23.072183 0.89488095,23.0067872 0.863475627,22.8953941 L0.863475627,22.8953941 Z" id="Path" fill="#F2F2F2" fill-rule="nonzero"></path>
                            <path d="M20.4361629,19.9282414 C21.1395886,20.7591302 22.2255523,21.1628106 23.300911,20.9931414 C24.6579027,20.7629944 25.6803366,19.6725675 26.5950431,18.644119 L29.3005618,15.602172 L27.2838488,15.7491398 C25.8335472,15.8548302 24.346608,15.9696671 23.0270827,16.5807258 C21.7075575,17.1917846 20.5705905,18.4153986 20.4916856,19.8674041" id="Path" fill="#E87722" fill-rule="nonzero"></path>
                            <path d="M18.1142271,24.1702511 C18.5897969,23.0257812 19.0692337,21.8652964 19.7988786,20.8545248 C20.4468816,19.9568526 21.2813811,19.1982633 22.3183334,18.7830534 C22.8682948,18.5634284 23.4523492,18.4414121 24.0442399,18.4224898 C24.1986643,18.4174259 24.1976843,18.6568692 24.0439291,18.6619107 C23.0189276,18.6961127 22.0312671,19.054938 21.2233466,19.6866519 C20.3273643,20.3905921 19.6849825,21.3539401 19.1772272,22.3620586 C18.8701745,22.9717047 18.6073338,23.6020966 18.3455445,24.2320992 C18.3265604,24.2944903 18.2625003,24.331521 18.1989603,24.3168339 C18.135335,24.2994273 18.0975556,24.2340719 18.1142257,24.1702497 L18.1142271,24.1702511 Z" id="Path" fill="#F2F2F2" fill-rule="nonzero"></path>
                            <path d="M3.71215411,19.0832934 C4.48501594,20.2579341 5.81473294,20.9442317 7.21991829,20.8937315 C8.99561021,20.8094379 10.4759693,19.5701168 11.8085723,18.39353 L15.7501459,14.9134194 L13.1414833,14.7885792 C11.2654841,14.6988003 9.34108551,14.6150569 7.55426048,15.1935801 C5.76743544,15.7721032 4.11953219,17.1644026 3.79280062,19.0139102" id="Path" fill="#E87722" fill-rule="nonzero"></path>
                            <path d="M0.0276460609,24.1338024 C1.45116908,21.6149692 3.10233022,18.8155735 6.05268102,17.9208443 C6.87302539,17.6729041 7.73320799,17.5840873 8.58690629,17.6591768 C8.855966,17.6823768 8.78877948,18.0971233 8.52020838,18.0739666 C7.08922323,17.9551555 5.66099889,18.3330115 4.47598381,19.1439207 C3.33566511,19.920103 2.44780306,20.9992049 1.69632451,22.1435417 C1.23602071,22.844483 0.823710287,23.5751612 0.411321462,24.3048593 C0.279530083,24.5380542 -0.105683962,24.3697204 0.0276460609,24.1337996 L0.0276460609,24.1338024 Z" id="Path" fill="#F2F2F2" fill-rule="nonzero"></path>
                        </g>
                        <path d="M37.5682998,45.5967048 C40.3987792,44.0410446 43.921507,44.3532522 46.9711668,45.4168641 C50.0208267,46.480476 52.7844289,48.2229883 55.7459506,49.5118177 C64.7958101,53.4502426 75.7032765,52.8151844 84.2349349,47.8531187 C85.0418271,49.7300126 84.1762103,51.8768649 83.2253548,53.6850854 C82.2744993,55.4933058 81.1908038,57.4531534 81.5822257,59.4582909 C82.0831082,62.0241697 84.7733372,63.562559 85.863372,65.9387841 C86.8981221,68.1944826 86.3427276,70.8434748 85.548902,73.1947988 C84.7550765,75.5461228 83.7249297,77.9150621 83.8598194,80.3931052 C83.994709,82.8711482 85.7950501,85.4914914 88.2767598,85.4934514 C84.598944,86.0649072 80.8487768,86.6367606 77.1731954,86.0511154 C73.4976141,85.4654702 69.8413826,83.5215551 68.1347813,80.213928 C67.281769,78.5606724 66.9529402,76.6597959 65.9732985,75.0782826 C64.3046943,72.3845213 61.1023978,71.1177622 58.0809586,70.1630356 C55.0595194,69.2083091 51.8261113,68.2886255 49.6987783,65.9402164 C47.6718183,63.7026176 47.0298075,60.5856074 45.9558927,57.7638839 C44.147238,53.0403171 41.0058306,48.9436018 36.9132588,45.9713682" id="Path" stroke="none" fill="#E87722" fill-rule="nonzero"></path>
                        <path d="M40.8478743,33.8732013 C39.8542658,33.410971 36.7357604,37.0699381 36.6042434,37.5160819 C36.5030107,37.8594908 36.149866,38.0862147 35.8030578,38.2474237 C35.4562497,38.4086327 35.0768654,38.544165 34.826051,38.816057 C34.5752366,39.087949 34.5229297,39.5560244 34.8362517,39.7668789 C34.939478,39.8363461 35.0684973,39.8692918 35.1685862,39.9424957 C35.3434684,40.0845823 35.4089337,40.3219799 35.3315957,40.5336193 C35.2481764,40.7413523 35.1102953,40.9227533 34.9324666,41.0587267 C34.5767822,41.3654671 34.1067132,41.7165342 34.2171511,42.1519803 C34.3003128,42.3881684 34.4935325,42.5688907 34.734746,42.6360973 C34.9815769,42.7072875 35.2376821,42.7410892 35.494531,42.7363766 L45.9901013,43.0670045 C46.3365682,43.0930335 46.684952,43.0735736 47.0263648,43.0091212 C47.3618424,42.9479252 47.6567058,42.7498427 47.8401998,42.4624056 C48.0411881,42.0903757 47.9092357,41.632102 47.6610226,41.2847114 C47.4128095,40.9373208 47.0615254,40.6632868 46.7712621,40.3442918 C46.4809988,40.0252969 46.2435198,39.6270933 46.2946884,39.2148136 C46.335648,38.884778 46.5533011,38.5995366 46.7095497,38.299662 C46.8657984,37.9997874 46.9565546,37.6250569 46.7541914,37.3491845 C46.469034,36.9604424 45.7844018,36.9956044 45.4601567,36.6333678 C45.2154619,36.3600016 45.2627133,35.9664643 45.2383834,35.6139496 C45.1798617,34.7660069 44.592801,33.9651993 43.7571031,33.5933318 C42.8950132,33.2232583 41.9075293,33.2905109 41.1035748,33.7740504 L40.8478743,33.8732013 Z" id="Path" stroke="none" fill="#2F2E41" fill-rule="nonzero"></path>
                        <polygon id="Path" stroke="none" fill="#A0616A" fill-rule="nonzero" points="34.2154921 87.0963574 32.571705 86.6024232 33.6943971 80.0268547 36.1205267 80.7558556"></polygon>
                        <path d="M34.1560422,88.8157285 L28.855675,87.2232318 L28.875816,87.1561895 C29.0401813,86.6090231 29.4151817,86.1495643 29.9183168,85.8788946 C30.4214519,85.6082248 31.011505,85.5485173 31.5586639,85.7129077 L31.5587941,85.7129469 L34.7960621,86.6855968 L34.1560422,88.8157285 Z" id="Path" stroke="none" fill="#2F2E41" fill-rule="nonzero"></path>
                        <polygon id="Path" stroke="none" fill="#A0616A" fill-rule="nonzero" points="49.7275169 87.151939 48.0110677 87.151799 47.1945642 80.5312891 49.7277969 80.5314291"></polygon>
                        <path d="M50.1652086,88.8157285 L44.6307785,88.8155227 L44.6307785,88.7455207 C44.6307785,88.174201 44.8577271,87.6262796 45.2617143,87.2222987 C45.6657015,86.8183178 46.2136264,86.5913867 46.7849461,86.5913867 L46.7850861,86.5913867 L50.165315,86.5915267 L50.1652086,88.8157285 Z" id="Path" stroke="none" fill="#2F2E41" fill-rule="nonzero"></path>
                        <path d="M47.3448446,82.1445232 C47.0354835,82.1445232 46.7720008,81.9196375 46.7230307,81.6141768 L44.1744858,65.7160643 C44.139786,65.4996988 43.9656611,65.3326687 43.74804,65.3069944 C43.5304189,65.2813201 43.3222041,65.4032428 43.2381054,65.6055928 L36.6353243,81.5011067 C36.5077975,81.8054355 36.1676896,81.9605301 35.8542951,81.8572686 L33.4694415,81.0622264 C33.1616917,80.9606673 32.9817794,80.6415925 33.0541476,80.3257016 L38.4651515,56.3820079 C38.5191901,56.1467163 38.7022497,55.9625835 38.9372213,55.9071703 L46.1939822,54.2226168 C46.3744423,54.1816425 46.5638029,54.220946 46.7130498,54.3303541 C51.4914387,57.8022898 51.0877651,69.1457595 50.1972219,81.4628311 C50.1742042,81.7819979 49.915676,82.0332653 49.5959831,82.047184 L47.3724631,82.1439842 C47.3632341,82.1445232 47.354005,82.1445232 47.3448446,82.1445232 Z" id="Path" stroke="none" fill="#2F2E41" fill-rule="nonzero"></path>
                        <circle id="Oval" stroke="none" fill="#A0616A" fill-rule="nonzero" cx="41.2362146" cy="39.5470334" r="3.4386428"></circle>
                        <path d="M41.3846595,57.3691454 C40.5592569,57.3638745 39.7452803,57.1757455 39.0012759,56.8182898 L38.9757084,56.8063895 L38.9655567,56.7800015 L35.8813327,48.7891086 L35.822678,47.4006888 C35.7829322,46.4617837 36.1419627,45.5498332 36.8111166,44.8900185 C37.4802705,44.2302038 38.3971768,43.8840255 39.3354305,43.9369628 L42.609801,44.1214027 C44.3653415,44.2211842 45.740814,45.6686024 45.7510389,47.4269465 C45.8360801,47.5903312 46.4400532,48.8678678 45.2564047,50.0681544 C45.2121746,50.3414633 44.7981449,53.1828336 46.3605771,54.7453008 L46.4044992,54.7891878 L46.3661143,54.8379988 C46.3412314,54.8697153 44.3346224,57.3687352 41.3846595,57.3691454 Z" id="Path" stroke="none" fill="#3F3D56" fill-rule="nonzero"></path>
                        <path d="M45.9826685,57.9719593 C46.3743623,57.8299411 46.6830327,57.5217209 46.8256223,57.1302348 C46.968212,56.7387488 46.9300737,56.3042115 46.7214697,55.9435489 L49.9918053,52.1573728 L47.4137209,51.8217985 L44.7034028,55.4686623 C44.1076636,55.8680313 43.90478,56.6498609 44.2311531,57.2885168 C44.5575262,57.9271727 45.3099953,58.2207871 45.9826657,57.9719593 L45.9826685,57.9719593 Z" id="Path" stroke="none" fill="#A0616A" fill-rule="nonzero"></path>
                        <path d="M48.0273641,55.0496459 C47.9044992,55.0496459 47.7843343,55.0135959 47.6817292,54.9460091 L46.0642628,53.8851777 C45.78169,53.7005922 45.6952446,53.3258431 45.8684084,53.0361303 L47.0393698,51.0688275 C47.167502,50.8535556 47.197592,50.5938072 47.1220681,50.3549432 C47.0465443,50.1160792 46.8725975,49.9208429 46.6439985,49.8183621 L43.2800058,48.3101744 C42.4279593,47.9233787 41.9566597,46.998739 42.1442848,46.0820105 L42.1442848,46.0820105 C42.2717576,45.4735515 42.6757498,44.9593732 43.2367715,44.6915556 C43.7977932,44.4237379 44.4516314,44.4329345 45.0048987,44.7164254 L50.108346,47.3315198 C50.8050511,47.6885391 51.3112318,48.3318594 51.4943245,49.0930018 C51.6774172,49.8541443 51.5191837,50.6572894 51.0610635,51.2921017 L48.5381604,54.787953 C48.4199927,54.9523752 48.2298443,55.0497925 48.0273641,55.0496459 L48.0273641,55.0496459 Z" id="Path" stroke="none" fill="#3F3D56" fill-rule="nonzero"></path>
                        <path d="M37.7183841,39.0581575 C38.8043141,38.970956 39.7059133,37.8861279 39.5930001,36.8025683 C39.5666456,37.7271071 40.2374291,38.5245989 41.1528142,38.657025 C41.6509303,38.7119066 42.1970201,38.5612007 42.6305902,38.8124953 C43.1108039,39.0908233 43.2644696,39.7667319 43.7647501,40.0071258 C44.248121,40.2393924 44.862061,39.9226165 45.1008728,39.4424462 C45.3396847,38.9622758 45.2810762,38.3853879 45.12281,37.8729942 C44.6637103,36.3866366 43.4588522,35.2498545 41.9483337,34.8778796 C40.4378152,34.5059047 38.842864,34.9532158 37.7460671,36.0564239 C37.2894538,36.5157056 36.9269036,37.1010582 36.8681019,37.7460217 C36.8093003,38.3909852 37.1084888,39.0908093 37.6877078,39.380549 L37.7183841,39.0581575 Z" id="Path" stroke="none" fill="#2F2E41" fill-rule="nonzero"></path>
                        <path d="M41.4792203,38.4222517 C43.258234,38.4222517 45.0671252,38.3067525 45.6793435,37.1135497 C45.8653994,36.75093 45.6793435,35.6267174 45.6793435,35.2137054 C45.6793435,33.4416743 43.7988843,32.0051592 41.4792203,32.0051592 C39.1595563,32.0051592 37.279097,33.4416743 37.279097,35.2137054 C37.279097,35.8424499 34.7879984,36.6184651 35.1970964,37.1135497 C35.7406818,37.7713892 35.6639563,39.3234731 36.6651278,39.5431214 C37.0340461,39.6240588 41.0762342,38.4222517 41.4792203,38.4222517 Z" id="Oval" stroke="none" fill="#E87722" fill-rule="evenodd"></path>
                        <path d="M29.7184581,29.5330348 C30.0852111,29.7307352 30.345558,30.0807303 30.4294449,30.4888432 C30.5133317,30.8969561 30.4121413,31.3212644 30.153102,31.6475953 L32.8354207,35.8707926 L30.2359662,35.8262531 L28.0873148,31.8226619 C27.5562861,31.3405714 27.4697582,30.5374928 27.885905,29.9533486 C28.3020519,29.3692044 29.089336,29.1886334 29.7184539,29.5330362 L29.7184581,29.5330348 Z" id="Path" stroke="none" fill="#A0616A" fill-rule="nonzero"></path>
                        <path d="M31.8804757,32.5402903 L35.334876,40.7027609 L38.9565992,46.8439236 C39.2663429,47.3692057 39.3176656,48.0076478 39.0958093,48.5756638 C38.873953,49.1436799 38.4035019,49.578327 37.8197358,49.7546211 L37.8197358,49.7546211 C36.8755948,50.0348189 35.8681362,49.5849515 35.4465516,48.6949069 L28.4663308,33.77996 C28.3896258,33.6160406 28.3871183,33.4270507 28.4594475,33.2611539 C28.5317766,33.0952572 28.6719563,32.9684773 28.8442619,32.9131237 L31.1075584,32.1860829 C31.1504536,32.1722836 31.1946785,32.1630239 31.2395066,32.1584559 C31.5139256,32.1307419 31.7741816,32.2857801 31.8804757,32.5402903 L31.8804757,32.5402903 Z" id="Path" stroke="none" fill="#3F3D56" fill-rule="nonzero"></path>
                        <path d="M41.9819726,15.1501984 L41.9819726,26.6305276 C41.9819726,26.7078497 41.9192906,26.7705316 41.8419686,26.7705316 C41.7646465,26.7705316 41.7019646,26.7078497 41.7019646,26.6305276 L41.7019646,15.1501984 C41.7019646,15.0728763 41.7646465,15.0101944 41.8419686,15.0101944 C41.9192906,15.0101944 41.9819726,15.0728763 41.9819726,15.1501984 L41.9819726,15.1501984 Z" id="Path" stroke="none" fill="#E87722" fill-rule="nonzero"></path>
                        <path d="M54.1379079,24.8895735 L50.1779966,28.8494848 C50.123286,28.9039504 50.0348117,28.9038511 49.9802235,28.8492629 C49.9256353,28.7946747 49.925536,28.7062003 49.9800015,28.6514897 L53.9399129,24.6915784 C53.9752547,24.6560776 54.0268709,24.6421642 54.0752671,24.6550932 C54.1236634,24.6680221 54.1614642,24.705823 54.1743932,24.7542192 C54.1873221,24.8026155 54.1734088,24.8542316 54.1379079,24.8895735 L54.1379079,24.8895735 Z" id="Path" stroke="none" fill="#E87722" fill-rule="nonzero"></path>
                        <path d="M29.5460292,24.8895735 L33.5059433,28.8494848 C33.5606182,28.90416 33.6492639,28.9041603 33.7039391,28.8494855 C33.7586143,28.7948107 33.7586146,28.706165 33.7039398,28.6514897 L29.7440271,24.6915784 C29.7086852,24.6560776 29.6570691,24.6421642 29.6086728,24.6550932 C29.5602766,24.6680221 29.5224757,24.705823 29.5095468,24.7542192 C29.4966178,24.8026155 29.5105311,24.8542316 29.546032,24.8895735 L29.5460292,24.8895735 Z" id="Path" stroke="none" fill="#E87722" fill-rule="nonzero"></path>
                    </g>
                </g>
            </g>
        </g>
    </g>
</svg>