<svg width="18" height="26" viewBox="0 0 18 26" xmlns="http://www.w3.org/2000/svg">
    <path d="M14.422.254a.983.983 0 0 1 .951.95v5.803a8.751 8.751 0 0 1 0 11.986v5.802a.983.983 0 0 1-.951.951H3.578a.983.983 0 0 1-.951-.95v-5.803a8.751 8.751 0 0 1 0-11.986V1.205a.983.983 0 0 1 .951-.951zm-.951 20.26a8.688 8.688 0 0 1-8.942 0v3.33h8.942zM9 6.152A6.849 6.849 0 1 0 9 19.85 6.849 6.849 0 0 0 9 6.15zm.951 2.822v4.44l2.854 2.092-1.142 1.522-3.234-2.378a1.046 1.046 0 0 1-.38-.761V8.973H9.95zm3.52-6.817H4.529v3.33a8.688 8.688 0 0 1 8.942 0v-3.33z" fill="#E87722" fill-rule="nonzero"/>
</svg>
