<svg width="128" height="128" xmlns="http://www.w3.org/2000/svg" xmlns:xlink="http://www.w3.org/1999/xlink">
    <defs>
        <linearGradient x1="34.785%" y1="0%" x2="88.824%" y2="58.08%" id="b">
            <stop stop-color="#FFF9F1" offset="0%"/>
            <stop stop-color="#FFF4EB" offset="100%"/>
        </linearGradient>
        <circle id="a" cx="64" cy="64" r="64"/>
    </defs>
    <g fill="none" fill-rule="evenodd">
        <mask id="c" fill="#fff">
            <use xlink:href="#a"/>
        </mask>
        <use fill="url(#b)" xlink:href="#a"/>
        <g fill-rule="nonzero" mask="url(#c)">
            <g transform="translate(88.28 53.264)">
                <circle fill="#FFEBDC" cx="12.503" cy="12.503" r="12.503"/>
                <path d="m9.026 31.033 3.048 1.889V20.156l-3.417-2.117a1.325 1.325 0 0 1-.578-.77c.326-.062.664 0 .947.175l3.048 1.889v-4.95c0-.958.117-1.912.35-2.841.232.929.35 1.883.35 2.84v8.08l4.496-2.786a2.204 2.204 0 0 1 1.197-.33c-.182.381-.47.702-.829.925l-4.865 3.014v30.191h-.7V33.745l-3.416-2.117a1.325 1.325 0 0 1-.578-.77c.326-.062.664 0 .947.175z" fill="#FFE4D0"/>
            </g>
            <g transform="translate(69.429 54.418)">
                <circle fill="#FDD4B6" cx="12.503" cy="12.503" r="12.503"/>
                <path d="m15.981 30.366-3.048 1.899V19.432l3.416-2.129c.283-.175.49-.452.579-.773a1.32 1.32 0 0 0-.947.176l-3.048 1.898v-4.976c0-.963-.117-1.922-.35-2.856-.232.934-.35 1.893-.35 2.856v8.122l-4.496-2.8a2.195 2.195 0 0 0-1.197-.332c.182.383.47.706.829.93l4.865 3.03v29.36h.699V33.091l3.416-2.128c.283-.176.49-.452.579-.774a1.32 1.32 0 0 0-.947.176z" fill="#FBC9A2"/>
            </g>
            <g transform="translate(69.814 19.794)">
                <circle fill="#FFE0C9" cx="21.352" cy="21.352" r="21.352"/>
                <path d="M27.206 52.523 21.9 55.786V33.732l5.947-3.657c.492-.302.851-.777 1.007-1.33a2.322 2.322 0 0 0-1.648.303L21.9 32.311v-8.552c0-1.655-.204-3.303-.608-4.908a20.087 20.087 0 0 0-.61 4.908v13.958l-7.827-4.813a3.858 3.858 0 0 0-2.083-.57 3.817 3.817 0 0 0 1.442 1.597l8.469 5.207v47.809H21.9v-29.74l5.947-3.657c.492-.302.851-.777 1.007-1.33a2.322 2.322 0 0 0-1.648.303z" fill="#FFAF72"/>
            </g>
            <path d="M92.163 100.62c.872 1.542.133 6.749.133 6.749s-4.844-2.05-5.716-3.591a3.207 3.207 0 0 1 5.583-3.158z" fill="#FFBA86"/>
            <path d="M100.088 102.375c-1.184 2.147-7.856 5.056-7.856 5.056s-1.1-7.195.082-9.342a4.438 4.438 0 1 1 7.774 4.286z" fill="#E87722"/>
            <path d="m92.366 107.362-.103.022c-.991-4.708-4.452-7.901-4.487-7.933l.071-.078c.035.032 3.52 3.247 4.519 7.99z" fill="#FFF"/>
            <path d="m92.29 107.509-.1-.106c4.829-4.585 6.079-10.981 6.09-11.045l.144.027c-.012.064-1.27 6.505-6.134 11.124z" fill="#FFF"/>
            <path d="M73.63 105.213h3.698a2.357 2.357 0 0 1 2.357 2.356v.077H73.63v-2.433z" fill="#2F2E41"/>
            <path d="M33.708 84.367a7.578 7.578 0 0 1-1.878-.243l-.121-.033-.112-.057c-4.056-2.033-7.478-4.72-10.171-7.983a30.224 30.224 0 0 1-5.135-9.119 35.097 35.097 0 0 1-1.985-12.364l.003-.203c0-2.045 1.135-3.84 2.892-4.571 1.345-.56 13.552-5.575 14.434-5.937 1.661-.832 3.433-.137 3.717-.016.636.26 11.92 4.876 14.36 6.037 2.513 1.197 3.183 3.347 3.183 4.429 0 4.897-.848 9.474-2.52 13.603a31.499 31.499 0 0 1-5.661 9.123c-4.621 5.2-9.243 7.044-9.288 7.06a5.05 5.05 0 0 1-1.718.274zm-1.087-2.692c.401.09 1.324.224 1.925.005.764-.279 4.633-2.285 8.248-6.353 4.995-5.621 7.53-12.687 7.533-21.002-.009-.169-.129-1.37-1.72-2.128-2.391-1.139-14.12-5.935-14.24-5.983l-.032-.014c-.245-.103-1.028-.32-1.567-.037l-.108.05c-.13.054-13.089 5.376-14.471 5.952-.967.403-1.311 1.4-1.311 2.2l-.004.253c-.11 5.69 1.206 19.69 15.747 27.057z" fill="#FFD6BA"/>
            <path d="M32.172 45.025s-13.076 5.37-14.477 5.954c-1.4.584-2.101 1.985-2.101 3.386s-1.051 19.682 16.578 28.521c0 0 1.6.443 2.814 0 1.214-.442 16.625-7.914 16.625-28.58 0 0 0-2.1-2.452-3.268-2.451-1.168-14.305-6.013-14.305-6.013s-1.456-.642-2.682 0z" fill="#FFA163"/>
            <path d="M33.573 49.228v28.65s-13.193-6.35-13.076-23.046l13.076-5.604z" fill="#000" opacity=".1"/>
            <path fill="#FFF" d="m28.886 66.23 1.976-2.677 2.711 2.185 7.252-7.6 2.122 1.969-9.35 9.694z"/>
            <path fill="#FFB8B8" d="M67.796 105.826h1.877l.894-7.243h-2.772z"/>
            <path d="M70.567 105.213h-3.642c-1.282 0-2.321 1.055-2.321 2.356v.077h5.963v-2.433z" fill="#2F2E41"/>
            <path fill="#FFB8B8" d="M74.11 105.826h1.877l.893-7.243H74.11z"/>
            <path fill="#2F2E41" d="m70.747 80.391.45 22.978-3.643-.226-2.528-14.636-.798-9.978z"/>
            <path fill="#2F2E41" d="m77 76.533.511 27.2-4.25-.121-.917-16.169-1.597-5.854-6.52-3.06 1.065-7.318 9.58-.133z"/>
            <path d="M68.261 54.027c0 .58 3.247.207 3.566.103.1-.033-.94-2.177-.843-2.22a3.26 3.26 0 1 0-2.723-.047c.175.085 0 1.586 0 2.164z" fill="#FFB8B8"/>
            <path fill="#C1C0D7" d="m72.377 53.558.499.756 1.33 3.725-1.064 14.502-6.253.134-.799-16.632 1.673-2.09z"/>
            <path d="m63.562 56.442-1.064-.133s-.266.133-.4 1.065c-.132.931-1.729 9.18-1.729 9.18l2.129 10.112 2.395-3.193-1.464-5.588 1.464-5.588-1.33-5.855zM77.133 56.31h.799l1.996 10.776-1.863 8.383-1.863-3.06.532-3.327-.266-2.927-.931-1.73z" fill="#2F2E41"/>
            <path d="M70.148 48.926s.415-2.666-.622-2.37c-2.684 1.842-6.337-1.761-4.633-1.334 1.704.427 3.448-1.48 4.93-1.332 1.48.149 3.372.64 3.85 2.815.767 3.486-1.581 4.366-1.581 4.366l.039-.127a1.977 1.977 0 0 0-.531-2.018h-1.452z" fill="#F08155"/>
            <path d="m62.631 56.31 4.258-1.73.998-.732 2.993 13.238 1.397-13.637 5.522 2.86-1.863 9.048-.266 3.459.798 2.794s2.794 1.996 1.863 4.125c-.931 2.128-1.996 2.261-1.996 2.261s-4.524-4.257-4.79-5.322c-.266-1.064-.665-2.927-.665-2.927s-2.262 8.516-4.923 8.383c-2.66-.134-2.66-2.928-2.66-2.928l.665-2.927 1.064-3.06-.532-5.056-1.863-7.85z" fill="#2F2E41"/>
        </g>
    </g>
</svg>
