<svg width="128" height="128" xmlns="http://www.w3.org/2000/svg" xmlns:xlink="http://www.w3.org/1999/xlink">
    <defs>
        <linearGradient x1="34.785%" y1="0%" x2="88.824%" y2="58.08%" id="b">
            <stop stop-color="#FFF9F1" offset="0%"/>
            <stop stop-color="#FFF4EB" offset="100%"/>
        </linearGradient>
        <linearGradient x1="50.016%" y1="99.994%" x2="50.016%" y2=".007%" id="d">
            <stop stop-color="gray" stop-opacity=".25" offset="0%"/>
            <stop stop-color="gray" stop-opacity=".12" offset="54%"/>
            <stop stop-color="gray" stop-opacity=".1" offset="100%"/>
        </linearGradient>
        <circle id="a" cx="64" cy="64" r="64"/>
    </defs>
    <g fill="none" fill-rule="evenodd">
        <mask id="c" fill="#fff">
            <use xlink:href="#a"/>
        </mask>
        <use fill="url(#b)" xlink:href="#a"/>
        <g mask="url(#c)">
            <g transform="translate(21.5 31.5)" fill-rule="nonzero">
                <rect fill="#FFE3CD" x=".126" y="18.869" width="63.138" height="39.615" rx="5"/>
                <path fill="#FFC9A0" d="M.126 25.802h63.138v7.263H.126z"/>
                <path fill="#FFB57D" d="M21.825 38.517h38.092v3.521H21.825z"/>
                <ellipse fill="#FFA35F" cx="10.358" cy="50.782" rx="5.008" ry="5.062"/>
                <path d="M59.674 9.101c.08.258.252.478.482.617 1.039.693 3.297.546 3.568.546.058 0 .134.104.217.279.4.831 1.017 3.27 1.06 3.818.055.664.665 3.77 1.664 4.927.03.036.061.069.09.1.98.995 2.13-.1 2.13-.1l.165-.579a29.1 29.1 0 0 0-.227 1.265c-.15.92-.228 1.851-.234 2.784a10.21 10.21 0 0 0 .074 1.291c.051.41.076.824.075 1.238-.01 2.46-.63 5.517-.63 5.517l.024-.008c-.015.077-.024.115-.024.115l.036-.012-.05.349c-.21 1.542-.33 3.461-.388 4.57a9.25 9.25 0 0 0 .077 1.75l1.103 7.85v3.656a6.521 6.521 0 0 0 .199 1.642c.36 1.382.063 6.203-.103 8.49-.046.624-.083 1.06-.093 1.186v.038l.032-.013v.04a.633.633 0 0 1 .147-.043c-.438.685-1.23 1.819-1.839 2.01-.359.11-.678.324-.919.615l-.016.022-.022.032a.69.69 0 0 0-.132.35.39.39 0 0 1-.02-.068c-.047.255.104.488.58.601.277.053.56.076.842.069 1.65 0 4.578-.513 4.902-1.065v-1.904l.053.018v.017l.202.067.555-1.883c.666-.498.113-9.413 0-11.46-.102-1.868 1.04-9.294 1.243-10.602l-.027-.033.03-.19c.041.029.08.063.114.1.066.08.124.166.173.258.095.163.177.335.245.512 1.116 2.815 1.62 10.865 1.62 11.587v7.57c-.003.747.1 1.49.305 2.208.102.378.181.762.237 1.15a20.225 20.225 0 0 1 .116.89c0 .035.008.069.012.101.003.032 0 .03 0 .047.03.298.046.493.046.493a.115.115 0 0 1 .023-.044l.005.072a.154.154 0 0 1 .044-.071c.046-.046.096-.087.15-.123v.962l-.028-.021v.166c1.15.877 3.024 1.142 4.461 1.132.933 0 1.687-.114 1.95-.247.375-.186.17-.62-.172-.953-.265-.258-.61-.457-.827-.432-.364.04-1.609-1.384-2.26-2.165l.073-.033.104-.045V47.502s.167-4.984.665-9.912a17.713 17.713 0 0 0-.853-7.353l-.016-.047.152.024c.16.025.246.04.246.04s0-.04-.01-.114h.01s-.194-2.138-.197-4.823c0-3.043.255-6.754 1.307-8.854.606-1.209.808-2.17.791-2.93a3.088 3.088 0 0 0-.541-1.873 1.472 1.472 0 0 0-.623-.498l-.022-.013h-.01a1.534 1.534 0 0 0-.573-.114h-2.272c-.264 0-.522-.068-.75-.2l-.89-.51c-.297-.654-.34-1.465-.276-2.226 0-.06.011-.121.017-.18l.064-.069c.05-.054.096-.114.141-.166 0 .045-.004.09-.01.135-.011.072-.03.114-.06.124.485-.064 1.028-.162 1.326-.54.013-.016.024-.032.035-.048a2.46 2.46 0 0 0 .218-.457c.042-.109.098-.212.166-.306.075-.098.172-.178.252-.272l.014-.016c.286-.343.302-.834.305-1.282.006-1.087-.026-2.285-.746-3.1-.598-.679-1.552-.936-2.457-.966-.905-.03-1.808.135-2.712.14-.615 0-1.356-.01-1.695.504-.167.252-.187.582-.368.824-.104.14-.263.26-.272.433-.001.08.019.16.059.229v.008c.219.436.684.708 1.17.794a3.027 3.027 0 0 0-.671 2.111c.05.768.39 1.488.947 2.012l-.028.19.02.02c.064.058.131.113.2.166l.025.02v.114c0 .066 0 .133-.007.198-.006.066 0 .106-.006.158l-.015-.013-1.104-.932-1.776-1.66s-4.44-3.267-4.662-1.715c-.027.276.049.552.212.775.814 1.257 3.616 2.326 3.616 2.326s1.67 1.786 2.788 3.71c-.04.022-.079.043-.12.062-.995.468-2.446.27-2.446.27-1.676.264-1.828 2.12-1.819 2.871v.155l-2.224-5.279-.007-.016a1.102 1.102 0 0 0-.832-.66c-1.487-.253-5.204-.78-4.893.33zm9.314 51.317c.043-.01.086-.018.13-.024l-.013.021-.117.003z" fill="url(#d)"/>
                <path d="M80.098 59.318s2.107 2.677 2.594 2.622c.487-.055 1.62 1.037.973 1.371-.647.334-4.376.546-6.216-.874v-2.14l2.65-.979zM69.453 59.482s-1.243 2.239-2.106 2.513c-.864.274-1.621 1.257-.486 1.53 1.134.273 5.187-.328 5.565-.984v-2.896l-2.973-.163z" fill="#ACA9C9"/>
                <path d="m67.892 37.483 1.074 7.744v3.6a6.52 6.52 0 0 0 .195 1.62c.35 1.363.062 6.118-.101 8.374-.053.736-.094 1.207-.094 1.207.702-.328 3.674.71 3.674.71l.301-1.035.24-.822c.648-.492.113-9.285 0-11.31-.074-1.384.536-5.87.927-8.558l.26-1.739.055-.355c.119.098.218.219.291.355.093.162.173.33.239.505 1.087 2.778 1.582 10.718 1.582 11.425v7.467c-.002.737.098 1.47.297 2.179.134.517.232 1.042.293 1.573.077.593.113 1.07.113 1.07.054-.327 3.404-1.802 3.404-1.802V47.238s.162-4.913.649-9.778a17.624 17.624 0 0 0-1.007-7.749 10.77 10.77 0 0 0-.34-.825H68.91c-.186.036-.34.413-.478.985-.09.384-.17.855-.239 1.371-.204 1.52-.322 3.414-.379 4.508a9.222 9.222 0 0 0 .078 1.733z" fill="#FFC361"/>
                <g opacity=".1" fill="#000">
                    <path d="M80.448 59.726V47.273s.161-4.913.648-9.777c.487-4.865-1.356-8.575-1.356-8.575h.216s1.837 3.714 1.356 8.575c-.48 4.861-.648 9.777-.648 9.777v12.453s-3.35 1.475-3.405 1.803c0 0 0-.073-.017-.199.73-.513 3.206-1.604 3.206-1.604zM69.29 60.002a.666.666 0 0 0-.297.08v-.071c.099-.013.198-.016.297-.01zM72.992 58.908c.649-.491.113-9.285 0-11.31-.113-2.026 1.243-10.65 1.243-10.65.071.055.134.12.187.194-.2 1.288-1.312 8.615-1.213 10.456.113 2.02.649 10.814 0 11.31l-.54 1.856-.197-.066.52-1.79z"/>
                </g>
                <path d="m70.1 15.404-1.13 4.042s-1.188 1.142-2.16 0c-.972-1.142-1.571-4.205-1.63-4.861-.059-.656-.919-4.042-1.243-4.042-.325 0-3.566.218-3.945-1.143-.302-1.094 3.316-.57 4.765-.325.363.062.669.308.81.65l2.223 5.365s1.176-1.38 2.31.314zM77.395 6.01s-1.405 3.987.379 5.407c1.783 1.42-6.378 1.803-6.378 1.803l1.108-1.065s.783-3.14.243-5.763l4.648-.383z" fill="#F7C4A7"/>
                <path d="M75.666 11.417s1.432-.356 1.432-.737l1.269.737h3.188s2.324 1.31.379 5.244c-1.945 3.933-1.08 13.595-1.08 13.595S73.937 29 68.21 30.912c0 0 .865-4.315.54-6.773-.324-2.457.54-5.898.54-5.898l.486-2.076s-.027-1.942-2.026-.956c0 0-.297-2.813 1.756-3.141 0 0 2.374.328 3.08-.874 0 .005 1.568.933 3.08.223z" fill="#000" opacity=".1"/>
                <path d="M75.666 11.308s1.432-.355 1.432-.737l.93.54c.222.13.474.197.73.197h2.23c.473-.001.917.228 1.194.615.512.728.971 2.163-.248 4.63-1.945 3.932-1.08 13.595-1.08 13.595s-6.916-1.257-12.644.655c0 0 .865-4.315.54-6.772-.324-2.458.54-5.89.54-5.89l.486-2.077s-.027-1.942-2.026-.956c0 0-.29-2.735 1.672-3.126a.548.548 0 0 1 .166-.011c.419.044 2.373.187 3-.883-.002 0 1.566.93 3.078.22z" fill="#E14B5A"/>
                <path d="M81.123 16.278s-1.729 1.092-4.538 0c0 0-3.08-1.143-4.053-3.386-.973-2.244 4.916.382 4.916.382s1.243 0 1.62-.273c.378-.273 3.027 2.075 2.055 3.277z" fill="#000" opacity=".1"/>
                <path d="M81.123 16.06s-1.729 1.092-4.538 0c0 0-3.08-1.143-4.053-3.387-.973-2.243-3.242-4.7-3.242-4.7s-3.944-1.53-3.73-3.06c.216-1.528 4.54 1.694 4.54 1.694l1.729 1.638 5.62 4.807s1.242 0 1.62-.273c.377-.273 3.026 2.079 2.054 3.28z" fill="#F7C4A7"/>
                <path d="m72.695 6.556 4.646-.383a10.882 10.882 0 0 0-.485 2.224 2.946 2.946 0 0 1-4.16.114 5.396 5.396 0 0 0-.001-1.955z" fill="#000" opacity=".1"/>
                <ellipse fill="#F7C4A7" cx="74.775" cy="6.147" rx="2.971" ry="3.004"/>
                <path d="M76.406 6.799c-.174-.29.18-.668.063-.986-.107-.293-.534-.343-.678-.616-.113-.22 0-.491-.045-.734-.064-.315-.399-.51-.716-.526-.318-.016-.624.104-.926.207-.492.168-1.01.297-1.525.237-.515-.059-1.03-.342-1.259-.807a.46.46 0 0 1-.057-.222c.009-.171.165-.289.265-.426.177-.239.197-.564.357-.813.328-.508 1.048-.495 1.647-.497.882 0 1.759-.167 2.64-.138.882.03 1.808.283 2.393.952.7.806.732 1.985.726 3.059 0 .442-.018.923-.297 1.264-.081.1-.18.182-.259.284-.17.228-.214.52-.374.752-.282.413-.834.513-1.325.58.144-.02.024-.999 0-1.09-.095-.45-.198-.44-.63-.48z" fill="#000" opacity=".1"/>
                <path d="M76.406 6.69c-.174-.29.18-.668.063-.986-.107-.292-.534-.342-.678-.615-.113-.22 0-.492-.045-.735-.064-.314-.399-.51-.716-.525-.318-.016-.624.103-.926.206-.492.168-1.01.297-1.525.238-.515-.06-1.03-.343-1.259-.808a.46.46 0 0 1-.057-.221c.009-.172.165-.29.265-.427.177-.238.197-.564.357-.813.328-.507 1.048-.495 1.647-.497.882 0 1.759-.167 2.64-.137.882.03 1.808.282 2.393.952.7.805.732 1.984.726 3.058 0 .442-.018.923-.297 1.265-.081.1-.18.181-.259.283-.17.229-.214.521-.374.753-.282.412-.834.513-1.325.58.144-.02.024-1 0-1.09-.095-.455-.198-.442-.63-.48z" fill="#F7945B"/>
                <path d="M81.096 16.415s-1.459-3.824-2.593-3.932c-1.135-.109 2.16 0 2.16 0l1.081 1.966-.648 1.966z" fill="#000" opacity=".1"/>
                <path d="M81.205 16.415s-1.46-3.824-2.594-3.932c-1.135-.109 2.161 0 2.161 0l1.08 1.966-.647 1.966z" fill="#E14B5A"/>
                <path d="M77.12 60.432c.077.593.113 1.07.113 1.07.055-.327 3.405-1.802 3.405-1.802v-.888a1.474 1.474 0 0 0-.256.013c-.65.088-1.252.406-1.808.747-.47.311-.955.598-1.454.86z" fill="#618FD8"/>
                <path d="M77.12 60.432c.077.593.113 1.07.113 1.07.055-.327 3.405-1.802 3.405-1.802v-.888a1.474 1.474 0 0 0-.256.013c-.65.088-1.252.406-1.808.747-.47.311-.955.598-1.454.86z" fill="#000" opacity=".3"/>
                <path d="M68.966 60.028c.702-.328 3.674.71 3.674.71l.301-1.035a15.957 15.957 0 0 1-1.54-.396 5.09 5.09 0 0 1-.692-.258 4.61 4.61 0 0 0-.461-.218c-.388-.134-.791-.077-1.19-.01-.051.736-.092 1.207-.092 1.207z" fill="#618FD8"/>
                <path d="M68.966 60.028c.702-.328 3.674.71 3.674.71l.301-1.035a15.957 15.957 0 0 1-1.54-.396 5.09 5.09 0 0 1-.692-.258 4.61 4.61 0 0 0-.461-.218c-.388-.134-.791-.077-1.19-.01-.051.736-.092 1.207-.092 1.207z" fill="#000" opacity=".3"/>
                <path d="M83.636 63.14c.091-.039.16-.119.185-.216a.322.322 0 0 1-.185.38c-.649.328-4.376.546-6.216-.874v-.163c1.84 1.42 5.567 1.202 6.216.874zM66.832 63.359c1.13.273 5.188-.328 5.565-.984v.164c-.378.656-4.43 1.256-5.565.983-.463-.114-.611-.342-.565-.593.036.186.206.339.565.43z" fill="#FFF" opacity=".4"/>
                <path d="M73.424 23.57s-1.19-.382-1.514 0c-.324.383-3.096 1.28-3.096 1.28" fill="#000" opacity=".1"/>
                <path fill="#FF9342" d="M59.975 7.212h5.781v1.966h-5.781z"/>
                <path fill="#FFF" d="M65.752 8.713H59.97v-1h5.78z"/>
                <path fill="#FFF" d="M65.752 9.204H59.97v-1h5.78zM65.752 7.73H59.97v-1h5.78z"/>
                <path fill="#FFF" d="M65.752 8.221H59.97v-1h5.78z"/>
                <path fill="#FFAE5F" d="m61.31 13.62-2.072-.389.75-4.08 2.071.388z"/>
                <circle fill="#FFF" transform="rotate(-79.48 60.678 11.398)" cx="60.678" cy="11.398" r="1"/>
                <path fill="#FFAE5F" d="m61.664 22.234-2.071-.39.75-4.08 2.07.389z"/>
                <circle fill="#FFF" transform="rotate(-79.48 61.03 20.01)" cx="61.031" cy="20.011" r="1"/>
                <path fill="#FFAE5F" d="M51.099 2.546 52.1.673l3.611 1.975-1.002 1.873z"/>
                <circle fill="#FFF" transform="rotate(-61.39 53.757 2.678)" cx="53.757" cy="2.678" r="1"/>
                <path fill="#F68F2A" d="m43.17 39.508 1.002-1.873 3.611 1.975-1.002 1.873z"/>
                <circle fill="#FFF" transform="rotate(-61.58 45.465 39.584)" cx="45.465" cy="39.584" r="1"/>
                <path fill="#FFAE5F" d="m38.318 9.006 1.003-1.873 3.61 1.975-1.002 1.873z"/>
                <circle fill="#FFF" transform="rotate(-61.58 40.612 9.08)" cx="40.612" cy="9.08" r="1"/>
                <path fill="#FFAE5F" d="M44.398 2.546 45.401.673l3.611 1.975-1.002 1.873z"/>
                <circle fill="#FFF" transform="rotate(-61.58 46.693 2.62)" cx="46.693" cy="2.62" r="1"/>
                <path fill="#FFAE5F" d="m49.377 8.527 2.095-.232.446 4.126-2.094.232z"/>
                <circle fill="#FFF" transform="rotate(-6.24 50.62 10.477)" cx="50.62" cy="10.477" r="1"/>
                <path fill="#FFAE5F" d="m63.735 31.12 2.095-.232.446 4.126-2.094.232z"/>
                <circle fill="#FFF" transform="rotate(-6.24 64.979 33.07)" cx="64.979" cy="33.071" r="1"/>
                <path fill="#FFAE5F" d="m42.269 18.933 1.002-1.873 3.611 1.975-1.002 1.873z"/>
                <circle fill="#FFF" transform="rotate(-61.58 44.562 19.009)" cx="44.562" cy="19.009" r="1"/>
                <path fill="#FFAE5F" d="m33.156 16.302 1.003-1.873 3.611 1.975-1.003 1.873z"/>
                <circle fill="#FFF" transform="rotate(-61.39 35.75 16.499)" cx="35.75" cy="16.499" r="1"/>
                <path fill="#E87722" d="m30.238 60.596 1.002-1.873 3.611 1.976-1.002 1.872z"/>
                <circle fill="#FFF" transform="rotate(-61.58 32.532 60.671)" cx="32.532" cy="60.671" r="1"/>
                <path fill="#F18E2E" d="m28.229 61.539.384-2.094 4.037.757-.384 2.094z"/>
                <circle fill="#FFF" transform="rotate(-79.49 30.435 60.897)" cx="30.435" cy="60.897" r="1"/>
                <path fill="#FF9B50" d="m28.607 62.795.384-2.094 4.037.757-.384 2.094z"/>
                <circle fill="#FFF" transform="rotate(-79.49 30.812 62.153)" cx="30.812" cy="62.153" r="1"/>
                <path fill="#FFAE5F" d="m34.497 65.98 1.003-1.874 3.611 1.976-1.003 1.873z"/>
                <circle fill="#FFF" transform="rotate(-61.58 36.792 66.054)" cx="36.792" cy="66.054" r="1"/>
                <path fill="#F18E2E" d="m32.49 66.92.383-2.093 4.037.757-.384 2.094z"/>
                <circle fill="#FFF" transform="rotate(-79.49 34.695 66.279)" cx="34.695" cy="66.279" r="1"/>
                <path fill="#FFAE5F" d="m32.867 68.178.384-2.094 4.038.757-.385 2.094z"/>
                <circle fill="#FFF" transform="rotate(-79.49 35.074 67.536)" cx="35.074" cy="67.536" r="1"/>
                <path fill="#FFAE5F" d="m40.888 62.51 1.003-1.873 3.611 1.976-1.003 1.872z"/>
                <circle fill="#FFF" transform="rotate(-61.58 43.181 62.585)" cx="43.181" cy="62.585" r="1"/>
                <path fill="#F18E2E" d="m38.88 63.452.384-2.094 4.037.757-.384 2.094z"/>
                <circle fill="#FFF" transform="rotate(-79.49 41.085 62.81)" cx="41.085" cy="62.81" r="1"/>
                <path fill="#FFAE5F" d="m39.258 64.709.384-2.094 4.037.757-.384 2.094z"/>
                <circle fill="#FFF" transform="rotate(-79.49 41.464 64.067)" cx="41.464" cy="64.067" r="1"/>
            </g>
        </g>
    </g>
</svg>
