<?xml version="1.0" encoding="UTF-8"?>
<svg width="125px" height="124px" viewBox="0 0 125 124" version="1.1" xmlns="http://www.w3.org/2000/svg" xmlns:xlink="http://www.w3.org/1999/xlink">
    <title>Purchase Recreations</title>
    <defs>
        <linearGradient x1="49.9985663%" y1="99.9895513%" x2="49.9985663%" y2="0.0329517205%" id="linearGradient-1">
            <stop stop-color="#808080" stop-opacity="0.25" offset="0%"></stop>
            <stop stop-color="#808080" stop-opacity="0.12" offset="54%"></stop>
            <stop stop-color="#808080" stop-opacity="0.1" offset="100%"></stop>
        </linearGradient>
    </defs>
    <g id="Page-1" stroke="none" stroke-width="1" fill="none" fill-rule="evenodd">
        <g id="04_Rewards_earnpoints-Copy-2" transform="translate(-28.000000, -688.000000)">
            <g id="Group-3" transform="translate(12.000000, 84.000000)">
                <g id="Bast-place-Copy-4" transform="translate(0.000000, 594.000000)">
                    <g id="Purchase-Recreations" transform="translate(16.635575, 10.000000)">
                        <rect id="Rectangle" fill="#FFFFFF" x="0" y="0" width="124" height="124"></rect>
                        <g id="Group-10" transform="translate(0.000000, 8.000000)" fill-rule="nonzero">
                            <path d="M100.63479,98.1891009 C85.6429167,96.0571187 70.8309121,104.444761 55.7524984,103.981447 C47.7771951,103.735946 39.9902448,101.028052 32.2949257,98.3256954 C26.3762325,96.2527811 19.8076371,93.5264281 16.9857372,86.5379566 C15.7249606,83.4147411 15.3329829,79.6417786 13.4596351,77.0741706 C12.0240805,75.1046251 9.94880478,74.1724598 8.16539123,72.7456007 C0.397106521,66.523166 -0.493751818,52.6052909 0.183300519,40.8858493 C0.558309458,34.384688 1.19293997,27.7284734 3.55668409,21.9582774 C5.92042822,16.1880814 10.3679324,11.4165022 15.4449765,11.2282233 C18.6554603,11.1082416 21.7234067,12.7732181 24.84735,13.7035377 C27.9712932,14.6338572 31.6348421,14.6615452 33.9799206,11.8576656 C35.9041746,9.55586318 36.5082614,5.85858149 38.4325154,3.55124144 C39.9308543,1.75889969 42.0214018,1.06300593 44.0423776,0.636609493 C54.9108493,-1.65596358 66.488614,2.32373654 75.0120072,11.2799077 C77.0838892,13.4561908 79.0573525,15.9665768 81.5890871,17.0833294 C84.9607738,18.5692563 88.646382,17.3103716 92.2115122,17.3417514 C104.788735,17.4525038 113.318916,32.2600893 122.18338,41.5946642 C127.365631,47.0529078 121.845703,101.20341 100.63479,98.1891009 Z" id="Path" fill="#E87722" opacity="0.1"></path>
                            <g id="Group-4" transform="translate(60.444095, 59.500000) scale(-1, 1) translate(-60.444095, -59.500000) translate(18.944095, 11.000000)">
                                <path d="M78.4904068,89.3078502 C76.8519955,89.0737915 73.8232752,86.4991451 73.8232752,86.4991451 C73.3767257,85.8315742 72.615222,85.4441736 71.8127105,85.4763084 L68.8050555,81.2468667 C67.6391616,79.2434171 66.2561151,77.374499 64.6809402,75.6739277 C64.4234756,75.388376 64.1574288,75.1114065 63.8827998,74.8430191 C63.0715663,74.0365019 62.1998907,73.2931519 61.2753853,72.6194609 C60.6671042,72.1659175 60.0929007,71.6683788 59.557394,71.1308473 C59.0623108,70.6378167 58.5935437,70.1190479 58.1530415,69.5766971 L56.0605562,66.6462815 L55.920121,66.4473316 C55.9735487,66.161137 55.9877227,65.8689961 55.9622515,65.5789736 C55.9622515,65.5110965 55.948208,65.4432195 55.9388457,65.3753425 L47.3020776,55.2218736 L44.7274313,49.9695952 L44.7274313,49.9695952 L44.7274313,49.9695952 C44.6970036,49.9953416 44.5940178,50.0819434 44.4325172,50.2036539 L44.3857055,50.0702404 L44.3857055,50.0093852 L44.3857055,49.5670141 C44.372621,45.9314865 45.2749466,42.3511617 47.0095041,39.1560807 C47.5920509,38.0834759 47.8970029,36.8821741 47.8965868,35.6615834 C47.8965868,35.5632788 47.8965868,35.4649741 47.8965868,35.3666694 L47.8521157,35.3175171 C47.7701951,35.2262342 47.5829481,35.0155813 47.3418676,34.7042831 C47.3722952,34.6434279 47.4050634,34.580232 47.4354911,34.5217173 C48.5074802,32.5509426 49.9984345,32.213898 49.9984345,32.213898 C55.0166542,31.5117217 58.6352025,28.1295727 58.6352025,28.1295727 C62.3801426,26.0230439 61.6779664,24.1505738 61.6779664,24.1505738 L58.2934767,15.9819233 L56.1869479,11.6635392 L55.6041416,9.67872099 C55.4132444,8.35852848 55.1435958,7.05092848 54.7966389,5.76291801 C54.2980938,3.86236092 51.8147304,3.32168519 50.6163496,4.87817592 C50.5882625,4.91562532 50.5578349,4.95541531 50.5297478,4.99754588 C49.4302852,6.58651905 49.7202504,8.75111978 51.1991559,9.99470031 C52.3694496,10.9917906 53.3876052,12.0146274 53.3876052,12.0146274 C55.494134,12.5974337 56.8984866,23.4507382 56.8984866,23.4507382 L55.494134,24.3869732 C53.3168053,24.4999117 51.2859369,25.5183163 49.893108,27.1956783 L45.4881222,27.1956783 C45.4881222,27.1769536 45.4998252,27.1582289 45.5068469,27.1371636 L44.7765836,26.9733224 L42.6700548,26.5052049 L41.8906392,26.3296609 L41.8789362,26.3788132 L41.658921,26.3296609 L41.658921,26.3600885 C41.3630887,25.8913422 41.0972885,25.4043022 40.8631212,24.9019025 C40.9259602,24.9114002 40.9898698,24.9114002 41.0527088,24.9019025 C41.0690929,24.8667936 41.0831365,24.8316848 41.0948394,24.796576 L41.1697382,24.796576 C41.4950799,24.0943997 41.2142094,23.2166794 41.5278481,22.5004596 C41.6971842,22.1983043 41.884779,21.9067507 42.0895891,21.6274205 C42.5577066,20.8199178 42.5015325,19.8087839 42.3634378,18.8819113 C42.2136402,17.884821 41.9842627,16.8666654 41.4108187,16.0357568 C40.8373748,15.2048482 39.8473062,14.5962954 38.8361724,14.7273683 C38.0403726,14.8326948 37.3428775,15.3780517 36.5423966,15.4295446 C35.9759744,15.4623128 35.4329581,15.239957 34.9039853,15.0667535 C34.3247695,14.8801898 33.730331,14.7446985 33.1274794,14.6618319 C32.7272389,14.6056578 32.2567808,14.598636 31.9876132,14.8958907 L31.9642073,14.9263183 C31.9303772,14.9522147 31.8990339,14.9812073 31.8705838,15.01292 C31.7649048,15.1448658 31.685456,15.2958185 31.6365251,15.4576317 L31.1192552,16.8830495 C31.0651189,16.9814196 31.0651189,17.1006587 31.1192552,17.1990288 C31.166067,17.2575435 31.2479875,17.2739276 31.3111834,17.3137176 C31.7207862,17.578204 31.1707482,18.2312279 31.5101334,18.5518884 C31.7137645,18.7438166 32.1491138,18.7648819 32.5797819,18.7625413 C31.7846339,20.015633 31.650568,21.5777666 32.2205743,22.948019 C32.7905807,24.3182714 33.9930236,25.3244355 35.4423204,25.6438687 C35.4423204,25.7211081 35.4423204,25.7983475 35.4423204,25.8779275 C35.4534869,26.4951853 35.4048882,27.1120751 35.297204,27.7199699 L35.297204,27.7199699 L34.9554782,27.7503975 C34.3867155,27.7808251 33.237487,27.8252963 32.2333749,27.7784846 C31.8971499,27.7651476 31.5619276,27.73311 31.2292628,27.6825205 C31.2292628,27.6825205 31.1894729,28.1085074 31.1122335,28.7615313 L30.8781747,28.8270678 C28.6953642,29.4542639 26.7997799,30.8233891 25.5182292,32.6983996 L20.2659507,35.7411634 C20.2659507,35.7411634 17.9253632,35.1583571 11.1634057,40.9934419 L6.2622154,43.5680882 C6.2622154,43.5680882 -1.22532419,45.7729217 0.174347164,47.9871175 C1.57401852,50.2013133 8.57705649,45.3048042 8.57705649,45.3048042 L11.3857616,44.0221622 L19.9055003,40.2772221 C19.9055003,40.2772221 22.7142053,38.4047521 24.8066906,37.7025758 C26.8991759,37.0003995 29.0080453,34.8938707 29.0080453,34.8938707 L29.5346775,34.8657837 L29.7687362,34.8517401 C29.7338545,34.9146354 29.695568,34.9755812 29.6540474,35.034306 C29.6329821,35.0670742 29.6095763,35.0975018 29.5861704,35.1255889 L29.5861704,53.9134852 L29.548721,54.4354362 L29.5651051,54.4354362 L29.5651051,54.4354362 L29.0033641,62.0774546 C29.0033641,62.0774546 29.1203935,65.5883359 28.6522759,67.5614512 C28.1841584,69.5345665 29.0033641,77.5978907 29.0033641,77.5978907 C29.0033641,77.5978907 29.3099811,77.5978907 29.8085262,77.5627819 L29.7944827,77.7968406 L29.588511,81.0994097 C29.588511,81.0994097 29.1952923,82.3726893 31.460981,83.0350756 C31.9798641,83.1854408 32.4736215,83.411812 32.9261888,83.7068242 L35.5382845,85.4177937 L38.2229385,87.056205 L38.7659548,88.1960711 L38.7917012,88.2522452 L38.2205979,87.9034977 C38.2205979,87.9034977 37.7524804,89.0737915 39.2715217,90.5881516 C40.4245186,91.6197279 41.0303833,93.1300622 40.909933,94.6724769 C40.909933,94.6724769 41.1439917,97.481182 42.5483443,96.7790057 C42.5483443,96.7790057 44.7648807,96.3108882 44.6548731,92.4606216 C44.6548731,92.4606216 43.770131,89.2540167 44.7999895,87.8988165 C44.8280765,87.8613671 44.857724,87.8254781 44.8889318,87.7911495 C46.0592256,86.5085075 44.5378437,84.5143269 44.5378437,84.5143269 C44.5378437,84.5143269 41.8344651,83.4236131 41.6823269,85.2352279 L41.5699787,85.1860755 C41.0831365,84.9520168 40.2100973,84.383254 39.2855652,82.9976262 C39.2855652,82.9976262 37.7688645,79.1473596 35.4352987,78.7962715 L35.8261768,76.5797351 L35.870648,76.324611 C36.6734695,75.9454359 37.3241528,75.4562531 37.6518351,74.826635 L37.6518351,74.826635 L37.6658786,74.798548 L37.6658786,74.786845 L37.6658786,74.7704609 L37.6658786,74.7540768 L37.6658786,74.7376927 L37.6775816,74.7142868 L37.6775816,74.6955621 L37.6892845,74.6698156 L37.703328,74.6417286 L37.703328,74.6183227 L37.7197121,74.5855545 L37.7641833,74.5621486 L37.7805674,74.5270398 L37.7946109,74.4966122 L37.8133356,74.4568222 L37.8297198,74.4240539 L37.8484445,74.384264 L37.8695097,74.3421334 L37.8858939,74.3093652 L37.9092997,74.2602128 L37.9256838,74.2274446 L38.0263291,74.0097699 L38.0403726,73.9816829 L38.0684597,73.9208276 L38.089525,73.8763565 L38.1199526,73.8084794 L38.1386773,73.7686894 L38.1737861,73.6891095 L38.1878296,73.6563412 L38.225279,73.5744207 L38.2440037,73.5346307 L38.2814532,73.4503695 L38.2978373,73.4129201 L38.3376273,73.3239778 L38.3540114,73.288869 L38.3961419,73.1952455 L38.4101855,73.1601367 L38.452316,73.061832 L38.4663596,73.0290638 L38.5131713,72.9237373 L38.5131713,72.9050126 C39.2598187,71.1682967 40.1983944,68.6708897 40.1515826,67.1916384 C40.1577041,67.0739083 40.1577041,66.9559397 40.1515826,66.8382097 L40.1234956,66.8382097 L40.1234956,66.8148038 C40.1234956,66.7656515 40.1047709,66.7188397 40.0907273,66.6743686 L46.391589,68.0787211 L50.1365291,72.1630464 L50.1529132,72.1630464 L50.1529132,72.1630464 L50.1529132,72.1630464 L50.1529132,72.1630464 L50.1669568,72.1630464 L50.1833409,72.1630464 L50.2020656,72.1630464 L50.2207903,72.1630464 L50.2441961,72.1513434 L50.2652614,72.1513434 L50.2956891,72.1372999 L50.3190949,72.125597 L50.3518632,72.1092129 L50.3799502,72.0951693 L50.4197402,72.074104 L50.4454867,72.0600605 L50.4899578,72.0366546 L50.5180449,72.0202705 L50.5648566,71.9968647 L50.5976249,71.97814 L50.6491178,71.9500529 L50.681886,71.9336688 L50.7357195,71.9032411 L50.7731689,71.8821759 L50.8316836,71.8494076 L50.8714736,71.7534435 L50.9370101,71.7159941 L50.9721189,71.6972694 L51.0399959,71.65982 L51.0797859,71.6364142 L51.1500035,71.5966242 L51.1874529,71.5732183 L51.2623517,71.5287471 L51.3021417,71.5053413 L51.3793811,71.4585295 L51.4168305,71.4351236 L51.4987511,71.3859713 L51.5127946,71.3859713 L51.6438675,71.5381095 L53.2822788,73.4386666 C54.9206901,74.1408429 58.6515866,77.6400212 58.6515866,77.6400212 C59.0822548,78.6722204 60.9055725,80.1467905 61.8371263,80.853648 C62.1034669,81.050596 62.3861453,81.2244315 62.6820784,81.3732584 C63.1923265,81.6377448 63.9108869,82.2673628 64.568592,82.9040027 C65.4268269,83.7522454 66.3477213,84.5346535 67.3234635,85.2445902 C68.225824,85.9325946 69.0284791,86.7423389 69.7085223,87.6507142 L69.7085223,87.6507142 L69.7881022,87.7537001 C69.2310424,89.6261701 72.4189226,91.5290678 72.4189226,91.5290678 C73.5892164,91.295009 77.2030836,94.5718316 77.2030836,94.5718316 C77.2030836,94.5718316 80.5875732,97.2564855 81.9872446,94.3377729 C83.3869159,91.4190602 78.4904068,89.3078502 78.4904068,89.3078502 Z M72.3065744,86.1808252 L71.8384569,85.518439 L71.8384569,85.518439 C72.0970367,85.6402192 72.2722735,85.8892867 72.2995527,86.1738035 L72.3065744,86.1808252 Z" id="Shape" fill="url(#linearGradient-1)"></path>
                                <path d="M43.2013682,28.8855825 C43.2013682,28.8855825 31.393104,35.7645693 33.9162574,31.8651504 C35.0075204,30.2227883 35.5784841,28.2896681 35.5546686,26.3179579 C35.5542116,25.6742375 35.4676217,25.0334724 35.297204,24.4127197 L40.2264814,22.1189438 C40.1410993,22.7941375 40.2017628,23.4797944 40.4043661,24.1295086 C41.0948394,26.5684008 43.2013682,28.8855825 43.2013682,28.8855825 Z" id="Path" fill="#DB8B8B"></path>
                                <path d="M40.3973443,24.1318491 C39.4370101,25.8474395 37.4694298,26.7353196 35.5476469,26.3202985 C35.5471898,25.6765781 35.4605999,25.035813 35.2901823,24.4150602 L40.2194596,22.1212844 C40.1340776,22.7964781 40.194741,23.482135 40.3973443,24.1318491 L40.3973443,24.1318491 Z" id="Path" fill="#000000" opacity="0.1"></path>
                                <circle id="Oval" fill="#DB8B8B" cx="36.4955848" cy="21.721044" r="4.47052223"></circle>
                                <path d="M33.6377274,19.343007 C34.0697702,19.4314907 34.4511474,19.6829482 34.7026948,20.0451833 C34.9976088,20.5133008 34.990587,21.1546218 35.404871,21.5197534 C35.7174817,21.7508205 36.1082817,21.8499913 36.4932443,21.7959428 C36.8737062,21.7406206 37.2590956,21.7272772 37.6424727,21.7561528 C38.2627285,21.856798 38.7706359,22.3155532 39.1147023,22.8398448 C39.4275604,23.3835333 39.7058612,23.9463887 39.9479515,24.5250679 C40.0469214,24.7546106 40.1882626,24.9634463 40.3645761,25.1406424 C40.5452092,25.3188149 40.7997947,25.4004908 41.0503682,25.3606576 C41.3710287,24.6584813 41.0948394,23.8065075 41.4014564,23.1066718 C41.5672556,22.8102271 41.7509411,22.5241467 41.9514944,22.2500168 C42.4196119,21.4565576 42.3564161,20.4641484 42.2183214,19.5536599 C42.0708644,18.5729537 41.846168,17.5735228 41.2820864,16.7589983 C40.7180048,15.9444739 39.746661,15.3546458 38.7636142,15.4740158 C37.9818579,15.5770016 37.2960658,16.1129962 36.5096284,16.1598079 C35.9549091,16.1925762 35.4189146,15.9749015 34.8899418,15.8040386 C34.3214136,15.620801 33.7379427,15.48766 33.1462041,15.4061387 C32.7529853,15.3523052 32.2918896,15.3429429 32.0274032,15.6401975 C31.9222882,15.7690288 31.8428358,15.9168103 31.7933444,16.0755468 L31.2854369,17.4798993 C31.2321353,17.5768205 31.2321353,17.6942763 31.2854369,17.7911975 C31.3322487,17.8473716 31.4118287,17.8637557 31.472684,17.9058862 C31.875265,18.1656915 31.3345893,18.8070125 31.6669527,19.1229918 C31.9993162,19.4389711 33.1719505,19.2329994 33.6377274,19.343007 Z" id="Path" fill="#000000" opacity="0.1"></path>
                                <path d="M33.7524162,19.2283182 C34.184459,19.3168019 34.5658362,19.5682594 34.8173836,19.9304945 C35.1122976,20.398612 35.1052758,21.039933 35.5195598,21.4050646 C35.8321705,21.6361317 36.2229704,21.7353025 36.607933,21.681254 C36.988395,21.6259318 37.3737844,21.6125884 37.7571615,21.641464 C38.3774172,21.7421093 38.8853247,22.2008644 39.2293911,22.725156 C39.5422492,23.2688445 39.82055,23.8316999 40.0626403,24.4103791 C40.1616101,24.6399218 40.3029514,24.8487575 40.4792649,25.0259536 C40.659898,25.2041261 40.9144835,25.285802 41.165057,25.2459688 C41.4857175,24.5437926 41.2095282,23.6918187 41.5161452,22.991983 C41.6819444,22.6955383 41.8656299,22.4094579 42.0661832,22.135328 C42.5343007,21.3418688 42.4711049,20.3494597 42.3330102,19.4389711 C42.1855532,18.4582649 41.9608568,17.458834 41.3967752,16.6443096 C40.8326936,15.8297851 39.8613498,15.239957 38.878303,15.359327 C38.0965467,15.4623128 37.4107546,15.9983074 36.6243172,16.0451191 C36.0695979,16.0778874 35.5336034,15.8602127 35.0046306,15.6893498 C34.4361024,15.5061122 33.8526315,15.3729712 33.2608928,15.29145 C32.8676741,15.2376164 32.4065784,15.2282541 32.142092,15.5255087 C32.036977,15.65434 31.9575246,15.8021215 31.9080332,15.960858 L31.4001257,17.3652105 C31.3468241,17.4621317 31.3468241,17.5795875 31.4001257,17.6765087 C31.4469375,17.7326828 31.5265175,17.7490669 31.5873727,17.7911975 C31.9899538,18.0510027 31.4492781,18.6923237 31.7816415,19.008303 C32.1140049,19.3242823 33.2866393,19.1183106 33.7524162,19.2283182 Z" id="Path" fill="#472727"></path>
                                <path d="M58.3332667,28.5415161 C58.3332667,28.5415161 54.7802548,31.8651504 49.8509774,32.5532832 C49.8509774,32.5532832 48.3857696,32.8856466 47.3325052,34.8213125 C46.9487552,35.5488833 46.6765468,36.3300032 46.5250025,37.1384942 L41.2352746,28.1763844 L40.9075924,27.6216652 L49.7339481,27.6216652 C51.1039327,25.9770775 53.0989714,24.9799825 55.2366694,24.8714748 L56.6129349,23.9539645 C56.6129349,23.9539645 55.2366694,13.2925882 53.1746118,12.7191442 C53.1746118,12.7191442 52.1681591,11.7126916 51.0236118,10.734326 C49.5673567,9.51193345 49.282264,7.38134716 50.3659067,5.81909211 C50.3939937,5.77930213 50.4220808,5.73951214 50.4525084,5.70206274 C51.6228022,4.17365906 54.0687162,4.70497244 54.5602396,6.57276131 C54.9015708,7.84151262 55.1665325,9.12958596 55.3536988,10.4300496 L55.9271427,12.379759 L57.991541,16.6209037 L61.3151753,24.6444378 C61.3151753,24.6444378 62.0009674,26.4794585 58.3332667,28.5415161 Z" id="Path" fill="#DB8B8B"></path>
                                <path d="M31.9665479,29.0002713 L31.2784152,35.0857989 L29.7312868,35.1724006 L29.214017,35.2004877 C29.214017,35.2004877 27.1496187,37.2648859 25.0875611,37.9506781 C23.0255035,38.6364702 20.2729725,40.4738315 20.2729725,40.4738315 L11.905372,44.1345104 L9.15518161,45.3960871 C9.15518161,45.3960871 2.27619479,50.220038 0.899929306,48.0315887 C-0.476336176,45.8431393 6.86842757,43.6663929 6.86842757,43.6663929 L11.6830162,41.1432395 C18.3326254,35.4111406 20.6240606,35.9939469 20.6240606,35.9939469 L25.7733533,33.0143789 C27.0318055,31.1724877 28.8934462,29.8273716 31.0373347,29.2109241 C31.3414867,29.1180115 31.6520629,29.0476038 31.9665479,29.0002713 Z" id="Path" fill="#DB8B8B"></path>
                                <path d="M47.3325052,34.8213125 C46.9487552,35.5488833 46.6765468,36.3300032 46.5250025,37.1384942 L41.2352746,28.1763844 C41.3613707,28.0015361 41.4718058,27.8159111 41.5652975,27.6216652 C41.7006912,27.3470546 41.8073636,27.0591958 41.8836174,26.7626696 L42.6489895,26.935873 L44.7204095,27.4039905 L45.4389699,27.5654911 C45.4389699,27.5842158 45.4249264,27.6029405 45.4202452,27.6216652 C44.4559231,30.4537761 46.2745597,33.4193006 47.3325052,34.8213125 Z" id="Path" fill="#000000" opacity="0.1"></path>
                                <path d="M31.9665479,29.0002713 L31.2784152,35.0857989 L29.7312868,35.1724006 C30.3889919,34.0021069 30.8360441,30.9031689 31.0396753,29.2202865 C31.3428196,29.1243186 31.6526132,29.0507817 31.9665479,29.0002713 Z" id="Path" fill="#000000" opacity="0.1"></path>
                                <path d="M46.9158806,39.2590665 C45.1960974,42.4273625 44.3101266,45.9809106 44.3412343,49.5857388 L44.3412343,50.0351316 L44.3412343,50.0936463 C44.3412343,50.0936463 45.602811,53.5319694 44.3412343,53.5319694 C43.0796576,53.5319694 43.1943464,55.2523013 41.591044,55.5963677 C39.9877415,55.940434 34.3679908,58.346558 32.6499995,57.3166995 C30.9320082,56.286841 29.7851203,54.107754 29.7851203,54.107754 L29.7851203,35.4205029 C29.8085262,35.3924159 29.8319321,35.3619882 29.8529974,35.32922 C30.8430659,33.9248675 31.3907634,28.0733986 31.3907634,28.0733986 C31.7179678,28.12371 32.0477217,28.1557477 32.3784913,28.1693627 C33.3638787,28.2161744 34.4850201,28.1693627 35.0514423,28.1412756 L35.4025305,28.1202103 C36.392599,28.8949448 37.743118,29.007293 38.4125261,29.007293 C38.647495,29.0081719 38.8821189,29.0253777 39.1147023,29.058786 C41.0503682,29.3302941 41.6401963,26.7579884 41.6401963,26.7579884 L42.4055684,26.9311919 L44.4769884,27.3993094 L45.1955488,27.5608099 C43.905885,31.2144671 47.3020776,35.1209077 47.7304051,35.5937064 L47.7748763,35.6428587 C47.8113118,36.9028041 47.5150291,38.150098 46.9158806,39.2590665 Z" id="Path" fill="#E87722"></path>
                                <path d="M32.3808319,28.178725 C32.3808319,29.6977664 32.0180409,34.7323702 29.7898015,35.4602929 L29.7898015,35.4205029 C29.8132074,35.3924159 29.8366133,35.3619882 29.8576785,35.32922 C30.8477471,33.9248675 31.3954446,28.0733986 31.3954446,28.0733986 C31.7216989,28.1267595 32.0506699,28.1619226 32.3808319,28.178725 Z" id="Path" fill="#FFFFFF" opacity="0.3"></path>
                                <path d="M47.742108,35.6007282 C43.5477752,35.3853941 44.0439797,29.8990569 44.4886913,27.4086717 L45.2072517,27.5701723 C43.917588,31.2214889 47.3114399,35.1279295 47.742108,35.6007282 Z" id="Path" fill="#FFFFFF" opacity="0.3"></path>
                                <g id="Group" opacity="0.1" transform="translate(32.095280, 28.124892)" fill="#000000">
                                    <path d="M15.691299,7.63967778 C15.6887513,7.6153617 15.6707685,7.59548592 15.6468278,7.59052544 C14.7105928,7.35646669 15.7498137,7.69585188 14.7105928,7.35646669 C14.6708028,7.34242316 14.7667669,7.18560379 14.7667669,7.18560379 C14.7983781,8.44423803 14.4980818,9.68901444 13.8960683,10.7947898 C12.176285,13.9630858 11.2903143,17.5166339 11.321422,21.1214621 L11.321422,21.5708549 L11.321422,21.627029 C11.321422,21.627029 12.5829987,25.0653521 11.321422,25.0653521 C10.0598453,25.0653521 10.1745341,26.785684 8.57123163,27.1297504 C7.10134264,27.4457297 2.26802934,29.4890626 0.145116428,29.0373292 C0.276189332,29.1332933 0.409602822,29.2245762 0.547697488,29.3064968 C2.26802934,30.3386959 7.88543947,27.9302313 9.48874195,27.5861649 C11.0920444,27.2420986 10.9796962,25.5217667 12.2389323,25.5217667 C13.4981684,25.5217667 12.2389323,22.0834436 12.2389323,22.0834436 L12.2389323,22.0249289 L12.2389323,21.5755361 C12.2078246,17.9707079 13.0937954,14.4171597 14.8135786,11.2488638 C15.4180335,10.1437595 15.7207609,8.89894466 15.691299,7.63967778 L15.691299,7.63967778 Z" id="Path"></path>
                                    <path d="M3.58578013,0.238739931 C3.53194662,0.20129053 3.47577252,0.161500541 3.42427959,0.121710553 L3.30256904,0.121710553 C3.39619254,0.168522304 3.49215663,0.203631117 3.58578013,0.238739931 Z" id="Path"></path>
                                </g>
                                <path d="M71.8595222,85.745476 L70.4855973,88.8397327 C70.0933833,88.194748 69.6635317,87.573417 69.1982742,86.9789656 L69.1982742,86.9789656 C68.5308285,86.087484 67.7431524,85.2927188 66.8576866,84.6173127 C65.8993732,83.9201526 64.9949104,83.1518287 64.1519674,82.3188558 C63.5059652,81.6939189 62.7991078,81.0736632 62.2982221,80.813858 C62.0072185,80.6677636 61.7292369,80.4970594 61.4673135,80.3036099 C60.5544843,79.6014336 58.7615943,78.1619723 58.3379479,77.1484979 C58.3379479,77.1484979 54.6702472,73.7101747 53.0646041,73.022042 L51.4636423,71.149572 L49.6239404,69.0032532 L54.3238403,64.3033534 L55.7071275,66.2390193 L57.764504,69.117942 C58.695128,70.2743391 59.759743,71.316169 60.9360001,72.2215611 C62.1077892,73.0714718 63.1900358,74.0384356 64.1660109,75.1075055 C65.7047559,76.7808395 67.0548081,78.6183233 68.1918215,80.586821 L71.1479836,84.7413639 L71.1690489,84.7741321 L71.6371664,85.427156 L71.8595222,85.745476 Z" id="Path" fill="#DB8B8B"></path>
                                <path d="M42.742613,86.0895423 L40.9075924,90.4453758 L39.4189787,88.8397327 L38.8057448,87.5524095 L38.2720908,86.4312681 L35.6342486,84.825625 L33.0596023,83.1450832 C32.6149422,82.8553127 32.1298749,82.6328916 31.620141,82.4850375 C29.3942422,81.8343541 29.7780986,80.5844804 29.7780986,80.5844804 L29.9817297,77.340426 L30.1221649,75.081759 L36.2076926,74.3936263 L35.9034162,76.1139582 L35.5195598,78.2907046 C37.8133356,78.634771 39.3019493,82.4171604 39.3019493,82.4171604 C40.2077567,83.7770418 41.0667523,84.3411234 41.5465728,84.5658198 C41.6714949,84.6288948 41.8035025,84.6768261 41.9397915,84.7085957 L42.742613,86.0895423 Z" id="Path" fill="#DB8B8B"></path>
                                <polygon id="Path" fill="#000000" opacity="0.1" points="71.1690489 84.7764727 71.1152154 84.7460451 71.1479836 84.7460451"></polygon>
                                <path d="M71.8595222,85.745476 L70.4855973,88.8397327 C70.0933833,88.194748 69.6635317,87.573417 69.1982742,86.9789656 C69.408927,87.1802561 70.5862426,88.2522452 70.9630772,87.2738796 C71.1074806,86.8748591 71.2739183,86.4841603 71.4616223,86.1035858 C71.5779834,85.9008259 71.6370431,85.6702505 71.6324852,85.4365184 L71.8595222,85.745476 Z" id="Path" fill="#000000" opacity="0.1"></path>
                                <path d="M71.747174,85.5418448 L71.2790565,84.8888209 L71.2579912,84.8560527 L68.3018291,80.7015098 C67.1623227,78.7343024 65.8099148,76.8983872 64.2689968,75.2268755 C63.2930217,74.1578055 62.2107751,73.1908417 61.038986,72.340931 C59.8627289,71.4355389 58.7981139,70.3937091 57.8674898,69.2373119 L55.8171351,66.3700922 L54.4338479,64.4344263 L54.2325573,64.6357168 L55.4707282,66.3700922 L57.5281046,69.2490149 C58.4600201,70.4022641 59.5254043,71.4409352 60.7019413,72.3432716 C61.8737305,73.1931823 62.9559771,74.1601461 63.9319522,75.2292161 C65.4702786,76.9003493 66.8203172,78.7354599 67.9577628,80.7015098 L70.918606,84.8607339 L70.9396713,84.8935021 L71.4077888,85.546526 L71.6418476,85.8648459 L70.4106985,88.6361016 C70.5394308,88.8397327 70.6119891,88.9591027 70.6119891,88.9591027 L71.9882545,85.8648459 L71.747174,85.5418448 Z" id="Path" fill="#000000" opacity="0.1"></path>
                                <path d="M42.742613,86.0895423 L40.9075924,90.4453758 L39.4189787,88.8397327 L38.8057448,87.5524095 L40.5658666,88.7227033 C42.2955608,87.6413519 41.6284934,84.877118 41.5489134,84.5681604 C41.6738355,84.6312354 41.8058431,84.6791667 41.9421321,84.7109363 L42.742613,86.0895423 Z" id="Path" fill="#000000" opacity="0.1"></path>
                                <path d="M41.6542398,84.6571027 C41.6542398,84.6571027 42.5132355,87.6998666 40.6805554,88.8420733 L38.2720908,87.2364302 C38.2720908,87.2364302 37.8039733,88.3833181 39.3042899,89.8742724 C40.4355533,90.8881611 41.0292808,92.3716144 40.909933,93.8860395 C40.909933,93.8860395 41.1439917,96.6362298 42.515576,95.9504377 C42.515576,95.9504377 44.6946631,95.4823202 44.5799743,91.709293 C44.5799743,91.709293 43.7116163,88.5612028 44.7227501,87.2294085 C44.7508372,87.1935195 44.7797044,87.1584106 44.8093518,87.124082 C45.9562397,85.8625053 44.4652855,83.9151365 44.4652855,83.9151365 C44.4652855,83.9151365 41.7689286,82.8244227 41.6542398,84.6571027 Z" id="Path" fill="#535461"></path>
                                <path d="M44.3482561,53.53431 C43.0866794,53.53431 43.2013682,55.2546419 41.5980657,55.5987082 C39.9947632,55.9427746 34.3750125,58.3488986 32.6570213,57.3190401 C30.93903,56.2891816 29.7921421,54.1100946 29.7921421,54.1100946 L29.7921421,53.8760358 C32.6570213,55.3669901 36.2123738,53.8760358 36.2123738,53.8760358 C38.7448895,54.362878 43.1007229,51.0415843 44.3505967,50.032791 L44.3505967,50.0913057 C44.3505967,50.0913057 45.6074922,53.53431 44.3482561,53.53431 Z" id="Path" fill="#000000" opacity="0.1"></path>
                                <path d="M30.1315273,75.0840996 L36.2170549,74.3959669 L35.9127785,76.1162987 C34.0286056,76.9916785 31.3158646,77.2608461 30.0004544,77.3427666 L30.1315273,75.0840996 Z" id="Path" fill="#000000" opacity="0.1"></path>
                                <path d="M55.7024463,66.2437004 C55.4145541,68.3502292 53.059923,70.1595034 51.4589611,71.1589343 L49.6192593,69.0126155 L54.3191591,64.3127157 L55.7024463,66.2437004 Z" id="Path" fill="#000000" opacity="0.1"></path>
                                <path d="M36.2076926,54.1054134 C36.2076926,54.1054134 32.6546807,55.5963677 29.7874609,54.1054134 L29.214017,61.9019105 C29.214017,61.9019105 29.3287058,65.3402336 28.8699506,67.2852619 C28.4111954,69.2302902 29.214017,77.1438167 29.214017,77.1438167 C29.214017,77.1438167 36.3223814,77.0291279 37.6963063,74.3936263 C37.6963063,74.3936263 40.6758742,68.4321498 40.1047709,66.3700922 L46.2956249,67.7463577 L49.9656662,71.7534435 C49.9656662,71.7534435 56.2712091,68.7738756 55.6977651,65.1038343 L47.2131353,55.1352719 L44.6923225,49.9859793 C44.6923225,49.9859793 39.1896011,54.6788573 36.2076926,54.1054134 Z" id="Path" fill="#E87722"></path>
                                <path d="M49.9656662,71.7534435 L46.2979655,67.7416765 L40.1047709,66.3700922 C40.1188144,66.4215851 40.1305173,66.4754186 40.1422203,66.5315927 C40.161246,66.6414315 40.172198,66.7525167 40.1749885,66.8639561 C40.2709526,69.2490149 37.6986468,74.3959669 37.6986468,74.3959669 C36.3223814,77.0338091 29.2163575,77.1461573 29.2163575,77.1461573 C29.2163575,77.1461573 28.4018331,69.2396525 28.8699506,67.2899431 C29.3380681,65.3402336 29.214017,61.9065917 29.214017,61.9065917 L29.7663956,54.4003274 L29.7874609,54.1124351 C30.5878483,54.515408 31.4664617,54.7390551 32.3621072,54.7677997 C33.6306591,54.8044418 34.8945517,54.5986919 36.085982,54.1615875 L36.2076926,54.1124351 C36.2747894,54.1249183 36.3434467,54.1350608 36.4136643,54.1428628 C38.8759624,54.4143709 42.8245336,51.4792741 44.1984585,50.3862198 C44.5097566,50.1381175 44.6899819,49.9859793 44.6899819,49.9859793 L47.2131353,55.1352719 L55.6954246,65.1085155 C55.7136732,65.2231739 55.724618,65.338876 55.7281928,65.4549224 C55.8756498,68.9658038 49.9656662,71.7534435 49.9656662,71.7534435 Z" id="Path" fill="#000000" opacity="0.1"></path>
                                <path d="M42.4172714,26.9382136 C39.8636903,31.5515117 36.097685,28.9979307 35.0537829,28.150638 L35.404871,28.1295727 C36.3949396,28.9043072 37.7454586,29.0166554 38.4148666,29.0166554 C38.6498356,29.0175343 38.8844595,29.03474 39.1170429,29.0681483 C41.0527088,29.3396565 41.6425369,26.7673507 41.6425369,26.7673507 L42.4172714,26.9382136 Z" id="Path" fill="#FFFFFF" opacity="0.3"></path>
                                <path d="M71.2345853,84.8607339 C72.0334534,84.8157948 72.7964776,85.1968617 73.2404689,85.8625053 C73.2404689,85.8625053 76.2176962,88.3716152 77.8209987,88.6056739 C77.8209987,88.6056739 82.6355873,90.6700722 81.2593218,93.5349513 C79.8830564,96.3998305 76.559422,93.7690101 76.559422,93.7690101 C76.559422,93.7690101 73.0064101,90.5600646 71.8595222,90.7894421 C71.8595222,90.7894421 68.7067508,88.8982474 69.2848759,87.0632267 C69.2848759,87.0632267 70.6658226,88.4675793 71.0824471,87.3885684 C71.2259924,86.9895604 71.3916505,86.5988573 71.5786517,86.2182746 C71.8010075,85.7782442 71.9156963,85.2048002 71.2345853,84.8607339 Z" id="Path" fill="#535461"></path>
                                <path d="M35.4540234,54.1335004 C34.2556426,54.482248 31.8448374,54.9480249 29.7898015,53.8783764 L29.7523521,54.3909651 C32.2450778,55.2967724 35.00229,54.3090445 35.4540234,54.1335004 Z" id="Path" fill="#000000" opacity="0.1"></path>
                                <path d="M38.0590973,53.7309194 C37.4621061,53.9242399 36.8286949,53.9778917 36.2076926,53.8877387 C36.2076926,53.8877387 35.9549091,53.9930652 35.5336034,54.1217975 C36.2662073,54.2458486 37.1462682,54.0656234 38.0590973,53.7309194 Z" id="Path" fill="#000000" opacity="0.1"></path>
                                <path d="M55.7305334,65.457263 C55.6205258,68.8581367 49.9656662,71.5310877 49.9656662,71.5310877 L49.8860862,71.444486 C51.4519393,70.5854904 55.4730687,68.0740399 55.0096324,65.1108561 L46.5250025,55.1352719 L44.1984585,50.3768574 C44.5097566,50.1287551 44.6899819,49.9766169 44.6899819,49.9766169 L47.2131353,55.1259096 L55.6954246,65.0991531 C55.714959,65.2176252 55.7266872,65.3372529 55.7305334,65.457263 L55.7305334,65.457263 Z" id="Path" fill="#000000" opacity="0.1"></path>
                                <path d="M39.4189787,66.3700922 C39.9924227,68.4344904 37.0105141,74.3936263 37.0105141,74.3936263 C36.6032519,75.173042 35.6974445,75.7324424 34.6207742,76.1326829 C35.9876773,75.7254206 37.2071235,75.1051649 37.6986468,74.1642487 C37.6986468,74.1642487 40.3435108,68.8745209 40.1703073,66.5362739 L39.4189787,66.3700922 Z" id="Path" fill="#000000" opacity="0.1"></path>
                                <path d="M37.4692693,36.6235649 C35.8542639,36.6235649 34.5458754,38.496035 34.5458754,40.8085355 C34.5458754,43.121036 35.8542639,44.993506 37.4692693,44.993506 C39.0842747,44.993506 40.3926631,43.121036 40.3926631,40.8085355 C40.3926631,38.496035 39.0842747,36.6235649 37.4692693,36.6235649 Z M37.4692693,43.2731742 C36.5189907,43.2731742 35.7465968,42.1707574 35.7465968,40.8085355 C35.7465968,39.4463135 36.5166501,38.3438968 37.4692693,38.3438968 C38.4218884,38.3438968 39.1919417,39.4463135 39.1919417,40.8085355 C39.1919417,42.1707574 38.4195478,43.2731742 37.4692693,43.2731742 L37.4692693,43.2731742 Z" id="Shape" fill="#FFFFFF" opacity="0.3"></path>
                                <g id="Group-8" transform="translate(42.740262, 0.000000)">
                                    <path d="M13.889057,7.09003116 C13.889057,7.22578524 13.889057,7.35997892 13.889057,7.49261222 C13.889057,7.56517043 13.889057,7.63772865 13.8726729,7.70794627 C13.774486,8.91026923 13.3717323,10.0677833 12.7023791,11.0713706 C12.657908,11.1392476 12.6110962,11.2047841 12.5642845,11.2703205 C11.2692595,13.0862575 9.17728004,14.1653702 6.94687432,14.1679679 C6.79005495,14.1679679 6.63323559,14.1679679 6.47875681,14.1515838 C6.32427803,14.1351997 6.19086454,14.1281779 6.0480887,14.1094532 L6.0480887,14.1094532 C4.04004881,13.8371851 2.25132116,12.7008472 1.15157953,10.9988124 C1.11413013,10.9449789 1.07902132,10.8864642 1.04625309,10.8326307 L1.04625309,10.8209277 C0.359870747,9.69768386 -0.0022432708,8.40638689 -1.63424829e-13,7.09003116 C-0.000409970074,6.7391522 0.0246219795,6.38870491 0.074909258,6.04144793 L0.112358659,5.80738918 C0.49713325,3.63678107 1.87128935,1.76938254 3.8292117,0.756401233 L4.08199515,0.632350092 C5.74128056,-0.1333679 7.63722123,-0.206645038 9.35065774,0.428718975 C9.57157065,0.510851568 9.78798692,0.604605909 9.99900049,0.709589482 L9.99900049,0.709589482 C11.5538369,1.48401234 12.7681674,2.80502389 13.4092366,4.41942076 C13.4326424,4.47325427 13.4513671,4.5247472 13.4700918,4.57858071 C13.7585254,5.38401451 13.9004193,6.23458482 13.889057,7.09003116 L13.889057,7.09003116 Z" id="Path" fill="#FA6657"></path>
                                    <path d="M13.4420048,4.57858071 C12.9967836,4.71063498 12.5348128,4.77764439 12.0704205,4.7775308 L11.9908405,4.7775308 L11.8082747,4.7775308 C11.6959265,4.7775308 11.5859189,4.76348713 11.4805924,4.7494436 C10.5702548,4.64059417 9.69808881,4.3199449 8.93403315,3.81320858 L8.93403315,3.81320858 C6.89070022,1.73008566 4.88949786,1.01854704 3.80814641,0.770444758 L4.06092986,0.646393618 C5.12355661,0.915561187 6.84856964,1.58262864 8.6438003,3.26785168 C9.10665905,3.70576231 9.65263819,4.04640235 10.2494434,4.26962315 C10.6596175,4.42125727 11.0861886,4.52416854 11.5203824,4.57624012 C11.6140059,4.57624012 11.7052888,4.59496482 11.7965717,4.60198659 L11.9814782,4.60198659 C12.4559429,4.61495702 12.9295845,4.55496242 13.3858307,4.42410193 C13.4022148,4.48261662 13.4232801,4.53410955 13.4420048,4.57858071 Z" id="Path" fill="#FFFFFF" opacity="0.5"></path>
                                    <path d="M13.8773541,7.49261222 C13.8773541,7.56517043 13.8773541,7.63772865 13.86097,7.70794627 C13.2623652,7.32508278 12.6224541,7.01101601 11.9533911,6.77171125 L11.777847,6.70851539 C10.1827576,6.17260101 8.5350073,5.80852665 6.86261317,5.62248276 C2.93042608,5.12159702 0.969013704,5.58971453 0.0351192695,6.03442617 L0.0725686704,5.80036741 C1.08370249,5.35565578 3.0755425,4.95073413 6.88601904,5.43523576 C8.55726402,5.62185791 10.2045487,5.98190726 11.8012529,6.50956544 L11.976797,6.57276131 C12.6418081,6.8095274 13.2790785,7.11796 13.8773541,7.49261222 L13.8773541,7.49261222 Z" id="Path" fill="#FFFFFF" opacity="0.5"></path>
                                    <path d="M11.976797,6.58914542 C11.976797,6.65234128 11.9627535,6.71553715 11.9557317,6.7810736 C11.9151615,7.1009539 11.857427,7.43565792 11.7825282,7.78518566 C11.7247937,8.04889186 11.6608177,8.30245551 11.5906,8.54587662 C11.5718753,8.60907248 11.5531506,8.67226834 11.5344259,8.73312362 C10.6450027,11.5816187 8.83572848,13.0257612 7.40562948,13.7466622 C7.10199485,13.9010561 6.7893525,14.0370555 6.46939446,14.1539244 L6.03872635,14.1117938 L6.03872635,14.1117938 C6.48799325,13.9719981 6.92484952,13.7950635 7.3447742,13.582821 C8.74912674,12.8806448 10.5256327,11.4458646 11.3916501,8.62545659 C11.4103748,8.56928249 11.4267589,8.5107678 11.443143,8.45225311 C11.5086795,8.22599632 11.5679743,7.99193756 11.6210277,7.75007685 C11.6974869,7.39898871 11.7560016,7.05570254 11.7965717,6.72021832 C11.7965717,6.65702246 11.8106153,6.59148601 11.817637,6.52829014 C11.8773536,5.94779579 11.8773536,5.36270618 11.817637,4.78221183 C11.817637,4.72135655 11.8059341,4.66050127 11.7965717,4.60198659 C11.6538985,3.34121149 11.107043,2.16046332 10.2377404,1.23622168 C9.95383952,0.938792601 9.64011181,0.671339722 9.3015054,0.438081325 C9.52241831,0.520213918 9.73883458,0.613968259 9.94984815,0.718951832 L9.94984815,0.718951832 C10.0871626,0.839101993 10.2229167,0.970174896 10.3571104,1.11217054 C11.2517204,2.07439783 11.810895,3.30031217 11.9510505,4.60666776 C11.9510505,4.66518245 11.965094,4.72603773 11.9721158,4.78455242 C12.0362442,5.38429389 12.037813,5.98907932 11.976797,6.58914542 Z" id="Path" fill="#FFFFFF" opacity="0.5"></path>
                                    <path d="M12.6836544,11.0737112 C12.6391833,11.1415882 12.5923715,11.2071247 12.5455598,11.2726611 C12.3490529,10.420663 12.0338985,9.6004738 11.6093247,8.83610947 C11.5870033,8.79809479 11.559424,8.76342368 11.5274042,8.73312362 C11.4806168,8.6904663 11.4277705,8.65497253 11.3705848,8.62779718 C10.4694586,8.18074496 7.7777829,8.92973298 5.77658054,10.0110844 C4.23647393,10.8443336 2.22122805,10.9917906 1.11881131,11.001153 L1.01348487,10.8349712 L1.01348487,10.8232683 C2.06674927,10.8232683 4.13582867,10.6968766 5.69465998,9.85426506 C7.56713002,8.84781241 10.3524292,7.98179502 11.4244183,8.44991253 C11.4812267,8.47474753 11.5353424,8.50533471 11.5859189,8.54119544 C11.6594618,8.59369091 11.7215732,8.66058011 11.7684847,8.7378048 C12.1739812,9.47325581 12.481642,10.2585384 12.6836544,11.0737112 L12.6836544,11.0737112 Z" id="Path" fill="#FFFFFF" opacity="0.5"></path>
                                </g>
                            </g>
                        </g>
                    </g>
                </g>
            </g>
        </g>
    </g>
</svg>