<?xml version="1.0" encoding="UTF-8"?>
<svg width="124px" height="124px" viewBox="0 0 124 124" version="1.1" xmlns="http://www.w3.org/2000/svg" xmlns:xlink="http://www.w3.org/1999/xlink">
    <title>4147E48E-C3A3-4B9F-9FAA-513CD7570100</title>
    <g id="Page-1" stroke="none" stroke-width="1" fill="none" fill-rule="evenodd">
        <g id="04_Rewards_earnpoints-Copy-2" transform="translate(-28.000000, -1092.000000)" fill-rule="nonzero">
            <g id="Group-3" transform="translate(12.000000, 84.000000)">
                <g id="Bast-place-Copy-6" transform="translate(0.000000, 988.000000)">
                    <g id="ecertificates" transform="translate(16.000000, 20.000000)">
                        <path d="M100.683101,116.923111 C85.7878453,114.401968 71.0712993,124.320646 56.0900612,123.772761 C48.1661563,123.482448 40.4293904,120.280269 32.7836651,117.084639 C26.9031161,114.633346 20.3768532,111.409339 17.5731396,103.145229 C16.3204882,99.4519181 15.9310367,94.9902592 14.069762,91.9539737 C12.6434591,89.6249179 10.5815579,88.5226 8.80963791,86.8352896 C1.09141733,79.4770449 0.206300288,63.0186748 0.878989238,49.1600288 C1.25158136,41.47218 1.88212188,33.6009755 4.23063243,26.7775186 C6.57914297,19.9540618 10.9979844,14.3115039 16.0423086,14.0888575 C19.2321018,13.946975 22.2802763,15.9158675 25.3840867,17.0160026 C28.4878971,18.1161377 32.1278356,18.1488798 34.4578008,14.8331949 C36.3696536,12.1112337 36.9698472,7.73906988 38.8817,5.01056026 C40.3703826,2.89105398 42.4474573,2.06813548 44.4554085,1.5639069 C55.2538364,-1.14714026 66.756986,3.55899314 75.2254486,14.1499761 C77.283978,16.7235064 79.244723,19.6921248 81.7601413,21.0127235 C85.1100985,22.7698837 88.7719542,21.2812088 92.3141083,21.3183166 C104.810275,21.449285 113.285481,38.9597684 122.092817,49.9982269 C127.24167,56.4527893 121.757316,120.487636 100.683101,116.923111 Z" id="Path" fill="#E87722" opacity="0.1"></path>
                        <path d="M107.616755,82.583116 C107.615627,83.0971428 107.200655,83.5145613 106.689646,83.5156901 L17.2957388,83.6806277 C16.78473,83.6813846 16.3720433,83.2654939 16.3720433,82.7514674 L16.4697085,29.5058901 C16.4708689,28.9918769 16.8858222,28.5744776 17.3968178,28.5733159 L106.790725,28.4083784 C107.301719,28.4076554 107.71442,28.8235263 107.71442,29.3375387 L107.616755,82.583116 Z" id="Path-Copy-2" fill="#FFFFFF" transform="translate(62.043232, 56.044503) rotate(-16.000000) translate(-62.043232, -56.044503) "></path>
                        <polygon id="Rectangle" fill="#FFCBA5" transform="translate(60.024706, 39.332080) rotate(-16.243920) translate(-60.024706, -39.332080) " points="14.2243774 35.2289116 105.840611 35.0575804 105.825035 43.4352492 14.2088018 43.6065805"></polygon>
                        <path d="M25.4079894,85.169744 L12.4506141,40.3876935 C12.2505747,39.6963094 12.6450071,38.9725374 13.331606,38.7710992 L99.1113475,13.6042865 C99.7978515,13.40355 100.516137,13.8004357 100.716757,14.4913493 L112.196011,54.1650371 L111.840815,54.269269 L100.361561,14.5955812 C100.217937,14.1023176 99.7051488,13.8189615 99.2148138,13.9619124 L13.4350944,39.1287251 C12.9446667,39.2726262 12.6629322,39.7896089 12.80581,40.2834616 L25.7631853,85.0655122 L25.4079894,85.169744 Z" id="Path" fill="#E87722"></path>
                        <path d="M93.2101557,54.3493973 C92.6756223,54.3488402 92.2053778,53.9936585 92.0552344,53.4770703 L89.8819606,45.9660093 C89.6970251,45.3241246 90.0629587,44.6526235 90.6999753,44.4649237 L98.1591134,42.2765102 C98.796598,42.0902842 99.4634789,42.458843 99.6498111,43.10036 L101.823079,50.611421 C102.008015,51.2533053 101.642081,51.9248058 101.005065,52.1125048 L93.5459266,54.3009202 C93.4368516,54.3330282 93.3237958,54.3493973 93.2101557,54.3493973 Z" id="Path" fill="#E87722"></path>
                        <path d="M25.207696,40.5262066 C25.1853568,40.4490355 25.1587915,40.3731691 25.1281221,40.2989557 C24.6962303,39.2434002 23.5438007,38.6852183 22.4552588,39.0043482 C21.3667169,39.3234781 20.6919425,40.4173449 20.8902351,41.541385 C20.9036851,41.6205795 20.9215957,41.6989398 20.94388,41.7760868 C21.2213349,42.729727 22.0898387,43.3850868 23.076687,43.3854759 C23.2864595,43.3859387 23.4951943,43.355823 23.6963967,43.2960604 C24.8722472,42.9500906 25.548252,41.7111338 25.207696,40.5262066 Z M23.5927991,42.9384195 C22.6121993,43.2249971 21.5862287,42.6584436 21.2990352,41.6717749 C21.2773788,41.5945864 21.2600696,41.5162276 21.2471902,41.4370731 C21.103655,40.511896 21.6647324,39.6232925 22.5576236,39.3616811 C23.4505147,39.1000697 24.3974512,39.5468348 24.7692561,40.4051303 C24.8027581,40.4779796 24.8306006,40.5533348 24.8525333,40.6305185 C25.1367788,41.6180314 24.573072,42.6507807 23.5928028,42.9384307 L23.5927991,42.9384195 Z" id="Shape" fill="#E87722"></path>
                        <path d="M19.7632128,42.1225514 C19.5205397,41.283356 19.8331292,40.381532 20.5416819,39.8766601 C19.6521761,39.8330103 18.8378319,40.3768942 18.5317715,41.2190383 C18.2257111,42.0611823 18.4990556,43.0058924 19.2064223,43.550709 C19.913789,44.0955256 20.8908027,44.1138465 21.6178229,43.5959273 C20.7508545,43.5532947 20.0061472,42.9616696 19.7632128,42.1225514 L19.7632128,42.1225514 Z" id="Path" fill="#E87722"></path>
                        <path d="M77.2672505,51.3541646 C77.18774,51.0662715 76.9978031,50.8220326 76.7393034,50.6752802 C76.4808036,50.5285277 76.1749608,50.4913083 75.8891849,50.5718253 L63.6081758,54.0308734 L62.2855679,54.4034159 L70.5912634,54.4034159 L71.9138694,54.0308734 L76.4921852,52.7418762 C77.0864445,52.573775 77.4332566,51.9528271 77.2672505,51.3541646 L77.2672505,51.3541646 Z" id="Path" fill="#FFC89F"></path>
                        <path d="M68.5786746,48.7705822 C68.4120466,48.1719144 67.7951045,47.8225277 67.2005202,47.9901056 L48.7726366,53.179623 C48.2406195,53.3313885 47.8975971,53.8506783 47.9642411,54.4034252 L52.7349386,54.4034252 L54.0593519,54.0308827 L67.8036019,50.1601658 C68.398336,49.9914983 68.7451273,49.3697561 68.5786746,48.7705822 Z" id="Path" fill="#FFC89F"></path>
                        <path d="M116.020015,54.030458 L26.6734026,54.030458 C25.9585943,54.0312659 25.3785254,54.6145683 25.3785254,55.3343569 L25.3785254,108.607939 C25.3785254,109.327741 25.9585807,109.911063 26.6734026,109.911838 L116.020015,109.911838 C116.734823,109.911031 117.314892,109.327728 117.314892,108.607939 L117.314892,55.3343569 C117.314892,54.6145815 116.73481,54.0312977 116.020015,54.030458 L116.020015,54.030458 Z M116.944927,108.607939 C116.944927,109.122236 116.530753,109.539295 116.020015,109.539295 L26.6734026,109.539295 C26.1626638,109.539295 25.7484903,109.122236 25.7484903,108.607939 L25.7484903,55.3343569 C25.7484903,54.8200737 26.1626777,54.4030005 26.6734026,54.4030005 L116.020015,54.4030005 C116.530739,54.4030005 116.944927,54.8200737 116.944927,55.3343569 L116.944927,108.607939 Z" id="Shape" fill="#E87722"></path>
                        <path d="M113.944927,105.607939 C113.944927,106.122236 113.530753,106.539295 113.020015,106.539295 L23.6734026,106.539295 C23.1626638,106.539295 22.7484903,106.122236 22.7484903,105.607939 L22.7484903,52.3343569 C22.7484903,51.8200737 23.1626777,51.4030005 23.6734026,51.4030005 L113.020015,51.4030005 C113.530739,51.4030005 113.944927,51.8200737 113.944927,52.3343569 L113.944927,105.607939 Z" id="Path-Copy-3" fill="#FFBE8C" opacity="0.5"></path>
                        <path d="M116.944927,108.607939 C116.944927,109.122236 116.530753,109.539295 116.020015,109.539295 L26.6734026,109.539295 C26.1626638,109.539295 25.7484903,109.122236 25.7484903,108.607939 L25.7484903,55.3343569 C25.7484903,54.8200737 26.1626777,54.4030005 26.6734026,54.4030005 L116.020015,54.4030005 C116.530739,54.4030005 116.944927,54.8200737 116.944927,55.3343569 L116.944927,108.607939 Z" id="Path" fill="#FFFFFF"></path>
                        <path d="M100.574783,103.785467 C103.7104,109.772188 110.365309,112.342175 110.365309,112.342175 C110.365309,112.342175 111.936375,105.205737 108.800758,99.2190028 C105.66514,93.2322684 99.0102314,90.6622951 99.0102314,90.6622951 C99.0102314,90.6622951 97.4391681,97.7987325 100.574783,103.785467 Z" id="Path" fill="#FFB074"></path>
                        <path d="M102.730013,101.815872 C108.391092,105.322266 110.571355,112.286933 110.571355,112.286933 C110.571355,112.286933 103.57319,113.566612 97.9121111,110.060215 C92.2510319,106.553818 90.0707691,99.5891541 90.0707691,99.5891541 C90.0707691,99.5891541 97.0689315,98.3094778 102.730013,101.815872 Z" id="Path" fill="#E87722"></path>
                        <path d="M35.3669194,61.2954528 C34.1409635,61.2954528 33.1471299,60.2946949 33.1471299,59.0601976 C33.1471299,57.8257002 34.1409635,56.8249424 35.3669194,56.8249424 C36.5928752,56.8249424 37.5867088,57.8257002 37.5867088,59.0601976 C37.5853071,60.2941098 36.5922942,61.2940413 35.3669194,61.2954528 L35.3669194,61.2954528 Z M35.3669194,57.1974849 C34.3452895,57.1974849 33.5170948,58.0314498 33.5170948,59.0601976 C33.5170948,60.0889454 34.3452895,60.9229102 35.3669194,60.9229102 C36.3885492,60.9229102 37.2167439,60.0889454 37.2167439,59.0601976 C37.215592,58.0319306 36.3880717,57.1986449 35.3669194,57.1974849 L35.3669194,57.1974849 Z" id="Shape" fill="#E87722"></path>
                        <path d="M31.9165933,59.0601976 C31.9167289,58.1861505 32.4673555,57.408378 33.2878683,57.1232409 C32.4459974,56.8307811 31.5130757,57.1235717 30.9852927,57.8458872 C30.4575097,58.5682027 30.4575097,59.5521943 30.9852927,60.2745098 C31.5130757,60.9968253 32.4459974,61.2896159 33.2878683,60.9971561 C32.4673552,60.7120183 31.9167287,59.9342452 31.9165933,59.0601976 L31.9165933,59.0601976 Z" id="Path" fill="#E87722"></path>
                        <path d="M75.8121638,85.4693744 C74.8931326,85.4683161 74.1483727,84.7183673 74.1473217,83.792933 L74.1473217,78.7636088 C74.1473217,77.8377358 74.8926969,77.0871675 75.8121638,77.0871675 C76.7316307,77.0871675 77.4770059,77.8377358 77.4770059,78.7636088 L77.4770059,83.792933 C77.4759538,84.7183669 76.7311946,85.4683151 75.8121638,85.4693744 Z" id="Path" fill="#E87722"></path>
                        <path d="M80.2517427,85.4693744 C79.3327115,85.4683161 78.5879516,84.7183673 78.5869006,83.792933 L78.5869006,78.7636088 C78.5869006,77.8377358 79.3322758,77.0871675 80.2517427,77.0871675 C81.1712096,77.0871675 81.9165847,77.8377358 81.9165847,78.7636088 L81.9165847,83.792933 C81.9155327,84.7183669 81.1707734,85.4683151 80.2517427,85.4693744 Z" id="Path" fill="#E87722"></path>
                        <path d="M84.6913215,85.4693744 C83.7722903,85.4683161 83.0275305,84.7183673 83.0264795,83.792933 L83.0264795,78.7636088 C83.0264795,77.8377358 83.7718547,77.0871675 84.6913215,77.0871675 C85.6107884,77.0871675 86.3561636,77.8377358 86.3561636,78.7636088 L86.3561636,83.792933 C86.3551116,84.7183669 85.6103523,85.4683151 84.6913215,85.4693744 Z" id="Path" fill="#E87722" opacity="0.900000036"></path>
                        <path d="M91.5356723,85.4693744 C90.6166411,85.4683161 89.8718812,84.7183673 89.8708302,83.792933 L89.8708302,78.7636088 C89.8708302,77.8377358 90.6162054,77.0871675 91.5356723,77.0871675 C92.4551392,77.0871675 93.2005144,77.8377358 93.2005144,78.7636088 L93.2005144,83.792933 C93.1994624,84.7183669 92.4547031,85.4683151 91.5356723,85.4693744 Z" id="Path" fill="#E87722" opacity="0.800000012"></path>
                        <path d="M95.9752512,85.4693744 C95.05622,85.4683161 94.3114601,84.7183673 94.3104091,83.792933 L94.3104091,78.7636088 C94.3104091,77.8377358 95.0557843,77.0871675 95.9752512,77.0871675 C96.8947181,77.0871675 97.6400933,77.8377358 97.6400933,78.7636088 L97.6400933,83.792933 C97.6390413,84.7183669 96.894282,85.4683151 95.9752512,85.4693744 Z" id="Path" fill="#E87722" opacity="0.5"></path>
                        <path d="M100.41483,85.4693744 C99.4957989,85.4683161 98.751039,84.7183673 98.749988,83.792933 L98.749988,78.7636088 C98.749988,77.8377358 99.4953632,77.0871675 100.41483,77.0871675 C101.334297,77.0871675 102.079672,77.8377358 102.079672,78.7636088 L102.079672,83.792933 C102.07862,84.7183669 101.333861,85.4683151 100.41483,85.4693744 Z" id="Path" fill="#E87722" opacity="0.300000012"></path>
                        <rect id="Rectangle" fill="#E87722" x="25.681917" y="65.1658064" width="91.1963497" height="1"></rect>
                        <path d="M57.4564299,95.670168 L39.1136945,95.670168 C38.6459371,95.6697661 38.2668794,95.387363 38.2663399,95.0388776 L38.2663399,82.3387999 C38.2668794,81.9903144 38.6459371,81.7079114 39.1136945,81.7075094 L57.4564299,81.7075094 C57.9241873,81.7079114 58.303245,81.9903144 58.3037845,82.3387999 L58.3037845,95.0388776 C58.303245,95.387363 57.9241873,95.6697661 57.4564299,95.670168 Z" id="Path" fill="#FFB883"></path>
                        <path d="M57.4564299,81.2782709 L39.1136945,81.2782709 C38.6459371,81.2781478 38.2668794,81.1915943 38.2663399,81.0847873 L38.2663399,77.1923519 C38.2668794,77.0855449 38.6459371,76.9989914 39.1136945,76.9988683 L57.4564299,76.9988683 C57.9241873,76.9989914 58.303245,77.0855449 58.3037845,77.1923519 L58.3037845,81.0847873 C58.303245,81.1915943 57.9241873,81.2781478 57.4564299,81.2782709 Z" id="Path-Copy" fill="#E87722"></path>
                        <path d="M49.6412933,96.272468 L46.9288311,96.272468 C46.4393173,96.2718897 46.0426286,95.8651265 46.0420647,95.3631807 L46.0420647,75.8847481 C46.0426286,75.3828023 46.4393173,74.976039 46.9288311,74.9754607 L49.6412933,74.9754607 C50.1308068,74.9760396 50.5274952,75.3828025 50.5280597,75.8847481 L50.5280597,95.3631807 C50.5274952,95.8651262 50.1308068,96.2718891 49.6412933,96.272468 L49.6412933,96.272468 Z" id="Path" fill="#EB6D2A" opacity="0.699999988"></path>
                        <g id="Group-11" transform="translate(47.278981, 74.429812) rotate(-56.000000) translate(-47.278981, -74.429812) translate(43.106955, 69.703583)">
                            <path d="M5.5353563,3.76666497 C5.42350916,5.59619094 2.94426891,6.93422285 2.94426891,6.93422285 C2.94426891,6.93422285 0.646356302,5.30600678 0.758203448,3.47648082 C0.870050593,1.64695485 3.34929188,0.308922937 3.34929188,0.308922937 C3.34929188,0.308922937 5.64719928,1.93713901 5.5353563,3.76666497 Z" id="Path" fill="#FFA258"></path>
                            <path d="M4.72782428,9.18948951 C2.91095595,9.08931622 1.57477458,6.75284477 1.57477458,6.75284477 C1.57477458,6.75284477 3.18432112,4.57878388 5.0011843,4.67895619 C6.81804748,4.77912849 8.154234,7.11560191 8.154234,7.11560191 C8.154234,7.11560191 6.54468951,9.28966181 4.72782428,9.18948951 Z" id="Path" fill="#E87722"></path>
                        </g>
                    </g>
                </g>
            </g>
        </g>
    </g>
</svg>