<?xml version="1.0" encoding="UTF-8"?>
<svg width="124px" height="124px" viewBox="0 0 124 124" version="1.1" xmlns="http://www.w3.org/2000/svg" xmlns:xlink="http://www.w3.org/1999/xlink">
    <title>Purchase Personal</title>
    <g id="Page-1" stroke="none" stroke-width="1" fill="none" fill-rule="evenodd">
        <g id="04_Rewards_earnpoints-Copy-2" transform="translate(-31.000000, -502.000000)">
            <g id="Group-3" transform="translate(12.000000, 84.000000)">
                <g id="Bast-place-Copy-3" transform="translate(0.000000, 396.000000)">
                    <g id="Purchase-Personal" transform="translate(19.000000, 22.000000)">
                        <rect id="Rectangle" fill="#FFFFFF" x="0" y="0" width="124" height="124"></rect>
                        <g id="Group-5" transform="translate(10.000000, 10.000000)" fill-rule="nonzero">
                            <g id="undraw_jewelry_iima">
                                <polygon id="Rectangle" fill="#FFF3EC" transform="translate(57.351504, 62.623681) rotate(16.684976) translate(-57.351504, -62.623681) " points="25.188731 44.0784007 89.4225029 44.2392427 89.5142774 81.1689615 25.2805055 81.0081195"></polygon>
                                <path d="M82.8785151,90.0676693 L0,64.3335953 L19.6167017,0 L102.495217,25.734074 L82.8785151,90.0676693 Z M0.458892126,64.0974558 L82.6305552,89.6120493 L102.036325,25.9702134 L19.8646615,0.455619992 L0.458892126,64.0974558 Z" id="Shape" fill="#3F3D56"></path>
                                <rect id="Rectangle" fill="#2F2E41" x="29.8738372" y="21.523686" width="22.8857954" height="26.2091036"></rect>
                                <path d="M65.5636,99.301657 L32.229139,99.301657 L32.229139,86.8265679 C32.2346657,83.897313 32.751014,80.9918955 33.754558,78.2432543 C33.8053542,78.1029086 33.856125,77.9647891 33.9091043,77.8266767 C35.3859888,73.952713 37.3065731,71.6782492 37.3065731,71.6782492 C50.7728097,79.2524092 58.9408551,72.3465575 58.9408551,72.3465575 L60.4022717,78.2945041 L60.5082315,78.7266776 L64.3957758,94.5477538 L64.5017356,94.9821548 L65.5636,99.301657 Z" id="Path" fill="#2F2E41"></path>
                                <path d="M60.5082315,78.7266741 C55.4926166,79.9585824 51.0487571,80.3818495 47.302501,80.3818495 C44.9704448,80.3872099 42.641358,80.213691 40.3353662,79.8627923 C38.0978852,79.5241595 35.895321,78.9821076 33.7545637,78.2432543 C33.80536,78.1029086 33.8561308,77.9647891 33.9091101,77.8266767 C36.0295271,78.5582852 38.2115221,79.0936541 40.4281015,79.4261602 C44.982339,80.1301188 51.8523262,80.3929846 60.4022787,78.2945006 L60.5082315,78.7266741 Z" id="Path" fill="#3F3D56"></path>
                                <path d="M64.5017356,94.9821537 C57.8326462,97.0873284 52.0134692,97.7578665 47.3024976,97.7578665 C44.9704414,97.7632263 42.6413546,97.5897074 40.3353628,97.2388092 C36.5427553,96.6484654 33.7766514,95.6838895 32.2291355,95.0400765 L32.2291355,94.5566708 C33.7104128,95.1893276 36.5118463,96.1962503 40.428091,96.802176 C45.6710922,97.6130611 53.9848463,97.8380596 64.3957723,94.5477503 L64.5017356,94.9821537 Z" id="Path" fill="#3F3D56"></path>
                                <path d="M65.4532162,43.0523714 L60.7532698,51.2413787 L60.7532698,51.243598 L60.5965427,51.5176129 L49.7793994,61.3194618 L36.53392,52.1859189 L30.794212,44.8345323 C30.794212,44.8345323 31.6772442,41.9385292 34.7678566,41.4929908 C35.5824406,41.3749164 36.2734405,41.2590858 36.902569,41.1254155 C37.3308484,41.0340862 37.7304111,40.9360732 38.1211571,40.8246825 C39.333116,40.4793926 40.4523745,40.0093378 42.0528697,39.265296 C44.9227237,37.9286794 41.1698374,33.6960598 41.1698374,33.6960598 L48.8963672,28.7951319 C48.8963672,28.7951319 52.3269547,40.0449893 58.3426101,39.9447406 C58.4308912,39.9447406 58.5192267,39.9402798 58.6097187,39.9336043 C58.9408551,39.9091031 59.2565236,39.897954 59.5567787,39.8957242 C64.8593894,39.8600821 65.4532162,43.0523714 65.4532162,43.0523714 Z" id="Path" fill="#FFD9C4"></path>
                                <path d="M38.5207417,49.2899159 L36.902569,41.1254109 C37.3308484,41.0340815 37.7304111,40.9360685 38.1211571,40.8246778 L38.5207417,49.2899159 Z" id="Path" fill="#3F3D56"></path>
                                <path d="M59.5567787,39.8957195 L58.0578228,48.0646819 L58.3426101,39.9447336 C58.4308912,39.9447336 58.5192267,39.9402728 58.6097187,39.9335973 C58.9408551,39.9090985 59.2565236,39.8979494 59.5567787,39.8957195 Z" id="Path" fill="#3F3D56"></path>
                                <ellipse id="Oval" fill="#FFD9C4" cx="41.6113541" cy="26.121894" rx="8.38880368" ry="8.46523925"></ellipse>
                                <path d="M32.1187598,43.497911 L30.794212,44.8345323 C30.794212,44.8345323 28.8073902,62.8788575 30.794212,71.5668655 L40.0660433,95.6259608 C40.0660433,95.6259608 42.4943806,104.0912 47.7925731,102.309044 C53.0907655,100.526888 43.3774129,90.7250328 43.3774129,90.7250328 L36.5339154,71.7896329 L36.5339154,48.1760691 L32.1187598,43.497911 Z" id="Path" fill="#FFD9C4"></path>
                                <path d="M62.1418454,41.0474523 L65.4532162,43.0523772 C65.4532162,43.0523772 68.323069,53.0770075 65.8947317,66.8887085 L62.1418466,93.1755032 C62.1418466,93.1755032 59.9342677,103.200128 55.2983503,100.749663 C50.6624329,98.2991986 58.3889615,90.0567292 58.3889615,90.0567292 L60.3757821,69.5619359 L60.8172976,48.1760656 L62.1418454,41.0474523 Z" id="Path" fill="#FFD9C4"></path>
                                <path d="M48.6756088,56.4185385 L38.2999834,47.7305306 L36.0924044,53.076997 C36.0924044,53.076997 33.8848243,75.3539419 35.6508877,74.9084023 C37.4169511,74.4628626 37.6377095,72.4579389 39.1830157,74.0173242 C40.7283218,75.5767094 50.441671,77.8044041 51.7662212,76.4677945 C53.0907713,75.131185 59.4927498,73.126253 59.4927498,73.126253 C59.4927498,73.126253 62.1418454,71.1213281 61.2588143,68.4480949 C60.3757832,65.7748617 61.2588143,65.3293221 61.4795715,64.2154753 C61.7003287,63.1016285 61.4795715,51.2948478 61.4795715,51.2948478 L58.3889603,45.9483802 L48.6756088,56.4185385 Z" id="Path" fill="#3F3D56"></path>
                                <path d="M48.9528503,41.6098095 C50.9125087,41.3641971 52.6119573,40.1072036 54.0039822,37.8738519 L53.6301603,37.6367243 C52.3127265,39.7504235 50.7215007,40.9383463 48.9008942,41.1674248 C45.6656252,41.5743484 42.7472657,38.8063728 42.7181601,38.7784188 L42.4133247,39.1007166 C42.5293074,39.212536 45.1031659,41.654733 48.2280557,41.654733 C48.2300501,41.654733 48.2320977,41.6545426 48.2340921,41.6545426 L48.2340921,45.179912 C47.6709553,45.237458 47.2423718,45.7157838 47.2421708,46.286958 C47.2419697,46.8581321 47.6702163,47.336765 48.2333125,47.3947147 C48.7964087,47.4526644 49.3115867,47.0711217 49.42565,46.5116653 C49.5397132,45.952209 49.2156394,45.3964254 48.6756077,45.2253495 L48.6756077,41.6356434 C48.7677977,41.6286141 48.8600144,41.6214749 48.9528503,41.6098095 Z" id="Path" fill="#E87722"></path>
                                <path d="M41.2802166,11.5304916 C41.2802166,11.5304916 32.7916516,12.6014555 30.8912277,17.7691155 C28.9908038,22.9367754 25.6650614,25.6497962 25.6650614,25.6497962 C25.6650614,25.6497962 20.4262099,29.3245814 23.0456409,35.8846398 C23.0456409,35.8846398 14.8960023,41.4111612 20.2805347,46.3204385 C20.2805347,46.3204385 19.9637978,51.2297157 23.1311706,54.5886939 C23.1311706,54.5886939 25.6650683,55.8806089 24.7148564,56.6557572 C23.7646444,57.4309055 31.0496008,56.9141412 30.4161269,49.9378007 C29.7826531,42.9614602 34.0586051,38.0472397 34.0586051,38.0472397 C34.0586051,38.0472397 29.9410204,29.0021528 31.8414443,25.9015573 C32.995273,24.0190531 33.490783,22.6152241 34.4486241,21.8027469 C34.9820214,21.3610851 35.4767309,20.8738838 35.927268,20.3465445 C36.5171164,19.6393527 37.7110703,18.676175 39.6015048,19.1902248 C40.4081935,19.3986871 41.1551534,19.7952542 41.7823244,20.3480396 C43.6759233,22.043663 45.7250984,23.5536348 47.9021501,24.857544 C48.9259381,25.470574 49.9981113,26.1633496 50.9935716,26.9015872 C52.8369579,28.2686504 51.3140368,31.1658577 49.4709075,33.5913772 C46.7439703,37.1799713 46.6900708,42.2212567 49.542326,45.7092389 C49.6261491,45.8117454 49.7116348,45.9122837 49.7987831,46.0108538 C52.5877282,49.1626512 48.9950439,51.9099826 48.7868862,52.2632467 C48.3117797,53.0695308 46.414407,58.1609481 54.2521285,58.1835021 C54.2521285,58.1835021 56.0718414,54.33031 58.6057403,52.004864 C61.1396392,49.6794179 59.2392142,42.961459 59.2392142,42.961459 C59.2392142,42.961459 63.0400608,40.636013 58.9224772,34.9515874 C58.9224772,34.9515874 61.1004216,28.032872 57.6163119,24.6738925 C57.6163072,24.6738925 52.0492826,9.72181463 41.2802166,11.5304916 Z" id="Path" fill="#2F2E41"></path>
                                <ellipse id="Oval" fill="#FFB8B8" cx="50.7728109" cy="26.3446638" rx="1.10378947" ry="1.67077134"></ellipse>
                                <path d="M50.8831727,33.3672968 C49.6021103,33.3672968 48.5598414,32.0157595 48.5598414,30.354523 C48.5598414,28.693234 49.6021103,27.3416966 50.8831727,27.3416966 C50.9471003,27.3416966 50.9989239,27.3939923 50.9989239,27.4585024 C50.9989239,27.5230125 50.9471003,27.5753083 50.8831727,27.5753083 C49.7297306,27.5753083 48.7913438,28.8220732 48.7913438,30.354523 C48.7913438,31.8869728 49.7297306,33.1336851 50.8831727,33.1336851 C52.0366148,33.1336851 52.9750595,31.8869763 52.9750595,30.354523 C52.9750595,28.9882704 52.4896731,27.9888618 51.6764758,27.6811064 C51.6167724,27.6583135 51.5866099,27.5910617 51.6090436,27.5307559 C51.6314772,27.4704501 51.6980441,27.4398401 51.7578628,27.4623232 C52.6649956,27.8057254 53.2065619,28.8869215 53.2065619,30.354523 C53.2065619,32.0157595 52.1643486,33.3672968 50.8831727,33.3672968 Z" id="Path" fill="#E87722"></path>
                                <path d="M51.8176031,26.8849844 C51.7491504,27.2515187 51.5599809,27.5839616 51.2807838,27.8283811" id="Path" fill="#FFB8B8"></path>
                                <polygon id="Rectangle" fill="#E87722" transform="translate(41.348730, 91.889949) rotate(-26.214850) translate(-41.348730, -91.889949) " points="38.7976736 91.772324 43.900695 91.7539299 43.8997858 92.0075735 38.7967643 92.0259676"></polygon>
                                <ellipse id="Oval" fill="#E87722" cx="41.3680891" cy="91.7700144" rx="1.00683049" ry="1.01600434"></ellipse>
                                <path d="M82.7854269,90.032068 C78.3956613,87.5626272 75.6628914,84.1911612 74.6629435,80.0114312 C73.9204795,76.9081048 74.1338448,73.4159643 75.2970054,69.6319937 C76.1592829,66.8421286 77.4521122,64.2069189 79.127864,61.8234487 C88.0179444,49.125132 88.8203236,40.8508809 87.927978,36.1456635 C86.9496003,30.9865163 83.7708711,28.8438797 83.7388555,28.8228581 L83.8760774,28.6099081 C83.9088929,28.6314273 87.1713807,30.8238595 88.1732952,36.0876822 C88.7508821,39.1222988 88.4791411,42.5825665 87.3656309,46.3723038 C85.979765,51.0888081 83.2773497,56.3366331 79.3334821,61.9700471 C77.6730013,64.3317134 76.3919124,66.9428088 75.5374056,69.7071513 C73.6296893,75.9133042 73.35979,84.4388375 82.9079622,89.8103132 L82.7854269,90.032068 Z" id="Path" fill="#2F2E41"></path>
                                <path d="M74.7680259,66.5189934 C71.3072968,64.5723149 71.4036504,61.4870957 72.0938794,59.2417668 C72.3999105,58.2514411 72.858797,57.3160138 73.4536283,56.4699565 C76.5680796,52.0213429 76.8495298,49.1314617 76.5372308,47.4905051 C76.198015,45.7085906 75.1098843,44.9770354 75.0989516,44.969839 L75.2361168,44.7568902 C75.28448,44.7885773 76.4252137,45.5555422 76.7844047,47.4426275 C77.2521159,49.8998516 76.2006715,52.986372 73.6592615,56.6165525 C73.0796532,57.4407785 72.6325029,58.3521006 72.3342935,59.3169256 C71.6716572,61.4725849 71.5772668,64.4334082 74.8905752,66.2972445 L74.7680259,66.5189934 Z" id="Path" fill="#2F2E41"></path>
                                <path d="M90.33825,38.3250099 L90.21571,38.1031267 C93.5290195,36.2392332 93.4346291,33.2784099 92.7719917,31.1228743 C92.4737845,30.1580295 92.0266347,29.2466867 91.4470248,28.4224394 C88.9056137,24.792322 87.8541704,21.7057385 88.3218816,19.2485144 C88.6810679,17.3614291 89.8218029,16.5944654 89.8701695,16.5627771 L90.0075152,16.7755974 C89.9965189,16.7829141 88.902853,17.5240813 88.567141,19.3064302 C88.2582832,20.9464606 88.5428055,23.8338609 91.6526476,28.2758363 C92.247455,29.1218856 92.7063398,30.0572886 93.0123965,31.0475848 C93.7026255,33.2929254 93.7989826,36.3781446 90.33825,38.3250099 Z" id="Path" fill="#2F2E41"></path>
                                <path d="M97.7271729,25.6880899 C96.5873886,27.4493572 94.2487808,27.9452364 92.5029142,26.7958434 C90.7570476,25.6464504 90.264615,23.2867529 91.40286,21.5244721 C92.5422302,19.7621484 98.2784379,17.8625368 98.2784379,17.8625368 C98.2784379,17.8625368 98.8665431,23.9257672 97.7271729,25.6880899 Z" id="Path" fill="#FF9443"></path>
                                <path d="M96.3427817,13.8770445 C95.2027806,15.6377588 92.864581,16.133267 91.1189995,14.9840614 C89.3734179,13.8348559 88.8808136,11.4756848 90.0184699,9.7134268 C91.1578402,7.95110302 96.8940479,6.05149146 96.8940479,6.05149146 C96.8940479,6.05149146 97.4821519,12.1147219 96.3427817,13.8770445 Z" id="Path" fill="#FF9D53"></path>
                                <path d="M90.2573179,57.1482487 C88.4328435,57.1512092 86.8499747,55.8777862 86.4463465,54.0823048 C86.0427182,52.2868234 86.9261325,50.4488249 88.5732862,49.6570741 C90.4736893,48.7432667 96.1736738,50.0809883 96.4154873,50.1383493 L96.5683182,50.1746888 L96.4999834,50.3173158 C96.3918278,50.5428539 93.8296474,55.8520686 91.9290591,56.7657533 L91.9290591,56.7657533 C91.4070638,57.0174961 90.8358628,57.1482487 90.2573179,57.1482487 L90.2573179,57.1482487 Z M90.5747783,49.5928893 C89.8017119,49.5928893 89.1242654,49.6735659 88.6815645,49.8863909 C86.8628685,50.7617897 86.0912656,52.958842 86.9578188,54.7945619 C87.8243721,56.6302819 90.0011868,57.4100523 91.8207797,56.5365533 C93.4741465,55.7416894 95.7736828,51.2180982 96.2030468,50.350241 C95.5160137,50.1962722 92.688667,49.5928893 90.5747783,49.5928893 L90.5747783,49.5928893 Z" id="Shape" fill="#2F2E41"></path>
                                <path d="M82.5632679,22.1923763 C83.5600171,23.1095104 83.9961839,24.4935819 83.7074687,25.8232243 C83.4187534,27.1528667 82.4490188,28.2260757 81.1635544,28.638584 C79.87809,29.0510922 78.4721885,28.7402298 77.4754393,27.8230956 C75.9345988,26.4053305 74.9974621,20.386971 74.9974621,20.386971 C74.9974621,20.386971 81.0224262,20.7746111 82.5632679,22.1923763 Z" id="Path" fill="#F38633"></path>
                                <path d="M73.7535049,38.1944373 C75.2943459,39.6122033 75.4044956,42.0220093 73.9995311,43.5768898 C72.5945667,45.1317703 70.2065197,45.2429237 68.6656787,43.8251578 C67.1248382,42.4073915 66.1877015,36.389032 66.1877015,36.389032 C66.1877015,36.389032 72.2126633,36.7766722 73.7535049,38.1944373 Z" id="Path" fill="#E87722"></path>
                                <path d="M83.6283027,40.438687 C82.3681056,40.438687 79.958388,39.2344768 79.8478352,39.1788527 L79.7072948,39.1081583 L79.8062933,38.9851266 C79.8909132,38.8800165 81.8911158,36.4071662 83.0161178,36.1613447 L83.0161178,36.1613447 C84.1784978,35.9080378 85.3243812,36.6532254 85.5759837,37.8260694 C85.8275861,38.9989134 85.0897016,40.1556111 83.927574,40.410094 C83.8290912,40.430221 83.7287787,40.439805 83.6283027,40.438687 L83.6283027,40.438687 Z M80.1035377,39.0215899 C80.6970415,39.3074653 82.9700905,40.3595603 83.8743562,40.1618033 C84.9001714,39.9365914 85.5512473,38.9153474 85.3291057,37.8799583 C85.1069641,36.8445691 84.0955998,36.1865292 83.0693356,36.4096483 C82.1647609,36.607278 80.5266963,38.5136503 80.1035377,39.0215899 L80.1035377,39.0215899 Z" id="Shape" fill="#2F2E41"></path>
                            </g>
                        </g>
                    </g>
                </g>
            </g>
        </g>
    </g>
</svg>