<?xml version="1.0" encoding="UTF-8"?>
<svg width="125px" height="124px" viewBox="0 0 125 124" version="1.1" xmlns="http://www.w3.org/2000/svg" xmlns:xlink="http://www.w3.org/1999/xlink">
    <title>Purchase Housewares</title>
    <g id="Page-1" stroke="none" stroke-width="1" fill="none" fill-rule="evenodd">
        <g id="04_Rewards_earnpoints-Copy-2" transform="translate(-33.000000, -308.000000)">
            <g id="Group-3" transform="translate(12.000000, 84.000000)">
                <g id="Bast-place-Copy-2" transform="translate(0.000000, 198.000000)">
                    <g id="Purchase-Housewares" transform="translate(21.008903, 26.000000)">
                        <rect id="Rectangle" fill="#FFFFFF" x="0" y="0" width="124" height="124"></rect>
                        <g id="Group-9" transform="translate(0.000000, 13.500000)" fill-rule="nonzero">
                            <path d="M100.497344,91.5802191 C85.6254058,89.5917357 70.9318972,97.4148254 55.9741108,96.9826961 C48.06261,96.7537192 40.3379553,94.228087 32.7041987,91.7076197 C26.8328551,89.7742285 20.3168084,87.2313801 17.5174837,80.7132864 C16.2667933,77.8002873 15.8779514,74.2812743 14.0195904,71.8864861 C12.5955202,70.0495061 10.5368467,69.1800827 8.7677005,67.8492622 C1.06156206,62.0456453 0.177830592,49.0645501 0.849466511,38.1339171 C1.22147538,32.070334 1.85102885,25.8621338 4.19586302,20.4803164 C6.54069719,15.098499 10.9526214,10.6480838 15.9890491,10.4724775 C19.173849,10.3605715 22.2172519,11.9134823 25.3162035,12.7811842 C28.4151552,13.648886 32.0493957,13.6747105 34.3757136,11.0595535 C36.2845736,8.91268008 36.8838277,5.46425389 38.7926877,3.31221558 C40.2790398,1.64051221 42.352863,0.991457457 44.357671,0.593760777 C55.139195,-1.54450449 66.6243375,2.16733119 75.0795436,10.5206831 C77.1348505,12.5504857 79.0925261,14.8919033 81.6040068,15.9334899 C84.94872,17.3194026 88.6048433,16.1452505 92.1414525,16.1745182 C104.618058,16.277816 113.079997,30.0887371 121.873546,38.7950233 C127.014338,43.8858851 121.53857,94.3916419 100.497344,91.5802191 Z" id="Path" fill="#E87722" opacity="0.1"></path>
                            <g id="undraw_at_home_octe" transform="translate(8.175169, 15.000000)">
                                <rect id="Rectangle" fill="#3F3D56" x="83.7438863" y="0.604926183" width="7.22212435" height="25.201273"></rect>
                                <polygon id="Path" fill="#3F3D56" points="78.1700676 0 42.9110893 0.324986208 21.5224455 21.3259033 21.9546158 21.6060112 21.8003125 21.6060112 21.8003125 65.2881875 56.2443151 67 95.7355034 60.7493998 95.688107 21.6060112 95.7355034 21.0653343"></polygon>
                                <g id="Group-7" transform="translate(0.279417, 19.262053)">
                                    <ellipse id="Oval" fill="#FFBB88" cx="19.2056645" cy="31.7045325" rx="4.40639861" ry="9.06334024"></ellipse>
                                    <path d="M19.6125769,46.5397576 C17.8477684,35.8658519 19.5948085,25.2305096 19.6126617,25.1244136 L19.9559448,25.1830302 C19.9381765,25.2886133 18.2011668,35.8680775 19.9560296,46.4821668 L19.6125769,46.5397576 Z" id="Path" fill="#3F3D56"></path>
                                    <polygon id="Rectangle" fill="#3F3D56" transform="translate(21.174924, 30.984652) rotate(-28.141600) translate(-21.174924, -30.984652) " points="18.9120736 30.8170192 23.4389431 30.8018632 23.4377751 31.1522847 18.9109056 31.1674406"></polygon>
                                    <polygon id="Rectangle" fill="#3F3D56" transform="translate(16.969316, 32.061470) rotate(-61.842040) translate(-16.969316, -32.061470) " points="16.8016864 29.7985369 17.1521071 29.7973685 17.1369449 34.3244029 16.7865242 34.3255713"></polygon>
                                    <ellipse id="Oval" fill="#E87722" cx="8.61839631" cy="17.7268253" rx="8.61839631" ry="17.7268253"></ellipse>
                                    <path d="M9.57835343,46.7152715 C6.13120025,25.8658874 9.54358296,5.09243466 9.57843975,4.88504187 L9.92172288,4.94365845 C9.8869524,5.15053835 6.48460016,25.8681145 9.92180768,46.6576792 L9.57835343,46.7152715 Z" id="Path" fill="#3F3D56"></path>
                                    <polygon id="Rectangle" fill="#3F3D56" transform="translate(12.470026, 16.318763) rotate(-28.141600) translate(-12.470026, -16.318763) " points="8.04348995 16.1583746 16.8977297 16.1287307 16.8965617 16.4791521 8.04232196 16.5087961"></polygon>
                                    <polygon id="Rectangle" fill="#3F3D56" transform="translate(4.244397, 18.424915) rotate(-61.842580) translate(-4.244397, -18.424915) " points="4.08401358 13.9983713 4.43443436 13.9972029 4.40477952 22.851459 4.05435874 22.8526274"></polygon>
                                </g>
                                <polygon id="Path" fill="#FFCEAA" points="56.2443151 25.9795104 56.2443151 67 95.688107 60.7493998 95.688107 21.0459481 78.1883901 0.0448783209"></polygon>
                                <rect id="Rectangle" fill="#3F3D56" x="72.0773735" y="43.5499501" width="8.05545286" height="7.1775074"></rect>
                                <rect id="Rectangle" fill="#3F3D56" x="72.0773735" y="31.1264692" width="8.05545286" height="7.06368438"></rect>
                                <rect id="Rectangle" fill="#E87722" x="72.0773735" y="43.5499501" width="8.05545286" height="7.1775074"></rect>
                                <rect id="Rectangle" fill="#E87722" x="72.0773735" y="31.1264692" width="8.05545286" height="7.06368438"></rect>
                                <path d="M50.7739568,64.0073739 C50.7739568,64.0073739 50.9466463,60.3597007 54.4867994,60.7836924" id="Path" fill="#E6E6E6"></path>
                                <ellipse id="Oval" fill="#E87722" cx="49.7736704" cy="58.7500511" rx="1.77182097" ry="1.78610985"></ellipse>
                                <rect id="Rectangle" fill="#E6E6E6" x="49.4853686" y="61.7577535" width="1" height="3.52923421"></rect>
                                <rect id="Rectangle" fill="#3F3D56" x="36.2783838" y="41.6454424" width="8.05545286" height="7.1775074"></rect>
                                <rect id="Rectangle" fill="#3F3D56" x="36.2783838" y="29.2219615" width="8.05545286" height="7.06368438"></rect>
                                <rect id="Rectangle" fill="#FFFFFF" x="36.2783838" y="41.6454424" width="8.05545286" height="7.1775074"></rect>
                                <rect id="Rectangle" fill="#FFFFFF" x="36.2783838" y="29.2219615" width="8.05545286" height="7.06368438"></rect>
                            </g>
                        </g>
                    </g>
                </g>
            </g>
        </g>
    </g>
</svg>