<?xml version="1.0" encoding="UTF-8"?>
<svg width="125px" height="124px" viewBox="0 0 125 124" version="1.1" xmlns="http://www.w3.org/2000/svg" xmlns:xlink="http://www.w3.org/1999/xlink">
    <title>Purchase Electronics</title>
    <g id="Page-1" stroke="none" stroke-width="1" fill="none" fill-rule="evenodd">
        <g id="04_Rewards_earnpoints-Copy-2" transform="translate(-28.000000, -104.000000)">
            <g id="Group-3" transform="translate(12.000000, 84.000000)">
                <g id="Purchase-Electronics" transform="translate(16.966346, 20.000000)">
                    <rect id="Rectangle" fill="#FFFFFF" x="0" y="0" width="124" height="124"></rect>
                    <g id="undraw_online_wishes_dlmr" transform="translate(0.000000, 9.000000)" fill-rule="nonzero">
                        <path d="M101.775199,39.4170708 C96.0526781,16.91482 76.279568,0.671340553 53.0702144,0.0198291346 C40.8001245,-0.324608437 27.8885652,3.74483603 18.4879985,17.9852977 C1.68347072,43.4416628 19.5206768,61.0327934 31.956305,69.391747 C37.9642211,73.4382795 43.3776884,78.303886 48.0399093,83.8476371 C56.4397722,93.8154236 72.5991907,106.201799 91.844329,86.7942537 C105.79323,72.7276409 105.586963,54.4057906 101.775199,39.4170708 Z" id="Path" fill="#FCF1E8"></path>
                        <path d="M123.423077,89.2736918 C123.423077,95.289746 95.1309176,105.963596 60.2307692,105.963596 C25.3306209,105.963596 0.350961538,84.3330152 0.350961538,78.316961 C0.350961538,72.3009068 25.3306209,84.1775379 60.2307692,84.1775379 C95.1309176,84.1775379 123.423077,83.2576388 123.423077,89.2736918 Z" id="Path" fill="#E87722" opacity="0.1"></path>
                        <path d="M123.423077,89.2099899 C123.423077,95.2260441 95.1309176,100.103019 60.2307692,100.103019 C25.3306209,100.103019 0.350961538,84.3330152 0.350961538,78.316961 C0.350961538,72.3009068 25.3306209,78.316961 60.2307692,78.316961 C95.1309176,78.316961 123.423077,83.1939369 123.423077,89.2099899 Z" id="Path" fill="#FFD3B1"></path>
                        <path d="M50.5723181,72.2565193 L49.2925885,80.4271012 C49.2925885,80.4271012 42.9923791,83.7740869 47.4222134,83.872528 C51.8520476,83.9709692 72.7214882,83.872528 72.7214882,83.872528 C72.7214882,83.872528 76.7575592,83.872528 70.3589113,80.3286626 L69.0791817,71.7643213 L50.5723181,72.2565193 Z" id="Path" fill="#2F2E41"></path>
                        <path d="M46.5310693,83.7838728 C47.5371342,82.8886939 49.2925846,81.9559487 49.2925846,81.9559487 L50.5723155,73.7853616 L69.0791778,73.8027714 L70.3589087,81.8575037 C71.8510358,82.6839177 72.7753775,83.317469 73.3161329,83.8033911 C74.1379514,83.6158844 75.0360466,82.919081 70.3589087,80.3286575 L69.0791778,71.7643098 L50.5723155,72.2565155 L49.2925846,80.4271025 C49.2925846,80.4271025 43.9985599,83.2399106 46.5310693,83.7838728 Z" id="Path" fill="#000000" opacity="0.1"></path>
                        <rect id="Rectangle" fill="#2F2E41" x="18.0376476" y="15.3085417" width="83.3793197" height="58.0800462" rx="4"></rect>
                        <rect id="Rectangle" fill="#E87722" x="20.843209" y="18.4094264" width="77.768197" height="43.5108137"></rect>
                        <path d="M20.843209,18.4094264 L98.6114059,18.4094264 C95.052279,31.2808629 86.8409367,41.3151207 73.9773791,48.5121997 C61.1138214,55.7092788 43.4024314,60.1786305 20.843209,61.9202551 L20.843209,18.4094264 Z" id="Rectangle-Copy-2" fill="#FFB074"></path>
                        <circle id="Oval" fill="#F2F2F2" cx="59.7273075" cy="17.0312557" r="1"></circle>
                        <path d="M101.416969,65.3656657 L101.416969,70.457019 C101.416969,71.2345482 101.108234,71.9802593 100.558438,72.5300549 C100.008641,73.0798505 99.262929,73.3886791 98.4853997,73.3885815 L20.9692165,73.3885815 C20.1916883,73.3886775 19.4459782,73.0798481 18.8961827,72.5300527 C18.3463873,71.9802573 18.0376539,71.2345471 18.0376539,70.457019 L18.0376539,65.3656657 L101.416969,65.3656657 Z" id="Path" fill="#2F2E41"></path>
                        <polygon id="Path" fill="#2F2E41" points="81.48275 89.1882981 81.48275 90.1727476 28.5216082 90.1727476 28.5216082 89.3852644 28.5944832 89.1882981 29.8997356 85.6444327 80.3998173 85.6444327"></polygon>
                        <path d="M101.863887,88.2245899 C101.767417,88.6370509 101.403185,89.0721758 100.580222,89.4836508 C97.627001,90.9602613 91.6221125,89.0898888 91.6221125,89.0898888 C91.6221125,89.0898888 86.9953972,88.3023623 86.9953972,86.2351062 C87.1253079,86.1461478 87.2607766,86.0655914 87.4009733,85.9939307 C88.6425901,85.3370518 92.7593893,83.7161475 100.058909,86.0625632 C100.59667,86.231363 101.077012,86.5461422 101.446426,86.9718355 C101.74222,87.318095 101.97414,87.7573057 101.863887,88.2245899 Z" id="Path" fill="#2F2E41"></path>
                        <path d="M101.863887,88.2245899 C98.2491458,89.6096583 95.0271816,89.7130134 91.7205536,87.416396 C90.0529647,86.2587307 88.5379622,85.9722657 87.4009733,85.993932 C88.6425901,85.3370531 92.7593893,83.7161487 100.058909,86.0625645 C100.59667,86.2313643 101.077012,86.5461434 101.446426,86.9718368 C101.74222,87.318095 101.97414,87.7573057 101.863887,88.2245899 Z" id="Path" fill="#000000" opacity="0.1"></path>
                        <ellipse id="Oval" fill="#F2F2F2" cx="97.3316763" cy="87.0226327" rx="1.27972959" ry="1"></ellipse>
                        <circle id="Oval" fill="#F2F2F2" cx="59.7273075" cy="69.401738" r="1.87037382"></circle>
                        <polygon id="Path" fill="#000000" opacity="0.1" points="81.48275 89.1882981 81.48275 90.1727476 28.5216082 90.1727476 28.5216082 89.3852644 28.5944832 89.1882981"></polygon>
                    </g>
                </g>
            </g>
        </g>
    </g>
</svg>