<svg width="28" height="22" xmlns="http://www.w3.org/2000/svg">
    <path d="M20.107.645c-3.409 1.231-7.91.947-12.164-.028-.426-.07-.89.226-1.021.562C5.259 5.802 3.539 9.954.26 14.514a.9.9 0 0 0-.095.847.9.9 0 0 0 .665.533l3.534.59a.908.908 0 0 0 .929-.461l1.85-3.525 1.223 5.09a.9.9 0 0 0 .543.616l6.183 2.356c.196.076.419.08.617.01l10.305-3.83c.47-.169.715-.787.488-1.233-2.319-4.606-4.246-9.33-5.226-14.2C21 .74 20.637.527 20.107.645zM8.918 2.587c3.692.72 7.516.947 10.858 0 1 4.436 2.694 8.709 4.72 12.838l-8.677 3.22c-2.95-5.357-5.538-10.556-6.9-16.058zM7.575 4.418c1.344 4.715 3.485 9.17 5.898 13.639l-3.506-1.335-1.656-6.911a.906.906 0 0 0-.75-.665.906.906 0 0 0-.888.463l-2.65 5.034-1.573-.267c2.284-3.394 3.822-6.633 5.125-9.958z" fill="#E87722" fill-rule="nonzero"/>
</svg>
