<svg xmlns="http://www.w3.org/2000/svg" width="66" height="66" viewBox="0 0 66 66">
    <g fill="none" fill-rule="evenodd">
        <g fill="#E87722">
            <g>
                <g>
                    <path fill-rule="nonzero" d="M33 0C14.775 0 0 14.775 0 33s14.775 33 33 33 33-14.775 33-33S51.225 0 33 0zm0 6c14.912 0 27 12.088 27 27S47.912 60 33 60 6 47.912 6 33 18.088 6 33 6z" transform="translate(-153.000000, -54.000000) translate(33.500000, 54.000000) translate(119.500000, 0.000000)"/>
                    <path d="M26.582 39.814l19.253-18.942c1.182-1.163 3.097-1.163 4.279 0 1.181 1.162 1.181 3.047 0 4.21L28.722 46.127c-1.182 1.163-3.097 1.163-4.279 0l-8.557-8.419c-1.181-1.162-1.181-3.047 0-4.209 1.182-1.162 3.097-1.162 4.279 0l6.417 6.314z" transform="translate(-153.000000, -54.000000) translate(33.500000, 54.000000) translate(119.500000, 0.000000)"/>
                </g>
            </g>
        </g>
    </g>
</svg>
