<?xml version="1.0" encoding="UTF-8"?>
<svg width="180px" height="180px" viewBox="0 0 180 180" version="1.1" xmlns="http://www.w3.org/2000/svg" xmlns:xlink="http://www.w3.org/1999/xlink">
    <title>7DCF9445-F171-49B4-949E-6EDBEF65BB72</title>
    <g id="Page-1" stroke="none" stroke-width="1" fill="none" fill-rule="evenodd">
        <g id="06_insurance_main" transform="translate(-117.000000, -200.000000)" fill-rule="nonzero">
            <g id="Group" transform="translate(48.000000, 200.000000)">
                <g id="Under-construction" transform="translate(69.000000, 0.000000)">
                    <path d="M175.54902,87.476553 C175.338609,87.8683966 175.119053,88.2535152 174.892498,88.6364066 C166.204649,103.295814 145.994713,112.400003 111.911469,107.581459 C92.5592098,104.71541 84.3175836,115.227998 76.3371659,125.995834 C76.2006925,126.181683 76.0643304,126.367533 75.9255999,126.553383 C67.5683782,137.845168 59.2943583,149.168318 38.6059148,145.404377 C16.6736258,142.045725 3.1379485,124.797909 1.04342494,106.383531 C1.01791376,106.15962 0.994884626,105.933469 0.974001495,105.709558 C-0.202680395,93.7706616 3.43381315,81.4085723 12.711131,72.0759948 C18.315042,66.4401768 26.2769475,63.4464993 34.4954308,63.5405364 C36.9699297,63.5851811 39.4433735,63.4075327 41.8840081,63.009872 C42.4226801,62.9180748 42.9452109,62.8173127 43.4537464,62.7031159 C53.9239986,60.3856487 58.7488142,53.4959272 61.7078894,45.0881002 C61.7773102,44.8888159 61.8466199,44.6895342 61.9136724,44.4880227 C68.7081521,24.4368631 65.5663072,-3.70641802 102.504677,0.433683667 C135.559112,2.79369215 159.817123,20.5453042 171.715999,41.0263687 C171.83396,41.2323601 171.95181,41.4383694 172.067403,41.6443607 C175.337841,47.3271853 177.671623,53.4699543 178.984345,59.8505043 C179.058397,60.2087537 179.125449,60.5670184 179.187871,60.9252704 C180.870839,70.4369752 179.768095,79.682238 175.54902,87.476553 Z" id="Path" fill="#F2F2F2"></path>
                    <rect id="Rectangle" fill="#DEDEDE" x="55.987014" y="21.5668203" width="77.7272727" height="158.43318" rx="10"></rect>
                    <rect id="Rectangle" fill="#FFFFFF" x="61.3051948" y="31.8885207" width="67.0909091" height="140.184332"></rect>
                    <path d="M93.679955,114.688597 C93.8517344,114.711548 93.9801387,114.860009 93.9801387,115.035669 C93.9801387,115.211329 93.8517344,115.35979 93.679955,115.38274 L68.9450221,115.38274 C68.7732428,115.35979 68.6448384,115.211329 68.6448384,115.035669 C68.6448384,114.860009 68.7732428,114.711548 68.9450221,114.688597 L93.679955,114.688597 Z M104.246318,114.688597 C104.418098,114.711548 104.546502,114.860009 104.546502,115.035669 C104.546502,115.211329 104.418098,115.35979 104.246318,115.38274 L97.1620458,115.38274 C96.9902665,115.35979 96.8618621,115.211329 96.8618621,115.035669 C96.8618621,114.860009 96.9902665,114.711548 97.1620458,114.688597 L104.246318,114.688597 Z M104.246318,110.940231 C104.418098,110.963182 104.546502,111.111643 104.546502,111.287303 C104.546502,111.462963 104.418098,111.611424 104.246318,111.634375 L97.1620458,111.634375 C96.9902665,111.611424 96.8618621,111.462963 96.8618621,111.287303 C96.8618621,111.111643 96.9902665,110.963182 97.1620458,110.940231 L104.246318,110.940231 Z M116.13349,110.940231 C116.305269,110.963182 116.433674,111.111643 116.433674,111.287303 C116.433674,111.462963 116.305269,111.611424 116.13349,111.634375 L109.049215,111.634375 C108.877436,111.611424 108.749032,111.462963 108.749032,111.287303 C108.749032,111.111643 108.877436,110.963182 109.049215,110.940231 L116.13349,110.940231 Z M93.619919,110.870817 C93.7916983,110.893768 93.9201027,111.042228 93.9201027,111.217888 C93.9201027,111.393548 93.7916983,111.542009 93.619919,111.56496 L68.884986,111.56496 C68.7132067,111.542009 68.5848023,111.393548 68.5848023,111.217888 C68.5848023,111.042228 68.7132067,110.893768 68.884986,110.870817 L93.619919,110.870817 Z M120.816315,107.053038 C120.988091,107.075993 121.116491,107.224452 121.116491,107.400109 C121.116491,107.575765 120.988091,107.724225 120.816315,107.747179 L81.9128453,107.747179 C81.7410695,107.724225 81.6126694,107.575765 81.6126694,107.400109 C81.6126694,107.224452 81.7410695,107.075993 81.9128453,107.053038 L120.816315,107.053038 Z M76.0292966,107.053038 C76.2010724,107.075993 76.3294724,107.224452 76.3294724,107.400109 C76.3294724,107.575765 76.2010724,107.724225 76.0292966,107.747179 L68.9450221,107.747179 C68.7732463,107.724225 68.6448463,107.575765 68.6448463,107.400109 C68.6448463,107.224452 68.7732463,107.075993 68.9450221,107.053038 L76.0292966,107.053038 Z M93.7399911,103.235257 C93.9117669,103.258212 94.040167,103.406671 94.040167,103.582328 C94.040167,103.757985 93.9117669,103.906444 93.7399911,103.929398 L69.0050582,103.929398 C68.8332824,103.906444 68.7048823,103.757985 68.7048823,103.582328 C68.7048823,103.406671 68.8332824,103.258212 69.0050582,103.235257 L93.7399911,103.235257 Z M93.9501071,70.9144086 C94.1218829,70.9373631 94.2502829,71.0858223 94.2502829,71.2614791 C94.2502829,71.437136 94.1218829,71.5855952 93.9501071,71.6085496 L69.2151866,71.6085496 C69.0434107,71.5855952 68.9150107,71.437136 68.9150107,71.2614791 C68.9150107,71.0858223 69.0434107,70.9373631 69.2151866,70.9144086 L93.9501071,70.9144086 Z M105.17688,70.8449939 C105.348655,70.8679483 105.477055,71.0164075 105.477055,71.1920644 C105.477055,71.3677213 105.348655,71.5161805 105.17688,71.5391349 L98.0926072,71.5391349 C97.9208314,71.5161805 97.7924314,71.3677213 97.7924314,71.1920644 C97.7924314,71.0164075 97.9208314,70.8679483 98.0926072,70.8449939 L105.17688,70.8449939 Z M117.064051,70.8449939 C117.235827,70.8679483 117.364227,71.0164075 117.364227,71.1920644 C117.364227,71.3677213 117.235827,71.5161805 117.064051,71.5391349 L109.979777,71.5391349 C109.808001,71.5161805 109.679601,71.3677213 109.679601,71.1920644 C109.679601,71.0164075 109.808001,70.8679483 109.979777,70.8449939 L117.064051,70.8449939 Z M93.890071,67.0966279 C94.0618468,67.1195824 94.1902468,67.2680416 94.1902468,67.4436984 C94.1902468,67.6193553 94.0618468,67.7678145 93.890071,67.7907689 L69.1551505,67.7907689 C68.9833747,67.7678145 68.8549746,67.6193553 68.8549746,67.4436984 C68.8549746,67.2680416 68.9833747,67.1195824 69.1551505,67.0966279 L93.890071,67.0966279 Z M105.17688,67.0966279 C105.348655,67.1195824 105.477055,67.2680416 105.477055,67.4436984 C105.477055,67.6193553 105.348655,67.7678145 105.17688,67.7907689 L98.0926072,67.7907689 C97.9208314,67.7678145 97.7924314,67.6193553 97.7924314,67.4436984 C97.7924314,67.2680416 97.9208314,67.1195824 98.0926072,67.0966279 L105.17688,67.0966279 Z M120.786307,63.348262 C120.958083,63.3712164 121.086483,63.5196756 121.086483,63.6953325 C121.086483,63.8709893 120.958083,64.0194485 120.786307,64.042403 L96.0513741,64.042403 C95.8795983,64.0194485 95.7511983,63.8709893 95.7511983,63.6953325 C95.7511983,63.5196756 95.8795983,63.3712164 96.0513741,63.348262 L120.786307,63.348262 Z M93.8300349,63.2788451 C94.0018107,63.3017996 94.1302107,63.4502588 94.1302107,63.6259156 C94.1302107,63.8015725 94.0018107,63.9500317 93.8300349,63.9729861 L69.0951144,63.9729861 C68.9233386,63.9500317 68.7949385,63.8015725 68.7949385,63.6259156 C68.7949385,63.4502588 68.9233386,63.3017996 69.0951144,63.2788451 L93.8300349,63.2788451 Z M120.786297,59.4610666 C120.958076,59.4840174 121.08648,59.6324782 121.08648,59.8081381 C121.08648,59.983798 120.958076,60.1322588 120.786297,60.1552096 L81.8828272,60.1552096 C81.7110479,60.1322588 81.5826435,59.983798 81.5826435,59.8081381 C81.5826435,59.6324782 81.7110479,59.4840174 81.8828272,59.4610666 L120.786297,59.4610666 Z M75.9992786,59.4610666 C76.1710579,59.4840174 76.2994623,59.6324782 76.2994623,59.8081381 C76.2994623,59.983798 76.1710579,60.1322588 75.9992786,60.1552096 L68.9150041,60.1552096 C68.7432247,60.1322588 68.6148204,59.983798 68.6148204,59.8081381 C68.6148204,59.6324782 68.7432247,59.4840174 68.9150041,59.4610666 L75.9992786,59.4610666 Z" id="Combined-Shape" fill="#CCCCCC"></path>
                    <path d="M87.7664775,77.7754385 L89.9876716,80.0275505 L82.663286,87.453195 L89.9277682,94.8181079 L87.7664775,97.0092782 L78.1605797,87.3924634 L87.7664775,77.7754385 Z M101.934985,77.7754385 L111.540676,87.3924634 L101.934985,97.0092782 L99.7736943,94.8181079 L107.037969,87.453195 L99.7135836,80.0275505 L101.934985,77.7754385 Z" id="Combined-Shape" fill="#E87722"></path>
                    <path d="M67.335605,27.4205658 C67.8867711,27.4205658 68.3335795,27.8735513 68.3335795,28.4323372 C68.3335795,28.9911231 67.8867711,29.4441086 67.335605,29.4441086 C66.7844389,29.4441086 66.3376305,28.9911231 66.3376305,28.4323372 C66.3376305,27.8735513 66.7844389,27.4205658 67.335605,27.4205658 Z M71.1236655,27.4205658 C71.6748316,27.4205658 72.12164,27.8735513 72.12164,28.4323372 C72.12164,28.9911231 71.6748316,29.4441086 71.1236655,29.4441086 C70.5724994,29.4441086 70.125691,28.9911231 70.125691,28.4323372 C70.125691,27.8735513 70.5724994,27.4205658 71.1236655,27.4205658 Z M74.911726,27.4205658 C75.4628921,27.4205658 75.9097005,27.8735513 75.9097005,28.4323372 C75.9097005,28.9911231 75.4628921,29.4441086 74.911726,29.4441086 C74.3605599,29.4441086 73.9137515,28.9911231 73.9137515,28.4323372 C73.9137515,27.8735513 74.3605599,27.4205658 74.911726,27.4205658 Z" id="Combined-Shape" fill="#FFFFFF"></path>
                    <path d="M37.9221026,169.87331 C44.6703752,179.035634 58.6784586,179.999991 58.6784586,179.999991 C58.6784586,179.999991 61.7454498,166.10928 54.9971772,156.946957 C48.2489045,147.784633 34.2408211,146.820276 34.2408211,146.820276 C34.2408211,146.820276 31.1738299,160.710982 37.9221026,169.87331 Z" id="Path" fill="#FF903C"></path>
                    <path d="M72.2992229,173.31771 C67.8462376,179.363652 58.6027142,180 58.6027142,180 C58.6027142,180 56.5788993,170.833943 61.0318799,164.788 C65.4848605,158.742058 74.7283886,158.105686 74.7283886,158.105686 C74.7283886,158.105686 76.7522035,167.271753 72.2992229,173.31771 Z" id="Path" fill="#E87722"></path>
                </g>
            </g>
        </g>
    </g>
</svg>