<?xml version="1.0" encoding="UTF-8"?>
<svg width="128px" height="128px" viewBox="0 0 128 128" version="1.1" xmlns="http://www.w3.org/2000/svg" xmlns:xlink="http://www.w3.org/1999/xlink">
    <title>earn3</title>
    <defs>
        <linearGradient x1="34.785216%" y1="6.51388665e-14%" x2="88.8244777%" y2="58.0798609%" id="linearGradient-1">
            <stop stop-color="#FFF9F1" offset="0%"></stop>
            <stop stop-color="#FFF4EB" offset="100%"></stop>
        </linearGradient>
        <circle id="path-2" cx="64" cy="64" r="64"></circle>
    </defs>
    <g id="Symbols" stroke="none" stroke-width="1" fill="none" fill-rule="evenodd">
        <g id="Earning/act3" transform="translate(-16.000000, -27.000000)">
            <g id="earn3" transform="translate(16.000000, 27.000000)">
                <mask id="mask-3" fill="white">
                    <use xlink:href="#path-2"></use>
                </mask>
                <use id="Mask" fill="url(#linearGradient-1)" xlink:href="#path-2"></use>
                <g id="Group-3" mask="url(#mask-3)">
                    <g transform="translate(18.783858, 17.000000)">
                        <g id="Group-5" stroke-width="1" fill="none" fill-rule="evenodd" transform="translate(11.876477, 13.289287)">
                            <path d="M5.11061453,10.1618052 C5.49108386,12.1581094 5.32629397,13.2247579 4.61624485,13.3617508 C3.90619573,13.4987437 5.35253456,13.4987437 8.95526133,13.3617508 L8.47281969,10.1618052 L5.11061453,10.1618052 Z" id="Path-2" fill="#CC7676"></path>
                            <circle id="Oval" fill="#DB8B8B" fill-rule="nonzero" transform="translate(6.470522, 6.459035) rotate(-40.000000) translate(-6.470522, -6.459035) " cx="6.47052223" cy="6.45903536" r="4.47052223"></circle>
                            <path d="M4.34615535,5.20462506 C5.61067897,7.0475863 9.8521259,9.32437055 9.8521259,6.8553693 C9.8521259,4.38636805 7.85060492,2.38484707 5.38160367,2.38484707 C2.91260242,2.38484707 0.911081439,4.38636805 0.911081439,6.8553693 C0.911081439,9.32437055 3.08163173,3.36166382 4.34615535,5.20462506 Z" id="Oval-Copy-2" fill="#202020" fill-rule="nonzero" transform="translate(5.381604, 5.161313) rotate(-40.000000) translate(-5.381604, -5.161313) "></path>
                            <path d="M6.73699677,5.01843608 C7.04985487,5.56212452 7.32815561,6.12497994 7.57024594,6.70365912 C7.6692158,6.93320184 8.00983092,9.13413571 8.18614438,9.31133182 C8.36677753,9.48950431 8.77317728,10.1625067 9.02375081,10.1226735 C9.34441131,9.42049727 8.71713384,5.98509874 9.02375081,5.28526306 C9.18955003,4.98881834 9.37323554,4.70273792 9.57378889,4.42860801 C10.0419064,3.63514883 10.6478963,2.41476577 10.5098016,1.50427721 C10.3623446,0.523571023 10.1378705,-0.649886501 9.57378889,-1.46441097 C9.00970728,-2.27893544 6.73699677,-3.31565368 4.71293465,-2.47962219 C3.9311784,-2.37663634 6.3929304,4.49414446 6.73699677,5.01843608 Z" id="Path" fill="#E87722" fill-rule="nonzero" transform="translate(7.545131, 3.667804) rotate(-90.000000) translate(-7.545131, -3.667804) "></path>
                        </g>
                        <polygon id="f1b40e10-dbea-4491-93e9-bf21ee1afe95" fill="#FFB6B6" fill-rule="nonzero" transform="translate(30.192669, 82.913184) scale(-1, 1) translate(-30.192669, -82.913184) " points="31.8561951 87.2620759 29.6015614 87.2620759 28.5287759 78.5642919 31.8565629 78.5642919"></polygon>
                        <path d="M35.2244419,86.5258578 L30.7837755,86.5258578 C29.2210667,86.5259593 27.9542378,87.7927059 27.9540346,89.3554147 L27.9540346,89.447373 L35.2244419,89.447373 L35.2244419,86.5258578 Z" id="f19e2682-d3fb-40a9-8809-be7b68a78ac9" fill="#2F2E41" fill-rule="nonzero" transform="translate(31.589238, 87.986615) scale(-1, 1) translate(-31.589238, -87.986615) "></path>
                        <polygon id="b3618d44-3857-42e4-aed2-10e127155f21" fill="#FFB6B6" fill-rule="nonzero" transform="translate(5.162169, 81.020500) scale(-1, 1) translate(-5.162169, -81.020500) " points="8.74891104 84.2530182 6.78541737 85.3614836 1.5754278 78.3154546 4.47340173 76.6795164"></polygon>
                        <path d="M5.30588287,83.329207 L1.43903626,85.5115614 L1.43903626,85.5115614 C0.0781440211,86.2799608 -0.402227355,88.0060535 0.366066792,89.3670052 L0.411310276,89.4470089 L6.74245547,85.8729575 L5.30588287,83.329207 Z" id="a172411a-a77d-4e4f-ac70-c8342021cfb1" fill="#2F2E41" fill-rule="nonzero" transform="translate(3.371228, 86.388108) scale(-1, 1) translate(-3.371228, -86.388108) "></path>
                        <path d="M17.9881493,48.1483477 L18.1621344,49.0182733 C18.1621344,49.0182733 18.6840897,49.5402286 18.423112,49.8012063 C18.1621344,50.0621839 18.2491269,51.2802636 18.2491269,51.2802636 C18.3951567,53.5012405 21.2971768,65.9818213 21.8161895,68.4192681 C21.8161895,68.4192681 25.8182148,71.0292286 28.9501307,76.1621571 C32.0820465,81.2950856 32.1686712,82.6001579 32.1686712,82.6001579 L28.6893369,84.0793991 L19.9900815,73.5523805 C19.9900815,73.5523805 17.5541061,72.0733232 16.6839966,70.7684348 C15.8138872,69.4635465 10.4190614,55.9782293 10.4190614,55.9782293 L7.37340243,70.0723215 C7.37340243,70.0723215 7.54738754,75.2052501 6.76445456,78.5113349 C6.28304945,80.5976804 5.99188136,82.7233922 5.89452902,84.8623431 L1.80551115,84.4273804 C1.80551115,84.4273804 2.06648881,72.0733342 2.50145158,70.768262 C2.50145158,70.768262 0.674424028,55.7172627 4.32847913,49.7142247 L7.2733518,41.8633766 L10.157532,40.753256 L17.9881493,48.1483477 Z" id="bd1532c7-07e2-44c0-82ff-fc8e0d37942d" fill="#2F2E41" fill-rule="nonzero" transform="translate(16.987091, 62.807800) scale(-1, 1) translate(-16.987091, -62.807800) "></path>
                        <g id="Group-2" stroke-width="1" fill="none" fill-rule="evenodd" transform="translate(40.622394, 0.850498)">
                            <polygon id="Rectangle-Copy" fill="#FF9C51" points="0 1.45454545 36.5022265 1.45454545 36.5022265 31.7833886 0 31.7833886"></polygon>
                            <path d="M0,1.45454545 C24.3512808,1.49494833 36.5186896,1.49494833 36.5022265,1.45454545 C36.7564691,4.68483576 39.0927607,20.0298578 30.4548858,28.8722958 C24.6087436,29.2598624 14.457115,30.2302267 0,31.7833886 L0,1.45454545 Z" id="Rectangle" fill="#FFDFC8"></path>
                            <path d="M8.70744199,11.2967843 C9.11537792,11.2967843 9.50452733,11.3450925 9.87489021,11.4417089 C10.2452531,11.5383253 10.6326133,11.674304 11.0369709,11.8496449 L11.0369709,11.8496449 L10.5002131,13.1432312 L10.296916,13.0616738 C9.96815188,12.9329513 9.68970877,12.8402612 9.4615867,12.7836035 C9.18784022,12.7156141 8.91856672,12.6816195 8.6537662,12.6816195 C8.33886829,12.6816195 8.09732728,12.7549764 7.92914317,12.9016902 C7.76095905,13.048404 7.676867,13.2398476 7.676867,13.476021 C7.676867,13.6227348 7.71086166,13.7506621 7.77885098,13.8598029 C7.8468403,13.9689436 7.95508646,14.074506 8.10358945,14.17649 C8.25209245,14.2784739 8.60366881,14.4618662 9.15831854,14.7266667 C9.89188754,15.0773485 10.3946507,15.4289248 10.666608,15.7813958 C10.9385653,16.1338668 11.0745439,16.5659568 11.0745439,17.0776659 C11.0745439,17.7861862 10.819584,18.3444143 10.309664,18.7523503 C9.79974412,19.1602862 9.09032922,19.3642542 8.18141934,19.3642542 C7.34407716,19.3642542 6.60335139,19.2068052 5.95924202,18.8919073 L5.95924202,18.8919073 L5.95924202,17.3460448 L6.21725851,17.4583166 C6.6359793,17.6357449 6.99816657,17.7647159 7.30382032,17.8452296 C7.67060482,17.941846 8.00607845,17.9901542 8.31024121,17.9901542 C8.67523652,17.9901542 8.95524517,17.9203757 9.15026718,17.7808186 C9.34528918,17.6412616 9.44280018,17.4337152 9.44280018,17.1581796 C9.44280018,17.004309 9.39985956,16.8674358 9.31397831,16.7475599 C9.22809706,16.6276839 9.10195897,16.512281 8.93556405,16.4013511 C8.76916913,16.2904211 8.43011712,16.113291 7.91840801,15.8699608 C7.43890437,15.6445226 7.07927664,15.4280302 6.83952482,15.2204839 C6.599773,15.0129375 6.40832938,14.7713965 6.26519397,14.4958609 C6.12205855,14.2203252 6.05049085,13.8982705 6.05049085,13.5296968 C6.05049085,12.83549 6.28576968,12.2897863 6.75632736,11.8925855 C7.22688504,11.4953847 7.87725658,11.2967843 8.70744199,11.2967843 Z M13.9644479,11.4095035 L13.9644479,16.2134858 L13.9689541,16.4091042 C13.9929867,16.9148494 14.1131497,17.293363 14.3294432,17.5446452 C14.5727735,17.8273376 14.9753418,17.9686839 15.5371483,17.9686839 C16.0810629,17.9686839 16.4755799,17.826443 16.7206993,17.5419614 C16.9658187,17.2574798 17.0883784,16.8110762 17.0883784,16.2027507 L17.0883784,16.2027507 L17.0883784,11.4095035 L18.74696,11.4095035 L18.74696,16.4872323 L18.7390182,16.7312928 C18.7072509,17.2106504 18.5801817,17.6374276 18.3578106,18.0116245 C18.0983776,18.4481875 17.7235418,18.7827665 17.233303,19.0153616 C16.7430642,19.2479566 16.1633657,19.3642542 15.4942077,19.3642542 C14.485103,19.3642542 13.7014366,19.1057158 13.1432085,18.5886391 C12.5849804,18.0715624 12.3058663,17.3639367 12.3058663,16.465762 L12.3058663,16.465762 L12.3058663,11.4095035 L13.9644479,11.4095035 Z M22.629866,11.4095035 L26.038278,17.2870014 L26.0758511,17.2870014 L26.0615232,17.0092548 C26.0206437,16.1994404 25.9987011,15.6004559 25.9956952,15.2123013 L25.9956952,15.2123013 L25.9953374,11.4095035 L27.4928917,11.4095035 L27.4928917,19.2569026 L25.3780659,19.2569026 L21.9642863,13.3203613 L21.9159781,13.3203613 L21.9336778,13.5988543 C21.9898673,14.5023227 22.0179621,15.1573742 22.0179621,15.5640089 L22.0179621,19.2569026 L20.5311429,19.2569026 L20.5311429,11.4095035 L22.629866,11.4095035 Z M3.04113237,0.255616877 C3.88340835,0.255616877 4.56620793,0.93841646 4.56620793,1.78069243 C4.56620793,2.6229684 3.88340835,3.30576799 3.04113237,3.30576799 C2.1988564,3.30576799 1.51605682,2.6229684 1.51605682,1.78069243 C1.51605682,0.93841646 2.1988564,0.255616877 3.04113237,0.255616877 Z M9.00037439,0.255616877 C9.84265036,0.255616877 10.5254499,0.93841646 10.5254499,1.78069243 C10.5254499,2.6229684 9.84265036,3.30576799 9.00037439,3.30576799 C8.15809842,3.30576799 7.47529884,2.6229684 7.47529884,1.78069243 C7.47529884,0.93841646 8.15809842,0.255616877 9.00037439,0.255616877 Z M14.9596164,0.255616877 C15.8018924,0.255616877 16.484692,0.93841646 16.484692,1.78069243 C16.484692,2.6229684 15.8018924,3.30576799 14.9596164,3.30576799 C14.1173404,3.30576799 13.4345409,2.6229684 13.4345409,1.78069243 C13.4345409,0.93841646 14.1173404,0.255616877 14.9596164,0.255616877 Z M20.9188584,0.255616877 C21.7611344,0.255616877 22.443934,0.93841646 22.443934,1.78069243 C22.443934,2.6229684 21.7611344,3.30576799 20.9188584,3.30576799 C20.0765825,3.30576799 19.3937829,2.6229684 19.3937829,1.78069243 C19.3937829,0.93841646 20.0765825,0.255616877 20.9188584,0.255616877 Z M26.8781004,0.255616877 C27.7203764,0.255616877 28.403176,0.93841646 28.403176,1.78069243 C28.403176,2.6229684 27.7203764,3.30576799 26.8781004,3.30576799 C26.0358245,3.30576799 25.3530249,2.6229684 25.3530249,1.78069243 C25.3530249,0.93841646 26.0358245,0.255616877 26.8781004,0.255616877 Z M32.8373425,0.255616877 C33.6796184,0.255616877 34.362418,0.93841646 34.362418,1.78069243 C34.362418,2.6229684 33.6796184,3.30576799 32.8373425,3.30576799 C31.9950665,3.30576799 31.3122669,2.6229684 31.3122669,1.78069243 C31.3122669,0.93841646 31.9950665,0.255616877 32.8373425,0.255616877 Z" id="Combined-Shape" fill="#E87722" fill-rule="nonzero"></path>
                        </g>
                        <path d="M17.7985294,26.1616712 L28.1714259,26.2457211 L25.9798757,48.4843652 C25.9798757,48.4843652 13.8489203,47.8441515 13.8413797,44.1413585 L14.9778004,40.8509065 L17.7985294,26.1616712 Z" id="aa5a3aa9-e50b-4b43-b42d-0c1415925835" fill="#3F3D56" fill-rule="nonzero" transform="translate(21.006403, 37.323018) scale(-1, 1) translate(-21.006403, -37.323018) "></path>
                        <path d="M10.7020019,50.6341646 C10.3792388,50.2388459 10.2481404,49.7208745 10.343978,49.2196081 C10.4398157,48.7183418 10.7527461,48.2852647 11.1985767,48.0368943 L10.7477971,44.1218615 L13.0601806,43.2675689 L13.6191031,48.8054818 C13.9925279,49.5992404 13.7143282,50.5468512 12.9710848,51.0127783 C12.2278414,51.4787054 11.2537051,51.3161633 10.7020019,50.6341646 Z" id="aca4d347-909c-4b66-b72e-6bb1477aee43" fill="#FFB6B6" fill-rule="nonzero" transform="translate(12.048784, 47.272627) scale(-1, 1) translate(-12.048784, -47.272627) "></path>
                        <path d="M11.3430566,28.1615786 L12.7079017,26.2538116 C12.7079017,26.2538116 13.6420141,26.0465376 14.7455138,27.3339538 C15.8490134,28.6213701 16.4927215,44.714073 16.4927215,44.714073 L12.4465562,45.633656 L10.0556404,34.2308265 L11.3430566,28.1615786 Z" id="eab38d24-ad2d-4cbe-aaaa-db975580c866" fill="#3F3D56" fill-rule="nonzero" transform="translate(13.274181, 35.937585) scale(-1, 1) translate(-13.274181, -35.937585) "></path>
                        <polygon id="Path" fill="#E87722" fill-rule="nonzero" transform="translate(24.655862, 53.984393) scale(-1, 1) translate(-24.655862, -53.984393) " points="11.2428239 45.613061 11.5437114 59.9101861 20.7993146 64.8014482 37.6549036 61.7914691 38.0688998 46.9299039 27.383529 43.167338"></polygon>
                        <path d="M20.7750633,64.9558113 L11.3976651,60.0002501 L11.0921024,45.4863241 L27.3977678,43.0157613 L27.432517,43.0279568 L38.2194926,46.8262228 L37.7992873,61.9157691 L20.7750633,64.9558113 Z M11.6895224,59.8201148 L20.8232789,64.6469288 L37.5104665,61.667066 L37.9179705,47.0334857 L27.3691486,43.3190159 L11.3931187,45.7396435 L11.6895224,59.8201148 Z" id="Shape" fill="#FFFFFF" fill-rule="nonzero" transform="translate(24.655797, 53.985786) scale(-1, 1) translate(-24.655797, -53.985786) "></path>
                        <polygon id="Path" fill="#FFFFFF" fill-rule="nonzero" transform="translate(24.673058, 47.482573) scale(-1, 1) translate(-24.673058, -47.482573) " points="20.6271686 49.4894713 20.5909371 49.4751258 11.2225931 45.7502628 11.3316556 45.4756753 20.663952 49.1860089 38.0830614 46.7835063 38.1235231 47.0763015"></polygon>
                        <polygon id="Rectangle" fill="#FFFFFF" fill-rule="nonzero" transform="translate(28.606475, 57.069563) scale(-1, 1) rotate(-0.696950) translate(-28.606475, -57.069563) " points="28.4586625 49.3371919 28.7542882 49.3371919 28.7542882 64.8019336 28.4586625 64.8019336"></polygon>
                        <polygon id="Path" fill="#FFFFFF" fill-rule="nonzero" transform="translate(23.462703, 46.769621) scale(-1, 1) translate(-23.462703, -46.769621) " points="17.0225871 48.7493909 13.6455104 47.3803157 29.9028187 44.7898503 33.2798954 46.1587416"></polygon>
                        <polygon id="Rectangle" fill="#FFFFFF" fill-rule="nonzero" transform="translate(36.110612, 50.739394) scale(-1, 1) rotate(-66.705540) translate(-36.110612, -50.739394) " points="35.9628097 48.6072071 36.2584134 48.6072071 36.2584134 52.8715803 35.9628097 52.8715803"></polygon>
                        <polygon id="Rectangle" fill="#FFFFFF" fill-rule="nonzero" transform="translate(34.336985, 55.616868) scale(-1, 1) rotate(-66.705540) translate(-34.336985, -55.616868) " points="34.1891833 53.4846816 34.4847869 53.4846816 34.4847869 57.7490547 34.1891833 57.7490547"></polygon>
                        <polygon id="Path" fill="#E86E11" fill-rule="nonzero" transform="translate(76.152511, 73.847386) scale(-1, 1) translate(-76.152511, -73.847386) " points="62.7394732 65.4760543 63.0403607 79.7731794 72.2959639 84.6644415 89.1515528 81.6544624 89.5655491 66.7928972 78.8801783 63.0303313"></polygon>
                        <path d="M72.2717126,84.8188045 L62.8943144,79.8632434 L62.5887517,65.3493174 L78.8944171,62.8787546 L78.9291663,62.8909501 L89.7161419,66.6892161 L89.2959366,81.7787624 L72.2717126,84.8188045 Z M63.1861717,79.6831081 L72.3199282,84.5099221 L89.0071158,81.5300593 L89.4146198,66.896479 L78.8657979,63.1820092 L62.889768,65.6026368 L63.1861717,79.6831081 Z" id="Shape" fill="#FFFFFF" fill-rule="nonzero" transform="translate(76.152447, 73.848780) scale(-1, 1) translate(-76.152447, -73.848780) "></path>
                        <polygon id="Path" fill="#FFFFFF" fill-rule="nonzero" transform="translate(76.169707, 67.345567) scale(-1, 1) translate(-76.169707, -67.345567) " points="72.1238179 69.3524646 72.0875864 69.3381191 62.7192423 65.6132561 62.8283049 65.3386686 72.1606012 69.0490022 89.5797107 66.6464996 89.6201724 66.9392948"></polygon>
                        <polygon id="Rectangle" fill="#FFFFFF" fill-rule="nonzero" transform="translate(80.103124, 76.932559) scale(-1, 1) rotate(-0.696950) translate(-80.103124, -76.932559) " points="79.9553114 69.2001882 80.2509371 69.2001882 80.2509371 84.6649299 79.9553114 84.6649299"></polygon>
                        <polygon id="Path" fill="#FFFFFF" fill-rule="nonzero" transform="translate(75.368475, 66.464330) scale(-1, 1) translate(-75.368475, -66.464330) " points="68.5194203 68.2758168 65.9604047 67.243309 82.2177129 64.6528436 84.7765447 65.6853514"></polygon>
                        <polygon id="Rectangle" fill="#FFFFFF" fill-rule="nonzero" transform="translate(87.607258, 70.602387) scale(-1, 1) rotate(-66.705540) translate(-87.607258, -70.602387) " points="87.4594563 68.4702 87.75506 68.4702 87.75506 72.7345731 87.4594563 72.7345731"></polygon>
                        <polygon id="Rectangle" fill="#FFFFFF" fill-rule="nonzero" transform="translate(85.833630, 75.479863) scale(-1, 1) rotate(-66.705540) translate(-85.833630, -75.479863) " points="85.685828 73.3476763 85.9814317 73.3476763 85.9814317 77.6120494 85.685828 77.6120494"></polygon>
                        <polygon id="Path" fill="#FF9C51" fill-rule="nonzero" transform="translate(57.915708, 77.154115) scale(-1, 1) translate(-57.915708, -77.154115) " points="42.3453287 67.4362375 42.6947703 84.0330558 53.4389944 89.7109292 73.005698 86.2168816 73.4860882 68.9649523 61.0822006 64.5973008"></polygon>
                        <path d="M53.4106859,89.8901596 L42.5250392,84.1375517 L42.1703302,67.2892293 L61.0985766,64.4213018 L61.138915,64.4354634 L73.6608458,68.8446267 L73.1730566,86.3611531 L53.4106859,89.8901596 Z M42.8638264,83.9284551 L53.4666426,89.531605 L72.8377748,86.0724666 L73.3108194,69.0852411 L61.065352,64.7733421 L42.5197534,67.5832935 L42.8638264,83.9284551 Z" id="Shape" fill="#FFFFFF" fill-rule="nonzero" transform="translate(57.915588, 77.155731) scale(-1, 1) translate(-57.915588, -77.155731) "></path>
                        <polygon id="Path" fill="#FFFFFF" fill-rule="nonzero" transform="translate(57.935755, 69.606545) scale(-1, 1) translate(-57.935755, -69.606545) " points="53.239261 71.936309 53.197328 71.9195726 42.3219713 67.5956932 42.4486899 67.2767818 53.2819296 71.5839248 73.5026407 68.7950134 73.5495394 69.1348912"></polygon>
                        <polygon id="Rectangle" fill="#FFFFFF" fill-rule="nonzero" transform="translate(62.501682, 80.735500) scale(-1, 1) rotate(-0.696950) translate(-62.501682, -80.735500) " points="62.3300946 71.7594661 62.6732701 71.7594661 62.6732701 89.7115346 62.3300946 89.7115346"></polygon>
                        <polygon id="Path" fill="#FFFFFF" fill-rule="nonzero" transform="translate(56.918421, 68.587555) scale(-1, 1) translate(-56.918421, -68.587555) " points="49.0546065 70.6943201 45.9100003 69.4880111 64.782051 66.4807907 67.926841 67.6870997"></polygon>
                        <polygon id="Rectangle" fill="#FFFFFF" fill-rule="nonzero" transform="translate(71.212774, 73.387194) scale(-1, 1) rotate(-66.705540) translate(-71.212774, -73.387194) " points="71.0411997 70.9120704 71.3843477 70.9120704 71.3843477 75.8623183 71.0411997 75.8623183"></polygon>
                        <polygon id="Rectangle" fill="#FFFFFF" fill-rule="nonzero" transform="translate(69.153876, 79.049155) scale(-1, 1) rotate(-66.705540) translate(-69.153876, -79.049155) " points="68.9823019 76.5740314 69.3254498 76.5740314 69.3254498 81.5242792 68.9823019 81.5242792"></polygon>
                        <path d="M32.5254851,47.9771214 C32.9874278,47.760266 33.3296109,47.3499615 33.459983,46.856585 C33.5903551,46.3632084 33.4955278,45.8374263 33.2010108,45.4206806 L35.3017062,42.0862725 L33.5868678,40.3155235 L30.686319,45.0659054 C30.0042731,45.6194797 29.8439413,46.5956391 30.3130849,47.3382934 C30.7822284,48.0809477 31.7326187,48.3554508 32.5254851,47.9773053 L32.5254851,47.9771214 Z" id="af1e2e82-f248-43bd-a869-489ddf745161" fill="#FFB6B6" fill-rule="nonzero" transform="translate(32.673346, 44.230969) scale(-1, 1) translate(-32.673346, -44.230969) "></path>
                        <path d="M32.7382554,27.0382159 L31.2332659,26.0465376 C31.2332659,26.0465376 30.0718325,26.3069635 28.8366486,28.6827982 C27.6014647,31.0586329 22.6202674,41.6805525 22.6202674,41.6805525 L24.6678109,43.7588101 L30.1301341,35.4257327 L32.7382554,27.0382159 Z" id="ed6195a6-5e50-4e12-8380-54bfefa6b2ae" fill="#3F3D56" fill-rule="nonzero" transform="translate(27.679261, 34.902674) scale(-1, 1) translate(-27.679261, -34.902674) "></path>
                    </g>
                </g>
            </g>
        </g>
    </g>
</svg>